<svg width="191" height="229" viewBox="0 0 191 229" fill="none" xmlns="http://www.w3.org/2000/svg">
<g filter="url(#filter0_f_233_1322)">
<ellipse cx="95.0574" cy="216.279" rx="30.0193" ry="10.7212" fill="black" fill-opacity="0.2"/>
</g>
<g filter="url(#filter1_d_233_1322)">
<path fill-rule="evenodd" clip-rule="evenodd" d="M95.0578 4C144.795 4 185.116 44.3204 185.116 94.0582C185.116 132.194 161.412 164.793 127.935 177.927L100.187 215.854C99.6088 216.648 98.8407 217.296 97.948 217.743C97.0552 218.191 96.0639 218.424 95.0578 218.424C94.0518 218.424 93.0605 218.191 92.1677 217.743C91.2749 217.296 90.5069 216.648 89.9284 215.854L62.181 177.927C28.7035 164.793 5 132.194 5 94.0582C5 44.3204 45.3203 4 95.0578 4Z" fill="white"/>
</g>
<g clip-path="url(#clip0_233_1322)">
<path d="M18 17C69.15 17 120.3 17 173 17C173 68.15 173 119.3 173 172C121.85 172 70.7 172 18 172C18 120.85 18 69.7 18 17Z" fill="#92989A"/>
<path d="M115.03 50.1704C115.021 50.4621 115.013 50.7538 115.004 51.0543C114.725 58.7257 114.725 58.7257 118.204 65.2959C119.319 66.695 120.224 68.244 121.172 69.7586C121.595 70.4221 122.019 71.0853 122.444 71.7481C123.273 73.046 124.101 74.3449 124.927 75.6449C125.12 75.9491 125.313 76.2534 125.512 76.5668C125.874 77.1357 126.235 77.7048 126.595 78.2741C126.759 78.533 126.924 78.7918 127.093 79.0585C127.234 79.2803 127.374 79.5021 127.519 79.7306C128.007 80.5238 128.007 80.5238 128.501 81.0766C130.227 83.2502 130.163 85.3345 130.121 88.0111C130.12 88.4788 130.121 88.9465 130.122 89.4142C130.122 90.6765 130.111 91.9385 130.098 93.2008C130.087 94.5227 130.086 95.8445 130.083 97.1664C130.078 99.6663 130.062 102.166 130.044 104.666C130.023 107.513 130.013 110.361 130.003 113.208C129.984 119.062 129.951 124.916 129.91 130.77C127.788 131.382 125.654 131.871 123.497 132.34C123.286 132.386 123.075 132.432 122.858 132.479C118.621 133.404 114.373 134.272 110.123 135.133C107.145 135.737 104.169 136.344 101.202 136.999C100.972 137.05 100.743 137.101 100.506 137.153C99.4499 137.387 98.3939 137.624 97.3385 137.863C96.9703 137.946 96.602 138.029 96.2226 138.114C95.9085 138.185 95.5943 138.257 95.2706 138.33C94.4431 138.486 93.6375 138.597 92.8015 138.687C92.5517 138.714 92.3019 138.741 92.0445 138.769C91.76 138.8 91.76 138.8 91.4697 138.83C91.4727 138.591 91.4757 138.351 91.4787 138.104C91.5499 132.231 91.5927 126.359 91.6054 120.485C91.6122 117.645 91.6281 114.805 91.6663 111.964C91.6997 109.484 91.715 107.005 91.7098 104.524C91.7076 103.214 91.7137 101.906 91.7415 100.597C91.884 93.5449 90.9019 88.9199 86.8448 83.0591C85.7536 81.4376 84.8111 79.7357 83.8553 78.0317C82.7122 76.0073 81.5614 74.0303 80.2249 72.1259C76.4067 66.4942 76.3416 61.6964 76.8997 55.1304C81.6957 54.3817 86.497 53.7249 91.3147 53.1348C96.0559 52.5538 100.786 51.9157 105.512 51.2254C106.515 51.0792 107.517 50.9345 108.52 50.7904C108.729 50.7603 108.938 50.7303 109.154 50.6993C109.782 50.6099 110.409 50.5225 111.037 50.4356C111.403 50.3845 111.768 50.3335 112.145 50.2808C113.116 50.1762 114.054 50.1501 115.03 50.1704Z" fill="#FBFBFB"/>
<path d="M75.35 65.9805C76.5608 66.384 76.6664 66.8133 77.2815 67.9143C77.4767 68.2603 77.672 68.6063 77.8732 68.9627C78.0849 69.3442 78.2965 69.7258 78.5082 70.1073C78.7292 70.5008 78.9506 70.894 79.1722 71.2871C79.6335 72.1058 80.0934 72.9252 80.5524 73.7452C81.6099 75.6325 82.6848 77.5099 83.7588 79.388C84.0298 79.8641 84.0298 79.8641 84.3064 80.3498C84.5832 80.8352 84.5832 80.8352 84.8656 81.3303C85.0514 81.668 85.2372 82.0058 85.4286 82.3537C85.9822 83.3239 86.6028 84.2127 87.2648 85.1119C91.04 90.4883 91.1349 95.1765 90.9801 101.485C90.9525 102.803 90.9504 104.121 90.9452 105.439C90.9319 107.923 90.8965 110.406 90.8526 112.889C90.8037 115.721 90.7801 118.554 90.7584 121.386C90.7134 127.201 90.6373 133.016 90.54 138.83C88.7746 138.319 87.0438 137.781 85.3368 137.094C85.1498 137.02 84.9627 136.945 84.77 136.868C84.162 136.624 83.5547 136.379 82.9475 136.134C82.515 135.96 82.0825 135.787 81.65 135.613C80.5154 135.158 79.3815 134.702 78.2478 134.245C77.1143 133.788 75.9803 133.333 74.8463 132.878C73.3601 132.281 71.8741 131.684 70.3885 131.086C67.291 129.839 64.1907 128.6 61.09 127.36C61.0175 121.144 60.9629 114.927 60.9294 108.71C60.9134 105.823 60.8917 102.937 60.8562 100.05C60.8252 97.5334 60.8053 95.0169 60.7984 92.5C60.7943 91.1678 60.7849 89.8361 60.7623 88.5041C60.7411 87.2488 60.7348 85.9942 60.7394 84.7386C60.7385 84.2794 60.7324 83.8201 60.7205 83.3609C60.635 79.9001 60.635 79.9001 61.7589 78.4439C62.5377 77.74 63.3388 77.1331 64.19 76.5205C64.6247 76.1028 65.0525 75.6777 65.4688 75.2417C66.4476 74.2471 67.4722 73.3318 68.53 72.4227C69.3933 71.6538 70.1945 70.8291 71.0052 70.0056C71.8256 69.1979 72.6902 68.4493 73.5627 67.6988C74.1874 67.1529 74.7756 66.5789 75.35 65.9805Z" fill="#FCFCFC"/>
<path d="M64.5 96.9805C70.2068 99.1205 70.2068 99.1205 72.078 99.8734C72.2957 99.9605 72.5133 100.048 72.7375 100.137C73.1902 100.319 73.6427 100.5 74.0952 100.682C74.7618 100.95 75.4289 101.217 76.0959 101.483C79.7818 102.961 83.4545 104.467 87.13 105.97C87.13 114.564 87.13 123.157 87.13 132.01C81.8274 129.971 76.5434 127.91 71.2812 125.772C69.0434 124.864 66.8056 123.956 64.5 123.02C64.5 114.427 64.5 105.834 64.5 96.9805Z" fill="#92989A"/>
<path d="M106.97 101.63C106.97 105.21 106.97 108.791 106.97 112.48C106.459 112.48 105.947 112.48 105.42 112.48C105.318 110.638 105.216 108.797 105.11 106.9C104.803 108.332 104.497 109.764 104.18 111.24C103.771 111.24 103.362 111.24 102.94 111.24C102.633 109.91 102.327 108.58 102.01 107.21C101.908 109.256 101.806 111.302 101.7 113.41C101.189 113.41 100.677 113.41 100.15 113.41C100.15 109.932 100.15 106.453 100.15 102.87C101.225 102.716 101.225 102.716 102.32 102.56C102.771 104.106 103.169 105.644 103.56 107.21C103.97 105.471 104.379 103.732 104.8 101.94C106.04 101.63 106.04 101.63 106.97 101.63Z" fill="#92989A"/>
<path d="M121.23 98.5303C121.742 98.5303 122.253 98.5303 122.78 98.5303C122.473 99.5228 122.165 100.382 121.637 101.282C120.851 103.154 121.511 104.711 122.199 106.513C122.373 106.932 122.373 106.932 122.55 107.36C122.796 108.193 122.766 108.578 122.47 109.38C122.061 109.38 121.652 109.38 121.23 109.38C121.022 108.884 120.815 108.386 120.61 107.888C120.495 107.611 120.38 107.335 120.261 107.049C119.99 106.28 119.99 106.28 119.99 105.35C119.786 105.35 119.581 105.35 119.37 105.35C119.268 106.885 119.166 108.419 119.06 110C118.139 110.154 118.139 110.154 117.2 110.31C117.2 106.73 117.2 103.149 117.2 99.4603C117.814 99.358 118.428 99.2557 119.06 99.1503C119.162 100.276 119.265 101.401 119.37 102.56C119.984 101.23 120.598 99.9005 121.23 98.5303Z" fill="#92989A"/>
<path d="M112.24 100.39C112.752 100.39 113.263 100.39 113.79 100.39C113.893 103.254 113.995 106.118 114.1 109.07C115.328 108.916 115.328 108.916 116.58 108.76C116.593 109.276 116.593 109.793 116.58 110.31C115.534 111.356 113.703 111.015 112.24 111.24C112.24 107.659 112.24 104.079 112.24 100.39Z" fill="#92989A"/>
<path d="M108.83 101.01C109.342 101.01 109.853 101.01 110.38 101.01C110.38 104.488 110.38 107.966 110.38 111.55C109.613 111.703 109.613 111.703 108.83 111.86C108.83 108.279 108.83 104.699 108.83 101.01Z" fill="#92989A"/>
</g>
<defs>
<filter id="filter0_f_233_1322" x="63.0381" y="203.558" width="64.0381" height="25.4424" filterUnits="userSpaceOnUse" color-interpolation-filters="sRGB">
<feFlood flood-opacity="0" result="BackgroundImageFix"/>
<feBlend mode="normal" in="SourceGraphic" in2="BackgroundImageFix" result="shape"/>
<feGaussianBlur stdDeviation="1" result="effect1_foregroundBlur_233_1322"/>
</filter>
<filter id="filter1_d_233_1322" x="0" y="0" width="190.115" height="224.424" filterUnits="userSpaceOnUse" color-interpolation-filters="sRGB">
<feFlood flood-opacity="0" result="BackgroundImageFix"/>
<feColorMatrix in="SourceAlpha" type="matrix" values="0 0 0 0 0 0 0 0 0 0 0 0 0 0 0 0 0 0 127 0" result="hardAlpha"/>
<feOffset dy="1"/>
<feGaussianBlur stdDeviation="2.5"/>
<feComposite in2="hardAlpha" operator="out"/>
<feColorMatrix type="matrix" values="0 0 0 0 0 0 0 0 0 0 0 0 0 0 0 0 0 0 0.1 0"/>
<feBlend mode="normal" in2="BackgroundImageFix" result="effect1_dropShadow_233_1322"/>
<feBlend mode="normal" in="SourceGraphic" in2="effect1_dropShadow_233_1322" result="shape"/>
</filter>
<clipPath id="clip0_233_1322">
<rect x="18" y="17" width="155" height="155" rx="77.5" fill="white"/>
</clipPath>
</defs>
</svg>
