<svg width="191" height="229" viewBox="0 0 191 229" fill="none" xmlns="http://www.w3.org/2000/svg">
<g filter="url(#filter0_f_233_1308)">
<ellipse cx="95.0574" cy="216.279" rx="30.0193" ry="10.7212" fill="black" fill-opacity="0.2"/>
</g>
<g filter="url(#filter1_d_233_1308)">
<path fill-rule="evenodd" clip-rule="evenodd" d="M95.0578 4C144.795 4 185.116 44.3204 185.116 94.0582C185.116 132.194 161.412 164.793 127.935 177.927L100.187 215.854C99.6088 216.648 98.8407 217.296 97.948 217.743C97.0552 218.191 96.0639 218.424 95.0578 218.424C94.0518 218.424 93.0605 218.191 92.1677 217.743C91.2749 217.296 90.5069 216.648 89.9284 215.854L62.181 177.927C28.7035 164.793 5 132.194 5 94.0582C5 44.3204 45.3203 4 95.0578 4Z" fill="white"/>
</g>
<g clip-path="url(#clip0_233_1308)">
<path d="M18 16C69.15 16 120.3 16 173 16C173 67.15 173 118.3 173 171C121.85 171 70.7 171 18 171C18 119.85 18 68.7 18 16Z" fill="#914F3B"/>
<path d="M94.9385 54.3817C95.2496 54.3779 95.5607 54.3741 95.8812 54.3702C102.539 54.3572 107.835 57.7972 112.426 62.3629C119.1 69.223 123.185 78.3727 125.26 87.6098C125.504 88.5366 125.75 89.4626 126 90.3877C126.55 93.1124 126.567 95.8759 126.575 98.6465C126.578 99.2865 126.587 99.9263 126.597 100.566C126.628 104.44 125.993 108.112 124.737 111.79C124.659 112.021 124.58 112.253 124.499 112.491C123.192 116.185 121.325 119.368 118.75 122.33C118.613 122.512 118.475 122.693 118.334 122.881C115.6 126.423 111.589 128.596 107.59 130.39C107.317 130.52 107.044 130.65 106.762 130.785C100.035 133.787 91.0808 133.279 84.2798 130.868C80.9476 129.563 78.0474 127.781 75.3503 125.43C75.1577 125.278 74.9651 125.126 74.7667 124.97C68.982 120.352 65.8548 112.532 64.6166 105.405C64.4215 103.611 64.4427 101.804 64.4429 100.002C64.4422 99.3793 64.4365 98.7564 64.4307 98.1334C64.4247 94.0603 64.9072 90.165 65.9728 86.2342C66.0955 85.7761 66.0955 85.7761 66.2207 85.3087C69.3378 73.9444 75.5732 62.7368 85.9586 56.6057C88.9846 54.9279 91.5388 54.3838 94.9385 54.3817Z" fill="#FEFEFE"/>
</g>
<defs>
<filter id="filter0_f_233_1308" x="63.0381" y="203.558" width="64.0381" height="25.4424" filterUnits="userSpaceOnUse" color-interpolation-filters="sRGB">
<feFlood flood-opacity="0" result="BackgroundImageFix"/>
<feBlend mode="normal" in="SourceGraphic" in2="BackgroundImageFix" result="shape"/>
<feGaussianBlur stdDeviation="1" result="effect1_foregroundBlur_233_1308"/>
</filter>
<filter id="filter1_d_233_1308" x="0" y="0" width="190.115" height="224.424" filterUnits="userSpaceOnUse" color-interpolation-filters="sRGB">
<feFlood flood-opacity="0" result="BackgroundImageFix"/>
<feColorMatrix in="SourceAlpha" type="matrix" values="0 0 0 0 0 0 0 0 0 0 0 0 0 0 0 0 0 0 127 0" result="hardAlpha"/>
<feOffset dy="1"/>
<feGaussianBlur stdDeviation="2.5"/>
<feComposite in2="hardAlpha" operator="out"/>
<feColorMatrix type="matrix" values="0 0 0 0 0 0 0 0 0 0 0 0 0 0 0 0 0 0 0.1 0"/>
<feBlend mode="normal" in2="BackgroundImageFix" result="effect1_dropShadow_233_1308"/>
<feBlend mode="normal" in="SourceGraphic" in2="effect1_dropShadow_233_1308" result="shape"/>
</filter>
<clipPath id="clip0_233_1308">
<rect x="18" y="16" width="155" height="155" rx="77.5" fill="white"/>
</clipPath>
</defs>
</svg>
