<svg width="191" height="229" viewBox="0 0 191 229" fill="none" xmlns="http://www.w3.org/2000/svg">
<g filter="url(#filter0_f_233_1336)">
<ellipse cx="95.0574" cy="216.279" rx="30.0193" ry="10.7212" fill="black" fill-opacity="0.2"/>
</g>
<g filter="url(#filter1_d_233_1336)">
<path fill-rule="evenodd" clip-rule="evenodd" d="M95.0578 4C144.795 4 185.116 44.3204 185.116 94.0582C185.116 132.194 161.412 164.793 127.935 177.927L100.187 215.854C99.6088 216.648 98.8407 217.296 97.948 217.743C97.0552 218.191 96.0639 218.424 95.0578 218.424C94.0518 218.424 93.0605 218.191 92.1677 217.743C91.2749 217.296 90.5069 216.648 89.9284 215.854L62.181 177.927C28.7035 164.793 5 132.194 5 94.0582C5 44.3204 45.3203 4 95.0578 4Z" fill="white"/>
</g>
<g clip-path="url(#clip0_233_1336)">
<path d="M18 94.5813C18 51.7792 52.1167 16.5 94.9187 16.5C137.721 16.5 173 50.6167 173 93.4187C173 136.221 138.883 171.5 96.0813 171.5C53.2792 171.5 18 137.383 18 94.5813Z" fill="#606C38"/>
<path d="M139.773 67.3701C140.108 67.4145 140.108 67.4145 140.45 67.4597C140.428 67.6511 140.405 67.8426 140.382 68.0398C139.861 71.2953 139.861 71.2953 140.76 74.2797C140.897 76.0011 140.881 76.6423 139.83 77.9997C139.711 79.3604 139.683 79.9496 140.45 81.0997C140.553 82.7014 140.437 83.6507 139.83 85.1297C139.717 86.3782 139.731 87.1013 140.295 88.2297C140.865 89.3687 140.895 90.0689 140.76 91.3297C140.45 91.9497 140.14 92.5697 139.83 93.1897C139.734 94.2819 139.702 95.0638 140.14 96.0754C140.508 97.0663 140.543 97.8695 140.547 98.9247C140.552 99.2668 140.557 99.6089 140.563 99.9613C140.438 101.043 140.109 101.591 139.52 102.49C139.341 103.848 139.486 104.689 140.14 105.861C140.872 107.192 141.014 108.432 140.76 109.93C140.556 110.237 140.351 110.544 140.14 110.86C139.919 112.189 140.381 112.956 141.079 114.038C141.823 115.374 141.747 116.786 141.748 118.28C141.752 118.498 141.756 118.716 141.76 118.941C141.763 120.211 141.636 121.188 141.07 122.33C139.601 121.882 138.674 121.019 137.621 119.947C137.446 119.768 137.271 119.59 137.09 119.406C133.518 115.687 129.8 110.882 129.29 105.59C129.086 105.59 128.881 105.59 128.67 105.59C128.67 105.794 128.67 105.999 128.67 106.21C127.313 106.053 126.557 105.224 125.57 104.35C125.468 105.782 125.366 107.214 125.26 108.69C124.02 109 124.02 109 123.221 108.555C122.948 108.35 122.674 108.145 122.393 107.934C122.116 107.73 121.84 107.526 121.555 107.315C121.345 107.155 121.136 106.995 120.92 106.83C120.818 107.955 120.716 109.08 120.61 110.24C119.06 110.55 119.06 110.55 118.434 110.241C118.251 110.093 118.067 109.946 117.878 109.794C117.691 109.647 117.503 109.501 117.31 109.35C117.172 109.234 117.033 109.119 116.89 109C117.062 110.269 117.367 111.433 117.779 112.646C119.295 117.12 119.295 117.12 118.459 119.404C117.571 120.023 116.904 120.06 115.833 120.006C111.938 119.248 108.702 115.718 106.35 112.72C106.248 112.515 106.146 112.311 106.04 112.1C105.472 112.228 104.903 112.358 104.335 112.487C103.963 112.572 103.591 112.657 103.208 112.744C102.435 112.928 101.665 113.124 100.9 113.335C92.6623 115.578 83.7722 115.945 75.3501 114.58C75.6901 116.653 76.3366 118.177 77.4148 119.981C77.8318 120.783 78.0383 121.434 78.1401 122.33C77.8301 122.64 77.8301 122.64 76.9582 122.717C73.6326 122.662 70.2624 121.411 67.8035 119.17C66.5599 117.812 65.6415 116.264 65.1443 114.49C64.6822 112.843 64.3758 111.785 62.8762 110.861C62.0402 110.493 61.1856 110.183 60.3284 109.868C56.6546 108.497 53.1649 105.994 50.2401 103.42C49.9624 103.179 49.6847 102.939 49.3985 102.691C46.2793 99.9429 46.2793 99.9429 46.0745 98.3047C46.2289 97.0693 46.488 96.7314 47.4501 95.9797C47.2747 95.875 47.0993 95.7703 46.9185 95.6625C46.5774 95.4551 46.5774 95.4551 46.2295 95.2435C45.8896 95.0385 45.8896 95.0385 45.5429 94.8293C44.9701 94.4297 44.9701 94.4297 44.6601 93.8097C44.4784 91.5563 44.4784 91.5563 45.1651 90.7C50.8699 85.9633 60.8443 82.5203 68.2201 82.6497C68.2021 82.4092 68.1841 82.1686 68.1656 81.9207C67.9834 77.5578 69.4545 74.1741 72.2501 70.8697C72.4028 70.6855 72.5554 70.5013 72.7127 70.3115C73.1801 69.9397 73.1801 69.9397 74.4201 69.9397C74.54 70.2091 74.6599 70.4784 74.7834 70.7559C76.1642 74.2381 76.1642 74.2381 78.7601 76.7597C80.0671 76.8372 81.3772 76.7197 82.6805 76.6144C83.491 76.5807 84.1703 76.5705 84.9601 76.7597C85.4885 77.2824 85.8184 77.8021 86.1875 78.445C86.4824 79.0089 86.4824 79.0089 87.2173 79.0896C87.4443 79.0624 87.6712 79.0352 87.9051 79.0072C88.6329 79.0218 88.6329 79.0218 89.3001 79.2397C89.8637 80.0926 90.2032 80.9237 90.5486 81.8844C90.7698 82.6959 90.7698 82.6959 91.4701 82.9597C91.5277 82.7104 91.5852 82.461 91.6445 82.2041C92.763 79.4322 94.6779 77.7 97.3601 76.4497C98.4064 76.101 98.4064 76.101 99.2201 76.1397C99.9757 76.5466 99.9757 76.5466 100.46 77.3797C100.487 78.4315 100.308 79.4421 100.15 80.4797C100.088 81.1123 100.03 81.7452 99.9757 82.3785C99.9498 82.667 99.9238 82.9555 99.897 83.2528C99.8782 83.463 99.8595 83.6732 99.8401 83.8897C100.121 83.6851 100.403 83.4805 100.693 83.2697C101.7 82.6497 101.7 82.6497 102.94 82.6497C103.554 84.1842 103.554 84.1842 104.18 85.7497C104.431 85.6119 104.681 85.474 104.939 85.332C105.271 85.1565 105.602 84.9811 105.943 84.8004C106.271 84.6241 106.598 84.4479 106.935 84.2663C107.9 83.8897 107.9 83.8897 109.45 84.1997C109.757 85.8877 109.757 85.8877 110.07 87.6097C110.324 87.4271 110.578 87.2445 110.84 87.0563C111.174 86.8234 111.508 86.5904 111.853 86.3504C112.183 86.1166 112.514 85.8828 112.855 85.642C113.79 85.1297 113.79 85.1297 114.478 85.1104C115.282 85.5897 115.498 86.1661 115.883 87.0091C116.015 87.294 116.148 87.5789 116.285 87.8725C116.382 88.0927 116.48 88.3129 116.58 88.5397C116.745 88.3607 116.909 88.1817 117.079 87.9972C117.298 87.7671 117.517 87.5369 117.743 87.2997C117.958 87.0696 118.174 86.8394 118.397 86.6022C119.06 86.0597 119.06 86.0597 120.3 86.0597C120.828 86.5804 120.828 86.5804 121.308 87.261C121.469 87.484 121.63 87.7069 121.797 87.9367C122.16 88.5397 122.16 88.5397 122.16 89.1597C123.4 88.2388 124.306 87.2596 125.26 86.0597C126.314 86.4959 126.777 86.9986 127.43 87.9197C127.509 87.5643 127.509 87.5643 127.59 87.2016C127.84 86.0961 128.1 84.9929 128.36 83.8897C128.49 83.3149 128.49 83.3149 128.622 82.7284C129.794 77.871 132.157 74.462 135.49 70.8697C135.726 70.6111 135.726 70.6111 135.966 70.3472C136.416 69.8572 136.871 69.3741 137.331 68.8935C137.596 68.6161 137.861 68.3388 138.134 68.0531C138.9 67.4597 138.9 67.4597 139.773 67.3701Z" fill="#F2F2F2"/>
<path d="M53.4946 90.2647C56.1899 91.0801 58.7896 90.9855 61.4081 89.9923C63.2147 89.3662 64.9207 89.835 66.6139 90.5735C67.6089 91.2314 67.8581 91.8613 68.1167 93.0039C68.6972 97.5524 67.563 101.493 65.2407 105.371C64.7152 106.237 64.7152 106.237 64.8096 107.45C65.1165 107.45 65.4234 107.45 65.7396 107.45C66.1408 106.656 66.5411 105.862 66.9409 105.067C67.054 104.844 67.1671 104.62 67.2836 104.39C67.8532 103.256 68.3937 102.13 68.8396 100.94C69.1338 101.209 69.4279 101.477 69.7309 101.754C71.938 103.65 74.0998 105.002 77.0425 105.014C77.4382 105.02 77.8338 105.026 78.2414 105.032C78.8686 105.041 79.4955 105.048 80.1229 105.048C80.7301 105.049 81.3373 105.06 81.9444 105.072C82.307 105.075 82.6696 105.078 83.0432 105.081C84.5939 105.394 85.2599 106.378 86.1415 107.625C87.0353 108.621 88.0391 109.18 89.2996 109.62C89.7088 109.62 90.118 109.62 90.5396 109.62C90.5442 109.424 90.5487 109.227 90.5533 109.025C90.7667 100.721 90.7667 100.721 92.3028 97.7628C92.8782 96.5571 92.8405 95.7606 92.7096 94.4303C91.659 92.9833 89.7114 92.8618 88.0597 92.5703C86.7322 92.4434 85.4207 92.4229 84.0878 92.4347C83.5478 92.4366 83.5478 92.4366 82.9969 92.4384C79.6942 92.4922 76.55 93.0029 73.3234 93.6685C72.1441 93.8875 70.9633 94.0053 69.7696 94.1203C69.1109 92.6866 69.1109 92.6866 69.4596 91.6403C69.6395 91.6511 69.8193 91.6619 70.0046 91.673C71.6728 91.7308 72.6167 91.5066 74.1096 90.7103C75.0665 90.6147 75.6927 90.5608 76.5461 91.0216C78.193 91.7879 80.3176 91.4368 82.034 91.0203C85.8998 90.1661 89.8577 90.6486 93.6396 91.6403C94.1339 91.7622 94.6284 91.8832 95.123 92.0036C97.1519 92.5002 99.1776 93.0079 101.193 93.5548C101.401 93.6112 101.609 93.6676 101.823 93.7257C102.375 93.8766 102.927 94.0299 103.479 94.1833C105.727 94.7327 107.871 94.786 110.177 94.7815C110.515 94.7818 110.853 94.7821 111.2 94.7824C111.913 94.7826 112.627 94.7821 113.34 94.7808C114.418 94.7791 115.496 94.7807 116.574 94.7827C119.712 94.7836 122.825 94.7694 125.952 94.4994C127.157 94.4024 128.353 94.3953 129.561 94.411C129.778 94.4124 129.995 94.4138 130.218 94.4152C130.736 94.4187 131.253 94.4243 131.77 94.4303C131.872 94.7372 131.974 95.0441 132.08 95.3603C131.099 96.7482 129.972 97.7312 128.573 98.6928C128.384 98.8248 128.194 98.9567 127.999 99.0926C127.399 99.5068 126.796 99.9147 126.19 100.32C125.907 100.51 125.907 100.51 125.619 100.703C119.678 104.646 113.385 107.597 106.66 109.93C106.221 110.087 105.782 110.245 105.343 110.403C102.518 111.389 99.6682 112.124 96.7397 112.72C96.4066 112.791 96.4066 112.791 96.0668 112.864C88.8993 114.341 80.9526 114.174 73.7996 112.72C73.5332 112.669 73.2668 112.617 72.9923 112.564C63.6601 110.72 55.7786 106.243 48.6896 100.01C48.4978 99.8557 48.306 99.701 48.1084 99.5417C47.7596 99.0803 47.7596 99.0803 47.7596 97.5303C48.6803 97.0188 49.601 96.5073 50.5496 95.9803C50.5496 95.6734 50.5496 95.3665 50.5496 95.0503C50.1966 94.9604 50.1966 94.9604 49.8364 94.8687C49.5283 94.788 49.2202 94.7073 48.9028 94.6241C48.4442 94.5054 48.4442 94.5054 47.9764 94.3843C47.1396 94.1203 47.1396 94.1203 46.2096 93.5003C45.9965 92.7835 45.9965 92.7835 46.2096 91.9503C46.9701 91.3101 47.8133 90.8631 48.6896 90.4003C49.0157 90.2085 49.3418 90.0167 49.6778 89.8191C51.0594 89.2664 52.144 89.786 53.4946 90.2647Z" fill="#606C38"/>
<path d="M138.28 70.25C138.728 71.1454 138.582 71.9644 138.541 72.9504C138.596 73.7452 138.833 74.2067 139.21 74.9C139.307 75.675 139.307 75.675 139.21 76.45C138.98 76.7185 138.98 76.7185 138.745 76.9925C138.03 78.0652 138.102 79.2242 138.28 80.48C138.485 80.7869 138.689 81.0938 138.9 81.41C138.904 82.0784 138.904 82.0784 138.803 82.805C138.757 83.1646 138.757 83.1646 138.71 83.5316C138.59 84.2 138.59 84.2 138.28 85.13C138.161 86.9544 138.357 87.8345 139.21 89.47C139.327 90.4387 139.327 90.4387 139.21 91.33C139.057 91.5154 138.903 91.7008 138.745 91.8919C138.005 92.9715 138.144 94.0896 138.28 95.36C138.383 95.6605 138.485 95.961 138.59 96.2706C139.143 97.9641 139.212 99.6704 138.435 101.289C138.205 101.73 138.205 101.73 137.97 102.18C137.756 104.048 138.12 105.108 138.932 106.776C139.337 107.756 139.335 108.577 139.21 109.62C139.006 109.927 138.801 110.234 138.59 110.55C138.387 112 138.584 112.79 139.365 113.979C140.501 115.823 140.274 117.755 140.14 119.85C134.709 115.626 130.483 108.742 129.6 101.87C129.524 101.506 129.447 101.141 129.368 100.766C129.711 99.1933 130.736 98.5483 131.962 97.5651C132.908 96.7257 133.265 96.122 133.417 94.8756C133.38 94.1219 133.38 94.1219 132.967 93.6126C131.385 92.4533 128.158 93.1776 126.254 93.3032C122.693 93.5318 119.134 93.5682 115.567 93.5745C114.526 93.5775 113.485 93.5872 112.444 93.5969C107.085 93.6231 102.5 92.8688 97.3603 91.33C96.3928 91.0477 95.4237 90.7714 94.454 90.4969C94.2255 90.4304 93.997 90.3639 93.7615 90.2954C89.6352 89.1291 85.4055 89.2221 81.2124 89.9495C79.2666 90.2525 77.7871 90.235 75.9703 89.47C74.7308 89.3573 74.0256 89.3448 72.9284 89.9544C71.159 90.7523 69.5653 90.341 67.7734 89.7207C67.2178 89.5103 67.2178 89.5103 66.6509 89.2956C64.3381 88.4321 62.7009 88.1405 60.3734 89.005C57.9816 89.8888 55.4013 89.7122 53.0303 88.85C53.0303 88.6454 53.0303 88.4408 53.0303 88.23C59.4088 85.5519 65.0434 84.1339 71.979 84.1419C72.3549 84.1418 72.3549 84.1418 72.7383 84.1418C76.297 84.1456 79.8396 84.242 83.3909 84.4713C83.768 84.4956 84.1451 84.5199 84.5336 84.5449C87.074 84.7282 89.5737 85.05 92.0903 85.44C92.1637 85.126 92.1637 85.126 92.2387 84.8057C93.0014 81.6811 94.6834 79.7225 97.3554 77.9988C97.9803 77.69 97.9803 77.69 98.9103 77.69C98.8879 77.901 98.8655 78.112 98.8425 78.3294C98.5852 81.0164 98.5695 83.6744 98.6003 86.37C98.7593 86.4156 98.9184 86.4611 99.0822 86.508C100.386 86.8898 101.68 87.289 102.963 87.7323C106.117 88.8198 109.265 89.7886 112.55 90.4C112.848 90.4561 113.147 90.5122 113.454 90.57C116.709 91.1112 119.916 91.0908 123.207 91.0588C123.769 91.0556 124.332 91.0528 124.895 91.0503C126.257 91.0435 127.618 91.0329 128.98 91.02C129.01 90.7185 129.01 90.7185 129.041 90.4108C129.901 82.0758 132.209 76.1502 138.28 70.25Z" fill="#606C38"/>
<path d="M90.8502 94.4297C91.1571 94.7366 91.1571 94.7366 91.4702 95.0497C91.3978 96.751 90.8274 98.2003 90.2266 99.782C89.8302 100.879 89.5575 101.973 89.3002 103.11C89.072 102.983 88.8438 102.856 88.6087 102.725C88.3062 102.558 88.0037 102.391 87.6921 102.218C87.3936 102.053 87.0951 101.888 86.7875 101.717C85.3426 100.964 84.2323 100.555 82.5916 100.534C82.0935 100.522 82.0935 100.522 81.5853 100.51C80.8951 100.5 80.2049 100.49 79.5146 100.481C76.5425 100.408 74.2839 100.078 72.0758 97.9559C71.8133 97.7089 71.5507 97.462 71.2802 97.2075C70.7002 96.5997 70.7002 96.5997 70.7002 96.2897C73.8632 96.1503 76.5686 96.3167 79.6054 97.233C80.7813 97.5767 81.8828 97.7403 83.1002 97.8397C82.9467 97.3793 82.9467 97.3793 82.7902 96.9097C81.9519 96.5892 81.153 96.3308 80.2908 96.0959C79.9471 95.9952 79.9471 95.9952 79.5963 95.8925C78.0802 95.4627 76.6076 95.2098 75.0402 95.0497C79.1184 92.7052 86.4063 93.4408 90.8502 94.4297Z" fill="#606C38"/>
<path d="M73.1803 72.1104C74.0978 72.5691 74.2179 73.258 74.6334 74.1835C75.5547 76.0849 76.5208 77.3456 78.4503 78.3104C79.6152 78.277 80.778 78.2409 81.9408 78.162C83.7954 78.1058 83.7954 78.1058 84.5034 78.7224C84.8697 79.1995 85.2254 79.6847 85.5803 80.1704C86.2951 80.4175 86.2951 80.4175 87.014 80.4222C87.7418 80.5324 87.7418 80.5324 88.3703 80.7904C88.8943 81.6791 89.1194 82.5698 89.3003 83.5804C88.6543 83.5365 88.0085 83.491 87.3628 83.4447C87.0031 83.4196 86.6435 83.3944 86.2729 83.3684C85.4842 83.2913 84.7868 83.1832 84.0303 82.9604C83.8768 81.7328 83.8768 81.7328 83.7203 80.4804C83.4134 80.4804 83.1065 80.4804 82.7903 80.4804C82.688 81.2988 82.5857 82.1172 82.4803 82.9604C81.7642 82.9604 81.0481 82.9604 80.3103 82.9604C80.3103 82.0397 80.3103 81.119 80.3103 80.1704C79.9011 80.0681 79.4919 79.9658 79.0703 79.8604C78.968 80.7811 78.8657 81.7018 78.7603 82.6504C78.1465 82.6504 77.5327 82.6504 76.9003 82.6504C76.9003 81.3205 76.9003 79.9906 76.9003 78.6204C76.2865 78.9273 76.2865 78.9273 75.6603 79.2404C75.4421 80.0612 75.4421 80.0612 75.4278 80.9841C75.4102 81.295 75.3926 81.6059 75.3745 81.9262C75.3665 82.1652 75.3585 82.4041 75.3503 82.6504C74.5319 82.6504 73.7135 82.6504 72.8703 82.6504C72.9144 82.1142 72.9599 81.5782 73.0059 81.0422C73.0311 80.7437 73.0562 80.4452 73.0822 80.1377C73.1803 79.2404 73.1803 79.2404 73.3449 78.4266C73.5373 77.452 73.5097 76.5108 73.4903 75.5204C73.1834 75.5204 72.8765 75.5204 72.5603 75.5204C72.5204 75.7782 72.5204 75.7782 72.4798 76.0414C72.3587 76.8236 72.2367 77.6057 72.1146 78.3879C72.0729 78.6584 72.0311 78.9289 71.9881 79.2077C71.9471 79.4694 71.9062 79.7311 71.864 80.0008C71.8266 80.2411 71.7893 80.4814 71.7508 80.7289C71.6357 81.3793 71.4888 82.0119 71.3203 82.6504C70.8088 82.6504 70.2973 82.6504 69.7703 82.6504C69.4641 78.4325 70.7086 75.4739 73.1803 72.1104Z" fill="#606C38"/>
<path d="M69.4605 97.5303C69.6651 97.5303 69.8697 97.5303 70.0805 97.5303C70.2403 97.7477 70.4002 97.965 70.5648 98.189C72.1771 100.091 74.1298 101.161 76.5905 101.56C78.0216 101.671 79.4545 101.688 80.8893 101.709C82.7403 101.761 84.2134 102.01 85.8905 102.8C86.2166 102.951 86.5426 103.102 86.8786 103.257C87.7878 103.771 88.5517 104.239 89.3005 104.97C89.5844 106.059 89.5188 106.974 89.3005 108.07C87.9896 107.657 87.429 107.174 86.6461 106.055C85.945 105.058 85.4844 104.478 84.3405 104.04C83.36 103.952 83.36 103.952 82.2722 103.966C81.8678 103.961 81.4634 103.956 81.0467 103.951C80.4087 103.946 79.7709 103.943 79.1328 103.946C76.5329 103.949 74.5827 103.915 72.5605 102.18C72.391 102.052 72.2216 101.923 72.047 101.791C71.0302 100.998 70.1636 100.162 69.4605 99.0803C69.383 98.2084 69.383 98.2084 69.4605 97.5303Z" fill="#606C38"/>
<path d="M115.03 108.38C115.083 108.598 115.135 108.816 115.19 109.041C115.718 111.195 116.31 113.319 116.961 115.44C117.198 116.433 117.244 117.283 117.2 118.3C114.907 118.456 113.443 117.422 111.62 116.13C110.165 114.848 108.613 113.454 107.59 111.79C107.692 111.483 107.794 111.176 107.9 110.86C108.54 110.633 108.54 110.633 109.314 110.492C109.57 110.443 109.827 110.393 110.09 110.343C110.288 110.309 110.486 110.275 110.69 110.24C110.851 110.558 111.012 110.875 111.178 111.203C111.396 111.624 111.614 112.046 111.833 112.468C111.938 112.677 112.044 112.886 112.152 113.101C112.844 114.426 113.552 115.469 114.72 116.44C115.027 116.44 115.334 116.44 115.65 116.44C115.469 115.435 115.176 114.938 114.468 114.212C113.238 112.839 112.24 111.189 112.24 109.31C113.984 108.38 113.984 108.38 115.03 108.38Z" fill="#606C38"/>
<path d="M66.0498 112.1C67.1235 112.202 67.9288 112.444 68.8398 113.03C69.7448 114.407 70.3713 115.854 71.0098 117.37C71.2125 117.785 71.417 118.199 71.6298 118.61C72.039 118.61 72.4482 118.61 72.8698 118.61C72.7111 117.221 72.1817 116.58 71.3198 115.51C70.9323 114.483 70.9323 114.483 70.6998 113.65C71.6205 113.752 72.5412 113.854 73.4898 113.96C73.5729 114.254 73.656 114.548 73.7417 114.851C74.5732 117.859 74.5732 117.859 75.6598 120.78C72.6237 120.611 70.2275 119.377 68.1459 117.16C67.0473 115.711 66.0498 113.946 66.0498 112.1Z" fill="#606C38"/>
<path d="M75.9704 90.7102C76.3837 90.9169 76.7971 91.1236 77.2104 91.3302C78.0362 91.4753 78.8551 91.5567 79.6904 91.6402C79.6904 91.9471 79.6904 92.254 79.6904 92.5702C78.5605 92.7719 77.4302 92.9715 76.2998 93.1709C75.9831 93.2274 75.6664 93.284 75.3401 93.3422C73.4862 93.668 71.6437 93.9347 69.7704 94.1202C69.1117 92.6865 69.1117 92.6865 69.4604 91.6402C69.6402 91.651 69.8201 91.6618 70.0053 91.6729C72.2153 91.7495 73.8245 90.477 75.9704 90.7102Z" fill="#606C38"/>
<path d="M54.89 92.2598C55.8587 92.376 55.8587 92.376 56.75 92.5698C57.1618 94.2544 57.1618 94.2544 56.7112 95.0304C56.13 95.3598 56.13 95.3598 55.3356 95.3016C54.58 95.0498 54.58 95.0498 53.96 94.4298C54.0622 93.4076 54.153 92.9967 54.89 92.2598Z" fill="#EEEEEE"/>
<path d="M123.71 103.73C123.71 104.651 123.71 105.572 123.71 106.52C122.47 105.9 122.47 105.9 121.54 105.28C121.54 105.076 121.54 104.871 121.54 104.66C122.899 103.73 122.899 103.73 123.71 103.73Z" fill="#606C38"/>
<path d="M114.1 87.2998C114.553 88.1205 114.72 88.5071 114.72 89.4698C113.697 89.2652 112.674 89.0606 111.62 88.8498C113.12 87.2998 113.12 87.2998 114.1 87.2998Z" fill="#606C38"/>
<path d="M108.21 85.75C108.313 86.4661 108.415 87.1822 108.52 87.92C107.139 87.6131 107.139 87.6131 105.73 87.3C107.28 85.75 107.28 85.75 108.21 85.75Z" fill="#606C38"/>
<path d="M119.06 88.2305C119.367 88.2305 119.674 88.2305 119.99 88.2305C120.195 88.742 120.4 89.2535 120.61 89.7805C119.69 89.7805 118.769 89.7805 117.82 89.7805C118.382 89.0055 118.382 89.0055 119.06 88.2305Z" fill="#606C38"/>
<path d="M127.74 101.25C127.638 102.068 127.535 102.887 127.43 103.73C126.918 103.219 126.407 102.707 125.88 102.18C127.042 101.25 127.042 101.25 127.74 101.25Z" fill="#606C38"/>
<path d="M125.26 88.2305C125.465 88.2305 125.669 88.2305 125.88 88.2305C126.384 89.0055 126.384 89.0055 126.81 89.7805C125.992 89.7805 125.173 89.7805 124.33 89.7805C124.756 89.0055 124.756 89.0055 125.26 88.2305Z" fill="#606C38"/>
<path d="M119.06 106.52C119.06 107.133 119.06 107.747 119.06 108.38C118.285 107.953 118.285 107.953 117.51 107.45C117.51 107.245 117.51 107.04 117.51 106.83C118.13 106.52 118.13 106.52 119.06 106.52Z" fill="#606C38"/>
</g>
<defs>
<filter id="filter0_f_233_1336" x="63.0381" y="203.558" width="64.0381" height="25.4424" filterUnits="userSpaceOnUse" color-interpolation-filters="sRGB">
<feFlood flood-opacity="0" result="BackgroundImageFix"/>
<feBlend mode="normal" in="SourceGraphic" in2="BackgroundImageFix" result="shape"/>
<feGaussianBlur stdDeviation="1" result="effect1_foregroundBlur_233_1336"/>
</filter>
<filter id="filter1_d_233_1336" x="0" y="0" width="190.115" height="224.424" filterUnits="userSpaceOnUse" color-interpolation-filters="sRGB">
<feFlood flood-opacity="0" result="BackgroundImageFix"/>
<feColorMatrix in="SourceAlpha" type="matrix" values="0 0 0 0 0 0 0 0 0 0 0 0 0 0 0 0 0 0 127 0" result="hardAlpha"/>
<feOffset dy="1"/>
<feGaussianBlur stdDeviation="2.5"/>
<feComposite in2="hardAlpha" operator="out"/>
<feColorMatrix type="matrix" values="0 0 0 0 0 0 0 0 0 0 0 0 0 0 0 0 0 0 0.1 0"/>
<feBlend mode="normal" in2="BackgroundImageFix" result="effect1_dropShadow_233_1336"/>
<feBlend mode="normal" in="SourceGraphic" in2="effect1_dropShadow_233_1336" result="shape"/>
</filter>
<clipPath id="clip0_233_1336">
<rect x="18" y="16" width="155" height="155" rx="77.5" fill="white"/>
</clipPath>
</defs>
</svg>
