<svg width="191" height="229" viewBox="0 0 191 229" fill="none" xmlns="http://www.w3.org/2000/svg">
<g filter="url(#filter0_f_233_1222)">
<ellipse cx="95.0574" cy="216.279" rx="30.0193" ry="10.7212" fill="black" fill-opacity="0.2"/>
</g>
<g filter="url(#filter1_d_233_1222)">
<path fill-rule="evenodd" clip-rule="evenodd" d="M95.0578 4C144.795 4 185.116 44.3204 185.116 94.0582C185.116 132.194 161.412 164.793 127.935 177.927L100.187 215.854C99.6088 216.648 98.8407 217.296 97.948 217.743C97.0552 218.191 96.0639 218.424 95.0578 218.424C94.0518 218.424 93.0605 218.191 92.1677 217.743C91.2749 217.296 90.5069 216.648 89.9284 215.854L62.181 177.927C28.7035 164.793 5 132.194 5 94.0582C5 44.3204 45.3203 4 95.0578 4Z" fill="white"/>
</g>
<path d="M89.2344 16.6244C68.6628 17.8892 47.9796 28.6028 35.034 44.6732C20.0424 63.2732 14.2392 86.6348 18.9264 109.587C25.9572 143.811 55.122 169.293 89.718 171.339C112.708 172.716 134.023 164.829 149.684 149.094C185.173 113.493 178.589 54.7916 136.106 28.1192C128.146 23.1344 118.846 19.5632 108.541 17.5544C106.086 17.0708 95.3352 16.1408 94.0704 16.3268C93.8844 16.3268 91.6896 16.4756 89.2344 16.6244ZM85.2168 38.0516C89.3088 45.752 88.8252 52.6712 83.6544 61.1156L81.8688 64.0544L82.7244 68.3324C83.8032 73.6892 84.1752 74.6936 84.1752 72.35C84.2496 67.142 86.556 60.8552 89.5692 57.6188C91.4292 55.6472 95.0748 53.564 97.3812 53.192L98.832 52.9688L98.6088 56.8376C97.9392 67.6628 93.438 75.2516 86.556 77.2976C85.6632 77.558 84.9564 77.93 84.9564 78.1532C84.9564 78.7112 88.1556 91.1732 88.8252 93.2564L89.346 94.9304L89.3832 93.1448C89.4948 88.2344 91.4664 82.7288 94.2936 79.3808C96.5628 76.7396 103.891 71.8664 104.561 72.536C104.71 72.6848 104.821 74.6936 104.821 77C104.821 81.7244 104.189 84.5144 102.329 88.346C100.246 92.624 95.3724 96.6044 91.4292 97.2368C90.7224 97.3484 90.1644 97.5716 90.1644 97.7576C90.1644 98.9852 95.1864 112.005 97.0836 115.651L97.7904 117.027L97.6788 113.754C97.3812 107.02 99.2412 101.552 103.296 97.1252C105.119 95.1536 110.401 91.0244 111.145 91.0244C111.554 91.0244 112.112 95.1164 112.112 98.4272C112.112 107.355 107.872 115.204 101.51 118.032C100.171 118.627 99.0924 119.259 99.0924 119.445C99.0924 120.003 101.324 123.76 104.412 128.299C107.128 132.391 108.467 133.99 107.909 132.614C107.239 130.791 106.83 127.071 106.979 123.946C107.165 120.822 107.314 120.115 108.653 117.362C110.066 114.386 113.414 109.81 115.758 107.616L116.874 106.574L117.432 107.43C118.548 109.141 119.627 113.196 119.813 116.172C120.296 123.24 117.32 129.898 112.001 133.804C110.81 134.697 109.918 135.516 109.955 135.702C110.141 136.222 117.134 143.923 119.738 146.452L122.231 148.87L121.301 147.01C118.436 141.244 118.027 135.33 120.185 130.196C121.226 127.704 123.756 123.649 125.542 121.528L126.323 120.636L127.03 121.528C129.596 124.951 131.084 129.452 131.084 133.99C131.084 139.496 129.448 143.625 125.765 147.457L123.533 149.8L124.5 150.842C125.058 151.437 125.504 151.995 125.504 152.144C125.504 152.888 124.277 152.107 121.636 149.652L118.66 146.899L116.8 147.94C112.968 150.098 108.653 150.656 103.742 149.614C100.878 148.982 94.6656 146.08 91.8756 143.997L90.09 142.658L91.5036 141.765C94.8144 139.756 98.4228 138.529 101.659 138.343C105.677 138.12 107.983 138.678 111.48 140.649L114.307 142.249L110.885 138.306C108.988 136.111 107.053 133.804 106.532 133.098L105.602 131.87L103.184 132.726C96.3396 135.069 89.4204 132.726 81.72 125.472L78.8556 122.756L80.046 122.124C81.906 121.156 86.6676 120.04 88.8996 120.04C92.8056 120.04 96.6744 121.789 100.357 125.211L101.808 126.55L100.618 124.504C99.9852 123.388 98.5716 120.747 97.4928 118.627L95.5584 114.795L94.0704 115.093C91.5036 115.614 86.4072 115.428 84.2124 114.758C80.0832 113.456 74.8752 109.587 70.9692 104.826L68.9232 102.37L70.0392 101.924C70.6344 101.664 72.6804 101.254 74.5404 101.031C82.1664 100.064 86.928 102.222 92.7312 109.252C93.252 109.922 93.0288 108.992 91.8384 105.83C90.9456 103.412 89.5692 99.3944 88.8252 96.8648L87.486 92.252L85.3656 92.7356C82.65 93.4052 80.4924 93.368 77.5536 92.6984C73.4244 91.694 70.3368 89.7968 65.9472 85.4444C63.7524 83.2868 61.7808 81.1664 61.5576 80.6828C61.1856 79.9388 61.2228 79.8272 62.0412 79.5296C62.5248 79.3064 64.608 78.9716 66.6168 78.7112C69.4812 78.3392 70.8204 78.3392 72.5316 78.674C77.256 79.604 81.5712 82.58 84.8076 87.1556C85.7376 88.4576 86.556 89.5364 86.5932 89.5364C86.5932 89.5364 85.8492 86.3 84.882 82.3568C83.9148 78.4508 83.022 74.8796 82.9476 74.4704C82.7616 73.7636 82.4268 73.7264 78.558 73.7264C74.7264 73.6892 74.094 73.6148 71.49 72.536C69.9276 71.9036 67.584 70.6388 66.282 69.746C63.5292 67.7744 59.1768 63.2732 57.2796 60.4832C55.68 58.1024 55.68 58.1396 60.4044 57.7676C66.9144 57.2096 72.6432 59.3672 77.07 64.0172C78.4836 65.5424 80.1204 67.5512 80.6784 68.4812C81.2364 69.4484 81.7572 70.1552 81.8688 70.0808C81.9432 70.0064 81.6828 68.5184 81.3108 66.8072C80.8272 64.724 80.1948 63.0872 79.3764 61.8596C76.5492 57.7304 75.4332 52.0016 76.4376 47.054C77.2188 43.2596 82.092 34.592 83.208 34.964C83.4684 35.0384 84.3612 36.4148 85.2168 38.0516Z" fill="#DDA15E"/>
<defs>
<filter id="filter0_f_233_1222" x="63.0381" y="203.558" width="64.0381" height="25.4424" filterUnits="userSpaceOnUse" color-interpolation-filters="sRGB">
<feFlood flood-opacity="0" result="BackgroundImageFix"/>
<feBlend mode="normal" in="SourceGraphic" in2="BackgroundImageFix" result="shape"/>
<feGaussianBlur stdDeviation="1" result="effect1_foregroundBlur_233_1222"/>
</filter>
<filter id="filter1_d_233_1222" x="0" y="0" width="190.115" height="224.424" filterUnits="userSpaceOnUse" color-interpolation-filters="sRGB">
<feFlood flood-opacity="0" result="BackgroundImageFix"/>
<feColorMatrix in="SourceAlpha" type="matrix" values="0 0 0 0 0 0 0 0 0 0 0 0 0 0 0 0 0 0 127 0" result="hardAlpha"/>
<feOffset dy="1"/>
<feGaussianBlur stdDeviation="2.5"/>
<feComposite in2="hardAlpha" operator="out"/>
<feColorMatrix type="matrix" values="0 0 0 0 0 0 0 0 0 0 0 0 0 0 0 0 0 0 0.1 0"/>
<feBlend mode="normal" in2="BackgroundImageFix" result="effect1_dropShadow_233_1222"/>
<feBlend mode="normal" in="SourceGraphic" in2="effect1_dropShadow_233_1222" result="shape"/>
</filter>
</defs>
</svg>
