<svg width="191" height="229" viewBox="0 0 191 229" fill="none" xmlns="http://www.w3.org/2000/svg">
<g filter="url(#filter0_f_233_1262)">
<ellipse cx="95.0574" cy="216.279" rx="30.0193" ry="10.7212" fill="black" fill-opacity="0.2"/>
</g>
<g filter="url(#filter1_d_233_1262)">
<path fill-rule="evenodd" clip-rule="evenodd" d="M95.0578 4C144.795 4 185.116 44.3204 185.116 94.0582C185.116 132.194 161.412 164.793 127.935 177.927L100.187 215.854C99.6088 216.648 98.8407 217.296 97.948 217.743C97.0552 218.191 96.0639 218.424 95.0578 218.424C94.0518 218.424 93.0605 218.191 92.1677 217.743C91.2749 217.296 90.5069 216.648 89.9284 215.854L62.181 177.927C28.7035 164.793 5 132.194 5 94.0582C5 44.3204 45.3203 4 95.0578 4Z" fill="white"/>
</g>
<path d="M89.2335 16.4752C62.6355 18.6328 38.9763 33.9964 26.6259 57.172C15.1683 78.6736 14.2755 103.635 24.2079 125.843C35.8515 151.846 61.4079 169.628 89.7171 171.339C112.93 172.752 133.948 164.792 150.428 148.312C168.06 130.716 176.17 103.709 171.26 79.1572C164.712 46.6444 139.342 22.3156 106.606 17.182C102.812 16.624 92.8047 16.1776 89.2335 16.4752ZM60.1431 41.362C60.7011 42.7756 61.6683 44.6356 62.2635 45.454C64.7931 48.9136 64.6443 48.3556 63.7887 50.6248C62.1519 55.0516 62.0775 57.73 63.1935 70.75C63.8259 77.8924 64.2723 85.3324 64.2723 89.35L64.3095 96.046L63.0447 98.464C60.6639 103.04 55.7163 108.173 51.1035 110.814C46.6023 113.418 41.2455 114.014 35.7399 112.637C32.0571 111.67 30.1971 110.703 27.7791 108.396C21.9387 102.891 21.9387 94.2976 27.7791 85.3696C28.8207 83.77 29.7135 82.5424 29.7879 82.6168C29.8623 82.6912 29.3787 84.2908 28.7463 86.2252C27.8907 88.7548 27.5187 90.652 27.3699 93.1444C27.2211 96.3064 27.2583 96.7528 28.1511 98.5384C29.8623 101.998 34.1403 103.932 40.8735 104.304C49.7643 104.788 57.8739 101.44 59.2875 96.7156C59.5479 95.9344 59.8083 92.884 59.9199 89.908C60.2175 81.8728 58.8783 70.0804 55.7163 52.6336L54.4143 45.3052L56.5347 41.734C57.7251 39.7996 58.8039 38.3116 58.9155 38.4604C59.0643 38.6464 59.6223 39.9112 60.1431 41.362ZM105.49 51.5176C106.42 54.2704 106.866 58.6972 107.276 70.192C107.499 75.8092 107.834 81.7612 108.057 83.398C109.173 92.1772 111.479 96.6412 115.497 97.72C117.84 98.3524 128.889 98.278 132.237 97.6084C135.436 96.976 139.156 95.5252 141.239 94.1488C142.578 93.256 142.653 93.1444 142.02 92.7352C140.718 91.8424 133.725 89.2012 131.493 88.7548C126.396 87.7504 122.676 88.6432 118.473 91.8052C117.431 92.5864 116.576 93.07 116.576 92.884C116.576 92.1772 118.361 88.5316 119.886 86.1136C123.569 80.2732 127.512 78.2644 133.316 79.2688C136.701 79.864 138.412 80.608 146.373 84.7744C153.366 88.4572 155.152 89.0152 161.55 89.536C164.08 89.722 166.2 89.9452 166.312 90.0196C166.386 90.1312 165.196 92.14 163.634 94.4836L160.769 98.7616L155.338 98.9104L149.87 99.0592L142.43 101.552C130.898 105.42 126.992 106.313 121.04 106.536C116.501 106.722 115.794 106.648 113.823 105.904C111.442 104.974 108.801 102.816 107.424 100.622C104.895 96.6412 103.63 89.2756 103.295 77.1484C103.184 72.6844 102.923 68.9644 102.774 68.8528C102.44 68.6668 102.402 68.89 100.58 76.702C98.1243 87.3784 94.8135 95.86 91.5027 100.026C84.9927 108.21 72.0843 113.307 60.1803 112.414C56.4603 112.154 56.1999 111.893 58.7295 111.112C62.0403 110.07 68.6247 107.206 72.1215 105.234C83.9883 98.6128 92.5443 88.8664 96.0783 78.004C96.4875 76.6648 97.8639 71.0476 99.0915 65.542C101.249 55.9816 102.626 50.1412 103.035 49.0252C103.37 48.058 104.82 49.546 105.49 51.5176ZM69.0711 56.0932C73.9443 58.5856 77.8875 61.5988 81.1611 65.5048C83.5791 68.3692 86.3319 74.284 87.1875 78.4132C87.9315 81.91 88.2291 88.9036 87.6339 88.234C87.4479 88.0108 86.9271 86.7832 86.4435 85.444C85.0299 81.4636 82.9095 77.5576 81.1239 75.5488C79.2639 73.4656 77.2923 72.3124 72.7539 70.564C69.4059 69.262 67.7691 68.1088 66.8391 66.3232C65.7603 64.2772 65.4255 54.94 66.4299 54.94C66.6159 54.94 67.8063 55.4608 69.0711 56.0932ZM89.7915 143.364C89.7915 143.439 88.9359 143.476 87.8943 143.402L86.0343 143.29L84.9927 140.872L83.9883 138.454H80.6775H77.3667L76.3995 140.872C75.8043 142.323 75.1719 143.327 74.7999 143.402C74.4651 143.476 74.1675 143.327 74.1675 143.03C74.1675 142.546 80.9751 124.839 81.4587 124.058C81.6447 123.76 89.7915 142.658 89.7915 143.364ZM115.98 133.544C118.138 138.826 119.924 143.216 119.924 143.327C119.924 143.402 119.105 143.476 118.101 143.476H116.278L115.199 140.872L114.158 138.268L110.847 138.342L107.536 138.454L106.569 140.835C105.602 143.216 104.858 143.997 104.486 143.03C104.374 142.732 105.788 138.677 107.648 133.953C111.628 123.909 111.74 123.611 111.888 123.797C111.963 123.872 113.786 128.261 115.98 133.544ZM59.9571 128.484L60.0687 132.688H63.9375H67.8435V128.41V124.132H69.5175H71.1915V133.804V143.476H69.5175H67.8435V139.012V134.548H63.9375H60.0315V139.012V143.476H58.1715H56.3115V133.767V124.095L58.0971 124.206L59.8455 124.318L59.9571 128.484ZM95.8923 125.508C96.0039 126.29 96.1155 130.307 96.1155 134.436V141.988H99.8727C103.221 141.988 103.593 142.062 103.481 142.62C103.37 143.216 102.737 143.29 97.8639 143.402L92.3955 143.513V134.064C92.3955 128.856 92.5071 124.504 92.6559 124.392C92.7675 124.244 93.5115 124.132 94.2555 124.132C95.5575 124.132 95.6691 124.206 95.8923 125.508ZM125.987 129.228C126.136 132.018 126.248 136.036 126.248 138.156V141.988H130.005C133.353 141.988 133.725 142.062 133.613 142.62C133.502 143.216 132.869 143.29 127.996 143.402L122.528 143.513V134.064C122.528 128.856 122.639 124.504 122.788 124.392C122.9 124.244 123.644 124.132 124.388 124.132H125.764L125.987 129.228Z" fill="#283618"/>
<path d="M79.413 133.432C78.7806 135.106 78.2598 136.632 78.2598 136.818C78.2598 137.004 79.4502 137.152 80.8638 137.152C82.3146 137.152 83.4678 137.078 83.4678 136.966C83.4678 136.632 81.1242 131.014 80.8266 130.717C80.715 130.531 80.0454 131.758 79.413 133.432Z" fill="#283618"/>
<path d="M110.289 131.609C110.103 132.093 109.619 133.395 109.173 134.474C108.726 135.552 108.392 136.594 108.392 136.78C108.392 137.189 110.698 137.264 112.409 136.929L113.525 136.706L112.446 134.064C111.107 130.828 110.772 130.419 110.289 131.609Z" fill="#283618"/>
<defs>
<filter id="filter0_f_233_1262" x="63.0381" y="203.558" width="64.0381" height="25.4424" filterUnits="userSpaceOnUse" color-interpolation-filters="sRGB">
<feFlood flood-opacity="0" result="BackgroundImageFix"/>
<feBlend mode="normal" in="SourceGraphic" in2="BackgroundImageFix" result="shape"/>
<feGaussianBlur stdDeviation="1" result="effect1_foregroundBlur_233_1262"/>
</filter>
<filter id="filter1_d_233_1262" x="0" y="0" width="190.115" height="224.424" filterUnits="userSpaceOnUse" color-interpolation-filters="sRGB">
<feFlood flood-opacity="0" result="BackgroundImageFix"/>
<feColorMatrix in="SourceAlpha" type="matrix" values="0 0 0 0 0 0 0 0 0 0 0 0 0 0 0 0 0 0 127 0" result="hardAlpha"/>
<feOffset dy="1"/>
<feGaussianBlur stdDeviation="2.5"/>
<feComposite in2="hardAlpha" operator="out"/>
<feColorMatrix type="matrix" values="0 0 0 0 0 0 0 0 0 0 0 0 0 0 0 0 0 0 0.1 0"/>
<feBlend mode="normal" in2="BackgroundImageFix" result="effect1_dropShadow_233_1262"/>
<feBlend mode="normal" in="SourceGraphic" in2="effect1_dropShadow_233_1262" result="shape"/>
</filter>
</defs>
</svg>
