<svg width="191" height="229" viewBox="0 0 191 229" fill="none" xmlns="http://www.w3.org/2000/svg">
<g filter="url(#filter0_f_233_1268)">
<ellipse cx="95.0574" cy="216.279" rx="30.0193" ry="10.7212" fill="black" fill-opacity="0.2"/>
</g>
<g filter="url(#filter1_d_233_1268)">
<path fill-rule="evenodd" clip-rule="evenodd" d="M95.0578 4C144.795 4 185.116 44.3204 185.116 94.0582C185.116 132.194 161.412 164.793 127.935 177.927L100.187 215.854C99.6088 216.648 98.8407 217.296 97.948 217.743C97.0552 218.191 96.0639 218.424 95.0578 218.424C94.0518 218.424 93.0605 218.191 92.1677 217.743C91.2749 217.296 90.5069 216.648 89.9284 215.854L62.181 177.927C28.7035 164.793 5 132.194 5 94.0582C5 44.3204 45.3203 4 95.0578 4Z" fill="white"/>
</g>
<path d="M88.8935 16.3217C68.3219 17.5865 47.6387 28.3 34.6931 44.3705C19.7015 62.9705 13.8983 86.3321 18.5855 109.284C25.6163 143.508 54.7811 168.99 89.3771 171.036C112.367 172.413 133.682 164.526 149.344 148.791C184.832 113.19 178.248 54.4889 135.766 27.8165C127.805 22.8316 118.505 19.2605 108.2 17.2516C105.745 16.7681 94.9943 15.8381 93.7295 16.024C93.5435 16.024 91.3487 16.1729 88.8935 16.3217ZM77.6963 55.828C77.8079 56.3117 77.9567 61.3708 77.9939 67.0997C78.0683 72.8285 78.2543 77.7017 78.4031 77.9621C78.7379 78.4828 79.6307 77.9993 86.9219 73.312C89.8235 71.3777 94.1015 68.6621 96.3335 67.174C98.6027 65.7233 103.774 62.3753 107.866 59.7713L115.306 55.0097L128.14 55.0469C135.208 55.0469 141.234 55.1585 141.606 55.3073C142.201 55.5676 138.444 58.5809 115.343 76.2881C110.47 80.008 106.378 83.2817 106.303 83.5421C106.08 84.0629 108.312 86.7041 116.05 95.1857C118.765 98.1617 124.234 104.188 128.177 108.578C132.12 112.967 138.704 120.296 142.796 124.871C146.926 129.447 150.348 133.316 150.385 133.539C150.46 133.725 142.09 133.874 128.437 133.874H106.34L104.108 131.195C102.918 129.707 101.17 127.624 100.24 126.582C99.3095 125.541 94.5107 119.961 89.6003 114.12C80.0771 102.923 78.8495 101.584 78.4031 102.03C78.2171 102.179 78.0683 109.433 77.9939 118.101L77.8823 133.874H61.5515H45.1835V95.0368C45.1835 73.6841 45.2951 55.9397 45.4067 55.6049C45.5927 55.0841 47.3783 55.0097 61.5887 55.0097H77.5475L77.6963 55.828Z" fill="#BC6C25"/>
<defs>
<filter id="filter0_f_233_1268" x="63.0381" y="203.558" width="64.0381" height="25.4424" filterUnits="userSpaceOnUse" color-interpolation-filters="sRGB">
<feFlood flood-opacity="0" result="BackgroundImageFix"/>
<feBlend mode="normal" in="SourceGraphic" in2="BackgroundImageFix" result="shape"/>
<feGaussianBlur stdDeviation="1" result="effect1_foregroundBlur_233_1268"/>
</filter>
<filter id="filter1_d_233_1268" x="0" y="0" width="190.115" height="224.424" filterUnits="userSpaceOnUse" color-interpolation-filters="sRGB">
<feFlood flood-opacity="0" result="BackgroundImageFix"/>
<feColorMatrix in="SourceAlpha" type="matrix" values="0 0 0 0 0 0 0 0 0 0 0 0 0 0 0 0 0 0 127 0" result="hardAlpha"/>
<feOffset dy="1"/>
<feGaussianBlur stdDeviation="2.5"/>
<feComposite in2="hardAlpha" operator="out"/>
<feColorMatrix type="matrix" values="0 0 0 0 0 0 0 0 0 0 0 0 0 0 0 0 0 0 0.1 0"/>
<feBlend mode="normal" in2="BackgroundImageFix" result="effect1_dropShadow_233_1268"/>
<feBlend mode="normal" in="SourceGraphic" in2="effect1_dropShadow_233_1268" result="shape"/>
</filter>
</defs>
</svg>
