<svg width="191" height="229" viewBox="0 0 191 229" fill="none" xmlns="http://www.w3.org/2000/svg">
<g filter="url(#filter0_f_233_1242)">
<ellipse cx="95.0574" cy="216.279" rx="30.0193" ry="10.7212" fill="black" fill-opacity="0.2"/>
</g>
<g filter="url(#filter1_d_233_1242)">
<path fill-rule="evenodd" clip-rule="evenodd" d="M95.0578 4C144.795 4 185.116 44.3204 185.116 94.0582C185.116 132.194 161.412 164.793 127.935 177.927L100.187 215.854C99.6088 216.648 98.8407 217.296 97.948 217.743C97.0552 218.191 96.0639 218.424 95.0578 218.424C94.0518 218.424 93.0605 218.191 92.1677 217.743C91.2749 217.296 90.5069 216.648 89.9284 215.854L62.181 177.927C28.7035 164.793 5 132.194 5 94.0582C5 44.3204 45.3203 4 95.0578 4Z" fill="white"/>
</g>
<path d="M89.2344 17.6244C68.6628 18.8892 47.9796 29.6028 35.034 45.6732C20.0424 64.2732 14.2392 87.6348 18.9264 110.587C25.9572 144.811 55.122 170.293 89.718 172.339C112.708 173.716 134.023 165.829 149.684 150.094C185.173 114.493 178.589 55.7916 136.106 29.1192C128.146 24.1344 118.846 20.5632 108.541 18.5544C106.086 18.0708 95.3352 17.1408 94.0704 17.3268C93.8844 17.3268 91.6896 17.4756 89.2344 17.6244ZM101.064 52.1832C107.425 54.378 113.414 59.1768 116.576 64.5708C117.953 66.9516 118.548 67.584 119.924 68.2536C122.156 69.2952 124.574 69.072 126.658 67.6212C135.846 61.1112 141.352 59.0652 148.68 59.4C150.689 59.4744 152.512 59.7348 152.735 59.958C152.995 60.2184 152.921 61.26 152.474 63.4548C150.503 73.3128 143.509 79.3392 132.052 81.0876C127.997 81.6828 125.616 81.4968 123.83 80.4552C121.673 79.116 121.524 79.3392 121.264 83.7288C120.631 93.624 118.846 101.771 114.27 115.274C110.736 125.728 110.55 127.327 112.261 132.163C112.782 133.688 113.414 136.367 113.638 138.152C114.01 141.128 114.01 141.538 113.303 143.1C112.001 146.039 108.727 147.862 102.44 149.126C98.1624 149.982 89.0112 149.759 85.068 148.643C76.1772 146.188 74.3544 142.207 77.5908 132.2C79.3392 126.806 79.2276 125.839 75.7308 115.46C71.2296 102.143 69.4068 93.996 68.7372 84.2868L68.4768 80.418L67.1376 80.604C66.3936 80.7156 65.0172 80.976 64.0872 81.1992C62.2272 81.6084 57.54 81.2736 54.2664 80.4924C53.262 80.232 50.844 79.302 48.9468 78.372C42.0276 75.0984 37.7496 68.886 37.266 61.3344C37.1544 59.8836 37.1916 59.8836 38.6424 59.586C45.4128 58.3584 52.518 60.33 60.516 65.724C65.5008 69.1092 67.026 69.5184 69.8904 68.4024C71.2296 67.9188 71.7504 67.4352 72.3456 66.2448C73.6848 63.6036 76.2888 60.1812 78.4464 58.284C80.7156 56.238 85.7004 53.2992 88.7508 52.2204C91.5408 51.216 98.1624 51.1788 101.064 52.1832Z" fill="#4B231B"/>
<path d="M90.9088 57.6892C82.0924 59.1772 78.5584 60.1072 77.5168 61.2232C76.2892 62.5624 76.5868 63.5668 78.9304 66.0964C82.7248 70.1884 83.4316 71.8996 84.3988 79.9348C85.1428 85.8496 86.0356 88.528 89.3464 95.0008C92.3224 100.841 92.992 103.482 92.6572 108.17C92.1364 115.386 89.2348 121.004 82.204 128.444C80.4184 130.304 79.0048 131.978 79.0048 132.201C79.0048 132.87 79.7488 132.61 81.1624 131.457C82.8736 130.118 87.4492 127.997 90.1648 127.328C93.0292 126.621 98.758 126.732 101.474 127.514C104.71 128.481 107.574 130.043 109.806 132.015C113.266 135.102 111.852 132.87 107.277 127.96C100.506 120.706 98.1628 116.279 97.27 109.174C96.6004 103.817 97.27 101.027 101.139 93.6616C104.078 88.0072 104.412 86.8168 105.528 78.9304C106.607 71.4532 107.388 69.556 110.848 66.1708C114.345 62.7484 113.973 60.8884 109.62 60.0328C108.43 59.8096 106.868 59.4004 106.124 59.1028C102.552 57.7264 94.852 57.0196 90.9088 57.6892Z" fill="#4B231B"/>
<path d="M72.3454 79.9715C70.5598 82.2407 71.8246 86.0723 74.3542 86.0723C76.0282 86.0723 77.1442 84.6587 77.1442 82.5383C77.1442 80.4179 76.0282 79.0043 74.3542 79.0043C73.4614 79.0043 72.9034 79.2647 72.3454 79.9715Z" fill="#4B231B"/>
<path d="M114.195 79.7111C112.112 82.0175 113.303 86.0723 116.055 86.0723C117.692 86.0723 118.808 84.6587 118.808 82.5383C118.808 80.4179 117.692 79.0043 116.055 79.0043C115.311 79.0043 114.567 79.3019 114.195 79.7111Z" fill="#4B231B"/>
<path d="M80.4928 135.66C79.3024 136.59 78.6328 137.966 78.6328 139.566C78.6328 141.723 79.5256 143.286 81.088 143.955C82.1668 144.402 82.5388 144.402 83.5804 143.993C85.6264 143.1 86.2588 142.095 86.2588 139.566C86.2588 137.52 86.1472 137.259 85.0312 136.255C83.7292 135.102 81.5716 134.804 80.4928 135.66Z" fill="#4B231B"/>
<path d="M104.3 136.218C100.655 139.864 105.007 146.485 109.062 143.472C112.41 140.98 110.885 135.176 106.904 135.176C105.714 135.176 105.119 135.4 104.3 136.218Z" fill="#4B231B"/>
<defs>
<filter id="filter0_f_233_1242" x="63.0381" y="203.558" width="64.0381" height="25.4424" filterUnits="userSpaceOnUse" color-interpolation-filters="sRGB">
<feFlood flood-opacity="0" result="BackgroundImageFix"/>
<feBlend mode="normal" in="SourceGraphic" in2="BackgroundImageFix" result="shape"/>
<feGaussianBlur stdDeviation="1" result="effect1_foregroundBlur_233_1242"/>
</filter>
<filter id="filter1_d_233_1242" x="0" y="0" width="190.115" height="224.424" filterUnits="userSpaceOnUse" color-interpolation-filters="sRGB">
<feFlood flood-opacity="0" result="BackgroundImageFix"/>
<feColorMatrix in="SourceAlpha" type="matrix" values="0 0 0 0 0 0 0 0 0 0 0 0 0 0 0 0 0 0 127 0" result="hardAlpha"/>
<feOffset dy="1"/>
<feGaussianBlur stdDeviation="2.5"/>
<feComposite in2="hardAlpha" operator="out"/>
<feColorMatrix type="matrix" values="0 0 0 0 0 0 0 0 0 0 0 0 0 0 0 0 0 0 0.1 0"/>
<feBlend mode="normal" in2="BackgroundImageFix" result="effect1_dropShadow_233_1242"/>
<feBlend mode="normal" in="SourceGraphic" in2="effect1_dropShadow_233_1242" result="shape"/>
</filter>
</defs>
</svg>
