<svg width="191" height="229" viewBox="0 0 191 229" fill="none" xmlns="http://www.w3.org/2000/svg">
<g filter="url(#filter0_f_233_1297)">
<ellipse cx="95.0574" cy="216.279" rx="30.0193" ry="10.7212" fill="black" fill-opacity="0.2"/>
</g>
<g filter="url(#filter1_d_233_1297)">
<path fill-rule="evenodd" clip-rule="evenodd" d="M95.0578 4C144.795 4 185.116 44.3204 185.116 94.0582C185.116 132.194 161.412 164.793 127.935 177.927L100.187 215.854C99.6088 216.648 98.8407 217.296 97.948 217.743C97.0552 218.191 96.0639 218.424 95.0578 218.424C94.0518 218.424 93.0605 218.191 92.1677 217.743C91.2749 217.296 90.5069 216.648 89.9284 215.854L62.181 177.927C28.7035 164.793 5 132.194 5 94.0582C5 44.3204 45.3203 4 95.0578 4Z" fill="white"/>
</g>
<g clip-path="url(#clip0_233_1297)">
<path d="M18 95.5813C18 52.7792 52.1167 17.5 94.9187 17.5C137.721 17.5 173 51.6167 173 94.4187C173 137.221 138.883 172.5 96.0813 172.5C53.2792 172.5 18 138.383 18 95.5813Z" fill="#BC6C25"/>
<path d="M114.798 52.8245C115.072 52.8254 115.346 52.8262 115.628 52.8271C120.079 52.8477 124.327 53.1749 128.67 54.2001C129.064 54.2823 129.064 54.2823 129.465 54.366C130.212 54.5225 130.952 54.696 131.693 54.8783C131.905 54.9239 132.118 54.9695 132.337 55.0165C133.201 55.2588 133.808 55.5607 134.325 56.3033C135.196 58.1207 135.596 60.0824 135.994 62.047C136.088 62.4915 136.088 62.4915 136.185 62.9449C136.375 63.8518 136.554 64.7603 136.73 65.6701C136.789 65.9604 136.849 66.2506 136.91 66.5496C137.403 69.1614 137.474 71.741 137.466 74.3889C137.466 74.7273 137.466 74.7273 137.466 75.0725C137.454 78.5775 137.226 81.8573 136.11 85.2001C136.04 85.4167 135.971 85.6332 135.899 85.8563C133.555 92.9986 128.842 98.7105 122.16 102.25C120.462 103.06 118.748 103.832 117.018 104.571C111.045 107.192 108.008 111.68 105.556 117.498C102.409 124.931 96.3441 131.003 88.8931 134.141C83.0637 136.442 76.1171 137.626 70.08 135.42C69.7843 135.318 69.4886 135.216 69.1839 135.111C62.744 132.675 58.1181 128.063 55.2388 121.858C52.6712 115.168 53.0979 107.78 55.8781 101.262C57.5557 97.5393 59.7887 94.3281 62.64 91.4001C62.8438 91.1808 63.0476 90.9614 63.2576 90.7353C64.7595 89.158 66.3893 87.9242 68.22 86.7501C68.4897 86.5751 68.7595 86.4001 69.0374 86.2198C70.9205 85.0589 72.8384 84.1968 74.885 83.3789C81.2572 80.7853 83.9723 76.5717 86.7043 70.4787C89.782 63.6489 94.7957 57.9339 101.84 54.9933C102.926 54.593 104.002 54.2217 105.11 53.8901C105.359 53.8092 105.608 53.7283 105.864 53.6449C108.824 52.7764 111.741 52.8027 114.798 52.8245Z" fill="#FBFBFB"/>
<path d="M92.09 93.5703C93.615 94.8463 95.0432 96.1756 96.43 97.6003C96.0289 98.7178 95.5477 99.5521 94.8219 100.487C93.867 101.814 93.2142 103.134 92.5938 104.633C91.0036 108.445 88.9033 111.83 86.2 114.96C85.106 114.578 84.408 114.203 83.6232 113.352C82.8978 112.591 82.1653 111.892 81.3563 111.221C80.1182 110.153 79.0034 108.985 77.8882 107.792C77.7135 107.606 77.5388 107.421 77.3588 107.23C76.4491 106.245 75.6795 105.299 75.04 104.11C78.2707 100.897 82.1418 98.9546 86.2372 97.081C88.3399 96.1039 90.2165 94.9427 92.09 93.5703Z" fill="#BC6C25"/>
<path d="M106.35 72.7998C107.771 73.6956 108.984 74.6899 110.205 75.8417C110.471 76.0907 110.471 76.0907 110.743 76.3447C111.243 76.8149 111.742 77.2871 112.24 77.7598C112.453 77.9596 112.666 78.1594 112.885 78.3653C114.471 79.8957 115.827 81.6189 117.2 83.3398C115.799 87.0721 108.642 89.5015 105.284 91.1286C103.55 91.9823 102.005 93.0341 100.46 94.1898C99.1967 93.6907 98.3624 92.783 97.4371 91.8261C97.28 91.6662 97.123 91.5064 96.9612 91.3417C96.5759 90.9491 96.1925 90.5546 95.8096 90.1598C95.9374 89.9712 96.0653 89.7826 96.1971 89.5882C97.3179 87.887 98.3022 86.1739 99.2002 84.3473C99.3037 84.1372 99.4072 83.9271 99.5139 83.7107C99.7247 83.2823 99.9354 82.854 100.146 82.4255C101.846 78.9803 103.601 75.5482 106.35 72.7998Z" fill="#BC6C25"/>
<path d="M129.6 60.3996C129.698 62.233 129.361 63.7466 128.825 65.4953C128.742 65.7671 128.659 66.0388 128.573 66.3189C126.989 71.2943 124.316 75.968 120.92 79.9296C119.95 79.2242 119.156 78.4696 118.384 77.5598C117.212 76.2055 115.97 74.9342 114.701 73.6715C114.384 73.3529 114.384 73.3529 114.061 73.0279C112.88 71.8501 111.68 70.744 110.38 69.6996C111.736 66.3236 117.605 64.0046 120.746 62.4921C122.076 61.9362 123.456 61.5187 124.834 61.0971C125.056 61.0279 125.278 60.9587 125.507 60.8873C126.921 60.473 128.127 60.3301 129.6 60.3996Z" fill="#BC6C25"/>
<path d="M71.3196 108.14C72.2916 108.567 72.907 109.048 73.6216 109.829C73.9156 110.147 73.9156 110.147 74.2156 110.471C74.4172 110.693 74.6188 110.914 74.8265 111.143C76.9161 113.418 78.992 115.62 81.3934 117.57C81.8596 118.06 81.8596 118.06 81.8596 118.99C77.7414 122.9 70.4205 125.61 64.8096 125.5C64.3336 119.322 67.2627 113.239 71.0096 108.45C71.1119 108.347 71.2142 108.245 71.3196 108.14Z" fill="#BC6C25"/>
<path d="M119.99 87.6797C121.405 88.9339 122.186 90.2826 123.032 91.9616C123.221 92.3281 123.221 92.3281 123.414 92.7021C123.722 93.2999 124.026 93.8996 124.33 94.4997C121.729 97.205 118.374 98.5576 115.017 100.108C112.599 101.196 112.599 101.196 110.419 102.676C109.76 103.18 109.76 103.18 109.17 103.12C108.39 102.82 107.974 102.444 107.382 101.855C107.176 101.65 106.97 101.446 106.758 101.235C106.547 101.02 106.335 100.805 106.118 100.583C105.901 100.371 105.685 100.158 105.462 99.9392C105.258 99.7338 105.054 99.5284 104.844 99.3168C104.657 99.1288 104.47 98.9409 104.277 98.7472C103.87 98.2197 103.87 98.2197 103.87 97.2897C106.126 95.5077 109.039 94.3547 111.623 93.1265C114.648 91.6653 117.474 89.9164 119.99 87.6797Z" fill="#BC6C25"/>
<path d="M95.1903 65.9805C96.7312 66.1067 97.9609 66.8821 99.2784 67.6273C99.5028 67.7486 99.7272 67.8699 99.9584 67.9949C100.173 68.1153 100.388 68.2358 100.609 68.36C100.804 68.4684 100.999 68.5768 101.199 68.6885C101.803 69.1605 102.026 69.6211 102.32 70.3205C102.174 70.4903 102.027 70.6601 101.876 70.8351C99.0624 74.2081 97.0331 77.9136 95.2467 81.9115C94.5441 83.4614 93.7414 84.7749 92.7103 86.1305C91.6104 85.951 91.1032 85.5641 90.332 84.773C90.1262 84.5642 89.9204 84.3554 89.7084 84.1403C89.497 83.9211 89.2856 83.7019 89.0678 83.4761C88.8516 83.2557 88.6354 83.0353 88.4127 82.8083C87.8797 82.2644 87.3491 81.7184 86.8203 81.1705C87.2027 80.1479 87.6369 79.2723 88.2347 78.3611C89.2 76.796 89.911 75.1624 90.6372 73.4786C91.7905 70.8236 93.1126 68.0582 95.1903 65.9805Z" fill="#BC6C25"/>
<path d="M99.5299 101.63C101.176 101.907 102.056 103.066 103.192 104.207C103.411 104.417 103.629 104.627 103.855 104.843C104.163 105.15 104.163 105.15 104.477 105.463C104.665 105.649 104.854 105.835 105.048 106.027C105.42 106.59 105.42 106.59 105.354 107.226C104.994 108.117 104.503 108.906 104.006 109.729C102.998 111.429 102.176 113.159 101.409 114.979C100.344 117.49 99.0142 119.612 97.3599 121.78C95.795 121.62 94.6253 121.078 93.2912 120.288C93.0088 120.128 93.0088 120.128 92.7208 119.965C91.6393 119.337 90.7584 118.678 89.9199 117.75C90.1113 117.517 90.3027 117.283 90.5 117.043C93.4088 113.424 95.5439 109.503 97.4412 105.275C98.0346 103.965 98.7003 102.806 99.5299 101.63Z" fill="#BC6C25"/>
<path d="M82.7897 84.5801C83.7669 85.0121 84.4209 85.5178 85.168 86.2778C85.3738 86.4856 85.5796 86.6934 85.7916 86.9075C86.1087 87.2324 86.1087 87.2324 86.4322 87.5638C86.6484 87.7828 86.8646 88.0018 87.0873 88.2274C87.6196 88.7669 88.1503 89.3078 88.6797 89.8501C87.5469 91.104 86.4173 91.8481 84.8822 92.5626C84.4396 92.7773 83.9972 92.9924 83.555 93.208C83.3273 93.3182 83.0995 93.4283 82.8648 93.5418C79.6887 95.0876 76.6946 96.6759 73.9293 98.8873C73.2798 99.3836 72.6833 99.749 71.9397 100.08C68.8663 95.1864 68.8663 95.1864 68.2197 93.5701C68.7456 91.7369 70.8707 90.848 72.4209 89.9486C74.23 88.9746 76.1194 88.1554 78.003 87.3373C79.7604 86.5662 81.2762 85.7636 82.7897 84.5801Z" fill="#BC6C25"/>
<path d="M64.1896 96.9805C65.3389 98.0583 66.0926 99.3522 66.9215 100.681C67.0851 100.933 67.2488 101.184 67.4174 101.443C67.569 101.687 67.7207 101.931 67.8769 102.181C68.0171 102.403 68.1573 102.624 68.3017 102.852C68.5296 103.49 68.5296 103.49 68.2998 104.14C67.8643 104.799 67.3926 105.426 66.9101 106.052C63.8039 110.131 61.5959 114.919 60.4696 119.92C60.265 119.92 60.0604 119.92 59.8496 119.92C57.4506 114.051 58.4316 107.918 60.8184 102.223C61.6894 100.319 62.9293 98.6406 64.1896 96.9805Z" fill="#BC6C25"/>
<path d="M86.1995 121.47C87.0957 121.99 87.9911 122.512 88.8854 123.035C89.5409 123.418 90.1979 123.799 90.8568 124.176C91.1357 124.338 91.4147 124.5 91.702 124.667C91.9562 124.812 92.2103 124.958 92.4722 125.109C92.6528 125.238 92.8334 125.367 93.0195 125.5C93.0195 125.704 93.0195 125.909 93.0195 126.12C90.4703 128 87.608 129.358 84.6495 130.46C84.2287 130.619 84.2287 130.619 83.7995 130.781C79.4328 132.141 73.9682 131.955 69.7695 130.15C70.6551 129.264 71.738 129.074 72.9083 128.716C77.7129 127.177 82.4128 124.847 86.1995 121.47Z" fill="#BC6C25"/>
<path d="M113.497 57.5795C113.84 57.5805 114.184 57.5815 114.538 57.5826C114.892 57.5852 115.246 57.5878 115.611 57.5904C116.153 57.5925 116.153 57.5925 116.706 57.5947C117.594 57.5983 118.482 57.6034 119.37 57.6098C119.37 57.8144 119.37 58.019 119.37 58.2298C119.04 58.3765 118.71 58.5231 118.37 58.6742C114.314 60.5089 110.673 62.5883 107.306 65.5354C106.66 65.9798 106.66 65.9798 105.42 65.9798C104.414 65.5204 103.492 64.9149 102.552 64.3329C102.162 64.1007 102.162 64.1007 101.763 63.8637C101.517 63.7129 101.27 63.562 101.017 63.4066C100.791 63.2686 100.565 63.1306 100.332 62.9884C100.17 62.8503 100.007 62.7121 99.8398 62.5698C99.8398 62.2629 99.8398 61.956 99.8398 61.6398C103.064 59.7062 106.064 58.5963 109.76 57.9198C110.052 57.8649 110.345 57.8099 110.646 57.7533C111.613 57.6108 112.52 57.5745 113.497 57.5795Z" fill="#BC6C25"/>
<path d="M132.08 70.6299C132.182 70.6299 132.285 70.6299 132.39 70.6299C132.545 77.8785 132.309 84.1736 128.36 90.4699C126.886 89.9784 126.428 88.7163 125.648 87.428C125.487 87.1737 125.326 86.9193 125.16 86.6572C125.009 86.4109 124.858 86.1645 124.703 85.9107C124.565 85.6854 124.426 85.4601 124.283 85.228C123.962 84.436 124.015 84.1245 124.33 83.3399C124.833 82.6255 125.345 81.9365 125.88 81.2474C128.369 77.9507 130.3 74.3512 132.08 70.6299Z" fill="#BC6C25"/>
</g>
<defs>
<filter id="filter0_f_233_1297" x="63.0381" y="203.558" width="64.0381" height="25.4424" filterUnits="userSpaceOnUse" color-interpolation-filters="sRGB">
<feFlood flood-opacity="0" result="BackgroundImageFix"/>
<feBlend mode="normal" in="SourceGraphic" in2="BackgroundImageFix" result="shape"/>
<feGaussianBlur stdDeviation="1" result="effect1_foregroundBlur_233_1297"/>
</filter>
<filter id="filter1_d_233_1297" x="0" y="0" width="190.115" height="224.424" filterUnits="userSpaceOnUse" color-interpolation-filters="sRGB">
<feFlood flood-opacity="0" result="BackgroundImageFix"/>
<feColorMatrix in="SourceAlpha" type="matrix" values="0 0 0 0 0 0 0 0 0 0 0 0 0 0 0 0 0 0 127 0" result="hardAlpha"/>
<feOffset dy="1"/>
<feGaussianBlur stdDeviation="2.5"/>
<feComposite in2="hardAlpha" operator="out"/>
<feColorMatrix type="matrix" values="0 0 0 0 0 0 0 0 0 0 0 0 0 0 0 0 0 0 0.1 0"/>
<feBlend mode="normal" in2="BackgroundImageFix" result="effect1_dropShadow_233_1297"/>
<feBlend mode="normal" in="SourceGraphic" in2="effect1_dropShadow_233_1297" result="shape"/>
</filter>
<clipPath id="clip0_233_1297">
<rect width="155" height="155" fill="white" transform="translate(18 17)"/>
</clipPath>
</defs>
</svg>
