<svg width="191" height="229" viewBox="0 0 191 229" fill="none" xmlns="http://www.w3.org/2000/svg">
<g filter="url(#filter0_f_233_1216)">
<ellipse cx="95.0574" cy="216.279" rx="30.0193" ry="10.7212" fill="black" fill-opacity="0.2"/>
</g>
<g filter="url(#filter1_d_233_1216)">
<path fill-rule="evenodd" clip-rule="evenodd" d="M95.0578 4C144.795 4 185.116 44.3204 185.116 94.0582C185.116 132.194 161.412 164.793 127.935 177.927L100.187 215.854C99.6088 216.648 98.8407 217.296 97.948 217.743C97.0552 218.191 96.0639 218.424 95.0578 218.424C94.0518 218.424 93.0605 218.191 92.1677 217.743C91.2749 217.296 90.5069 216.648 89.9284 215.854L62.181 177.927C28.7035 164.793 5 132.194 5 94.0582C5 44.3204 45.3203 4 95.0578 4Z" fill="white"/>
</g>
<path d="M89.2344 16.6244C68.6628 17.8892 47.9796 28.6028 35.034 44.6732C20.0424 63.2732 14.2392 86.6348 18.9264 109.587C25.9572 143.811 55.122 169.293 89.718 171.339C112.708 172.716 134.023 164.829 149.684 149.094C185.173 113.493 178.589 54.7916 136.106 28.1192C128.146 23.1344 118.846 19.5632 108.541 17.5544C106.086 17.0708 95.3352 16.1408 94.0704 16.3268C93.8844 16.3268 91.6896 16.4756 89.2344 16.6244ZM86.2584 64.9844C91.1316 66.026 94.9632 67.328 104.672 71.3084C110.141 73.5404 115.572 75.4376 121.784 77.2232C131.642 80.0876 132.944 80.534 132.944 81.0176C132.944 81.6872 130.34 83.2496 127.178 84.44C122.528 86.2256 121.822 86.3372 120.52 85.4816L119.404 84.7376L121.078 84.0308C121.97 83.6588 123.347 83.1008 124.128 82.8032C124.909 82.5428 125.765 82.022 126.1 81.6872C126.583 81.1664 126.583 81.0176 126.062 80.6084C125.579 80.1992 124.798 80.3852 121.412 81.7244C117.655 83.2124 117.246 83.2868 116.353 82.8032L115.386 82.3196L117.06 80.8688C118.139 79.976 118.697 79.232 118.548 78.8972C118.25 78.0416 117.358 78.2648 115.386 79.7528L113.526 81.092L112.261 80.4224L111.034 79.7528L111.926 78.674C113.117 77.2604 113.117 76.5164 111.964 76.5164C111.406 76.5164 110.699 76.9256 110.141 77.6696L109.248 78.7856L107.909 78.1532C106.384 77.4092 106.272 77.186 107.09 76.5164C107.834 75.884 107.797 74.6564 107.053 74.6564C106.718 74.6564 105.974 75.0656 105.342 75.5864C104.3 76.4792 104.226 76.4792 103.073 75.9212C101.51 75.1028 101.548 75.1772 102.217 74.21C103.036 73.0568 102.998 72.0524 102.106 72.0524C101.696 72.0524 101.064 72.5732 100.618 73.3172L99.8364 74.582L98.1624 73.9496C96.0048 73.1312 95.9304 73.0196 96.6744 71.9036C97.0464 71.3828 97.2324 70.676 97.0836 70.3784C96.7488 69.4112 95.7444 69.746 94.9632 71.1224C94.1076 72.5732 93.9588 72.6104 91.9128 72.0152C90.648 71.6804 90.4992 71.5316 90.7224 70.8248C91.6152 68.0348 90.3876 66.8816 89.2344 69.4484C88.5276 71.048 88.3788 71.0852 85.5144 70.676L83.766 70.4528L83.952 69.0392C84.1752 67.2536 83.3196 66.2492 82.5012 67.4024C82.2036 67.7744 81.9804 68.4812 81.9804 68.9276C81.9804 70.118 81.534 70.2668 79.1904 70.0064C77.1816 69.746 77.1444 69.7088 77.1444 68.4812C77.1444 66.2492 75.4332 66.5096 75.21 68.816C75.0984 69.9692 75.0612 70.0064 72.978 70.118L70.8204 70.2296V68.8904C70.8204 67.7 70.7088 67.5512 70.002 67.6628C69.3324 67.7372 69.1092 68.072 68.9604 69.2252C68.7744 70.6388 68.7 70.7132 66.84 71.1224L64.9056 71.5688L64.794 70.4156C64.7196 69.56 64.4964 69.2624 63.9384 69.2624C63.3804 69.2624 63.12 69.6344 62.8596 70.7504C62.562 72.2012 62.4876 72.2756 59.5488 73.4288C57.8748 74.0612 56.4612 74.5448 56.3868 74.4704C56.0148 74.0984 58.5072 70.1924 60.144 68.6672C62.3388 66.5096 64.9428 65.1704 68.2536 64.4264C71.676 63.6452 81.3108 63.9428 86.2584 64.9844ZM85.5144 72.6476C92.7312 73.8008 101.287 76.8884 109.88 81.5012C114.902 84.254 120.929 88.0856 124.277 90.6896C125.839 91.9172 126.955 92.5124 127.699 92.5124C129.782 92.5124 130.601 95.1908 129.224 97.6088L128.406 99.0968L129.187 100.362C130.043 101.738 130.154 103.114 129.596 104.565C129.336 105.309 129.001 105.532 128.108 105.532C127.513 105.532 122.268 107.132 116.502 109.066C99.5016 114.721 95.3352 115.539 82.7244 115.576C72.048 115.576 61.5576 114.572 55.6428 112.972C50.3604 111.522 45.2268 108.174 40.0932 102.854C35.2572 97.832 35.0712 97.5344 35.1828 95.3768C35.2944 93.6656 35.3688 93.4796 36.3732 93.2192C37.0428 93.0332 39.0144 91.2476 41.8416 88.2716C48.6864 81.092 53.9688 77.4836 61.632 74.6936C66.468 72.9452 68.4024 72.4616 72.4944 72.0896C76.2516 71.7176 80.7528 71.9408 85.5144 72.6476ZM148.94 79.3064C150.242 79.976 150.726 80.7572 151.172 83.138C151.619 85.5932 151.061 89.648 149.647 94.2608L148.457 98.0552L149.647 101.106C152.14 107.392 152.958 113.233 151.768 116.097C151.172 117.548 149.536 118.924 148.42 118.924C145.89 118.887 141.277 115.056 137.297 109.699L134.879 106.462L135.623 103.672C136.478 100.436 136.367 95.972 135.4 93.2936L134.804 91.6568L136.367 89.0156C138.487 85.4072 140.831 82.394 142.728 80.8316C145.332 78.7112 147.006 78.302 148.94 79.3064ZM133.651 94.1864C133.949 95.042 134.172 97.088 134.172 99.0224C134.172 103.003 133.54 105.272 132.312 105.458C131.531 105.57 131.531 105.458 131.717 103.561C131.866 102.11 131.754 101.217 131.308 100.287C130.75 99.0596 130.75 98.9108 131.308 97.7576C131.754 96.8648 131.866 95.972 131.717 94.484C131.531 92.5868 131.531 92.4752 132.312 92.5868C132.87 92.6612 133.279 93.1448 133.651 94.1864ZM130.712 111.001C134.432 114.944 136.664 117.957 136.664 119.073C136.664 119.668 136.478 119.706 134.99 119.52C133.391 119.259 133.316 119.296 133.316 120.152C133.316 120.673 133.577 121.268 133.912 121.566C134.432 121.975 135.548 123.835 135.548 124.244C135.548 124.69 133.205 124.765 130.34 124.467C121.003 123.463 110.513 120.189 104.933 116.618C102.998 115.39 103.073 115.13 105.305 114.646C106.384 114.423 106.756 114.609 108.69 116.283C110.885 118.18 111.815 118.552 112.336 117.734C112.522 117.474 111.852 116.618 110.662 115.502L108.727 113.716L109.694 113.344C110.215 113.158 110.81 112.972 110.996 112.972C111.145 112.972 112.559 114.312 114.084 115.986C116.8 118.887 117.953 119.482 118.362 118.255C118.436 117.994 117.32 116.581 115.832 115.056L113.191 112.303L114.382 111.894C115.051 111.67 115.609 111.484 115.646 111.484C115.684 111.484 117.134 113.158 118.846 115.204C121.078 117.92 122.156 118.924 122.677 118.85C123.086 118.776 123.458 118.552 123.533 118.329C123.607 118.069 122.342 116.32 120.706 114.423L117.73 110.926L118.883 110.443C119.515 110.182 120.148 110.108 120.259 110.257C122.752 113.865 127.625 119.668 128.071 119.594C129.336 119.334 128.778 118.069 125.504 113.902C123.644 111.559 122.231 109.438 122.342 109.252C122.975 108.248 124.128 109.104 126.992 112.675C128.666 114.795 130.303 116.506 130.638 116.506C131.977 116.506 131.419 115.093 128.666 111.633C126.472 108.88 125.914 107.988 126.286 107.727C126.583 107.541 126.918 107.392 127.067 107.392C127.178 107.392 128.852 109.029 130.712 111.001ZM61.5204 118.18C64.4964 121.045 65.724 121.752 66.3936 120.933C66.8028 120.45 66.5424 120.078 64.6452 118.366L62.4504 116.358L64.3104 116.544C67.6956 116.916 67.8444 116.953 67.8444 118.218C67.8444 119.743 68.2908 120.487 70.4484 122.496C71.49 123.463 72.3084 124.393 72.3084 124.542C72.3084 125.062 70.4112 124.951 68.1792 124.281C65.8728 123.612 62.376 121.752 60.2184 120.04C58.842 118.962 56.3496 116.06 56.3124 115.539C56.3124 115.39 56.9448 115.428 57.7632 115.614C58.7676 115.837 59.8836 116.618 61.5204 118.18Z" fill="#BC6C25"/>
<path d="M51.8485 81.3155C51.2905 82.3571 51.4021 86.3747 51.9973 87.8627C52.8901 89.9831 55.3081 90.7271 57.8749 89.7227C58.9909 89.2763 59.2885 90.6155 58.7305 93.7403C57.8749 98.7623 55.7545 104.194 54.1549 105.644C53.1133 106.574 51.6997 106.24 48.8725 104.342C46.6777 102.892 45.8965 102.78 45.8965 103.97C45.8965 105.086 51.0673 108.137 52.9645 108.137C54.4153 108.137 55.7545 107.095 56.9449 105.086C58.4329 102.557 60.2185 97.1999 60.8137 93.4055C61.1857 90.8015 61.1857 90.2807 60.6649 89.2763C59.9581 87.9371 58.5817 87.4907 56.7961 88.0115C54.2293 88.7555 53.1877 87.4163 53.3737 83.6963C53.5597 80.8319 52.7785 79.6415 51.8485 81.3155Z" fill="#BC6C25"/>
<path d="M43.7388 91.0985C43.1808 91.6565 43.1808 93.3677 43.7388 93.9257C44.7804 94.9673 47.0124 94.0001 47.0124 92.5121C47.0124 91.0241 44.7804 90.0569 43.7388 91.0985Z" fill="#BC6C25"/>
<path d="M68.6626 95.4888C66.0214 95.898 61.9666 97.3488 61.7434 97.9812C61.6318 98.2788 61.8922 99.0228 62.3758 99.618C63.2314 100.808 63.4546 103.301 62.8594 105.235C62.599 106.091 62.7106 106.314 63.715 106.798C65.3146 107.653 69.1834 108.509 71.4154 108.509C74.0566 108.509 76.8094 107.579 78.8926 106.016C80.8642 104.528 84.2494 103.301 86.4442 103.301C89.0854 103.301 88.6018 102.11 84.9562 99.6924C79.7482 96.1956 73.8334 94.6704 68.6626 95.4888ZM76.0282 97.758C76.921 97.944 79.0786 98.7996 80.7526 99.5808C83.7286 100.957 84.6214 101.813 83.1334 101.813C82.0546 101.813 79.3762 103.152 77.665 104.528C75.619 106.202 72.643 106.835 69.3322 106.314C66.4678 105.905 64.8682 105.347 64.8682 104.752C64.8682 104.342 66.9886 104.454 70.8946 105.012C71.9734 105.198 72.3454 105.086 72.5314 104.603C72.9406 103.598 72.2338 103.301 68.6626 102.854C64.7566 102.371 64.087 101.664 67.2118 101.292C68.2534 101.18 69.667 101.069 70.2994 101.069C70.8946 101.069 71.7502 100.846 72.1594 100.548C72.7918 100.064 72.7918 99.9528 72.3082 99.432C71.8246 98.9856 71.1922 98.9484 68.2534 99.2832C65.4262 99.5808 64.7194 99.5436 64.459 99.1344C63.6034 97.8324 71.9362 96.7908 76.0282 97.758Z" fill="#BC6C25"/>
<path d="M142.318 86.2255C138.264 89.2759 136.292 90.9499 136.292 91.4335C136.292 92.8471 137.854 92.0659 143.434 87.8251C146.559 85.4443 149.275 83.3611 149.424 83.2123C149.833 82.8775 149.349 81.7243 148.791 81.7243C148.531 81.7243 145.629 83.7703 142.318 86.2255Z" fill="#BC6C25"/>
<path d="M141.053 92.6981C139.305 92.9585 137.668 93.2933 137.445 93.4049C136.887 93.7769 136.924 94.7441 137.519 94.9673C138.226 95.2277 147.415 93.8141 147.898 93.3305C149.126 92.1029 146.708 91.8797 141.053 92.6981Z" fill="#BC6C25"/>
<path d="M137.222 97.72C137.073 97.9432 137.185 98.3524 137.408 98.65C137.78 99.0964 138.859 99.208 142.058 99.208C145.257 99.208 146.336 99.0964 146.708 98.65C147.601 97.6084 146.708 97.348 142.058 97.348C139.268 97.348 137.371 97.4968 137.222 97.72Z" fill="#BC6C25"/>
<path d="M137.408 102.185C137.408 102.631 137.706 102.966 138.264 103.115C140.607 103.598 147.489 104.417 147.824 104.231C148.271 103.97 148.345 102.557 147.936 102.557C147.75 102.557 145.964 102.296 143.918 101.999C138.599 101.218 137.408 101.255 137.408 102.185Z" fill="#BC6C25"/>
<path d="M136.292 105.496C136.292 106.314 147.601 114.982 148.717 114.982C149.498 115.019 149.833 114.498 149.386 113.866C148.754 112.898 137.668 104.789 137.036 104.789C136.552 104.789 136.292 105.049 136.292 105.496Z" fill="#BC6C25"/>
<defs>
<filter id="filter0_f_233_1216" x="63.0381" y="203.558" width="64.0381" height="25.4424" filterUnits="userSpaceOnUse" color-interpolation-filters="sRGB">
<feFlood flood-opacity="0" result="BackgroundImageFix"/>
<feBlend mode="normal" in="SourceGraphic" in2="BackgroundImageFix" result="shape"/>
<feGaussianBlur stdDeviation="1" result="effect1_foregroundBlur_233_1216"/>
</filter>
<filter id="filter1_d_233_1216" x="0" y="0" width="190.115" height="224.424" filterUnits="userSpaceOnUse" color-interpolation-filters="sRGB">
<feFlood flood-opacity="0" result="BackgroundImageFix"/>
<feColorMatrix in="SourceAlpha" type="matrix" values="0 0 0 0 0 0 0 0 0 0 0 0 0 0 0 0 0 0 127 0" result="hardAlpha"/>
<feOffset dy="1"/>
<feGaussianBlur stdDeviation="2.5"/>
<feComposite in2="hardAlpha" operator="out"/>
<feColorMatrix type="matrix" values="0 0 0 0 0 0 0 0 0 0 0 0 0 0 0 0 0 0 0.1 0"/>
<feBlend mode="normal" in2="BackgroundImageFix" result="effect1_dropShadow_233_1216"/>
<feBlend mode="normal" in="SourceGraphic" in2="effect1_dropShadow_233_1216" result="shape"/>
</filter>
</defs>
</svg>
