<svg width="191" height="229" viewBox="0 0 191 229" fill="none" xmlns="http://www.w3.org/2000/svg">
<g filter="url(#filter0_f_233_1328)">
<ellipse cx="95.0574" cy="216.279" rx="30.0193" ry="10.7212" fill="black" fill-opacity="0.2"/>
</g>
<g filter="url(#filter1_d_233_1328)">
<path fill-rule="evenodd" clip-rule="evenodd" d="M95.0578 4C144.795 4 185.116 44.3204 185.116 94.0582C185.116 132.194 161.412 164.793 127.935 177.927L100.187 215.854C99.6088 216.648 98.8407 217.296 97.948 217.743C97.0552 218.191 96.0639 218.424 95.0578 218.424C94.0518 218.424 93.0605 218.191 92.1677 217.743C91.2749 217.296 90.5069 216.648 89.9284 215.854L62.181 177.927C28.7035 164.793 5 132.194 5 94.0582C5 44.3204 45.3203 4 95.0578 4Z" fill="white"/>
</g>
<g clip-path="url(#clip0_233_1328)">
<path d="M18 17C69.15 17 120.3 17 173 17C173 68.15 173 119.3 173 172C121.85 172 70.7 172 18 172C18 120.85 18 69.7 18 17Z" fill="#283618"/>
<path d="M95.1899 76.5201C97.2114 77.9444 98.0467 80.5388 98.5018 82.8921C98.9168 86.0991 98.6902 89.1123 96.8174 91.8264C95.9077 92.9251 95.0304 93.7824 93.6399 94.1901C92.4945 94.283 91.3758 94.2647 90.2299 94.1901C90.5304 94.2733 90.8309 94.3564 91.1405 94.442C91.4538 94.5635 91.7671 94.685 92.0899 94.8101C92.7696 96.8492 92.7967 99.5371 91.8962 101.514C91.0605 102.903 89.8884 103.604 88.3699 104.11C86.5012 104.293 85.2581 103.877 83.7199 102.87C82.848 102.056 82.848 102.056 82.1699 101.32C81.863 101.116 81.5561 100.911 81.2399 100.7C81.1228 100.873 81.0057 101.045 80.8851 101.223C78.7928 104.124 75.544 106.809 71.9399 107.52C69.6337 107.721 67.647 107.704 65.7399 106.28C65.0037 105.505 65.0037 105.505 64.4999 104.73C64.372 104.545 64.2442 104.359 64.1124 104.168C63.5852 102.631 63.7024 101.215 64.3449 99.7508C65.6309 97.4666 67.3717 96.3044 69.8526 95.6106C71.2311 95.317 72.5695 95.2953 73.9743 95.3139C74.384 95.3085 74.384 95.3085 74.802 95.303C76.6892 95.3113 78.2503 95.6578 79.9999 96.3601C79.9934 96.1759 79.9869 95.9917 79.9802 95.8019C79.9542 94.9547 79.9382 94.1076 79.9224 93.2601C79.912 92.9704 79.9016 92.6807 79.8909 92.3822C79.8642 90.4698 80.074 88.9378 81.2399 87.3701C82.2538 86.6942 82.4067 86.6817 83.5455 86.8276C83.7817 86.8548 84.0179 86.882 84.2612 86.91C85.0165 87.0723 85.5587 87.2461 86.1999 87.6801C86.4324 88.3389 86.4324 88.3389 86.5099 88.9201C86.4955 88.7395 86.4811 88.5589 86.4663 88.3728C86.2869 84.2985 88.0331 81.1311 90.5399 78.0701C91.9504 76.6063 93.2104 76.2009 95.1899 76.5201Z" fill="#FCFCFC"/>
<path d="M80.3096 109.69C81.7214 111.008 82.6931 112.115 82.8865 114.088C82.7203 116.115 81.9423 117.489 80.4258 118.835C79.4818 119.61 79.4818 119.61 78.7596 119.61C78.8619 119.814 78.9642 120.019 79.0696 120.23C79.3461 123.963 78.0553 127.894 75.7419 130.833C74.0003 132.667 72.0546 133.563 69.5371 133.695C67.9784 133.682 67.1263 133.212 65.9236 132.258C64.6086 130.772 64.6582 129.051 64.6945 127.159C65.0136 124.277 66.7443 122.401 68.8396 120.54C67.9056 119.893 67.9056 119.893 66.8246 119.358C65.797 118.766 65.2355 118.274 64.8096 117.13C64.7785 115.485 65.291 114.386 66.299 113.137C69.6986 109.853 75.7818 106.736 80.3096 109.69Z" fill="#FBFBFB"/>
<path d="M143.104 94.8876C143.914 95.4688 144.123 95.7622 144.48 96.6701C144.805 99.7186 143.064 102.622 141.356 105.011C139.667 107.028 137.592 108.85 134.894 109.182C134.151 109.186 133.437 109.156 132.7 109.07C132.673 109.25 132.646 109.43 132.619 109.615C132.297 111.405 131.966 112.553 130.53 113.72C129.193 114.058 128.012 114.003 126.765 113.397C124.083 111.508 122.19 108.963 120.92 105.97C120.786 105.657 120.651 105.344 120.513 105.021C119.933 102.543 120.303 100.448 121.54 98.2201C122.752 96.9772 123.952 96.438 125.667 96.2439C127.662 96.4468 129.22 97.3116 130.53 98.8401C130.723 98.6375 130.723 98.6375 130.92 98.4308C133.96 95.492 138.923 93.4205 143.104 94.8876Z" fill="#FAFAFA"/>
<path d="M52.7201 101.94C56.3384 103.368 59.2128 106.451 60.7607 109.981C61.3688 111.847 61.4253 114.007 60.7219 115.852C59.8783 117.306 58.9267 118.335 57.3701 118.99C55.6677 119.266 54.1904 119.03 52.6934 118.18C50.0056 116.233 48.7183 113.385 48.1681 110.188C47.826 107.371 47.9264 104.811 49.5232 102.386C50.5916 101.722 51.5213 101.699 52.7201 101.94Z" fill="#FCFCFC"/>
<path d="M107.28 92.3304C110.265 93.7719 112.083 97.0759 113.17 100.08C113.913 102.514 113.714 105.164 112.645 107.457C111.96 108.612 111.31 109.435 110.07 110C108.35 110.296 106.894 110.252 105.304 109.516C103.071 107.443 101.627 105.343 101.327 102.213C101.261 98.9716 101.887 95.5919 103.87 92.9504C105.03 92.1769 105.938 92.0658 107.28 92.3304Z" fill="#FCFCFC"/>
<path d="M87.518 62.7443C89.2626 64.2908 90.1215 66 90.3273 68.305C90.2493 71.8244 88.3877 74.8224 86.2005 77.45C84.7117 78.8246 83.3675 79.8087 81.2707 79.7592C80.2317 79.5367 79.7703 79.0252 79.1492 78.1874C77.3696 74.8113 77.4487 70.7484 78.4359 67.1582C79.2679 64.9324 80.8345 63.3493 82.868 62.1631C84.5279 61.7481 85.9894 62.0095 87.518 62.7443Z" fill="#FCFCFC"/>
<path d="M124.058 62.2596C127.342 63.7303 128.917 66.4986 130.22 69.6996C130.922 71.8454 131.348 74.0935 130.433 76.229C129.832 76.9189 129.309 77.3916 128.387 77.5538C124.833 77.6183 121.344 75.6958 118.788 73.3034C116.966 71.3696 116.149 69.1191 116.184 66.487C116.365 64.7606 117.078 63.6109 118.304 62.4146C120.152 61.6082 122.135 61.6711 124.058 62.2596Z" fill="#FDFDFD"/>
<path d="M120.008 121.685C121.651 122.529 122.517 123.782 123.09 125.5C123.424 128.738 122.669 131.37 120.687 133.948C118.677 136.294 116.757 138.239 113.596 138.675C112.232 138.473 111.827 138.058 111 136.97C109.679 133.873 109.949 129.408 111.166 126.324C112.998 123.002 116.056 120.358 120.008 121.685Z" fill="#FDFDFD"/>
<path d="M111.601 78.5929C111.817 78.6487 112.033 78.7045 112.256 78.7621C115.432 79.6275 117.968 81.1622 119.661 84.0567C120.191 85.8966 120.261 87.5295 119.622 89.346C118.682 90.7073 117.56 91.5833 115.96 92.0198C113.103 92.3323 110.913 91.4248 108.593 89.805C106.353 87.9454 104.21 85.1164 103.733 82.1894C103.677 80.953 103.692 80.1939 104.393 79.1548C106.717 77.6475 109.031 77.9252 111.601 78.5929Z" fill="#FDFDFD"/>
<path d="M90.5787 117.614C90.9668 117.609 90.9668 117.609 91.3627 117.604C94.298 117.645 96.7764 118.483 98.9099 120.54C100.017 121.902 100.54 123.444 100.46 125.19C100.194 126.568 99.7098 127.617 98.658 128.561C96.4972 130.001 94.3097 130.112 91.7799 129.84C88.0959 128.861 85.1327 126.525 83.0999 123.33C82.6193 122.368 82.7 121.6 82.7899 120.54C83.3878 119.315 84.2177 118.815 85.4249 118.273C87.1406 117.704 88.7876 117.628 90.5787 117.614Z" fill="#FDFDFD"/>
<path d="M68.2201 73.42C69.0065 74.154 69.1356 74.5567 69.2857 75.6288C68.8835 79.1906 66.7153 82.8349 63.9285 85.0644C61.7054 86.5465 59.4106 87.1499 56.7501 86.75C55.5339 86.3491 54.729 85.6589 53.8244 84.7544C52.9895 82.8508 52.9504 80.7821 53.6137 78.8038C55.213 75.6793 57.9187 74.3508 61.0901 73.11C63.5152 72.3325 65.9859 71.9652 68.2201 73.42Z" fill="#FCFCFC"/>
<path d="M106.35 49.55C108.613 50.702 110.49 52.3596 111.31 54.82C111.476 56.6722 111.469 58.2028 110.38 59.78C108.98 61.1421 107.564 61.6596 105.633 61.7369C102.765 61.6504 100.661 60.4913 98.6002 58.54C96.4221 56.1687 94.6041 53.8795 94.7374 50.5442C94.8802 49.86 94.8802 49.86 95.5971 49.0656C98.7789 47.3637 103.194 48.1838 106.35 49.55Z" fill="#FDFDFD"/>
</g>
<defs>
<filter id="filter0_f_233_1328" x="63.0381" y="203.558" width="64.0381" height="25.4424" filterUnits="userSpaceOnUse" color-interpolation-filters="sRGB">
<feFlood flood-opacity="0" result="BackgroundImageFix"/>
<feBlend mode="normal" in="SourceGraphic" in2="BackgroundImageFix" result="shape"/>
<feGaussianBlur stdDeviation="1" result="effect1_foregroundBlur_233_1328"/>
</filter>
<filter id="filter1_d_233_1328" x="0" y="0" width="190.115" height="224.424" filterUnits="userSpaceOnUse" color-interpolation-filters="sRGB">
<feFlood flood-opacity="0" result="BackgroundImageFix"/>
<feColorMatrix in="SourceAlpha" type="matrix" values="0 0 0 0 0 0 0 0 0 0 0 0 0 0 0 0 0 0 127 0" result="hardAlpha"/>
<feOffset dy="1"/>
<feGaussianBlur stdDeviation="2.5"/>
<feComposite in2="hardAlpha" operator="out"/>
<feColorMatrix type="matrix" values="0 0 0 0 0 0 0 0 0 0 0 0 0 0 0 0 0 0 0.1 0"/>
<feBlend mode="normal" in2="BackgroundImageFix" result="effect1_dropShadow_233_1328"/>
<feBlend mode="normal" in="SourceGraphic" in2="effect1_dropShadow_233_1328" result="shape"/>
</filter>
<clipPath id="clip0_233_1328">
<rect x="18" y="17" width="155" height="155" rx="77.5" fill="white"/>
</clipPath>
</defs>
</svg>
