<svg width="191" height="229" viewBox="0 0 191 229" fill="none" xmlns="http://www.w3.org/2000/svg">
<g filter="url(#filter0_f_233_1342)">
<ellipse cx="95.0574" cy="216.278" rx="30.0193" ry="10.7212" fill="black" fill-opacity="0.2"/>
</g>
<g filter="url(#filter1_d_233_1342)">
<path fill-rule="evenodd" clip-rule="evenodd" d="M95.0578 4C144.795 4 185.116 44.3204 185.116 94.0582C185.116 132.194 161.412 164.793 127.935 177.927L100.187 215.854C99.6088 216.648 98.8407 217.296 97.948 217.743C97.0552 218.191 96.0639 218.424 95.0578 218.424C94.0518 218.424 93.0605 218.191 92.1677 217.743C91.2749 217.296 90.5069 216.648 89.9284 215.854L62.181 177.927C28.7035 164.793 5 132.194 5 94.0582C5 44.3204 45.3203 4 95.0578 4Z" fill="white"/>
</g>
<g clip-path="url(#clip0_233_1342)">
<path d="M17 94.0813C17 51.2792 51.1167 16 93.9187 16C136.721 16 172 50.1167 172 92.9187C172 135.721 137.883 171 95.0813 171C52.2792 171 17 136.883 17 94.0813Z" fill="#92989A"/>
<path d="M94.8673 65.1542C100.865 68.1936 106.353 71.8753 111.55 76.1398C111.993 76.4952 111.993 76.4952 112.444 76.8579C116.652 80.2863 120.718 84.1672 123.95 88.5398C124.093 88.7326 124.236 88.9254 124.383 89.1241C131.983 99.4523 131.983 99.4523 131.39 104.66C131.08 105.59 131.08 105.59 130.15 106.21C126.458 106.72 123.306 105.721 119.92 104.35C119.713 104.269 119.505 104.187 119.291 104.104C116.296 102.906 114.797 101.463 113.1 98.7698C108.904 92.9317 99.9467 88.4282 93.091 86.7828C89.9328 86.0161 88.0098 84.4619 85.7078 82.2129C84.9969 81.522 84.2562 80.8664 83.5148 80.2085C83.2978 80.0111 83.0808 79.8137 82.8572 79.6103C82.4257 79.2223 81.9922 78.8365 81.5528 78.4575C77.9281 75.3292 74.4321 71.9208 71.5604 68.0798C71.3646 67.82 71.1688 67.5603 70.967 67.2927C67.7996 62.9391 67.7996 62.9391 67.666 60.5042C67.8404 59.3998 67.8404 59.3998 68.4023 58.7992C75.8813 55.1665 88.2167 61.8442 94.8673 65.1542Z" fill="#FDFDFD"/>
<path d="M77.7599 84.8202C78.0668 85.1271 78.0668 85.1271 78.3799 85.4402C78.0894 85.4353 77.799 85.4305 77.4998 85.4255C76.4043 85.4094 75.309 85.3979 74.2135 85.3891C73.7427 85.3845 73.2719 85.3782 72.8012 85.3701C67.4824 85.2805 62.1617 86.2366 58.1511 90.066C55.2963 93.4637 54.7577 96.6619 54.5099 100.94C54.9191 100.94 55.3283 100.94 55.7499 100.94C55.7355 100.711 55.7211 100.482 55.7063 100.246C55.5795 96.683 56.5222 93.8477 58.9274 91.1752C60.2857 89.9404 61.7713 88.5984 63.4999 87.9202C63.8068 88.0225 64.1137 88.1248 64.4299 88.2302C64.2057 88.4718 64.2057 88.4718 63.977 88.7182C62.1734 90.7095 61.5993 92.0909 61.3299 94.7402C61.1392 94.793 60.9486 94.8457 60.7522 94.9001C59.6899 95.2186 58.7675 95.4961 57.8811 96.174C57.3686 97.565 57.6517 99.0597 58.2162 100.408C58.6106 101.158 59.0261 101.892 59.4505 102.626C61.0312 105.48 62.2405 108.391 63.3369 111.462C65.0234 116.101 67.4201 119.702 71.8699 122.02C79.3683 125.442 88.0149 126.419 96.1789 126.526C98.0572 126.572 98.0572 126.572 98.9949 127.138C100.167 127.837 101.279 127.739 102.618 127.716C102.882 127.714 103.146 127.711 103.418 127.708C105.329 127.662 106.998 127.452 108.76 126.67C109.012 126.565 109.264 126.459 109.524 126.351C113.104 124.718 115.635 122.451 117.127 118.785C117.795 116.801 117.956 114.801 118.06 112.72C119.226 114.624 118.913 117.202 118.467 119.303C117.305 123.041 115.493 125.768 112.17 127.91C109.986 128.975 107.733 129.636 105.35 130.08C105.35 130.387 105.35 130.694 105.35 131.01C109.528 130.798 113.358 129.037 116.23 125.978C119.373 122.108 119.909 118.157 119.535 113.295C119.221 110.958 118.412 108.844 117.545 106.666C117.244 105.885 116.988 105.166 116.82 104.35C118.067 104.707 119.235 105.083 120.028 106.156C120.388 106.991 120.624 107.809 120.85 108.69C120.905 108.896 120.961 109.102 121.018 109.315C122.71 115.738 122.759 121.908 119.569 127.879C117.594 131.159 114.501 132.455 110.894 133.44C101.679 135.686 90.8904 133.461 82.0999 130.39C81.7033 130.252 81.7033 130.252 81.2988 130.111C73.9017 127.465 67.0321 123.734 61.3299 118.3C61.144 118.138 60.9582 117.975 60.7668 117.807C56.7238 114.121 53.2134 107.654 52.9264 102.16C52.7006 96.8379 53.3871 92.6134 56.9995 88.4312C62.5338 83.0828 70.7608 82.429 77.7599 84.8202Z" fill="#F7F7F7"/>
<path d="M63.8874 95.8249C64.2254 95.8253 64.5633 95.8257 64.9115 95.8262C68.6669 95.8947 72.2621 96.6445 75.8999 97.5299C76.1287 97.5712 76.3575 97.6125 76.5933 97.6551C76.8639 97.7465 76.8639 97.7465 77.1399 97.8399C77.5105 98.6863 77.5105 98.6863 77.7987 99.758C77.8954 100.108 77.9921 100.457 78.0917 100.818C78.1868 101.165 78.282 101.512 78.3799 101.87C78.5826 102.491 78.7879 103.112 78.9999 103.73C77.3883 103.211 75.8214 102.644 74.2531 102.006C70.6616 100.623 66.9923 100.491 63.1899 100.32C63.2922 100.627 63.3945 100.934 63.4999 101.25C63.6731 101.241 63.8464 101.232 64.0248 101.223C65.9377 101.163 67.9088 101.126 69.6999 101.87C71.1459 103.237 71.943 105.252 72.4899 107.14C72.4899 107.344 72.4899 107.549 72.4899 107.76C70.8531 108.067 69.2163 108.374 67.5299 108.69C67.6322 108.997 67.7345 109.304 67.8399 109.62C68.2068 109.528 68.5736 109.437 68.9516 109.343C72.7062 108.565 72.7062 108.565 73.9885 109.346C75.1034 110.402 75.8698 111.648 76.5199 113.03C76.5199 113.439 76.5199 113.848 76.5199 114.27C75.8527 114.754 75.8527 114.754 74.9893 115.2C73.8071 115.753 73.8071 115.753 73.1669 116.808C73.1481 116.993 73.1293 117.179 73.1099 117.37C73.4088 117.21 73.7078 117.049 74.0157 116.884C74.4112 116.678 74.8068 116.472 75.2024 116.266C75.399 116.159 75.5957 116.053 75.7982 115.944C77.2861 115.177 77.2861 115.177 78.0699 115.287C78.7019 115.514 79.2 115.782 79.7604 116.15C79.9522 116.275 80.144 116.4 80.3417 116.529C80.5383 116.659 80.7349 116.79 80.9374 116.924C81.2395 117.122 81.2395 117.122 81.5478 117.323C82.0428 117.647 82.5365 117.973 83.0299 118.3C81.8747 119.787 81.8747 119.787 81.1118 120.354C80.4569 120.767 80.4569 120.767 80.2399 121.71C81.486 121.236 82.3999 120.839 83.3593 119.908C84.2699 119.23 84.2699 119.23 85.1224 119.346C85.4549 119.512 85.7874 119.679 86.1299 119.85C86.3961 119.979 86.6622 120.109 86.9364 120.242C87.7058 120.619 88.4691 121.006 89.2299 121.4C89.0253 121.707 88.8207 122.014 88.6099 122.33C88.6099 122.637 88.6099 122.944 88.6099 123.26C88.9168 123.26 89.2237 123.26 89.5399 123.26C90.0686 122.658 90.0686 122.658 90.4699 122.02C93.0777 122.775 95.6481 123.632 98.2199 124.5C98.2199 124.807 98.2199 125.114 98.2199 125.43C75.2999 125.127 75.2999 125.127 67.8399 117.68C66.0497 115.466 65.0644 112.913 64.0641 110.278C63.5997 109.075 63.106 107.884 62.6087 106.694C62.5058 106.447 62.4029 106.2 62.297 105.946C61.4934 104.047 60.5971 102.206 59.6057 100.397C58.9694 99.1945 58.5862 98.2691 58.8499 96.9099C60.1586 95.5671 62.1394 95.8151 63.8874 95.8249Z" fill="#F9F9F9"/>
<path d="M83.0299 55.6799C83.2743 55.7491 83.5188 55.8184 83.7707 55.8898C85.5989 56.4133 87.4167 56.9665 89.2299 57.5399C89.4557 57.6109 89.6814 57.6819 89.9141 57.7551C99.5452 60.833 108.199 66.1741 115.58 73.0399C116.005 73.4095 116.431 73.7776 116.859 74.1442C119.277 76.2621 121.339 78.5785 123.33 81.0999C123.58 81.4136 123.829 81.7273 124.087 82.0505C127.23 86.0376 129.894 90.2423 132.286 94.7191C132.602 95.3075 132.924 95.8915 133.249 96.4751C133.422 96.7976 133.595 97.1201 133.773 97.4524C133.995 97.8624 133.995 97.8624 134.222 98.2806C134.63 99.4997 134.407 100.445 133.878 101.596C133.566 102.101 133.253 102.605 132.94 103.11C132.838 103.11 132.735 103.11 132.63 103.11C132.599 102.919 132.569 102.728 132.537 102.531C132.194 100.6 131.646 98.9415 130.789 97.1811C130.668 96.9288 130.546 96.6764 130.421 96.4164C126.118 87.7487 118.536 79.7835 110.813 74.041C110.338 73.6812 109.877 73.3041 109.416 72.926C102.395 67.2153 93.9552 63.1299 85.5099 60.0199C85.0629 59.8525 85.0629 59.8525 84.6068 59.6818C80.0758 58.0012 75.4036 57.4955 70.6299 56.9199C74.5371 52.9996 78.0584 54.268 83.0299 55.6799Z" fill="#F8F8F8"/>
<path d="M89.2643 49.4167C93.5817 49.0603 96.8468 50.0773 100.7 51.9599C100.953 52.0825 101.205 52.2052 101.466 52.3316C108.169 55.6323 114.306 59.7512 119.92 64.6699C120.166 64.8808 120.411 65.0918 120.664 65.3092C124.531 68.6929 128.277 72.3562 131.39 76.4499C131.659 76.7957 131.929 77.1412 132.2 77.4864C135.864 82.1885 135.864 82.1885 135.962 83.7349C135.979 83.9962 135.997 84.2575 136.014 84.5268C136.063 86.2781 136.062 88.0281 136.04 89.7799C135.064 88.6234 134.291 87.4061 133.54 86.0986C128.939 78.283 122.511 71.0023 115.17 65.6711C114.626 65.2721 114.091 64.8615 113.558 64.4483C110.57 62.1609 107.4 60.2865 104.11 58.4699C103.878 58.3392 103.647 58.2086 103.408 58.074C97.7487 54.8873 91.6636 52.4687 85.5098 50.4099C86.5164 49.4032 87.9032 49.548 89.2643 49.4167Z" fill="#F9F9F9"/>
<path d="M106.091 60.774C111.567 64.0628 116.561 68.0005 121.16 72.4201C121.414 72.661 121.414 72.661 121.672 72.9069C124.087 75.2086 126.234 77.6217 128.229 80.2948C128.559 80.7348 128.895 81.1697 129.232 81.6038C131.172 84.1577 132.778 86.9334 134.389 89.7015C134.648 90.1421 134.914 90.5791 135.189 91.0102C135.924 92.1883 136.182 92.9361 135.982 94.3138C135.927 94.7322 135.927 94.7322 135.872 95.1591C135.735 95.9527 135.584 96.7416 135.42 97.5301C134.677 96.8536 134.245 96.2148 133.806 95.3141C133.677 95.0567 133.549 94.7994 133.417 94.5343C133.209 94.1183 133.209 94.1183 132.998 93.6938C129.496 86.845 124.934 80.7387 119.61 75.2101C119.377 74.9666 119.377 74.9666 119.139 74.7181C117.045 72.5434 114.878 70.5422 112.48 68.7001C112.306 68.5663 112.133 68.4324 111.953 68.2946C109.147 66.1469 106.258 64.2341 103.18 62.5001C102.966 62.3775 102.752 62.2549 102.532 62.1286C94.6759 57.6571 85.7662 54.5799 76.8301 53.2001C77.661 52.169 78.6676 51.8574 79.8913 51.4176C80.2678 51.2785 80.6442 51.1394 81.032 50.9962C87.7067 49.2707 100.601 57.59 106.091 60.774Z" fill="#F7F7F7"/>
<path d="M71.5596 102.49C79.791 104.73 79.791 104.73 81.9639 108.186C86.5863 115.035 93.6176 119.807 101.63 121.71C100.766 122.67 100.087 123.217 98.8396 123.57C97.9898 123.415 97.9898 123.415 97.0619 123.083C96.7149 122.961 96.3678 122.838 96.0102 122.712C95.6396 122.573 95.2689 122.434 94.8871 122.291C94.5036 122.151 94.1202 122.01 93.7252 121.865C83.9112 118.205 76.925 113.906 72.1796 104.35C71.9555 103.736 71.7411 103.118 71.5596 102.49Z" fill="#F9F9F9"/>
<path d="M98.5303 49.48C108.327 50.9564 117.119 54.9309 124.26 61.88C124.674 62.2648 124.674 62.2648 125.096 62.6574C128.726 66.1254 131.175 70.0441 133.25 74.59C133.392 74.885 133.392 74.885 133.536 75.1859C134.216 76.6533 134.216 76.6533 133.87 77.69C133.649 77.4278 133.428 77.1657 133.201 76.8956C131.031 74.32 131.031 74.32 128.821 71.7794C128.444 71.3539 128.072 70.9248 127.702 70.4934C124.538 66.8648 120.944 63.6514 117.094 60.7679C116.692 60.4663 116.292 60.1625 115.892 59.857C110.53 55.7589 104.691 52.527 98.5303 49.79C98.5303 49.6877 98.5303 49.5854 98.5303 49.48Z" fill="#F8F8F8"/>
<path d="M80.8603 86.6798C80.8603 86.8844 80.8603 87.089 80.8603 87.2998C80.4292 87.68 80.4292 87.68 79.8528 88.1135C77.1922 90.371 77.1326 93.3226 76.8303 96.5998C76.5128 96.5342 76.5128 96.5342 76.1888 96.4673C71.6579 95.5406 67.1834 94.7786 62.5703 94.4298C62.8083 92.1375 63.2532 90.978 64.9147 89.276C69.2439 85.91 75.7407 86.5984 80.8603 86.6798Z" fill="#F9F9F9"/>
<path d="M116.51 113.34C116.612 113.34 116.715 113.34 116.82 113.34C116.809 116.807 116.045 119.695 113.642 122.291C110.107 125.485 106.057 126.696 101.412 126.711C100.722 126.671 100.122 126.551 99.46 126.36C99.5571 125.39 99.6288 124.937 100.367 124.273C100.611 124.124 100.855 123.975 101.107 123.822C101.469 123.595 101.469 123.595 101.839 123.363C102.077 123.227 102.315 123.09 102.56 122.95C102.84 122.777 102.84 122.777 103.125 122.6C103.907 122.287 104.649 122.217 105.484 122.15C108.678 121.888 111.466 121.069 113.72 118.649C114.985 117.039 115.795 115.248 116.51 113.34Z" fill="#F6F6F6"/>
</g>
<defs>
<filter id="filter0_f_233_1342" x="63.0381" y="203.557" width="64.0381" height="25.4424" filterUnits="userSpaceOnUse" color-interpolation-filters="sRGB">
<feFlood flood-opacity="0" result="BackgroundImageFix"/>
<feBlend mode="normal" in="SourceGraphic" in2="BackgroundImageFix" result="shape"/>
<feGaussianBlur stdDeviation="1" result="effect1_foregroundBlur_233_1342"/>
</filter>
<filter id="filter1_d_233_1342" x="0" y="0" width="190.115" height="224.424" filterUnits="userSpaceOnUse" color-interpolation-filters="sRGB">
<feFlood flood-opacity="0" result="BackgroundImageFix"/>
<feColorMatrix in="SourceAlpha" type="matrix" values="0 0 0 0 0 0 0 0 0 0 0 0 0 0 0 0 0 0 127 0" result="hardAlpha"/>
<feOffset dy="1"/>
<feGaussianBlur stdDeviation="2.5"/>
<feComposite in2="hardAlpha" operator="out"/>
<feColorMatrix type="matrix" values="0 0 0 0 0 0 0 0 0 0 0 0 0 0 0 0 0 0 0.1 0"/>
<feBlend mode="normal" in2="BackgroundImageFix" result="effect1_dropShadow_233_1342"/>
<feBlend mode="normal" in="SourceGraphic" in2="effect1_dropShadow_233_1342" result="shape"/>
</filter>
<clipPath id="clip0_233_1342">
<rect width="155" height="155" fill="white" transform="translate(17 16)"/>
</clipPath>
</defs>
</svg>
