<svg width="191" height="229" viewBox="0 0 191 229" fill="none" xmlns="http://www.w3.org/2000/svg">
<g filter="url(#filter0_f_233_1441)">
<ellipse cx="95.0574" cy="216.278" rx="30.0193" ry="10.7212" fill="black" fill-opacity="0.2"/>
</g>
<g filter="url(#filter1_d_233_1441)">
<path fill-rule="evenodd" clip-rule="evenodd" d="M95.0578 4C144.795 4 185.116 44.3204 185.116 94.0582C185.116 132.194 161.412 164.793 127.935 177.927L100.187 215.854C99.6088 216.648 98.8407 217.296 97.948 217.743C97.0552 218.191 96.0639 218.424 95.0578 218.424C94.0518 218.424 93.0605 218.191 92.1677 217.743C91.2749 217.296 90.5069 216.648 89.9284 215.854L62.181 177.927C28.7035 164.793 5 132.194 5 94.0582C5 44.3204 45.3203 4 95.0578 4Z" fill="white"/>
</g>
<g clip-path="url(#clip0_233_1441)">
<path d="M18 93.0813C18 50.2792 52.1167 15 94.9187 15C137.721 15 173 49.1167 173 91.9187C173 134.721 138.883 170 96.0813 170C53.2792 170 18 135.883 18 93.0813Z" fill="#4B231B"/>
<path d="M115.65 56.5401C116.028 56.5485 116.028 56.5485 116.413 56.5571C120.808 56.8348 125.208 59.2518 128.18 62.441C131.779 66.9104 133.508 71.9329 133.437 77.6395C133.434 78.0042 133.431 78.369 133.428 78.7448C133.344 83.6586 132.509 88.1957 130.84 92.8101C130.703 93.1917 130.566 93.5734 130.425 93.9665C125.887 105.897 117.042 114.802 106.04 121.02C105.845 121.133 105.65 121.245 105.448 121.361C96.3577 126.565 84.5174 131.636 73.8997 128.819C68.5863 126.968 63.9868 124.071 61.2684 118.947C58.834 113.776 58.0791 108.449 59.7535 102.914C61.8604 97.1455 65.9389 93.0894 71.4131 90.3998C72.7653 89.7866 74.1593 89.3167 75.5635 88.8382C82.3193 86.4406 87.2901 83.1204 90.452 76.5085C90.9157 75.4395 91.3542 74.3645 91.7804 73.2801C94.8695 65.5669 98.9424 60.7436 106.551 57.4217C109.463 56.3769 112.601 56.4368 115.65 56.5401Z" fill="#FEFEFE"/>
<path d="M99.375 74.4038C100.15 74.5201 100.15 74.5201 100.712 74.8494C101.285 75.7842 101.153 76.5375 101.08 77.6201C100.809 78.4451 100.53 79.1819 100.169 79.9644C100.073 80.1787 99.9759 80.3929 99.8762 80.6136C98.2302 84.1454 96.0885 87.2571 93.33 90.0201C92.9434 90.4121 92.9434 90.4121 92.549 90.812C89.4944 93.7548 86.2099 95.4714 82.2475 96.8401C81.9801 96.934 81.7126 97.028 81.437 97.1249C79.6965 97.6907 77.7933 98.1967 75.97 97.7701C75.4145 97.1912 75.4145 97.1912 75.04 96.5301C75.0814 95.6812 75.2028 95.1796 75.7085 94.4945C76.5148 93.8676 77.2539 93.7973 78.2563 93.6238C84.5087 92.3656 89.8315 89.1587 93.5027 83.8667C94.8724 81.7915 95.9 79.5905 96.8486 77.2955C96.9431 77.0689 97.0375 76.8423 97.1348 76.6089C97.2567 76.307 97.2567 76.307 97.3811 75.999C97.8803 75.0505 98.3015 74.5648 99.375 74.4038Z" fill="#4B231B"/>
</g>
<defs>
<filter id="filter0_f_233_1441" x="63.0381" y="203.557" width="64.0381" height="25.4424" filterUnits="userSpaceOnUse" color-interpolation-filters="sRGB">
<feFlood flood-opacity="0" result="BackgroundImageFix"/>
<feBlend mode="normal" in="SourceGraphic" in2="BackgroundImageFix" result="shape"/>
<feGaussianBlur stdDeviation="1" result="effect1_foregroundBlur_233_1441"/>
</filter>
<filter id="filter1_d_233_1441" x="0" y="0" width="190.115" height="224.424" filterUnits="userSpaceOnUse" color-interpolation-filters="sRGB">
<feFlood flood-opacity="0" result="BackgroundImageFix"/>
<feColorMatrix in="SourceAlpha" type="matrix" values="0 0 0 0 0 0 0 0 0 0 0 0 0 0 0 0 0 0 127 0" result="hardAlpha"/>
<feOffset dy="1"/>
<feGaussianBlur stdDeviation="2.5"/>
<feComposite in2="hardAlpha" operator="out"/>
<feColorMatrix type="matrix" values="0 0 0 0 0 0 0 0 0 0 0 0 0 0 0 0 0 0 0.1 0"/>
<feBlend mode="normal" in2="BackgroundImageFix" result="effect1_dropShadow_233_1441"/>
<feBlend mode="normal" in="SourceGraphic" in2="effect1_dropShadow_233_1441" result="shape"/>
</filter>
<clipPath id="clip0_233_1441">
<rect width="155" height="155" fill="white" transform="translate(18 15)"/>
</clipPath>
</defs>
</svg>
