<svg width="191" height="229" viewBox="0 0 191 229" fill="none" xmlns="http://www.w3.org/2000/svg">
<g filter="url(#filter0_f_233_1206)">
<ellipse cx="95.0574" cy="216.279" rx="30.0193" ry="10.7212" fill="black" fill-opacity="0.2"/>
</g>
<g filter="url(#filter1_d_233_1206)">
<path fill-rule="evenodd" clip-rule="evenodd" d="M95.0578 4C144.795 4 185.116 44.3204 185.116 94.0582C185.116 132.194 161.412 164.793 127.935 177.927L100.187 215.854C99.6088 216.648 98.8407 217.296 97.948 217.743C97.0552 218.191 96.0639 218.424 95.0578 218.424C94.0518 218.424 93.0605 218.191 92.1677 217.743C91.2749 217.296 90.5069 216.648 89.9284 215.854L62.181 177.927C28.7035 164.793 5 132.194 5 94.0582C5 44.3204 45.3203 4 95.0578 4Z" fill="white"/>
</g>
<path d="M88.8935 16.3216C68.3219 17.5864 47.6387 28.3 34.6931 44.3704C19.7015 62.9704 13.8983 86.332 18.5855 109.284C25.6163 143.508 54.7811 168.99 89.3771 171.036C112.367 172.413 133.682 164.526 149.344 148.791C184.832 113.19 178.248 54.4888 135.766 27.8164C127.805 22.8316 118.505 19.2604 108.2 17.2516C105.745 16.768 94.9943 15.838 93.7295 16.024C93.5435 16.024 91.3487 16.1728 88.8935 16.3216ZM115.231 43.6636C120.551 53.4844 123.899 62.338 125.424 70.8196C126.28 75.3952 126.242 85.0672 125.387 88.8244C123.266 98.3104 118.877 106.494 112.516 112.967C106.861 118.733 101.876 121.821 90.8279 126.396C84.2435 129.149 79.2215 131.604 76.3943 133.539C71.6327 136.775 67.3919 141.983 66.0155 146.298L65.3087 148.568V145.889C65.2343 139.937 67.6895 131.232 71.6327 123.309C75.5387 115.422 80.9699 107.796 90.9767 96.0412C101.43 83.7652 107.903 75.2092 111.176 69.3316L112.218 67.4716L110.395 69.3316C105.336 74.5768 85.0619 96.2272 82.2347 99.3892C75.4643 107.052 71.0003 113.339 67.6895 119.961C66.6107 122.118 65.6435 123.755 65.5319 123.569C65.0483 122.788 64.1555 118.436 63.7835 114.902C63.1511 109.136 63.8207 99.9472 65.3087 93.9208C68.2847 82.054 73.1579 76.6228 89.0795 67.4716C96.8915 62.9704 100.537 60.3664 103.96 56.9068C109.093 51.6988 111.4 47.086 111.697 41.32C111.92 37.3024 111.66 37.1536 115.231 43.6636Z" fill="#914F3B"/>
<defs>
<filter id="filter0_f_233_1206" x="63.0381" y="203.558" width="64.0381" height="25.4424" filterUnits="userSpaceOnUse" color-interpolation-filters="sRGB">
<feFlood flood-opacity="0" result="BackgroundImageFix"/>
<feBlend mode="normal" in="SourceGraphic" in2="BackgroundImageFix" result="shape"/>
<feGaussianBlur stdDeviation="1" result="effect1_foregroundBlur_233_1206"/>
</filter>
<filter id="filter1_d_233_1206" x="0" y="0" width="190.115" height="224.424" filterUnits="userSpaceOnUse" color-interpolation-filters="sRGB">
<feFlood flood-opacity="0" result="BackgroundImageFix"/>
<feColorMatrix in="SourceAlpha" type="matrix" values="0 0 0 0 0 0 0 0 0 0 0 0 0 0 0 0 0 0 127 0" result="hardAlpha"/>
<feOffset dy="1"/>
<feGaussianBlur stdDeviation="2.5"/>
<feComposite in2="hardAlpha" operator="out"/>
<feColorMatrix type="matrix" values="0 0 0 0 0 0 0 0 0 0 0 0 0 0 0 0 0 0 0.1 0"/>
<feBlend mode="normal" in2="BackgroundImageFix" result="effect1_dropShadow_233_1206"/>
<feBlend mode="normal" in="SourceGraphic" in2="effect1_dropShadow_233_1206" result="shape"/>
</filter>
</defs>
</svg>
