<svg width="191" height="229" viewBox="0 0 191 229" fill="none" xmlns="http://www.w3.org/2000/svg">
<g filter="url(#filter0_f_233_1188)">
<ellipse cx="95.0574" cy="216.279" rx="30.0193" ry="10.7212" fill="black" fill-opacity="0.2"/>
</g>
<g filter="url(#filter1_d_233_1188)">
<path fill-rule="evenodd" clip-rule="evenodd" d="M95.0578 4C144.795 4 185.116 44.3204 185.116 94.0582C185.116 132.194 161.412 164.793 127.935 177.927L100.187 215.854C99.6088 216.648 98.8407 217.296 97.948 217.743C97.0552 218.191 96.0639 218.424 95.0578 218.424C94.0518 218.424 93.0605 218.191 92.1677 217.743C91.2749 217.296 90.5069 216.648 89.9284 215.854L62.181 177.927C28.7035 164.793 5 132.194 5 94.0582C5 44.3204 45.3203 4 95.0578 4Z" fill="white"/>
</g>
<path d="M86.0007 17.1192C71.9383 18.9518 57.5393 24.9732 46.8803 33.5004C43.5891 36.1184 37.9043 41.7284 35.2115 45.0196C26.2729 55.9404 20.3637 69.4792 18.2693 83.6912C17.5213 88.9646 17.5213 100.035 18.3067 105.308C21.5979 127.973 34.1643 147.645 53.3131 160.099C60.9427 165.074 71.2277 169.188 80.8395 171.058C85.5893 171.993 86.6739 172.067 95.5003 172.067C104.327 172.067 105.411 171.993 110.161 171.058C119.96 169.113 130.507 164.887 138.323 159.688C157.435 147.009 170.076 126.589 172.881 103.85C173.479 99.1374 173.405 88.3288 172.731 83.6912C169.478 61.3634 156.986 41.6162 138.361 29.349C128.786 23.0284 116.444 18.5778 104.476 17.0818C100.774 16.633 89.7033 16.6704 86.0007 17.1192ZM143.933 55.0428C149.656 66.562 152.199 75.3136 152.61 85.0002C152.76 89.0768 152.685 91.1338 152.161 94.1258C149.73 108.861 140.979 121.353 127.964 128.796C126.168 129.843 121.942 131.788 118.613 133.209C105.785 138.482 101.634 140.951 97.1085 145.887C94.5279 148.692 92.7701 151.759 91.9473 154.901C91.6481 156.098 91.2741 157.182 91.1619 157.294C90.7505 157.668 91.3863 149.515 91.9847 146.486C92.9571 141.512 94.8271 136.35 97.6321 130.74C101.858 122.251 107.094 114.845 117.267 102.915C127.739 90.5728 133.835 82.5318 137.388 76.3608L138.248 74.8648L137.313 75.7998C135.518 77.5576 112.891 101.793 109.525 105.533C102.12 113.761 97.1085 120.755 93.7799 127.524C91.8351 131.488 91.7603 131.601 91.3863 130.553C89.8155 126.439 89.1423 117.351 89.8529 110.021C91.2367 96.108 94.7897 88.7776 103.504 81.9708C107.057 79.2406 108.927 78.0438 115.696 74.1168C126.056 68.1328 131.217 63.9066 134.471 58.5958C136.902 54.6688 137.912 51.3402 137.949 47.301V44.0472L139.183 45.992C139.857 47.0766 141.988 51.1158 143.933 55.0428ZM50.2089 58.895C52.0415 63.8318 56.5295 68.1328 64.6079 72.8826C77.6979 80.5122 81.8119 84.6262 84.0559 92.2558C86.1503 99.2496 86.3747 109.422 84.6169 115.967L84.2055 117.501L82.5973 114.247C79.1191 107.216 75.0425 102.092 61.0923 87.2068C55.7067 81.4472 50.8821 76.3234 50.3585 75.7998L49.4235 74.8648L49.8723 75.7998C51.7049 79.3528 56.3425 85.449 66.2535 97.3048C78.8573 112.302 83.8689 122.288 84.4673 133.321L84.6543 136.949L83.9437 134.817C82.9713 131.862 81.5875 129.618 79.4183 127.449C76.0897 124.121 73.5091 122.625 63.8225 118.511C56.8287 115.519 54.5473 114.247 50.9195 111.18C41.1207 102.952 36.1839 89.376 38.4653 76.6974C39.6247 70.0028 42.3549 62.9716 46.8055 54.9306L48.9373 51.0784L49.1617 53.9208C49.3113 55.4542 49.7601 57.6982 50.2089 58.895Z" fill="#606C38"/>
<defs>
<filter id="filter0_f_233_1188" x="63.0381" y="203.558" width="64.0381" height="25.4424" filterUnits="userSpaceOnUse" color-interpolation-filters="sRGB">
<feFlood flood-opacity="0" result="BackgroundImageFix"/>
<feBlend mode="normal" in="SourceGraphic" in2="BackgroundImageFix" result="shape"/>
<feGaussianBlur stdDeviation="1" result="effect1_foregroundBlur_233_1188"/>
</filter>
<filter id="filter1_d_233_1188" x="0" y="0" width="190.115" height="224.424" filterUnits="userSpaceOnUse" color-interpolation-filters="sRGB">
<feFlood flood-opacity="0" result="BackgroundImageFix"/>
<feColorMatrix in="SourceAlpha" type="matrix" values="0 0 0 0 0 0 0 0 0 0 0 0 0 0 0 0 0 0 127 0" result="hardAlpha"/>
<feOffset dy="1"/>
<feGaussianBlur stdDeviation="2.5"/>
<feComposite in2="hardAlpha" operator="out"/>
<feColorMatrix type="matrix" values="0 0 0 0 0 0 0 0 0 0 0 0 0 0 0 0 0 0 0.1 0"/>
<feBlend mode="normal" in2="BackgroundImageFix" result="effect1_dropShadow_233_1188"/>
<feBlend mode="normal" in="SourceGraphic" in2="effect1_dropShadow_233_1188" result="shape"/>
</filter>
</defs>
</svg>
