<svg width="191" height="229" viewBox="0 0 191 229" fill="none" xmlns="http://www.w3.org/2000/svg">
<g filter="url(#filter0_f_233_1291)">
<ellipse cx="95.0574" cy="216.279" rx="30.0193" ry="10.7212" fill="black" fill-opacity="0.2"/>
</g>
<g filter="url(#filter1_d_233_1291)">
<path fill-rule="evenodd" clip-rule="evenodd" d="M95.0578 4C144.795 4 185.116 44.3204 185.116 94.0582C185.116 132.194 161.412 164.793 127.935 177.927L100.187 215.854C99.6088 216.648 98.8407 217.296 97.948 217.743C97.0552 218.191 96.0639 218.424 95.0578 218.424C94.0518 218.424 93.0605 218.191 92.1677 217.743C91.2749 217.296 90.5069 216.648 89.9284 215.854L62.181 177.927C28.7035 164.793 5 132.194 5 94.0582C5 44.3204 45.3203 4 95.0578 4Z" fill="white"/>
</g>
<g clip-path="url(#clip0_233_1291)">
<path d="M18 95.0813C18 52.2792 52.1167 17 94.9187 17C137.721 17 173 51.1167 173 93.9187C173 136.721 138.883 172 96.0813 172C53.2792 172 18 137.883 18 95.0813Z" fill="#DDA15E"/>
<path d="M111.62 54.5098C111.927 54.6121 112.234 54.7144 112.55 54.8198C112.554 55.0523 112.559 55.2849 112.563 55.5245C112.661 57.6315 113.012 59.1619 114.051 61.0016C115.468 63.5235 114.836 67.0306 114.1 69.6998C114.287 69.5727 114.474 69.4456 114.667 69.3147C114.914 69.1476 115.162 68.9806 115.417 68.8085C115.662 68.6431 115.906 68.4776 116.158 68.3072C118.243 66.9753 120.166 66.8619 122.586 66.8904C122.814 66.8918 123.042 66.8932 123.278 66.8946C123.835 66.8982 124.392 66.9038 124.95 66.9098C125.154 66.0914 125.359 65.273 125.57 64.4298C125.979 64.4298 126.388 64.4298 126.81 64.4298C126.503 65.9643 126.503 65.9643 126.19 67.5298C125.883 67.6321 125.576 67.7344 125.26 67.8398C125.225 68.0675 125.19 68.2953 125.155 68.53C124.565 71.0075 122.577 72.8608 120.61 74.3498C120.303 74.5032 120.303 74.5032 119.99 74.6598C121.627 74.7621 123.263 74.8644 124.95 74.9698C125.257 74.1514 125.564 73.333 125.88 72.4898C126.187 72.4898 126.494 72.4898 126.81 72.4898C126.766 72.9355 126.72 73.3811 126.674 73.8266C126.636 74.1989 126.636 74.1989 126.598 74.5786C126.5 75.2798 126.5 75.2798 126.19 76.2098C125.883 76.3632 125.883 76.3632 125.57 76.5198C125.292 77.0817 125.03 77.6515 124.776 78.2248C123.659 80.5301 122.119 82.2303 119.99 83.6498C121.627 83.7521 123.263 83.8544 124.95 83.9598C125.154 83.2437 125.359 82.5276 125.57 81.7898C125.877 81.7898 126.184 81.7898 126.5 81.7898C126.539 84.1923 126.539 84.1923 126.19 84.8898C125.985 84.8898 125.781 84.8898 125.57 84.8898C125.524 85.0624 125.479 85.235 125.432 85.4129C124.529 88.4837 122.902 90.2249 120.3 92.0198C121.834 92.1221 123.369 92.2244 124.95 92.3298C125.257 91.6137 125.564 90.8976 125.88 90.1598C126.187 90.1598 126.494 90.1598 126.81 90.1598C126.783 90.6574 126.749 91.1546 126.713 91.6516C126.686 92.067 126.686 92.067 126.659 92.4908C126.474 93.3848 126.232 93.5917 125.57 94.1898C125.312 94.6346 125.067 95.0875 124.834 95.546C123.815 97.4235 122.363 98.6469 120.75 100.007C120.314 100.367 120.314 100.367 119.99 100.7C120.244 100.696 120.498 100.693 120.76 100.689C121.094 100.686 121.428 100.683 121.772 100.68C122.269 100.675 122.269 100.675 122.775 100.669C123.565 100.695 124.199 100.778 124.95 101.01C125.154 100.294 125.359 99.5776 125.57 98.8398C125.877 98.8398 126.184 98.8398 126.5 98.8398C126.591 100.686 126.591 100.686 126.5 101.32C126.201 101.64 125.89 101.95 125.57 102.25C125.239 102.888 125.239 102.888 124.969 103.587C123.595 106.773 121.488 108.82 118.355 110.289C116.478 111.023 114.569 111.55 112.55 111.55C112.561 111.78 112.571 112.011 112.583 112.248C112.706 117.208 111.985 122.264 110.69 127.05C110.814 126.84 110.938 126.629 111.066 126.413C112.781 123.606 114.849 121.279 117.2 118.99C117.35 118.826 117.5 118.661 117.655 118.492C120.671 115.27 124.862 112.924 129.304 112.75C131.044 112.826 131.95 113.31 133.242 114.514C135.443 117.528 134.97 121.343 134.87 124.88C134.323 123.829 133.991 122.806 133.669 121.664C133.109 119.816 132.572 118.58 131.227 117.188C129.734 116.4 128.289 116.363 126.694 116.8C120.906 119.008 117.624 125.323 115.168 130.612C114.63 131.859 114.63 131.859 114.1 133.87C111.235 133.87 108.371 133.87 105.42 133.87C104.806 131.875 104.806 131.875 104.18 129.84C102.594 126.539 100.793 124.418 97.3599 123.02C93.8738 121.858 90.4159 123.065 87.1299 124.26C87.197 124.744 87.197 124.744 87.2655 125.238C87.6745 128.341 87.8257 131.362 87.7499 134.49C87.443 134.49 87.1361 134.49 86.8199 134.49C86.8199 134.285 86.8199 134.081 86.8199 133.87C86.4267 133.924 86.4267 133.924 86.0255 133.979C83.1892 134.204 83.1892 134.204 82.0573 133.256C81.4451 132.445 80.8799 131.611 80.3099 130.77C77.4567 127.65 73.4137 126.123 69.2673 125.733C65.274 125.625 61.0337 126.661 57.6024 128.716C57.1804 128.965 57.1804 128.965 56.7499 129.22C56.5453 129.117 56.3407 129.015 56.1299 128.91C59.5269 124.901 63.5788 121.476 68.9646 120.749C74.2596 120.5 78.4156 123.649 82.1614 126.972C83.741 128.469 84.9603 130.229 86.1999 132.01C86.3963 128.279 85.3934 124.727 84.224 121.219C83.9295 120.33 83.7199 119.624 83.7199 118.68C83.5091 118.686 83.2983 118.693 83.0812 118.699C82.1123 118.725 81.1434 118.741 80.1743 118.757C79.8428 118.768 79.5113 118.778 79.1698 118.789C76.9758 118.816 75.4015 118.523 73.4899 117.44C73.2201 117.294 72.9504 117.149 72.6725 116.999C71.2091 116.051 70.2178 115.106 69.2698 113.637C68.7731 113.016 68.3144 112.809 67.5999 112.48C66.9587 111.55 66.9181 110.802 66.9799 109.69C67.5611 109.748 67.5611 109.748 68.2199 110C68.6074 110.794 68.6074 110.794 68.8399 111.55C69.1404 111.409 69.4409 111.268 69.7505 111.124C71.0613 110.557 72.4021 110.269 73.7999 110C73.6049 109.932 73.4099 109.864 73.2089 109.794C70.5135 108.795 68.5542 107.49 66.8007 105.2C66.2919 104.657 65.7864 104.427 65.1199 104.11C64.5494 103.322 64.4834 102.991 64.6161 102.017C64.6801 101.787 64.744 101.557 64.8099 101.32C66.0111 102.482 66.0111 102.482 66.3599 103.18C66.5397 103.12 66.7195 103.06 66.9048 102.998C68.2732 102.542 69.6415 102.086 71.0099 101.63C70.8185 101.569 70.6271 101.508 70.4298 101.446C68.2879 100.689 66.6154 99.6406 65.1199 97.9098C64.7324 97.056 64.7324 97.056 64.4999 96.3598C64.193 96.3598 63.8861 96.3598 63.5699 96.3598C62.5709 94.7553 62.5709 94.7553 62.3299 94.1898C62.4833 93.7294 62.4833 93.7294 62.6399 93.2598C63.2018 93.3179 63.2018 93.3179 63.8799 93.5698C64.2053 94.0769 64.5168 94.5933 64.8099 95.1198C65.0417 95.0338 65.2734 94.9479 65.5122 94.8594C65.8175 94.7471 66.1228 94.6348 66.4374 94.5191C66.7395 94.4076 67.0416 94.2962 67.3529 94.1813C68.0539 93.9375 68.737 93.7333 69.4599 93.5698C69.1718 93.4383 68.8836 93.3068 68.5868 93.1714C65.7892 91.8587 63.4873 90.707 62.3299 87.6798C62.0422 87.6222 62.0422 87.6222 61.7486 87.5635C60.9169 87.3189 60.8123 87.0531 60.373 86.3235C59.8499 85.1998 59.8499 85.1998 60.1599 84.2698C61.347 84.7201 61.7472 85.3327 62.3299 86.4398C63.2224 86.1492 64.1007 85.8577 64.9649 85.4904C65.8377 85.1631 66.6786 85.0183 67.5999 84.8898C67.4085 84.8218 67.2171 84.7539 67.0198 84.6839C64.1681 83.6161 62.0494 82.3194 60.1599 79.9298C59.853 79.8275 59.5461 79.7252 59.2299 79.6198C57.9899 77.7421 57.9899 77.7421 57.9899 76.2098C58.5518 76.2679 58.5518 76.2679 59.2299 76.5198C60.1599 77.8151 60.1599 77.8151 60.1599 78.6898C60.404 78.6003 60.6482 78.5107 60.8998 78.4185C64.3457 77.244 67.355 76.831 70.7229 78.4185C71.3047 78.7325 71.3047 78.7325 71.9399 78.6898C71.8164 78.5279 71.6929 78.3661 71.5657 78.1993C69.7366 75.6582 68.7728 72.856 69.1499 69.6998C69.2586 69.3737 69.3673 69.0476 69.4793 68.7116C69.9329 66.8667 69.6524 65.0653 69.4599 63.1898C69.7668 63.1898 70.0737 63.1898 70.3899 63.1898C70.7553 64.0511 71.0262 64.8244 71.2036 65.7473C71.6319 66.9153 71.993 67.3666 72.8311 68.2466C75.3592 70.9766 75.5642 73.8616 75.6599 77.4498C75.7957 77.2699 75.9316 77.0901 76.0716 76.9048C78.2384 74.236 80.9657 72.7823 84.3399 72.1798C84.7491 72.1798 85.1583 72.1798 85.5799 72.1798C85.5799 71.1568 85.5799 70.1338 85.5799 69.0798C85.9891 69.0798 86.3983 69.0798 86.8199 69.0798C86.8199 70.2051 86.8199 71.3304 86.8199 72.4898C86.6153 72.4898 86.4107 72.4898 86.1999 72.4898C86.1871 72.8734 86.1743 73.257 86.1611 73.6523C85.8587 76.3875 84.3443 78.8856 82.4799 80.8598C82.8347 80.7063 82.8347 80.7063 83.1968 80.5498C84.7279 80.1345 86.1734 80.1893 87.7499 80.2398C87.7499 79.2168 87.7499 78.1938 87.7499 77.1398C88.1591 77.1398 88.5683 77.1398 88.9899 77.1398C89.0068 77.6692 89.0187 78.1989 89.0286 78.7285C89.0358 79.0234 89.043 79.3183 89.0504 79.6222C88.9833 80.6506 88.7212 81.4431 88.3699 82.4098C88.282 82.7318 88.1941 83.0539 88.1035 83.3858C87.4917 85.6023 86.766 87.1843 85.2699 88.9198C85.0653 89.2267 84.8607 89.5336 84.6499 89.8498C84.944 89.6963 85.2381 89.5429 85.5411 89.3848C86.9798 88.7555 88.3773 88.836 89.9199 88.9198C89.9199 87.9991 89.9199 87.0784 89.9199 86.1298C90.5337 86.2832 90.5337 86.2832 91.1599 86.4398C91.1599 87.3605 91.1599 88.2812 91.1599 89.2298C90.9553 89.2298 90.7507 89.2298 90.5399 89.2298C90.5655 89.6326 90.591 90.0354 90.6174 90.4504C90.6088 93.2004 89.1247 95.2286 87.4399 97.2898C88.3716 97.2898 89.2373 97.0228 90.1403 96.8054C90.8499 96.6698 90.8499 96.6698 92.0899 96.6698C92.0899 95.9537 92.0899 95.2376 92.0899 94.4998C92.6905 94.3254 92.6905 94.3254 93.3299 94.1898C93.9173 94.7772 93.6957 95.6069 93.7113 96.3876C93.6399 96.9798 93.6399 96.9798 93.0199 97.5998C92.8806 98.2098 92.7609 98.8243 92.6518 99.4404C92.177 101.645 91.2286 103.23 89.9199 105.04C89.7153 105.347 89.5107 105.654 89.2999 105.97C89.5057 105.903 89.7115 105.835 89.9235 105.766C90.3341 105.637 90.3341 105.637 90.753 105.505C91.1576 105.375 91.1576 105.375 91.5704 105.243C92.398 105.04 93.1017 105.003 93.9499 105.04C93.9499 104.324 93.9499 103.608 93.9499 102.87C94.5505 102.695 94.5505 102.695 95.1899 102.56C95.4999 102.87 95.4999 102.87 95.5302 103.51C95.5266 103.766 95.523 104.021 95.5193 104.284C95.5165 104.54 95.5137 104.796 95.5108 105.06C95.5072 105.258 95.5036 105.456 95.4999 105.66C95.2953 105.66 95.0907 105.66 94.8799 105.66C94.9055 105.941 94.931 106.222 94.9574 106.512C94.9391 109.523 93.534 112.227 91.4699 114.34C89.7792 115.87 87.3356 118.06 84.9599 118.06C85.4714 119.799 85.9829 121.538 86.5099 123.33C87.3473 123.33 87.6233 122.996 88.2924 122.497C91.6683 120.184 95.7932 119.22 99.8399 119.61C102.758 120.364 104.868 121.845 106.513 124.365C107.425 125.953 108.21 127.363 108.21 129.22C108.414 129.22 108.619 129.22 108.83 129.22C108.846 129.046 108.861 128.872 108.877 128.693C109.013 127.319 109.216 126.013 109.561 124.672C110.659 120.383 110.932 115.948 111.31 111.55C111.128 111.533 110.946 111.517 110.759 111.5C107.041 111.133 103.404 109.736 100.809 106.958C99.6353 105.516 98.5999 103.836 98.5999 101.94C98.293 101.94 97.9861 101.94 97.6699 101.94C97.2116 101.023 97.3412 100.16 97.3599 99.1498C97.7691 99.1498 98.1783 99.1498 98.5999 99.1498C98.7022 99.7636 98.8045 100.377 98.9099 101.01C99.0713 100.959 99.2328 100.908 99.3991 100.856C100.359 100.656 101.262 100.671 102.242 100.68C102.787 100.685 102.787 100.685 103.342 100.689C103.618 100.692 103.895 100.696 104.18 100.7C103.954 100.547 103.954 100.547 103.725 100.391C101.461 98.7849 99.3188 96.8263 98.2899 94.1898C98.2899 93.9852 98.2899 93.7806 98.2899 93.5698C97.983 93.4675 97.6761 93.3652 97.3599 93.2598C97.2576 92.2368 97.1553 91.2138 97.0499 90.1598C97.3568 90.1598 97.6637 90.1598 97.9799 90.1598C98.3694 91.0606 98.5999 91.6465 98.5999 92.6398C100.237 92.4352 101.873 92.2306 103.56 92.0198C103.138 91.7193 102.716 91.4188 102.281 91.1091C100.243 89.526 99.0431 87.5287 97.9799 85.1998C97.89 85.0175 97.8001 84.8353 97.7074 84.6476C97.0271 83.2076 97.0271 83.2076 97.1468 82.2741C97.2523 82.0344 97.2523 82.0344 97.3599 81.7898C97.6668 81.7898 97.9737 81.7898 98.2899 81.7898C98.5968 83.0174 98.5968 83.0174 98.9099 84.2698C100.547 84.0652 102.183 83.8606 103.87 83.6498C103.397 83.247 102.924 82.8442 102.436 82.4291C100.691 80.8547 99.2095 79.2896 98.6386 76.9654C98.6258 76.716 98.6131 76.4667 98.5999 76.2098C98.293 76.2098 97.9861 76.2098 97.6699 76.2098C97.505 75.7654 97.3443 75.3195 97.1855 74.8729C97.0506 74.5007 97.0506 74.5007 96.913 74.1209C96.7399 73.4198 96.7399 73.4198 97.0499 72.4898C97.4591 72.5921 97.8683 72.6944 98.2899 72.7998C98.4945 73.5159 98.6991 74.232 98.9099 74.9698C101.365 74.8163 101.365 74.8163 103.87 74.6598C103.454 74.3657 103.039 74.0715 102.611 73.7685C100.947 72.4757 99.1269 70.719 98.7743 68.5591C98.7167 68.3217 98.6592 68.0843 98.5999 67.8398C98.1878 67.6305 97.7745 67.4238 97.3599 67.2198C97.171 66.5489 97.171 66.5489 97.1274 65.786C97.1098 65.5327 97.0922 65.2793 97.0741 65.0183C97.0621 64.727 97.0621 64.727 97.0499 64.4298C97.4591 64.4298 97.8683 64.4298 98.2899 64.4298C98.5968 65.6574 98.5968 65.6574 98.9099 66.9098C99.1648 66.9026 99.4198 66.8954 99.6825 66.888C103.7 66.823 106.97 67.2974 110.07 70.0098C110.003 69.8363 109.936 69.6629 109.866 69.4842C108.656 65.998 108.769 62.8877 110.321 59.5412C110.69 58.8498 110.69 58.8498 111 58.5398C111.065 57.921 111.114 57.3006 111.155 56.6798C111.275 54.8542 111.275 54.8542 111.62 54.5098Z" fill="#FAFAFA"/>
<path d="M76.5898 110.31C78.2266 110.31 79.8634 110.31 81.5498 110.31C81.7544 111.435 81.959 112.56 82.1698 113.72C81.8246 113.438 81.4793 113.157 81.1236 112.867C79.719 111.805 78.2437 111.196 76.5898 110.62C76.5898 110.517 76.5898 110.415 76.5898 110.31Z" fill="#DDA15E"/>
<path d="M106.97 101.94C107.153 101.982 107.337 102.023 107.526 102.065C107.771 102.12 108.015 102.175 108.268 102.231C108.509 102.285 108.75 102.339 108.998 102.395C109.767 102.562 110.538 102.716 111.31 102.87C111.31 103.996 111.31 105.121 111.31 106.28C110.59 105.587 109.945 104.887 109.314 104.11C108.587 103.259 107.866 102.606 106.97 101.94Z" fill="#DDA15E"/>
<path d="M107.59 76.21C108.094 76.3578 108.598 76.5065 109.101 76.6556C109.382 76.7383 109.662 76.821 109.951 76.9062C110.69 77.14 110.69 77.14 111.31 77.45C111.31 78.5753 111.31 79.7006 111.31 80.86C111.15 80.6554 110.99 80.4508 110.825 80.24C110.03 79.261 109.201 78.3192 108.361 77.3785C107.9 76.83 107.9 76.83 107.59 76.21Z" fill="#DDA15E"/>
<path d="M107.59 93.5703C108.152 93.6657 108.714 93.7629 109.275 93.8609C109.745 93.9419 109.745 93.9419 110.224 94.0244C111 94.1903 111 94.1903 111.31 94.5003C111.332 95.023 111.336 95.5466 111.329 96.0697C111.326 96.3546 111.324 96.6395 111.321 96.9331C111.317 97.1533 111.314 97.3735 111.31 97.6003C111.156 97.3893 111.003 97.1783 110.845 96.9609C110.001 95.9693 109.084 95.166 108.089 94.3308C107.924 94.1821 107.759 94.0335 107.59 93.8803C107.59 93.778 107.59 93.6757 107.59 93.5703Z" fill="#DDA15E"/>
<path d="M71.3203 85.5098C72.5479 85.5098 73.7755 85.5098 75.0403 85.5098C75.2449 86.5328 75.4495 87.5558 75.6603 88.6098C75.2895 88.322 74.9186 88.0343 74.5366 87.7379C73.5108 86.9659 72.4954 86.3485 71.3203 85.8198C71.3203 85.7175 71.3203 85.6152 71.3203 85.5098Z" fill="#DDA15E"/>
<path d="M116.27 102.56C116.105 102.702 115.941 102.844 115.771 102.991C114.663 103.953 113.567 104.91 112.55 105.97C112.55 105.049 112.55 104.129 112.55 103.18C112.994 103.015 113.44 102.854 113.887 102.696C114.259 102.561 114.259 102.561 114.639 102.423C115.34 102.25 115.34 102.25 116.27 102.56Z" fill="#DDA15E"/>
<path d="M73.1797 93.8799C74.5096 93.8799 75.8395 93.8799 77.2097 93.8799C77.4143 94.8006 77.6189 95.7213 77.8297 96.6699C77.6239 96.5428 77.4181 96.4157 77.2061 96.2848C76.9323 96.1178 76.6586 95.9507 76.3766 95.7786C76.1068 95.6132 75.8371 95.4478 75.5592 95.2773C74.7812 94.8389 74.0158 94.5002 73.1797 94.1899C73.1797 94.0876 73.1797 93.9853 73.1797 93.8799Z" fill="#DDA15E"/>
<path d="M75.6602 102.25C76.8878 102.25 78.1154 102.25 79.3802 102.25C79.5848 103.171 79.7894 104.091 80.0002 105.04C77.8519 103.812 77.8519 103.812 75.6602 102.56C75.6602 102.458 75.6602 102.355 75.6602 102.25Z" fill="#DDA15E"/>
<path d="M85.27 108.45C85.4746 108.552 85.6792 108.655 85.89 108.76C85.7594 108.977 85.6287 109.193 85.4941 109.417C85.3242 109.699 85.1544 109.981 84.9794 110.271C84.8104 110.552 84.6413 110.832 84.4672 111.122C84.204 111.566 83.9512 112.018 83.72 112.48C83.5154 112.48 83.3108 112.48 83.1 112.48C82.9977 111.662 82.8954 110.843 82.79 110C83.1885 109.732 83.5894 109.468 83.9913 109.206C84.3258 108.985 84.3258 108.985 84.667 108.759C84.866 108.657 85.065 108.555 85.27 108.45Z" fill="#DDA15E"/>
<path d="M115.96 76.8297C115.736 77.0407 115.512 77.2517 115.282 77.4691C114.624 78.1207 114.086 78.8026 113.557 79.5616C113.327 79.8877 113.097 80.2137 112.86 80.5497C112.758 80.5497 112.655 80.5497 112.55 80.5497C112.55 79.5267 112.55 78.5037 112.55 77.4497C115.262 76.481 115.262 76.481 115.96 76.8297Z" fill="#DDA15E"/>
<path d="M115.65 94.1899C114.616 95.2232 113.583 96.2565 112.55 97.2899C112.55 96.3692 112.55 95.4485 112.55 94.4999C113.74 94.0401 114.429 93.8104 115.65 94.1899Z" fill="#DDA15E"/>
<path d="M107.59 85.2002C109.431 85.5071 109.431 85.5071 111.31 85.8202C111.31 86.8432 111.31 87.8662 111.31 88.9202C110.07 87.6802 108.83 86.4402 107.59 85.2002Z" fill="#DDA15E"/>
<path d="M82.7901 100.39C82.9947 100.492 83.1993 100.594 83.4101 100.7C82.7963 101.825 82.1825 102.95 81.5501 104.11C81.3455 104.11 81.1409 104.11 80.9301 104.11C80.8278 103.291 80.7255 102.473 80.6201 101.63C82.2549 100.631 82.2549 100.631 82.7901 100.39Z" fill="#DDA15E"/>
<path d="M78.7598 83.96C78.6767 84.1646 78.5936 84.3692 78.508 84.58C78.0602 85.7113 77.6349 86.8499 77.2098 87.99C76.617 87.323 76.3028 86.852 76.1055 85.975C76.2798 85.2 76.2798 85.2 77.1711 84.4831C78.1398 83.96 78.1398 83.96 78.7598 83.96Z" fill="#DDA15E"/>
<path d="M80.9302 92.0195C81.1348 92.1218 81.3394 92.2241 81.5502 92.3295C81.3712 92.5405 81.1921 92.7515 81.0077 92.9689C80.2487 93.9598 79.6702 94.9567 79.0702 96.0495C78.9679 96.0495 78.8656 96.0495 78.7602 96.0495C78.6579 95.2311 78.5556 94.4127 78.4502 93.5695C78.8486 93.3018 79.2495 93.0376 79.6514 92.7752C79.9859 92.554 79.9859 92.554 80.3271 92.3283C80.5262 92.2264 80.7252 92.1245 80.9302 92.0195Z" fill="#DDA15E"/>
<path d="M115.65 85.8198C115.504 85.9433 115.358 86.0668 115.208 86.194C114.918 86.4403 114.918 86.4403 114.623 86.6917C114.432 86.8535 114.242 87.0154 114.045 87.1821C113.525 87.64 113.034 88.1139 112.55 88.6098C112.55 87.7914 112.55 86.973 112.55 86.1298C114.604 85.471 114.604 85.471 115.65 85.8198Z" fill="#DDA15E"/>
<path d="M59.2299 125.5C59.4345 125.602 59.6391 125.705 59.8499 125.81C58.7757 126.731 58.7757 126.731 57.6799 127.67C58.1813 126.667 58.4475 126.211 59.2299 125.5ZM57.0599 127.98C57.2645 128.185 57.4691 128.389 57.6799 128.6C57.1684 128.805 56.6569 129.009 56.1299 129.22C56.4368 128.811 56.7437 128.402 57.0599 127.98Z" fill="#D3D3D3"/>
</g>
<defs>
<filter id="filter0_f_233_1291" x="63.0381" y="203.558" width="64.0381" height="25.4424" filterUnits="userSpaceOnUse" color-interpolation-filters="sRGB">
<feFlood flood-opacity="0" result="BackgroundImageFix"/>
<feBlend mode="normal" in="SourceGraphic" in2="BackgroundImageFix" result="shape"/>
<feGaussianBlur stdDeviation="1" result="effect1_foregroundBlur_233_1291"/>
</filter>
<filter id="filter1_d_233_1291" x="0" y="0" width="190.115" height="224.424" filterUnits="userSpaceOnUse" color-interpolation-filters="sRGB">
<feFlood flood-opacity="0" result="BackgroundImageFix"/>
<feColorMatrix in="SourceAlpha" type="matrix" values="0 0 0 0 0 0 0 0 0 0 0 0 0 0 0 0 0 0 127 0" result="hardAlpha"/>
<feOffset dy="1"/>
<feGaussianBlur stdDeviation="2.5"/>
<feComposite in2="hardAlpha" operator="out"/>
<feColorMatrix type="matrix" values="0 0 0 0 0 0 0 0 0 0 0 0 0 0 0 0 0 0 0.1 0"/>
<feBlend mode="normal" in2="BackgroundImageFix" result="effect1_dropShadow_233_1291"/>
<feBlend mode="normal" in="SourceGraphic" in2="effect1_dropShadow_233_1291" result="shape"/>
</filter>
<clipPath id="clip0_233_1291">
<rect width="155" height="155" fill="white" transform="translate(18 17)"/>
</clipPath>
</defs>
</svg>
