<svg width="409" height="409" viewBox="0 0 409 409" fill="none" xmlns="http://www.w3.org/2000/svg">
<path d="M207.401 14.7093C207.095 13.7773 206.989 12.6959 207.082 11.465C207.176 10.2342 207.299 9.23278 207.451 8.46084C207.605 7.67332 207.784 6.96607 207.988 6.33908C208.47 4.93402 208.984 4.25214 209.53 4.29346L230.119 5.85332C231.023 5.92179 231.529 7.30773 231.637 10.0112C231.659 10.7649 231.639 11.5391 231.579 12.3337C231.437 14.2033 231.129 15.5824 230.654 16.471C229.63 12.2095 228.094 9.41367 226.048 8.08343C225.587 7.76639 225.122 7.59016 224.655 7.55475C224.187 7.51934 223.812 7.61625 223.528 7.84547C223.245 8.0591 222.998 8.4243 222.787 8.94104C222.435 9.85462 222.21 10.9658 222.111 12.2745L221.447 21.0385L220.929 28.1916L220.415 34.9691C220.3 36.496 220.409 37.6403 220.743 38.4021C221.094 39.1495 221.457 39.7255 221.834 40.1301C222.226 40.5359 222.691 40.9236 223.227 41.2933L211.284 40.3885C212.476 39.5543 213.25 38.8529 213.606 38.2845C214.264 37.2531 214.649 36.0052 214.76 34.5406L216.355 13.4838C216.54 11.0376 216.566 9.45695 216.432 8.74167C216.299 8.01081 216.109 7.51849 215.862 7.26472C215.616 6.99537 215.26 6.84299 214.792 6.80757C214.325 6.77216 213.839 6.87638 213.335 7.12024C212.832 7.34851 212.329 7.67086 211.828 8.08728C211.343 8.4893 210.868 8.9704 210.402 9.53058C209.953 10.0764 209.534 10.6479 209.144 11.2451C208.381 12.4252 207.8 13.5799 207.401 14.7093Z" fill="white"/>
<path d="M252.078 32.8436L253.577 26.599C253.784 25.7489 253.788 25.1388 253.589 24.7685C253.225 24.0847 252.367 23.5781 251.016 23.2486L247.419 22.3713C245.536 21.9122 244.374 22.1918 243.933 23.21C243.814 23.5025 243.711 23.8233 243.626 24.1725L241.937 30.998C240.501 36.8879 239.905 40.6507 240.15 42.2864C240.252 42.9225 240.478 43.645 240.827 44.454L232.288 42.3717C233.056 41.3364 233.571 40.441 233.836 39.6853C234.116 38.9333 234.44 37.9992 234.809 36.8829C235.557 34.5403 236.305 31.8359 237.053 28.7695C237.801 25.7031 238.308 23.5912 238.574 22.4338C238.844 21.2612 239.106 20.119 239.361 19.0072C240.377 14.3817 240.904 11.5913 240.944 10.6361C240.988 9.66565 240.988 9.00625 240.944 8.65785L240.784 7.53324L249.323 9.61554C247.934 10.5634 246.927 12.0548 246.302 14.0897C246.105 14.701 245.923 15.3482 245.756 16.0313C245.59 16.7144 245.519 17.2681 245.544 17.6924C245.588 18.1052 245.74 18.4397 245.999 18.6959C246.342 19.0691 247.273 19.4408 248.791 19.811L250.954 20.3385C252.502 20.7161 253.487 20.8354 253.906 20.6966C254.61 20.45 255.123 19.6663 255.445 18.3457C256.233 15.1123 256.151 12.6798 255.198 11.0482L263.737 13.1304C263.037 14.0213 262.53 14.8788 262.217 15.703C261.918 16.5308 261.65 17.3339 261.412 18.1122C261.178 18.8752 260.912 19.7674 260.615 20.7885C260.317 21.8097 260.018 22.8706 259.718 23.9713C259.043 26.5409 258.45 28.8731 257.939 30.9679C255.863 39.484 254.91 44.7761 255.081 46.8443C255.109 47.189 255.163 47.5638 255.241 47.9689L246.702 45.8866C247.709 45.0546 248.385 44.2947 248.73 43.6067C249.078 42.9036 249.42 42.0622 249.755 41.0826C250.423 39.2028 251.197 36.4565 252.078 32.8436Z" fill="white"/>
<path d="M277.958 33.3268C276.297 32.6017 275.039 33.2202 274.182 35.1821C270.632 43.316 268.677 48.1656 268.318 49.7307C268.094 50.673 268.01 51.4121 268.066 51.9479L268.214 53.3677L260.588 50.0393C261.522 49.151 262.183 48.3573 262.574 47.6582C262.978 46.9654 263.391 46.2162 263.81 45.4106C264.663 43.7708 265.711 41.526 266.954 38.6762C268.461 35.225 269.779 32.0496 270.908 29.1498L273.25 23.1395C273.843 21.6252 274.167 20.5307 274.223 19.8561C274.314 18.7877 274.164 17.725 273.773 16.6678L285.136 21.6275C288.602 23.1401 290.958 24.5776 292.204 25.94C293.524 27.3686 293.806 28.9492 293.05 30.682C292.387 32.2 291.2 33.3779 289.487 34.216C287.89 34.985 286.073 35.3596 284.036 35.3399C281.85 40.9327 281.272 46.9629 282.302 53.4306C282.735 56.2279 283.409 58.5508 284.324 60.3994L276.269 56.8835C275.703 54.352 276.104 49.8984 277.472 43.5226C277.959 41.3141 278.431 39.5086 278.89 38.1063C279.363 36.7102 279.616 35.8573 279.649 35.5477C279.702 35.2301 279.68 34.9478 279.583 34.701C279.402 34.1786 278.861 33.7206 277.958 33.3268ZM284.568 31.6596C285.156 31.405 285.636 31.0687 286.006 30.6505C286.39 30.2386 286.679 29.8107 286.873 29.3668C287.073 28.9085 287.205 28.4293 287.27 27.9291C287.356 27.4209 287.294 26.9168 287.086 26.4168C286.636 25.2998 285.43 24.3131 283.468 23.4568C282.738 23.138 282.131 22.9073 281.648 22.7645C281.179 22.628 280.759 22.6324 280.389 22.7777C279.758 23.0135 279.058 24.0122 278.289 25.7736C277.614 27.3202 277.347 28.3802 277.489 28.9535C277.745 29.9688 278.467 30.7358 279.656 31.2546C280.844 31.7734 281.813 32.0342 282.562 32.0371C283.331 32.032 284 31.9062 284.568 31.6596Z" fill="white"/>
<path d="M304.943 63.8629C304.99 64.577 304.721 65.3961 304.135 66.3199C303.55 67.2438 303.042 67.9578 302.612 68.462C302.189 68.9529 301.75 69.3684 301.294 69.7084C300.263 70.4606 299.424 70.6318 298.777 70.2219L282.741 60.0604C284.1 60.1632 285.104 60.0684 285.752 59.776C286.966 59.232 288.029 58.2407 288.94 56.8021C291.16 53.2698 293.173 50.0783 294.98 47.2274L301.578 36.814C302.825 34.8475 303.418 33.2255 303.358 31.9482C303.321 31.4809 303.23 30.9975 303.084 30.4981L317.971 39.932C318.668 40.8175 318.579 42.315 317.705 44.4247C317.463 45.0111 317.183 45.5551 316.865 46.0567C316.212 47.0861 315.542 47.8082 314.854 48.223L315.14 45.4074C315.314 43.5568 314.884 41.9716 313.853 40.6517C313.281 39.9194 312.533 39.2605 311.609 38.6751C310.685 38.0897 310.004 37.7045 309.566 37.5196C309.137 37.3215 308.746 37.2677 308.392 37.3582C307.807 37.5235 307.171 38.1473 306.485 39.2296C305.808 40.2986 305.362 41.0611 305.147 41.5168C304.94 41.9594 304.852 42.3755 304.883 42.7649C304.966 43.5389 305.667 44.344 306.987 45.1804L313.204 49.1196C312.415 49.6927 311.762 50.0373 311.244 50.1533C310.209 50.3854 309.151 50.1585 308.069 49.4727C307.646 49.2051 307.273 48.9038 306.949 48.5689C306.345 47.9457 305.772 47.4626 305.231 47.1197C304.69 46.7768 304.208 46.5453 303.785 46.425C303.383 46.3 303.016 46.2803 302.684 46.366C302.107 46.5181 301.513 47.0759 300.903 48.0394L294.918 57.4827C293.346 59.964 292.552 61.5234 292.537 62.161C292.521 62.7985 292.682 63.289 293.019 63.6323C293.365 63.9624 294 64.4201 294.924 65.0056C295.848 65.591 296.769 65.9901 297.689 66.2028C298.609 66.4156 299.47 66.4433 300.272 66.286C301.088 66.137 301.866 65.8437 302.606 65.4061C303.354 64.9553 304.133 64.4409 304.943 63.8629Z" fill="white"/>
<path d="M315.748 67.7982C314.538 68.9023 313.619 69.8227 312.99 70.5594C312.371 71.2843 311.887 72.0319 311.538 72.802C311.188 73.5721 310.987 74.325 310.935 75.0606C310.826 76.6319 311.318 77.8842 312.411 78.8175C314.503 80.603 316.533 80.3431 318.501 78.0376C320.083 76.1838 320.687 73.2989 320.311 69.3831L319.995 66.0001C319.706 63.0416 319.67 60.8334 319.887 59.3755C320.314 56.4935 321.318 54.1256 322.901 52.2717C324.189 50.7625 325.757 49.9129 327.604 49.7228C329.846 49.4793 332.072 50.3011 334.282 52.188C335.149 52.9286 335.767 53.5282 336.136 53.9867C336.824 54.8412 337.305 55.3851 337.578 55.6185C338.268 56.2069 338.985 56.4495 339.73 56.3463C340.005 56.3136 340.332 56.2434 340.711 56.1359C341.163 57.3637 340.07 59.5225 337.432 62.6122C335.748 64.5849 334.309 65.8733 333.116 66.4773C332.711 66.6865 332.39 66.7618 332.153 66.7029C333.494 64.7462 334.282 62.6448 334.514 60.3987C334.794 57.7611 334.185 55.8032 332.688 54.5249C331.404 53.4293 330.112 53.3429 328.81 54.2657C328.443 54.5275 328.046 54.9079 327.62 55.407C327.204 55.8942 326.876 56.5796 326.635 57.463C326.395 58.3465 326.243 59.306 326.181 60.3416C326.141 61.3755 326.167 62.4762 326.259 63.6437C326.496 67.2158 326.63 69.6103 326.66 70.8271C326.701 72.054 326.651 73.2438 326.509 74.3966C326.168 76.9614 325.339 79.0163 324.02 80.5612C322.427 82.4269 320.383 83.3529 317.889 83.3393C315.326 83.3088 312.868 82.2892 310.515 80.2805C308.566 78.6167 307.307 76.6991 306.736 74.5275C306.105 72.1391 306.539 70.0656 308.041 68.3068C309.914 67.0506 311.959 66.7008 314.175 67.2574C314.774 67.3985 315.298 67.5788 315.748 67.7982Z" fill="white"/>
<path d="M343.361 93.6158L348.24 89.4395C348.906 88.8729 349.268 88.3812 349.324 87.9645C349.43 87.1973 349.033 86.2838 348.133 85.2241L345.735 82.4022C344.48 80.9258 343.376 80.4703 342.421 81.0357C342.152 81.2023 341.881 81.402 341.607 81.6347L336.234 86.1699C331.614 90.0957 328.923 92.7925 328.161 94.2603C327.871 94.8353 327.629 95.5529 327.438 96.413L321.746 89.7156C322.975 89.3276 323.918 88.9054 324.576 88.4489C325.244 88.0043 326.055 87.4383 327.009 86.7509C328.989 85.2934 331.182 83.5427 333.587 81.4989C335.992 79.455 337.642 78.0427 338.537 77.2618C339.444 76.4708 340.327 75.7001 341.186 74.9495C344.723 71.8004 346.787 69.8509 347.38 69.101C347.985 68.3409 348.372 67.807 348.541 67.4992L349.072 66.4948L354.763 73.1923C353.082 73.1444 351.392 73.7609 349.691 75.0417C349.173 75.4208 348.646 75.838 348.11 76.2933C347.574 76.7486 347.192 77.1555 346.963 77.5138C346.757 77.8739 346.683 78.2337 346.743 78.5933C346.802 79.0969 347.337 79.944 348.349 81.1346L349.79 82.8313C350.822 84.0458 351.549 84.72 351.971 84.854C352.685 85.0672 353.56 84.7337 354.596 83.8534C357.132 81.6983 358.493 79.6805 358.679 77.8001L364.37 84.4975C363.281 84.8081 362.368 85.2051 361.63 85.6883C360.902 86.1835 360.214 86.6763 359.564 87.1667C358.927 87.647 358.188 88.2133 357.348 88.8656C356.508 89.5179 355.643 90.2014 354.754 90.9162C352.699 92.6006 350.851 94.1409 349.208 95.5372C342.528 101.213 338.651 104.939 337.575 106.714C337.396 107.01 337.219 107.345 337.045 107.718L331.353 101.021C332.657 100.938 333.65 100.72 334.333 100.365C335.028 100 335.798 99.5196 336.645 98.9232C338.289 97.793 340.527 96.0239 343.361 93.6158Z" fill="white"/>
<path d="M369.926 112.651C370.582 111.922 371.467 111.291 372.581 110.759C373.695 110.228 374.625 109.836 375.37 109.584C376.13 109.325 376.832 109.128 377.477 108.993C378.936 108.712 379.783 108.818 380.019 109.312L388.916 127.945C389.307 128.763 388.357 129.892 386.066 131.332C385.423 131.725 384.742 132.094 384.023 132.437C382.331 133.245 380.981 133.664 379.974 133.695C383.16 130.685 384.82 127.961 384.956 125.525C385.001 124.966 384.922 124.476 384.72 124.053C384.518 123.63 384.247 123.352 383.907 123.22C383.581 123.082 383.141 123.049 382.588 123.123C381.621 123.273 380.545 123.631 379.361 124.196L371.429 127.983L364.967 131.095L358.834 134.023C357.452 134.683 356.514 135.348 356.02 136.017C355.546 136.693 355.228 137.295 355.064 137.823C354.908 138.366 354.802 138.961 354.749 139.61L349.588 128.802C350.905 129.42 351.898 129.743 352.569 129.769C353.791 129.826 355.065 129.538 356.39 128.905L375.446 119.806C377.66 118.749 379.044 117.985 379.597 117.512C380.165 117.033 380.498 116.624 380.595 116.283C380.706 115.936 380.66 115.55 380.458 115.127C380.256 114.704 379.924 114.335 379.462 114.019C379.013 113.696 378.484 113.421 377.873 113.193C377.283 112.973 376.629 112.8 375.911 112.675C375.215 112.558 374.51 112.479 373.798 112.438C372.395 112.363 371.104 112.434 369.926 112.651Z" fill="white"/>
<path d="M376.437 160.486L382.601 158.684C383.442 158.441 383.973 158.142 384.195 157.785C384.608 157.129 384.622 156.133 384.236 154.797L383.21 151.239C382.673 149.377 381.853 148.508 380.75 148.631C380.437 148.672 380.108 148.743 379.763 148.843L373 150.769C367.175 152.449 363.613 153.801 362.315 154.826C361.814 155.231 361.299 155.786 360.771 156.491L358.335 148.046C359.615 148.197 360.648 148.2 361.436 148.054C362.227 147.924 363.199 147.741 364.351 147.506C366.756 146.992 369.474 146.297 372.507 145.422C375.54 144.548 377.624 143.938 378.761 143.594C379.913 143.246 381.034 142.906 382.126 142.575C386.645 141.158 389.328 140.229 390.177 139.789C391.041 139.345 391.613 139.018 391.894 138.806L392.79 138.109L395.226 146.554C393.713 145.819 391.919 145.686 389.842 146.155C389.214 146.288 388.562 146.451 387.886 146.646C387.21 146.841 386.695 147.055 386.339 147.287C386.003 147.531 385.788 147.828 385.694 148.181C385.541 148.664 385.681 149.656 386.114 151.158L386.731 153.297C387.172 154.828 387.558 155.742 387.887 156.037C388.45 156.525 389.385 156.581 390.691 156.204C393.889 155.282 395.959 154.002 396.902 152.364L399.337 160.809C398.217 160.644 397.221 160.63 396.35 160.768C395.483 160.92 394.653 161.086 393.859 161.267C393.08 161.442 392.174 161.655 391.14 161.904C390.106 162.154 389.037 162.421 387.932 162.707C385.367 163.399 383.049 164.043 380.977 164.64C372.555 167.069 367.489 168.872 365.779 170.048C365.494 170.244 365.195 170.477 364.882 170.746L362.447 162.301C363.669 162.761 364.664 162.97 365.433 162.928C366.216 162.881 367.116 162.759 368.133 162.564C370.096 162.209 372.864 161.516 376.437 160.486Z" fill="white"/>
<path d="M388.873 183.152C388.675 181.351 387.513 180.566 385.385 180.799C376.563 181.766 371.383 182.482 369.847 182.949C368.918 183.224 368.235 183.519 367.798 183.834L366.64 184.668L365.734 176.397C366.969 176.765 367.987 176.944 368.787 176.935C369.59 176.941 370.445 176.926 371.352 176.89C373.199 176.813 375.667 176.606 378.758 176.267C382.501 175.857 385.912 175.421 388.989 174.958L395.368 174C396.976 173.761 398.087 173.498 398.7 173.211C399.672 172.758 400.52 172.1 401.242 171.235L402.592 183.559C403.004 187.318 402.929 190.077 402.367 191.836C401.784 193.692 400.553 194.723 398.674 194.929C397.028 195.109 395.415 194.665 393.836 193.596C392.374 192.593 391.145 191.203 390.149 189.426C384.21 190.312 378.692 192.81 373.593 196.921C371.382 198.688 369.702 200.428 368.554 202.142L367.597 193.405C369.511 191.655 373.574 189.787 379.786 187.802C381.944 187.126 383.745 186.638 385.19 186.338C386.636 186.054 387.502 185.849 387.787 185.723C388.089 185.612 388.323 185.452 388.489 185.246C388.852 184.829 388.98 184.131 388.873 183.152ZM393.607 188.057C394.12 188.441 394.65 188.689 395.197 188.802C395.746 188.931 396.261 188.968 396.742 188.916C397.239 188.861 397.721 188.738 398.187 188.545C398.67 188.367 399.077 188.063 399.408 187.634C400.153 186.687 400.409 185.15 400.176 183.023C400.089 182.23 399.987 181.589 399.871 181.099C399.756 180.624 399.543 180.262 399.233 180.013C398.714 179.583 397.5 179.472 395.589 179.682C393.912 179.865 392.86 180.161 392.433 180.57C391.679 181.297 391.373 182.305 391.515 183.594C391.656 184.883 391.911 185.853 392.281 186.504C392.668 187.169 393.11 187.687 393.607 188.057Z" fill="white"/>
<path d="M375.829 221.989C375.233 222.385 374.389 222.56 373.296 222.512C372.203 222.465 371.331 222.38 370.68 222.258C370.044 222.137 369.465 221.963 368.943 221.737C367.777 221.217 367.21 220.575 367.243 219.81L368.067 200.843C368.655 202.073 369.237 202.896 369.813 203.312C370.89 204.094 372.279 204.522 373.98 204.596C378.149 204.761 381.919 204.917 385.291 205.063L397.607 205.598C399.933 205.699 401.635 205.405 402.713 204.717C403.1 204.452 403.473 204.132 403.834 203.757L403.069 221.365C402.648 222.411 401.306 223.08 399.041 223.372C398.412 223.454 397.8 223.483 397.207 223.457C395.99 223.404 395.03 223.182 394.327 222.792L396.911 221.638C398.602 220.867 399.763 219.705 400.393 218.153C400.744 217.292 400.942 216.315 400.99 215.223C401.037 214.13 401.032 213.348 400.974 212.876C400.932 212.405 400.784 212.039 400.529 211.778C400.094 211.352 399.237 211.111 397.957 211.056C396.692 211.001 395.809 210.994 395.307 211.035C394.82 211.076 394.416 211.207 394.093 211.428C393.463 211.885 393.115 212.894 393.047 214.455L392.728 221.808C391.838 221.41 391.214 221.015 390.855 220.624C390.139 219.842 389.808 218.811 389.864 217.531C389.885 217.032 389.961 216.558 390.09 216.11C390.329 215.276 390.463 214.539 390.49 213.899C390.518 213.259 390.479 212.725 390.372 212.298C390.281 211.888 390.115 211.56 389.875 211.315C389.456 210.89 388.676 210.653 387.537 210.603L376.368 210.118C373.433 209.991 371.685 210.079 371.125 210.383C370.564 210.687 370.219 211.071 370.089 211.535C369.975 211.999 369.895 212.778 369.847 213.87C369.8 214.963 369.913 215.961 370.186 216.864C370.46 217.768 370.865 218.528 371.401 219.146C371.937 219.779 372.578 220.307 373.326 220.731C374.09 221.155 374.924 221.574 375.829 221.989Z" fill="white"/>
<path d="M377.814 233.266C376.254 232.767 374.998 232.429 374.046 232.251C373.109 232.075 372.219 232.028 371.378 232.109C370.536 232.19 369.783 232.391 369.119 232.712C367.702 233.401 366.862 234.451 366.598 235.864C366.092 238.568 367.329 240.198 370.308 240.755C372.704 241.204 375.506 240.289 378.714 238.012L381.489 236.052C383.91 234.327 385.807 233.196 387.179 232.658C389.89 231.591 392.444 231.282 394.84 231.73C396.79 232.095 398.308 233.031 399.393 234.538C400.721 236.36 401.118 238.699 400.584 241.556C400.374 242.677 400.162 243.512 399.948 244.06C399.55 245.082 399.318 245.77 399.252 246.123C399.085 247.014 399.233 247.757 399.694 248.352C399.859 248.574 400.082 248.822 400.365 249.098C399.525 250.101 397.109 250.229 393.116 249.482C390.566 249.005 388.732 248.399 387.614 247.665C387.231 247.419 387.006 247.178 386.938 246.943C389.303 247.131 391.518 246.767 393.581 245.849C396.007 244.777 397.401 243.273 397.763 241.338C398.073 239.68 397.504 238.516 396.056 237.848C395.646 237.66 395.118 237.505 394.473 237.385C393.844 237.267 393.086 237.324 392.2 237.555C391.314 237.787 390.407 238.134 389.478 238.596C388.561 239.076 387.62 239.647 386.654 240.309C383.675 242.295 381.666 243.604 380.625 244.236C379.582 244.883 378.526 245.432 377.456 245.884C375.062 246.867 372.867 247.171 370.871 246.798C368.459 246.347 366.638 245.036 365.407 242.866C364.156 240.63 363.815 237.991 364.384 234.95C364.856 232.431 365.891 230.383 367.489 228.806C369.245 227.068 371.259 226.412 373.532 226.837C375.555 227.836 376.877 229.435 377.499 231.633C377.675 232.223 377.78 232.767 377.814 233.266Z" fill="white"/>
<path d="M369.12 270.15L375.167 272.313C375.989 272.611 376.595 272.681 376.985 272.523C377.704 272.235 378.3 271.437 378.773 270.129L380.033 266.647C380.693 264.825 380.54 263.64 379.575 263.091C379.297 262.941 378.99 262.805 378.652 262.682L372.048 260.268C366.347 258.205 362.67 257.207 361.018 257.274C360.375 257.307 359.632 257.453 358.79 257.714L361.781 249.449C362.727 250.323 363.562 250.933 364.284 251.277C365.002 251.637 365.896 252.06 366.966 252.547C369.214 253.543 371.822 254.578 374.79 255.652C377.758 256.726 379.803 257.458 380.925 257.847C382.061 258.242 383.169 258.626 384.247 258.999C388.736 260.507 391.453 261.333 392.398 261.475C393.358 261.623 394.014 261.694 394.365 261.688L395.5 261.651L392.51 269.915C391.717 268.432 390.343 267.27 388.387 266.43C387.801 266.168 387.177 265.917 386.516 265.678C385.855 265.438 385.312 265.308 384.887 265.288C384.472 265.287 384.123 265.402 383.84 265.632C383.432 265.933 382.963 266.818 382.431 268.287L381.673 270.381C381.131 271.88 380.906 272.845 380.999 273.277C381.168 274.003 381.892 274.598 383.17 275.06C386.3 276.193 388.727 276.373 390.452 275.601L387.461 283.866C386.651 283.074 385.853 282.478 385.068 282.078C384.277 281.692 383.507 281.338 382.759 281.018C382.026 280.703 381.168 280.342 380.185 279.937C379.201 279.531 378.179 279.12 377.117 278.702C374.635 277.754 372.38 276.913 370.353 276.18C362.11 273.197 356.952 271.679 354.877 271.626C354.531 271.618 354.153 271.63 353.742 271.664L356.732 263.4C357.451 264.491 358.134 265.244 358.78 265.661C359.442 266.083 360.242 266.514 361.179 266.953C362.976 267.819 365.623 268.885 369.12 270.15Z" fill="white"/>
<path d="M365.756 302.633C366.714 302.842 367.7 303.299 368.714 304.002C369.728 304.706 370.529 305.32 371.117 305.842C371.719 306.374 372.238 306.886 372.675 307.38C373.642 308.508 373.969 309.296 373.657 309.746L361.882 326.707C361.365 327.451 359.914 327.186 357.528 325.91C356.867 325.546 356.21 325.137 355.555 324.683C354.015 323.613 352.982 322.649 352.456 321.79C356.65 323.065 359.838 323.158 362.021 322.068C362.529 321.83 362.916 321.519 363.183 321.134C363.45 320.749 363.557 320.376 363.503 320.015C363.462 319.663 363.273 319.265 362.934 318.821C362.325 318.055 361.481 317.298 360.402 316.55L353.183 311.537L347.278 307.467L341.695 303.59C340.437 302.717 339.395 302.232 338.569 302.134C337.747 302.057 337.066 302.079 336.526 302.199C335.978 302.332 335.408 302.536 334.818 302.811L341.648 292.973C341.764 294.422 341.976 295.445 342.286 296.04C342.842 297.13 343.723 298.094 344.929 298.931L362.276 310.974C364.291 312.373 365.641 313.196 366.325 313.443C367.023 313.699 367.543 313.785 367.887 313.7C368.244 313.625 368.556 313.394 368.824 313.009C369.091 312.624 369.247 312.152 369.293 311.594C369.351 311.045 369.327 310.448 369.222 309.805C369.121 309.183 368.947 308.53 368.7 307.845C368.457 307.181 368.177 306.53 367.859 305.891C367.228 304.635 366.527 303.549 365.756 302.633Z" fill="white"/>
<path d="M327.445 332.024L332.072 336.478C332.7 337.087 333.224 337.399 333.644 337.415C334.418 337.447 335.289 336.964 336.257 335.965L338.835 333.307C340.184 331.915 340.53 330.772 339.876 329.876C339.684 329.625 339.459 329.374 339.201 329.124L334.169 324.213C329.817 319.993 326.873 317.574 325.339 316.957C324.738 316.723 324.001 316.553 323.126 316.444L329.244 310.134C329.749 311.32 330.26 312.218 330.777 312.829C331.284 313.451 331.926 314.203 332.702 315.086C334.344 316.917 336.297 318.931 338.563 321.128C340.83 323.325 342.394 324.831 343.258 325.647C344.132 326.473 344.985 327.278 345.815 328.06C349.29 331.277 351.429 333.145 352.233 333.663C353.048 334.192 353.616 334.525 353.939 334.664L354.99 335.095L348.872 341.405C348.758 339.728 347.981 338.104 346.542 336.535C346.115 336.056 345.649 335.571 345.144 335.082C344.639 334.592 344.198 334.251 343.819 334.058C343.441 333.887 343.075 333.849 342.723 333.943C342.228 334.05 341.436 334.664 340.348 335.786L338.799 337.385C337.689 338.529 337.088 339.317 336.995 339.749C336.852 340.481 337.268 341.32 338.244 342.266C340.634 344.583 342.773 345.743 344.663 345.747L338.545 352.057C338.131 351.003 337.648 350.132 337.096 349.444C336.533 348.768 335.976 348.13 335.425 347.531C334.886 346.942 334.251 346.262 333.521 345.488C332.79 344.715 332.027 343.92 331.229 343.104C329.355 341.221 327.644 339.53 326.096 338.029C319.802 331.927 315.72 328.427 313.85 327.527C313.538 327.378 313.188 327.234 312.799 327.096L318.917 320.786C319.125 322.076 319.438 323.043 319.857 323.689C320.287 324.345 320.84 325.066 321.515 325.851C322.798 327.378 324.775 329.436 327.445 332.024Z" fill="white"/>
<path d="M313.965 354.108C315.429 353.039 315.53 351.641 314.268 349.912C309.036 342.743 305.834 338.609 304.664 337.509C303.963 336.841 303.368 336.395 302.877 336.173L301.576 335.585L308.297 330.679C308.593 331.933 308.945 332.905 309.351 333.595C309.745 334.294 310.184 335.028 310.668 335.796C311.654 337.359 313.064 339.397 314.897 341.908C317.117 344.95 319.194 347.689 321.128 350.127L325.136 355.181C326.145 356.457 326.926 357.289 327.481 357.678C328.357 358.295 329.35 358.702 330.46 358.898L320.446 366.207C317.392 368.436 314.962 369.746 313.157 370.135C311.257 370.554 309.75 370 308.636 368.473C307.659 367.135 307.241 365.515 307.382 363.614C307.523 361.847 308.116 360.089 309.161 358.34C305.434 353.631 300.519 350.091 294.415 347.717C291.781 346.68 289.436 346.09 287.378 345.948L294.477 340.766C296.948 341.555 300.592 344.147 305.407 348.545C307.068 350.079 308.389 351.398 309.368 352.501C310.335 353.614 310.944 354.262 311.195 354.447C311.442 354.653 311.697 354.777 311.959 354.818C312.501 354.925 313.17 354.688 313.965 354.108ZM312.07 360.656C311.993 361.292 312.042 361.876 312.216 362.406C312.378 362.946 312.602 363.411 312.887 363.803C313.182 364.206 313.529 364.563 313.928 364.871C314.324 365.201 314.79 365.402 315.327 365.475C316.518 365.65 317.979 365.106 319.708 363.844C320.351 363.374 320.857 362.967 321.224 362.622C321.578 362.286 321.786 361.921 321.847 361.528C321.962 360.864 321.453 359.756 320.32 358.203C319.325 356.84 318.544 356.075 317.978 355.909C316.972 355.617 315.946 355.854 314.898 356.619C313.851 357.383 313.137 358.088 312.756 358.733C312.373 359.4 312.144 360.041 312.07 360.656Z" fill="white"/>
<path d="M274.043 361.993C273.402 361.673 272.83 361.028 272.327 360.057C271.824 359.086 271.463 358.287 271.245 357.662C271.033 357.05 270.896 356.461 270.832 355.896C270.702 354.626 270.977 353.815 271.656 353.463L288.513 344.73C287.74 345.853 287.316 346.767 287.242 347.474C287.1 348.797 287.421 350.215 288.205 351.727C290.137 355.424 291.88 358.771 293.432 361.768L299.103 372.714C300.174 374.782 301.276 376.111 302.41 376.703C302.832 376.906 303.295 377.071 303.8 377.197L288.15 385.303C287.035 385.459 285.786 384.628 284.404 382.81C284.019 382.305 283.69 381.789 283.417 381.262C282.857 380.18 282.571 379.237 282.559 378.433L284.847 380.099C286.358 381.181 287.944 381.61 289.604 381.383C290.525 381.258 291.471 380.944 292.442 380.441C293.413 379.938 294.089 379.544 294.469 379.259C294.856 378.988 295.1 378.677 295.2 378.326C295.352 377.737 295.134 376.873 294.544 375.736C293.962 374.612 293.528 373.842 293.243 373.427C292.965 373.026 292.649 372.74 292.298 372.571C291.587 372.252 290.538 372.453 289.151 373.171L282.616 376.556C282.519 375.586 282.55 374.849 282.71 374.343C283.031 373.332 283.761 372.532 284.898 371.943C285.342 371.713 285.791 371.542 286.243 371.431C287.086 371.223 287.792 370.972 288.36 370.677C288.929 370.383 289.372 370.083 289.689 369.778C290 369.494 290.202 369.187 290.295 368.857C290.454 368.282 290.272 367.488 289.747 366.475L284.605 356.548C283.254 353.94 282.307 352.468 281.764 352.133C281.221 351.799 280.716 351.691 280.249 351.809C279.79 351.942 279.075 352.259 278.104 352.762C277.133 353.265 276.323 353.861 275.676 354.548C275.029 355.235 274.571 355.965 274.303 356.737C274.021 357.517 273.882 358.337 273.887 359.196C273.9 360.07 273.952 361.002 274.043 361.993Z" fill="white"/>
<path d="M265.199 369.338C264.857 367.736 264.527 366.478 264.208 365.563C263.895 364.663 263.494 363.868 263.006 363.177C262.517 362.487 261.969 361.933 261.36 361.516C260.059 360.629 258.729 360.422 257.372 360.895C254.775 361.799 253.974 363.682 254.971 366.545C255.772 368.847 257.958 370.824 261.527 372.477L264.608 373.911C267.307 375.155 269.232 376.239 270.38 377.163C272.653 378.986 274.19 381.049 274.991 383.351C275.643 385.225 275.585 387.007 274.817 388.697C273.895 390.755 272.062 392.262 269.318 393.217C268.24 393.592 267.411 393.823 266.829 393.91C265.744 394.072 265.032 394.213 264.692 394.331C263.836 394.629 263.265 395.126 262.977 395.821C262.867 396.075 262.763 396.392 262.664 396.774C261.376 396.544 260.064 394.511 258.729 390.674C257.876 388.224 257.491 386.332 257.572 384.997C257.595 384.542 257.693 384.227 257.863 384.051C258.875 386.197 260.291 387.938 262.113 389.273C264.248 390.846 266.246 391.308 268.105 390.661C269.699 390.106 270.426 389.034 270.286 387.445C270.246 386.996 270.118 386.461 269.902 385.842C269.691 385.237 269.266 384.607 268.624 383.954C267.983 383.3 267.231 382.685 266.369 382.108C265.497 381.551 264.534 381.018 263.479 380.508C260.276 378.91 258.141 377.816 257.076 377.228C255.996 376.644 254.994 376 254.071 375.296C252.029 373.707 250.674 371.953 250.006 370.035C249.2 367.718 249.432 365.486 250.703 363.34C252.023 361.143 254.144 359.536 257.066 358.519C259.486 357.677 261.777 357.558 263.94 358.162C266.321 358.822 267.891 360.244 268.651 362.428C268.79 364.68 268.059 366.621 266.46 368.253C266.036 368.699 265.616 369.06 265.199 369.338Z" fill="white"/>
<path d="M228.889 380.115L230.017 386.437C230.168 387.299 230.409 387.859 230.739 388.119C231.347 388.6 232.335 388.72 233.705 388.481L237.353 387.844C239.262 387.511 240.214 386.789 240.211 385.679C240.203 385.364 240.169 385.029 240.107 384.675L238.92 377.744C237.877 371.772 236.916 368.085 236.037 366.685C235.689 366.143 235.192 365.571 234.548 364.97L243.206 363.458C242.918 364.714 242.804 365.741 242.864 366.539C242.909 367.34 242.986 368.326 243.095 369.497C243.348 371.943 243.745 374.72 244.288 377.83C244.831 380.939 245.213 383.077 245.432 384.244C245.655 385.427 245.872 386.578 246.083 387.699C247.006 392.344 247.64 395.112 247.986 396.004C248.335 396.91 248.599 397.514 248.778 397.816L249.375 398.783L240.717 400.295C241.61 398.87 241.936 397.1 241.693 394.985C241.629 394.346 241.537 393.68 241.416 392.987C241.295 392.295 241.138 391.759 240.945 391.38C240.739 391.02 240.466 390.774 240.126 390.643C239.662 390.439 238.661 390.471 237.121 390.74L234.928 391.123C233.358 391.397 232.408 391.682 232.079 391.977C231.534 392.485 231.378 393.408 231.611 394.747C232.184 398.026 233.234 400.222 234.761 401.335L226.103 402.847C226.387 401.75 226.508 400.762 226.465 399.881C226.407 399.003 226.331 398.16 226.237 397.351C226.146 396.558 226.032 395.634 225.896 394.58C225.759 393.525 225.608 392.433 225.443 391.304C225.032 388.679 224.641 386.305 224.27 384.181C222.762 375.546 221.515 370.315 220.53 368.489C220.366 368.184 220.167 367.862 219.933 367.522L228.591 366.01C228.002 367.176 227.687 368.143 227.647 368.911C227.609 369.695 227.633 370.603 227.718 371.635C227.859 373.625 228.25 376.451 228.889 380.115Z" fill="white"/>
<path d="M198.781 393.359C199.077 394.294 199.172 395.376 199.067 396.606C198.962 397.836 198.829 398.836 198.669 399.606C198.507 400.392 198.321 401.098 198.111 401.723C197.615 403.123 197.094 403.8 196.549 403.753L175.976 401.989C175.073 401.912 174.581 400.521 174.499 397.817C174.485 397.063 174.512 396.289 174.58 395.495C174.74 393.627 175.062 392.251 175.546 391.367C176.528 395.638 178.036 398.449 180.069 399.8C180.527 400.121 180.99 400.302 181.457 400.342C181.924 400.382 182.301 400.289 182.587 400.063C182.871 399.852 183.122 399.489 183.339 398.974C183.699 398.064 183.935 396.955 184.047 395.648L184.798 386.891L185.387 379.743L185.967 372.971C186.098 371.445 186 370.3 185.674 369.535C185.33 368.784 184.972 368.205 184.6 367.796C184.211 367.387 183.751 366.994 183.218 366.619L195.151 367.642C193.952 368.465 193.171 369.158 192.809 369.723C192.141 370.748 191.744 371.992 191.618 373.455L189.815 394.495C189.606 396.94 189.564 398.52 189.691 399.237C189.816 399.969 190.001 400.463 190.246 400.719C190.489 400.991 190.845 401.147 191.312 401.187C191.779 401.227 192.265 401.127 192.772 400.889C193.277 400.665 193.783 400.348 194.289 399.936C194.777 399.539 195.257 399.063 195.728 398.507C196.183 397.966 196.608 397.399 197.003 396.805C197.778 395.633 198.371 394.484 198.781 393.359Z" fill="white"/>
<path d="M154.278 374.78L152.717 381.009C152.501 381.857 152.491 382.467 152.686 382.839C153.043 383.526 153.896 384.042 155.243 384.385L158.832 385.298C160.71 385.776 161.874 385.508 162.326 384.495C162.448 384.203 162.554 383.883 162.643 383.535L164.4 376.727C165.895 370.852 166.529 367.095 166.301 365.457C166.205 364.82 165.987 364.095 165.645 363.283L174.163 365.451C173.385 366.478 172.86 367.369 172.588 368.122C172.301 368.871 171.967 369.802 171.587 370.914C170.815 373.249 170.04 375.946 169.262 379.005C168.483 382.063 167.955 384.17 167.677 385.325C167.395 386.494 167.121 387.634 166.855 388.743C165.793 393.358 165.238 396.143 165.188 397.098C165.135 398.068 165.128 398.727 165.168 399.076L165.317 400.202L156.8 398.034C158.198 397.1 159.22 395.619 159.865 393.591C160.069 392.981 160.257 392.336 160.431 391.655C160.604 390.973 160.68 390.42 160.66 389.996C160.62 389.582 160.471 389.246 160.215 388.988C159.875 388.611 158.948 388.23 157.434 387.845L155.276 387.295C153.732 386.902 152.749 386.773 152.328 386.908C151.622 387.147 151.101 387.926 150.766 389.243C149.945 392.468 150.003 394.901 150.94 396.542L142.422 394.374C143.131 393.491 143.646 392.638 143.968 391.817C144.274 390.993 144.551 390.192 144.797 389.416C145.039 388.656 145.313 387.766 145.621 386.748C145.928 385.73 146.238 384.672 146.55 383.575C147.25 381.012 147.867 378.686 148.398 376.596C150.561 368.101 151.567 362.819 151.416 360.749C151.391 360.404 151.342 360.029 151.268 359.623L159.785 361.791C158.77 362.613 158.086 363.366 157.735 364.051C157.379 364.75 157.029 365.588 156.684 366.564C155.997 368.437 155.196 371.176 154.278 374.78Z" fill="white"/>
<path d="M128.407 374.034C130.061 374.776 131.326 374.17 132.202 372.217C135.833 364.119 137.836 359.289 138.211 357.728C138.445 356.788 138.536 356.05 138.485 355.513L138.352 354.092L145.944 357.497C145.002 358.376 144.332 359.163 143.935 359.858C143.523 360.546 143.103 361.292 142.675 362.093C141.807 363.724 140.736 365.958 139.464 368.795C137.923 372.231 136.574 375.393 135.415 378.282L133.013 384.268C132.405 385.776 132.07 386.868 132.008 387.542C131.906 388.609 132.045 389.673 132.425 390.734L121.112 385.661C117.662 384.114 115.321 382.653 114.088 381.278C112.782 379.836 112.516 378.253 113.29 376.528C113.967 375.016 115.167 373.85 116.888 373.029C118.493 372.276 120.313 371.92 122.35 371.96C124.592 366.39 125.23 360.365 124.265 353.888C123.86 351.086 123.209 348.757 122.313 346.899L130.332 350.496C130.873 353.033 130.427 357.482 128.996 363.844C128.487 366.047 127.996 367.848 127.523 369.246C127.037 370.637 126.775 371.487 126.739 371.796C126.683 372.114 126.701 372.396 126.796 372.644C126.972 373.168 127.509 373.631 128.407 374.034ZM121.781 375.635C121.19 375.884 120.708 376.215 120.333 376.63C119.945 377.038 119.652 377.463 119.453 377.905C119.249 378.361 119.112 378.839 119.042 379.338C118.951 379.846 119.007 380.35 119.21 380.852C119.649 381.974 120.845 382.973 122.798 383.848C123.526 384.175 124.13 384.411 124.612 384.559C125.079 384.7 125.499 384.7 125.871 384.558C126.504 384.329 127.215 383.337 128.001 381.584C128.691 380.044 128.969 378.987 128.833 378.412C128.587 377.394 127.872 376.62 126.689 376.089C125.506 375.559 124.54 375.288 123.791 375.278C123.021 375.275 122.352 375.394 121.781 375.635Z" fill="white"/>
<path d="M101.743 343.24C101.703 342.525 101.981 341.709 102.575 340.791C103.17 339.873 103.685 339.164 104.12 338.664C104.547 338.177 104.99 337.766 105.449 337.431C106.488 336.689 107.329 336.526 107.972 336.942L123.907 347.261C122.548 347.145 121.544 347.23 120.894 347.516C119.674 348.048 118.601 349.029 117.676 350.458C115.421 353.969 113.377 357.14 111.542 359.973L104.841 370.321C103.575 372.275 102.966 373.891 103.014 375.169C103.046 375.636 103.132 376.121 103.273 376.621L88.4797 367.041C87.7917 366.149 87.8953 364.652 88.7904 362.551C89.0383 361.967 89.3237 361.426 89.6464 360.928C90.3089 359.905 90.9863 359.189 91.6786 358.781L91.3651 361.594C91.173 363.443 91.5864 365.032 92.6052 366.362C93.1698 367.1 93.9111 367.766 94.8292 368.361C95.7472 368.955 96.4242 369.347 96.8601 369.536C97.2876 369.739 97.6784 369.796 98.0326 369.709C98.6199 369.55 99.2618 368.932 99.9582 367.857C100.646 366.795 101.1 366.037 101.319 365.583C101.53 365.142 101.622 364.727 101.595 364.338C101.52 363.563 100.826 362.751 99.5149 361.901L93.3377 357.901C94.1319 357.336 94.7884 356.998 95.307 356.887C96.3442 356.665 97.4005 356.902 98.4759 357.599C98.8956 357.87 99.2659 358.175 99.5868 358.513C100.185 359.143 100.752 359.631 101.29 359.979C101.828 360.328 102.308 360.564 102.73 360.688C103.13 360.817 103.497 360.841 103.829 360.758C104.408 360.612 105.008 360.06 105.628 359.103L111.704 349.719C113.301 347.253 114.111 345.702 114.132 345.064C114.154 344.427 113.998 343.935 113.664 343.588C113.322 343.255 112.691 342.791 111.773 342.196C110.855 341.602 109.938 341.193 109.02 340.972C108.103 340.75 107.242 340.714 106.438 340.863C105.621 341.004 104.84 341.29 104.096 341.72C103.343 342.163 102.559 342.67 101.743 343.24Z" fill="white"/>
<path d="M90.974 339.196C92.1944 338.104 93.1227 337.193 93.7589 336.462C94.3849 335.743 94.8763 335.001 95.2332 334.234C95.59 333.467 95.7984 332.717 95.8585 331.981C95.9827 330.411 95.5027 329.154 94.4187 328.21C92.3449 326.404 90.3126 326.644 88.3218 328.93C86.721 330.768 86.0891 333.647 86.4261 337.566L86.7096 340.952C86.9693 343.913 86.9833 346.122 86.7516 347.578C86.2968 350.455 85.269 352.813 83.6681 354.651C82.3649 356.148 80.789 356.982 78.9402 357.154C76.6963 357.375 74.4784 356.531 72.2868 354.623C71.4266 353.874 70.8145 353.268 70.4503 352.806C69.7707 351.945 69.2954 351.396 69.0244 351.16C68.3409 350.565 67.626 350.315 66.8795 350.411C66.6047 350.441 66.2771 350.508 65.8966 350.612C65.4572 349.38 66.5715 347.232 69.2395 344.168C70.9429 342.212 72.3944 340.938 73.5939 340.346C74.0006 340.14 74.3223 340.068 74.5591 340.13C73.1981 342.073 72.3902 344.167 72.1353 346.41C71.8298 349.045 72.4194 351.009 73.9041 352.302C75.1767 353.41 76.4682 353.509 77.7787 352.599C78.1485 352.341 78.5489 351.965 78.9799 351.47C79.4006 350.987 79.7356 350.304 79.9849 349.423C80.2342 348.542 80.3951 347.584 80.4676 346.549C80.5181 345.516 80.503 344.415 80.4224 343.247C80.22 339.672 80.11 337.277 80.0925 336.06C80.0632 334.833 80.1251 333.643 80.2782 332.492C80.6441 329.931 81.494 327.884 82.828 326.352C84.4391 324.502 86.4918 323.596 88.9863 323.635C91.5485 323.69 93.9961 324.734 96.3291 326.766C98.2615 328.449 99.5022 330.379 100.051 332.556C100.659 334.95 100.204 337.02 98.6855 338.763C96.7996 340.001 94.7513 340.331 92.5408 339.752C91.9436 339.605 91.4214 339.42 90.974 339.196Z" fill="white"/>
<path d="M63.6146 313.108L58.6952 317.236C58.0229 317.796 57.6567 318.284 57.5965 318.7C57.4823 319.466 57.8702 320.384 58.7602 321.452L61.1303 324.297C62.3703 325.786 63.4705 326.253 64.4309 325.697C64.701 325.533 64.9741 325.336 65.2503 325.106L70.6679 320.624C75.3261 316.744 78.0435 314.073 78.8201 312.613C79.1163 312.041 79.3645 311.326 79.5648 310.468L85.1899 317.221C83.9574 317.597 83.0101 318.01 82.3478 318.46C81.6755 318.898 80.8591 319.456 79.8987 320.134C77.9038 321.572 75.6937 323.301 73.2685 325.321C70.8434 327.341 69.1796 328.737 68.2771 329.509C67.3627 330.291 66.4723 331.053 65.6058 331.795C62.0381 334.909 59.954 336.838 59.3537 337.582C58.7413 338.336 58.3491 338.866 58.177 339.172L57.6366 340.171L52.0115 333.418C53.692 333.482 55.3886 332.883 57.1014 331.619C57.6236 331.245 58.1549 330.833 58.6952 330.383C59.2354 329.933 59.6216 329.53 59.8538 329.174C60.0639 328.815 60.141 328.456 60.0851 328.096C60.0312 327.592 59.5042 326.74 58.5042 325.539L57.0792 323.828C56.0592 322.604 55.3391 321.922 54.9191 321.784C54.2069 321.564 53.3286 321.889 52.2841 322.759C49.7268 324.889 48.346 326.893 48.1415 328.772L42.5164 322.018C43.6088 321.719 44.5262 321.331 45.2685 320.855C46.0008 320.367 46.6941 319.881 47.3484 319.397C47.9907 318.923 48.7351 318.364 49.5814 317.72C50.4278 317.076 51.2993 316.401 52.1957 315.695C54.2667 314.031 56.1305 312.509 57.7873 311.129C64.5226 305.519 68.4366 301.832 69.5293 300.067C69.7114 299.773 69.8915 299.44 70.0697 299.068L75.6948 305.821C74.3904 305.891 73.395 306.1 72.7087 306.448C72.0105 306.806 71.2351 307.279 70.3827 307.867C68.728 308.981 66.472 310.728 63.6146 313.108Z" fill="white"/>
<path d="M37.2352 293.803C36.5717 294.525 35.6804 295.147 34.5612 295.667C33.4421 296.188 32.5085 296.571 31.7607 296.815C30.9986 297.066 30.2942 297.256 29.6475 297.385C28.1859 297.651 27.3398 297.537 27.1091 297.041L18.3988 278.319C18.0165 277.498 18.9778 276.378 21.2827 274.961C21.9297 274.574 22.6145 274.212 23.337 273.876C25.037 273.085 26.3906 272.68 27.3978 272.659C24.1821 275.637 22.4946 278.344 22.335 280.779C22.2844 281.337 22.3579 281.828 22.5556 282.253C22.7534 282.678 23.0216 282.959 23.3603 283.094C23.6849 283.236 24.1242 283.273 24.6784 283.204C25.6471 283.064 26.7264 282.717 27.9164 282.163L35.8852 278.456L42.3778 275.409L48.5404 272.542C49.9287 271.896 50.8734 271.241 51.3745 270.577C51.8548 269.906 52.1792 269.307 52.3479 268.78C52.5099 268.239 52.621 267.645 52.6812 266.996L57.7334 277.855C56.423 277.224 55.4327 276.892 54.7626 276.859C53.5412 276.79 52.2647 277.065 50.933 277.684L31.7866 286.592C29.5624 287.627 28.1712 288.378 27.6127 288.845C27.0402 289.318 26.7037 289.724 26.6032 290.064C26.4886 290.41 26.5302 290.796 26.7279 291.221C26.9256 291.646 27.2542 292.019 27.7135 292.339C28.1586 292.666 28.6855 292.947 29.2941 293.181C29.8819 293.407 30.534 293.586 31.2503 293.718C31.9458 293.843 32.6494 293.929 33.3611 293.977C34.7637 294.065 36.0551 294.007 37.2352 293.803Z" fill="white"/>
<path d="M31.204 245.906L25.0224 247.646C24.1793 247.88 23.6448 248.174 23.4189 248.529C22.9997 249.18 22.9761 250.176 23.3481 251.516L24.3386 255.084C24.8568 256.951 25.6679 257.828 26.772 257.717C27.0856 257.678 27.4156 257.611 27.7619 257.515L34.5432 255.657C40.3849 254.035 43.9598 252.719 45.2681 251.707C45.7733 251.307 46.2937 250.757 46.8291 250.057L49.1799 258.526C47.902 258.362 46.8686 258.349 46.0799 258.487C45.2869 258.609 44.3134 258.782 43.1591 259.005C40.7494 259.496 38.0239 260.163 34.9826 261.008C31.9414 261.852 29.8507 262.44 28.7107 262.773C27.5556 263.11 26.4306 263.438 25.3357 263.758C20.8031 265.13 18.1101 266.032 17.2569 266.463C16.3887 266.899 15.8132 267.221 15.5305 267.429L14.6271 268.117L12.2762 259.649C13.7816 260.398 15.5748 260.549 17.6558 260.101C18.2856 259.975 18.9393 259.818 19.6168 259.63C20.2943 259.442 20.812 259.233 21.1701 259.004C21.5088 258.764 21.7268 258.468 21.8239 258.117C21.982 257.635 21.8521 256.642 21.4342 255.136L20.8387 252.991C20.4124 251.455 20.0362 250.538 19.71 250.239C19.1514 249.746 18.2172 249.681 16.9073 250.044C13.7005 250.935 11.6176 252.194 10.6588 253.822L8.30802 245.353C9.42707 245.529 10.4228 245.553 11.2952 245.424C12.1634 245.28 12.9952 245.122 13.7906 244.95C14.571 244.782 15.4793 244.579 16.5157 244.34C17.552 244.101 18.6239 243.844 19.7313 243.569C22.3033 242.903 24.6282 242.282 26.7058 241.706C35.1521 239.361 40.236 237.609 41.9575 236.45C42.2444 236.257 42.5455 236.028 42.8609 235.762L45.2117 244.231C43.994 243.758 43.0009 243.539 42.2322 243.574C41.4485 243.613 40.5473 243.725 39.5285 243.911C37.5621 244.246 34.7873 244.911 31.204 245.906Z" fill="white"/>
<path d="M18.9947 223.125C19.1742 224.929 20.3291 225.724 22.4592 225.512C31.2905 224.633 36.4767 223.968 38.0176 223.516C38.949 223.251 39.6348 222.963 40.0749 222.652L41.2414 221.829L42.0655 230.109C40.8343 229.729 39.8184 229.539 39.0177 229.54C38.2155 229.526 37.3603 229.533 36.4524 229.56C34.6053 229.619 32.1347 229.802 29.0406 230.11C25.2935 230.483 21.8791 230.885 18.7974 231.318L12.4094 232.213C10.7985 232.436 9.68523 232.688 9.06942 232.969C8.09284 233.412 7.23899 234.062 6.50787 234.92L5.27976 222.582C4.90521 218.82 5.00751 216.062 5.58667 214.308C6.18764 212.458 7.42879 211.44 9.31012 211.253C10.9582 211.088 12.5664 211.549 14.1346 212.633C15.5863 213.65 16.8015 215.053 17.7802 216.839C23.7275 216.012 29.2704 213.568 34.4092 209.508C36.6379 207.763 38.3349 206.039 39.5002 204.337L40.3708 213.083C38.439 214.814 34.3577 216.642 28.127 218.565C25.9625 219.22 24.1565 219.691 22.7089 219.976C21.2597 220.246 20.3921 220.442 20.1059 220.565C19.8027 220.674 19.5671 220.83 19.3991 221.036C19.032 221.449 18.8972 222.146 18.9947 223.125ZM14.3094 218.174C13.7996 217.785 13.2719 217.532 12.7262 217.413C12.179 217.279 11.6644 217.236 11.1824 217.284C10.6849 217.334 10.2021 217.452 9.73401 217.64C9.24885 217.814 8.83904 218.114 8.50457 218.54C7.7501 219.479 7.47888 221.013 7.69091 223.143C7.76985 223.936 7.86517 224.578 7.97689 225.07C8.08707 225.546 8.29601 225.909 8.60374 226.161C9.11816 226.597 10.3316 226.72 12.244 226.529C13.9232 226.362 14.9782 226.076 15.4091 225.672C16.1697 224.953 16.4857 223.948 16.3573 222.657C16.2288 221.367 15.9828 220.394 15.6193 219.74C15.2387 219.071 14.8021 218.549 14.3094 218.174Z" fill="white"/>
<path d="M32.4198 184.4C33.0195 184.01 33.8655 183.844 34.9577 183.902C36.0499 183.96 36.9212 184.054 37.5715 184.182C38.2062 184.31 38.7834 184.489 39.3031 184.721C40.464 185.252 41.024 185.9 40.9832 186.664L39.9719 205.622C39.3963 204.386 38.8224 203.558 38.2503 203.136C37.1817 202.343 35.797 201.902 34.0963 201.811C29.9295 201.605 26.161 201.411 22.7908 201.232L10.4801 200.575C8.15533 200.451 6.45066 200.728 5.36615 201.405C4.9767 201.666 4.59994 201.982 4.23587 202.354L5.17474 184.754C5.6058 183.713 6.95514 183.058 9.22276 182.787C9.8527 182.711 10.4641 182.689 11.057 182.721C12.274 182.786 13.2318 183.017 13.9304 183.414L11.3354 184.543C9.63652 185.297 8.46421 186.447 7.81844 187.993C7.45978 188.85 7.25131 189.825 7.19305 190.917C7.13479 192.009 7.13218 192.792 7.18522 193.264C7.22266 193.735 7.36735 194.103 7.61928 194.367C8.05012 194.797 8.90526 195.046 10.1847 195.114C11.4485 195.181 12.3317 195.197 12.8344 195.161C13.3214 195.125 13.7272 194.998 14.0517 194.78C14.686 194.329 15.0448 193.323 15.128 191.763L15.52 184.414C16.4059 184.821 17.026 185.222 17.3805 185.616C18.0895 186.405 18.4099 187.44 18.3416 188.719C18.315 189.218 18.235 189.691 18.1016 190.138C17.8538 190.97 17.7129 191.705 17.6788 192.345C17.6446 192.985 17.6787 193.519 17.7811 193.947C17.8687 194.358 18.031 194.687 18.2682 194.935C18.6834 195.364 19.4606 195.609 20.5996 195.669L31.7634 196.265C34.6967 196.421 36.4452 196.35 37.0087 196.052C37.5723 195.753 37.9212 195.373 38.0554 194.911C38.174 194.448 38.2624 193.67 38.3207 192.578C38.3789 191.486 38.2758 190.486 38.0111 189.58C37.7465 188.674 37.3492 187.91 36.8191 187.287C36.2899 186.649 35.6534 186.114 34.9097 185.683C34.1503 185.251 33.3204 184.824 32.4198 184.4Z" fill="white"/>
<path d="M30.542 173.148C32.0969 173.661 33.3496 174.012 34.3 174.2C35.2351 174.384 36.1239 174.44 36.9664 174.367C37.8089 174.295 38.5638 174.101 39.231 173.787C40.6541 173.112 41.5048 172.069 41.7831 170.659C42.3153 167.961 41.0945 166.319 38.1206 165.732C35.7292 165.26 32.9184 166.147 29.6884 168.392L26.8942 170.326C24.4563 172.027 22.5486 173.139 21.1711 173.664C18.4496 174.704 15.8932 174.988 13.5017 174.516C11.5549 174.132 10.0463 173.181 8.97595 171.664C7.66576 169.829 7.29192 167.486 7.85444 164.634C8.07521 163.515 8.2952 162.683 8.5144 162.137C8.92237 161.118 9.16112 160.433 9.23068 160.08C9.40609 159.191 9.26625 158.447 8.81117 157.847C8.64818 157.624 8.42689 157.373 8.14731 157.095C8.99659 156.1 11.4141 155.996 15.3998 156.782C17.9445 157.284 19.7724 157.908 20.8836 158.652C21.2643 158.903 21.4871 159.146 21.552 159.382C19.1889 159.17 16.9712 159.513 14.899 160.41C12.4625 161.458 11.0538 162.948 10.6727 164.88C10.3461 166.535 10.9038 167.705 12.3458 168.387C12.7539 168.579 13.2798 168.739 13.9237 168.866C14.5522 168.99 15.3105 168.94 16.1985 168.717C17.0866 168.494 17.9974 168.156 18.9308 167.703C19.8519 167.232 20.7989 166.671 21.7716 166.018C24.7696 164.062 26.7917 162.772 27.8381 162.151C28.8875 161.514 29.9494 160.975 31.0238 160.534C33.4268 159.574 35.6247 159.291 37.6176 159.684C40.0243 160.159 41.8327 161.487 43.0426 163.669C44.2712 165.918 44.586 168.56 43.9872 171.596C43.4912 174.11 42.4363 176.147 40.8224 177.708C39.0496 179.429 37.0288 180.065 34.76 179.618C32.7472 178.599 31.4406 176.988 30.8404 174.783C30.6703 174.192 30.5708 173.647 30.542 173.148Z" fill="white"/>
<path d="M39.6033 136.334L33.5785 134.111C32.7587 133.805 32.1532 133.729 31.7621 133.883C31.0402 134.164 30.4362 134.956 29.95 136.259L28.6555 139.728C27.9781 141.544 28.1191 142.73 29.0783 143.288C29.3547 143.441 29.6612 143.581 29.9979 143.707L36.5773 146.187C42.2573 148.306 45.9239 149.34 47.577 149.29C48.2207 149.264 48.9647 149.124 49.8092 148.872L46.7367 157.107C45.7989 156.223 44.9704 155.606 44.2511 155.254C43.5373 154.887 42.6478 154.455 41.5826 153.958C39.3443 152.939 36.7467 151.878 33.7896 150.775C30.8325 149.672 28.7949 148.92 27.6769 148.519C26.5442 148.113 25.4408 147.718 24.3667 147.334C19.8928 145.781 17.1839 144.929 16.24 144.777C15.2815 144.619 14.6266 144.542 14.2755 144.544L13.1399 144.571L16.2124 136.336C16.9903 137.827 18.3528 139.003 20.3 139.863C20.8839 140.131 21.5051 140.388 22.1639 140.633C22.8227 140.879 23.3642 141.014 23.7885 141.039C24.2037 141.044 24.5537 140.933 24.8386 140.706C25.2496 140.409 25.7282 139.528 26.2744 138.064L27.0528 135.978C27.61 134.485 27.8443 133.522 27.7558 133.089C27.5937 132.361 26.8758 131.76 25.6022 131.285C22.4841 130.121 20.0588 129.917 18.3264 130.671L21.3989 122.436C22.2012 123.236 22.9932 123.84 23.7747 124.249C24.5617 124.642 25.3277 125.003 26.0725 125.331C26.8027 125.654 27.6574 126.023 28.6364 126.438C29.6155 126.853 30.6339 127.275 31.6916 127.703C34.1639 128.675 36.4101 129.539 38.4303 130.292C46.6429 133.357 51.7861 134.926 53.8601 134.999C54.2057 135.011 54.5843 135.002 54.9957 134.972L51.9231 143.207C51.2154 142.109 50.5403 141.348 49.8977 140.925C49.2405 140.497 48.4451 140.058 47.5117 139.61C45.7236 138.726 43.0874 137.634 39.6033 136.334Z" fill="white"/>
<path d="M43.2946 103.874C42.3384 103.656 41.3569 103.19 40.3499 102.476C39.343 101.762 38.5479 101.141 37.9649 100.613C37.369 100.075 36.855 99.5574 36.4228 99.0594C35.4671 97.9221 35.1473 97.1304 35.4637 96.6842L47.4068 79.8402C47.9309 79.101 49.3796 79.3811 51.7527 80.6806C52.4097 81.0507 53.0632 81.4662 53.7132 81.9271C55.2428 83.0116 56.2661 83.9862 56.7831 84.8508C52.6027 83.5339 49.4154 83.4097 47.2213 84.4781C46.7117 84.7106 46.3213 85.018 46.0502 85.4004C45.7791 85.7827 45.6687 86.1546 45.719 86.5159C45.7565 86.8681 45.9423 87.268 46.2762 87.7155C46.8783 88.4871 47.7147 89.2526 48.7854 90.0117L55.9551 95.0953L61.8191 99.2244L67.3637 103.156C68.6128 104.041 69.6499 104.537 70.4749 104.643C71.2962 104.728 71.9773 104.713 72.5182 104.598C73.0681 104.471 73.6395 104.273 74.2326 104.004L67.3053 113.774C67.204 112.323 67.0015 111.298 66.6979 110.7C66.1528 109.604 65.2812 108.632 64.0831 107.783L46.8567 95.5684C44.8555 94.1495 43.5139 93.3132 42.8319 93.0594C42.1371 92.7967 41.6173 92.7058 41.2725 92.787C40.9149 92.859 40.6006 93.0863 40.3295 93.4687C40.0583 93.851 39.8974 94.3211 39.8467 94.8789C39.7832 95.4277 39.8007 96.0243 39.8992 96.6688C39.994 97.2915 40.1616 97.9466 40.4019 98.6342C40.6386 99.3 40.9124 99.9538 41.2234 100.596C41.8417 101.858 42.5321 102.951 43.2946 103.874Z" fill="white"/>
<path d="M81.8918 74.8684L77.3089 70.3698C76.6867 69.7545 76.1656 69.4371 75.7457 69.4173C74.972 69.3775 74.0963 69.852 73.1186 70.8408L70.5148 73.474C69.1525 74.8517 68.7943 75.9918 69.4402 76.8941C69.6295 77.1472 69.8519 77.4 70.1074 77.6527L75.0907 82.6132C79.4016 86.8758 82.3212 89.3232 83.8495 89.9555C84.4475 90.1952 85.1832 90.3733 86.0567 90.4899L79.877 96.7396C79.3841 95.5491 78.8819 94.646 78.3702 94.0301C77.8694 93.4032 77.2354 92.6444 76.468 91.7537C74.8445 89.9067 72.9106 87.8736 70.6662 85.6544C68.4219 83.4352 66.872 81.9136 66.0167 81.0898C65.1502 80.255 64.3059 79.4421 63.4838 78.6512C60.0404 75.4002 57.9195 73.5118 57.121 72.9859C56.3114 72.4491 55.746 72.1098 55.4248 71.9679L54.3782 71.5264L60.558 65.2767C60.6558 66.9555 61.4163 68.5865 62.8395 70.1695C63.262 70.6532 63.7233 71.1423 64.2233 71.6367C64.7233 72.1311 65.1616 72.4766 65.5384 72.6734C65.915 72.848 66.2799 72.8902 66.6329 72.7998C67.1295 72.6976 67.9272 72.0909 69.0258 70.9799L70.5913 69.3966C71.7119 68.2633 72.3207 67.481 72.4177 67.0495C72.5683 66.3195 72.1603 65.4765 71.1936 64.5207C68.8271 62.1807 66.6991 60.9994 64.8096 60.9769L70.9894 54.7272C71.3931 55.7856 71.8676 56.6613 72.4129 57.3543C72.9691 58.0362 73.5197 58.6795 74.0645 59.2841C74.5981 59.8777 75.2263 60.5647 75.9488 61.3451C76.6714 62.1255 77.4272 62.9278 78.2163 63.752C80.0722 65.653 81.7667 67.3615 83.3 68.8776C89.533 75.0409 93.5802 78.5813 95.4415 79.4989C95.7518 79.6518 96.1006 79.799 96.4881 79.9405L90.3084 86.1902C90.1133 84.8986 89.8095 83.928 89.397 83.2784C88.9735 82.6179 88.428 81.8918 87.7606 81.1C86.4924 79.5603 84.5361 77.4831 81.8918 74.8684Z" fill="white"/>
<path d="M95.5912 52.916C94.1167 53.97 94.0019 55.3678 95.2467 57.1092C100.408 64.3292 103.568 68.4948 104.727 69.606C105.421 70.2815 106.013 70.7326 106.501 70.9595L107.796 71.5612L101.027 76.3997C100.743 75.1429 100.401 74.1676 100.002 73.4739C99.6144 72.7711 99.1827 72.0329 98.7066 71.2593C97.7361 69.6867 96.3467 67.6356 94.5385 65.106C92.3487 62.0426 90.2988 59.2825 88.3889 56.8256L84.431 51.7321C83.4352 50.4465 82.662 49.6067 82.1115 49.2127C81.2413 48.5864 80.2521 48.1699 79.144 47.9632L89.2305 40.7532C92.3066 38.5543 94.7492 37.2692 96.5581 36.898C98.4615 36.4977 99.963 37.0666 101.062 38.6047C102.026 39.9521 102.428 41.5758 102.268 43.4758C102.109 45.2413 101.499 46.9934 100.437 48.7321C104.117 53.4769 108.997 57.0661 115.077 59.4997C117.7 60.5631 120.04 61.1762 122.096 61.339L114.946 66.4501C112.483 65.6372 108.865 63.0084 104.094 58.5637C102.448 57.0131 101.14 55.6812 100.172 54.5682C99.216 53.446 98.6136 52.7914 98.3647 52.6044C98.1194 52.3956 97.866 52.2695 97.6044 52.226C97.0631 52.1136 96.3921 52.3436 95.5912 52.916ZM97.5506 46.3873C97.6339 45.7515 97.591 45.1676 97.4219 44.6354C97.2655 44.0942 97.0464 43.6266 96.7648 43.2325C96.474 42.8258 96.1306 42.4663 95.7345 42.154C95.342 41.8199 94.8779 41.6139 94.342 41.536C93.1522 41.3494 91.6866 41.8784 89.9452 43.1233C89.2969 43.5867 88.7875 43.9892 88.4171 44.3308C88.0594 44.6633 87.8479 45.0258 87.7827 45.4181C87.6612 46.0811 88.1593 47.1944 89.2769 48.7579C90.2583 50.1307 91.0314 50.9033 91.5964 51.0757C92.5991 51.3768 93.628 51.1503 94.6831 50.3961C95.7381 49.642 96.4589 48.9442 96.8456 48.3029C97.2359 47.6398 97.4709 47.0012 97.5506 46.3873Z" fill="white"/>
<path d="M135.593 45.4285C136.23 45.7542 136.795 46.4051 137.289 47.3813C137.782 48.3574 138.135 49.1595 138.347 49.7874C138.553 50.4015 138.684 50.9914 138.743 51.5571C138.86 52.8284 138.577 53.6367 137.894 53.9821L120.951 62.5458C121.735 61.4313 122.168 60.521 122.249 59.8149C122.404 58.4935 122.097 57.0728 121.329 55.5528C119.433 51.8366 117.724 48.4724 116.202 45.4603L110.64 34.4577C109.59 32.3799 108.501 31.0395 107.374 30.4365C106.954 30.2287 106.492 30.0595 105.988 29.9289L121.718 21.9784C122.835 21.8338 124.076 22.6774 125.439 24.5093C125.819 25.0178 126.143 25.5369 126.41 26.0668C126.96 27.1546 127.237 28.1002 127.24 28.9038L124.969 27.2156C123.469 26.118 121.888 25.6742 120.225 25.8841C119.304 25.9999 118.355 26.3045 117.378 26.7978C116.402 27.2912 115.723 27.6785 115.339 27.9597C114.949 28.2269 114.703 28.5354 114.599 28.8853C114.441 29.4729 114.651 30.3385 115.229 31.482C115.8 32.6115 116.226 33.3853 116.507 33.8034C116.782 34.2075 117.094 34.4961 117.444 34.6693C118.151 34.9946 119.202 34.8049 120.597 34.1001L127.165 30.7803C127.253 31.7512 127.214 32.4886 127.048 32.9925C126.717 34.0001 125.98 34.7929 124.837 35.3709C124.39 35.5965 123.94 35.7626 123.487 35.8694C122.642 36.0687 121.934 36.3129 121.362 36.6019C120.79 36.8908 120.344 37.1863 120.024 37.4881C119.711 37.769 119.506 38.0739 119.41 38.4027C119.245 38.9764 119.419 39.7723 119.934 40.7902L124.977 50.7679C126.302 53.3895 127.234 54.8704 127.774 55.2104C128.313 55.5505 128.817 55.6636 129.285 55.5498C129.745 55.422 130.464 55.1114 131.44 54.618C132.416 54.1246 133.231 53.5376 133.885 52.857C134.539 52.1763 135.004 51.4511 135.28 50.6812C135.57 49.9043 135.717 49.0861 135.72 48.2266C135.716 47.3531 135.674 46.4205 135.593 45.4285Z" fill="white"/>
<path d="M144.501 38.1771C144.828 39.7819 145.145 41.0433 145.455 41.9613C145.759 42.8646 146.152 43.6637 146.634 44.3589C147.115 45.054 147.658 45.613 148.262 46.036C149.555 46.936 150.882 47.1565 152.244 46.6975C154.85 45.8194 155.67 43.9441 154.702 41.0715C153.923 38.7616 151.758 36.7626 148.204 35.0744L145.139 33.6095C142.451 32.3385 140.538 31.2354 139.399 30.3003C137.144 28.4548 135.628 26.377 134.85 24.0671C134.216 22.1866 134.292 20.4051 135.077 18.7226C136.019 16.6739 137.867 15.1856 140.621 14.2576C141.702 13.8934 142.534 13.6708 143.117 13.5898C144.203 13.4381 144.917 13.3048 145.257 13.1901C146.116 12.9007 146.693 12.4096 146.987 11.7169C147.1 11.4646 147.207 11.148 147.31 10.7672C148.595 11.0101 149.887 13.0564 151.184 16.9062C152.012 19.3642 152.379 21.2604 152.285 22.5948C152.256 23.0494 152.156 23.3635 151.984 23.537C150.993 21.381 149.594 19.6265 147.786 18.2736C145.666 16.6796 143.674 16.1969 141.808 16.8256C140.209 17.3644 139.471 18.4291 139.595 20.0198C139.631 20.4693 139.754 21.005 139.963 21.6269C140.168 22.234 140.587 22.8675 141.222 23.5276C141.857 24.1876 142.602 24.8102 143.459 25.3954C144.326 25.9608 145.283 26.5037 146.333 27.0241C149.52 28.6541 151.643 29.7688 152.703 30.3682C153.777 30.9626 154.772 31.6165 155.689 32.33C157.715 33.9391 159.052 35.7062 159.701 37.6311C160.484 39.9558 160.229 42.185 158.937 44.3188C157.595 46.5022 155.458 48.0878 152.526 49.0757C150.098 49.894 147.806 49.9904 145.649 49.3649C143.275 48.6809 141.719 47.2432 140.981 45.0517C140.865 42.799 141.614 40.8646 143.23 39.2485C143.658 38.8074 144.082 38.4502 144.501 38.1771Z" fill="white"/>
<path d="M180.902 27.7617L179.836 21.4289C179.694 20.5655 179.459 20.0024 179.13 19.7397C178.528 19.253 177.54 19.1225 176.168 19.3483L172.514 19.9495C170.602 20.264 169.643 20.9761 169.635 22.0858C169.64 22.4018 169.671 22.7371 169.73 23.0917L170.848 30.0334C171.832 36.0155 172.757 39.7113 173.622 41.1207C173.965 41.666 174.456 42.2424 175.094 42.85L166.422 44.2769C166.723 43.024 166.847 41.998 166.794 41.199C166.758 40.3975 166.69 39.411 166.592 38.2394C166.364 35.7909 165.993 33.0095 165.481 29.8951C164.968 26.7808 164.608 24.639 164.4 23.4698C164.189 22.2851 163.983 21.1313 163.783 20.0084C162.906 15.3546 162.299 12.5804 161.962 11.6857C161.622 10.7757 161.364 10.1689 161.188 9.86547L160.6 8.89326L169.273 7.46636C168.365 8.88242 168.023 10.649 168.244 12.7661C168.302 13.4058 168.388 14.0726 168.502 14.7664C168.616 15.4602 168.768 15.9974 168.957 16.3779C169.16 16.7406 169.43 16.989 169.769 17.1233C170.231 17.3323 171.233 17.31 172.774 17.0563L174.971 16.6948C176.544 16.4361 177.496 16.1606 177.828 15.8685C178.379 15.3662 178.544 14.4443 178.323 13.103C177.783 9.81902 176.755 7.61291 175.239 6.48465L183.912 5.05775C183.617 6.15142 183.486 7.13883 183.52 8.01998C183.57 8.89859 183.637 9.74256 183.723 10.5519C183.806 11.3458 183.911 12.2708 184.037 13.3268C184.163 14.3828 184.304 15.4761 184.458 16.6067C184.843 19.2353 185.211 21.6134 185.561 23.741C186.984 32.3904 188.179 37.6331 189.146 39.4692C189.307 39.7752 189.503 40.0993 189.734 40.4414L181.061 41.8683C181.662 40.7085 181.986 39.7446 182.034 38.9766C182.079 38.1933 182.065 37.2852 181.99 36.2524C181.868 34.2614 181.505 31.4311 180.902 27.7617Z" fill="white"/>
</svg>
