<svg width="313" height="313" viewBox="0 0 313 313" fill="none" xmlns="http://www.w3.org/2000/svg">
<path d="M179.242 10.6875C179.436 10.6875 179.629 10.6875 179.828 10.6875C179.899 13.3085 179.8 15.7435 179.242 18.3047C178.396 22.31 177.827 26.1667 177.867 30.2674C177.918 35.6627 177.655 41.2758 175.922 46.4297C176.152 46.4461 176.383 46.4624 176.621 46.4793C177.97 46.631 179.259 47.021 180.561 47.394C180.697 47.4327 180.833 47.4714 180.973 47.5113C185.669 48.8503 190.204 50.5135 194.672 52.4844C194.892 52.5806 195.112 52.6769 195.339 52.7761C196.879 53.4497 198.414 54.1338 199.945 54.8281C200.129 54.9114 200.313 54.9947 200.503 55.0805C209.619 59.2326 218.604 65.0672 225.957 71.8966C226.296 72.2238 226.296 72.2238 226.703 72.4062C226.703 72.5352 226.703 72.6641 226.703 72.7969C226.819 72.8486 226.935 72.9004 227.054 72.9537C227.498 73.1948 227.776 73.4399 228.124 73.8032C228.241 73.9227 228.357 74.0421 228.477 74.1652C228.718 74.4159 228.959 74.6667 229.199 74.9175C229.706 75.4378 230.136 75.8742 230.769 76.24C231.307 76.5779 231.408 76.8866 231.586 77.4844C231.692 77.3519 231.799 77.2195 231.909 77.0831C234.322 74.1041 236.935 71.5936 239.984 69.2812C240.118 69.1796 240.252 69.0779 240.39 68.9732C242.495 67.3825 244.652 65.8765 246.842 64.4056C248.931 63.0002 250.948 61.5161 252.92 59.9513C253.058 59.8438 253.196 59.7363 253.339 59.6255C253.522 59.4808 253.522 59.4808 253.71 59.3333C254.047 59.125 254.047 59.125 254.633 59.125C254.697 59.3184 254.762 59.5117 254.828 59.7109C254.432 60.3314 253.941 60.7866 253.385 61.2574C252.234 62.2578 251.158 63.3337 250.08 64.4106C249.971 64.5193 249.862 64.628 249.75 64.74C248.193 66.2995 246.705 67.8496 245.453 69.6719C245.379 69.7795 245.305 69.8871 245.229 69.9979C244.017 71.7747 242.972 73.6478 241.938 75.5312C242.121 75.5245 242.304 75.5177 242.492 75.5107C244.251 75.468 245.943 75.5937 247.687 75.8242C251.146 76.262 254.174 76.0998 257.6 75.4881C261.07 74.875 261.07 74.875 262.055 75.5312C262.018 75.8978 262.018 75.8978 261.859 76.3125C261.439 76.5285 261.439 76.5285 260.881 76.6978C260.674 76.7635 260.467 76.8292 260.255 76.8969C260.031 76.9659 259.807 77.0349 259.577 77.106C255.285 78.5101 251.219 80.5568 247.797 83.5391C247.67 83.6496 247.543 83.7601 247.412 83.874C246.046 85.154 244.975 86.7087 243.891 88.2266C243.81 88.3386 243.729 88.4506 243.646 88.566C243.013 89.4301 243.013 89.4301 242.523 90.375C242.743 90.9047 243.04 91.3621 243.369 91.8299C247.608 97.9646 250.756 104.739 253.461 111.664C253.589 111.991 253.589 111.991 253.719 112.324C257.376 121.765 259.309 131.868 260.102 141.938C260.12 142.171 260.139 142.405 260.158 142.645C260.351 145.425 260.345 148.21 260.346 150.995C260.346 151.127 260.346 151.259 260.346 151.395C260.347 155.626 260.251 159.807 259.711 164.008C259.678 164.271 259.645 164.535 259.613 164.799C257.624 180.508 251.94 195.677 243.305 208.93C243.178 209.126 243.178 209.126 243.048 209.326C241.832 211.197 240.543 213.005 239.203 214.789C239.102 214.925 239 215.06 238.895 215.2C237.577 216.955 236.226 218.67 234.79 220.33C234.496 220.671 234.206 221.014 233.916 221.358C232.975 222.47 232.034 223.558 230.984 224.571C230.631 224.923 230.307 225.287 229.984 225.666C229.223 226.542 228.416 227.363 227.594 228.18C227.455 228.32 227.316 228.46 227.173 228.604C226.378 229.397 225.564 230.156 224.713 230.89C224.24 231.299 223.781 231.723 223.322 232.147C222.449 232.944 221.552 233.698 220.632 234.439C220.234 234.766 219.843 235.095 219.457 235.434C213.623 240.552 213.623 240.552 212.291 240.583C210.494 240.434 208.725 240.181 206.947 239.879C206.641 239.828 206.334 239.776 206.027 239.726C205.371 239.616 204.714 239.506 204.058 239.395C203.006 239.218 201.954 239.042 200.902 238.867C198.843 238.524 196.785 238.179 194.726 237.833C191.605 237.31 188.484 236.788 185.362 236.267C185.184 236.238 185.006 236.208 184.822 236.177C178.843 235.18 172.858 234.237 166.859 233.366C165.972 233.238 165.086 233.105 164.203 232.953C164.919 232.218 165.667 231.541 166.449 230.878C166.568 230.777 166.686 230.676 166.809 230.571C167.623 229.878 168.44 229.188 169.257 228.498C170.748 227.238 172.207 225.95 173.646 224.631C174.067 224.251 174.496 223.889 174.933 223.529C178.806 220.135 181.688 215.289 184.551 211.053C186.008 208.898 187.499 206.78 189.057 204.698C189.671 203.877 190.279 203.053 190.888 202.228C191.001 202.075 191.114 201.922 191.231 201.765C191.814 200.976 192.378 200.181 192.914 199.359C192.559 199.704 192.205 200.05 191.852 200.397C191.755 200.491 191.658 200.585 191.558 200.681C190.905 201.326 190.32 202.004 189.746 202.72C188.786 203.907 187.745 204.997 186.664 206.073C186.566 206.171 186.468 206.269 186.367 206.37C179.072 213.617 179.072 213.617 176.312 213.617C176.269 213.732 176.226 213.846 176.181 213.964C175.841 214.533 175.459 214.746 174.896 215.094C170.249 218.102 166.59 222 163.422 226.508C163.081 226.993 162.739 227.477 162.396 227.96C162.28 228.126 162.28 228.126 162.161 228.294C161.51 229.208 160.804 230.058 160.065 230.902C159.676 231.439 159.498 231.927 159.32 232.562C159.127 232.562 158.934 232.562 158.734 232.562C159.02 229.606 159.792 226.781 160.728 223.97C161.564 221.413 162.288 218.837 162.976 216.238C163.308 214.985 163.645 213.734 163.983 212.483C164.017 212.357 164.051 212.231 164.086 212.101C165.167 208.096 166.326 204.113 167.523 200.141C167.575 199.971 167.626 199.801 167.679 199.626C172.15 184.82 172.15 184.82 175.727 179.828C175.34 179.764 174.953 179.699 174.555 179.633C174.182 180.34 173.81 181.048 173.44 181.757C173.314 181.997 173.189 182.237 173.062 182.476C171.99 184.51 171.077 186.581 170.282 188.739C169.976 189.57 169.665 190.398 169.335 191.219C168.603 193.04 167.99 194.866 167.443 196.75C167.114 197.876 166.751 198.989 166.388 200.104C165.056 204.238 163.883 208.403 162.824 212.614C162.336 214.548 161.798 216.454 161.188 218.354C160.466 220.61 159.839 222.883 159.247 225.177C159.206 225.335 159.165 225.493 159.122 225.655C158.542 227.881 158.11 230.094 157.758 232.367C156.662 232.367 155.566 232.367 154.438 232.367C154.096 231.514 153.913 230.746 153.754 229.853C152.905 225.39 151.694 220.957 150.316 216.631C149.814 215.042 149.389 213.438 148.981 211.823C147.515 206.036 145.729 200.35 143.891 194.672C143.846 194.533 143.801 194.395 143.755 194.253C143.274 192.765 142.764 191.305 142.133 189.875C141.683 188.835 141.264 187.804 140.912 186.725C140.447 185.378 139.825 184.118 139.191 182.843C139.09 182.639 138.988 182.434 138.884 182.223C138.785 182.029 138.687 181.834 138.586 181.634C138.498 181.46 138.41 181.286 138.32 181.107C138.008 180.57 137.649 180.108 137.25 179.633C136.928 179.697 136.605 179.762 136.273 179.828C136.38 179.997 136.486 180.165 136.596 180.339C143.564 191.531 146.206 205.772 149.63 218.341C149.747 218.771 149.865 219.201 149.983 219.632C150.788 222.579 151.573 225.532 152.304 228.499C152.375 228.785 152.446 229.072 152.518 229.358C152.617 229.753 152.713 230.149 152.809 230.545C152.865 230.77 152.92 230.995 152.977 231.227C153.07 231.781 153.07 231.781 152.875 232.367C152.803 232.26 152.732 232.153 152.658 232.043C151.932 230.98 151.16 229.971 150.348 228.974C149.496 227.924 148.725 226.852 147.988 225.718C144.856 221.034 140.679 217.353 136.005 214.263C135.9 214.179 135.795 214.094 135.688 214.008C135.688 213.879 135.688 213.75 135.688 213.617C135.49 213.547 135.49 213.547 135.288 213.475C131.89 212.012 128.744 209.34 126.117 206.781C125.993 206.661 125.869 206.541 125.742 206.418C124.295 205.012 122.904 203.607 121.659 202.019C120.869 201.068 119.974 200.218 119.086 199.359C119.725 200.364 120.407 201.324 121.137 202.265C123.351 205.119 125.428 208.054 127.451 211.047C130.021 214.849 132.683 218.544 135.688 222.016C135.807 222.159 135.926 222.303 136.049 222.451C137.002 223.584 138.094 224.553 139.203 225.531C139.334 225.648 139.464 225.764 139.599 225.884C140.706 226.862 141.84 227.811 142.969 228.763C143.301 229.044 143.633 229.326 143.964 229.608C145.224 230.68 146.497 231.733 147.797 232.758C147.732 232.887 147.668 233.016 147.602 233.148C146.998 233.246 146.403 233.318 145.795 233.38C143.474 233.646 141.169 233.993 138.861 234.357C138.579 234.401 138.579 234.401 138.292 234.447C138.1 234.477 137.909 234.507 137.712 234.538C137.317 234.6 136.923 234.663 136.529 234.725C136.33 234.756 136.132 234.787 135.927 234.82C134.573 235.033 133.217 235.239 131.861 235.442C125.48 236.398 119.121 237.477 112.762 238.573C111.638 238.766 110.513 238.959 109.389 239.152C108.578 239.291 107.768 239.43 106.957 239.571C106.145 239.712 105.333 239.851 104.52 239.989C104.217 240.041 103.915 240.094 103.612 240.146C99.7463 240.821 99.7463 240.821 98.6672 240.357C98.5384 240.257 98.4095 240.157 98.2768 240.055C98.0551 239.888 98.0551 239.888 97.8289 239.717C97.6774 239.596 97.5258 239.475 97.3696 239.35C97.2087 239.226 97.0479 239.102 96.8821 238.975C95.5553 237.945 94.278 236.86 93.0171 235.751C92.568 235.361 92.1066 234.987 91.6445 234.613C88.1761 231.791 88.1761 231.791 86.7977 230.352C86.4628 230.017 86.1141 229.711 85.7539 229.404C84.8767 228.641 84.0533 227.832 83.2339 227.008C83.0241 226.8 83.0241 226.8 82.8101 226.587C82.0206 225.796 81.2663 224.986 80.5368 224.139C80.0622 223.593 79.5661 223.068 79.0713 222.541C78.0365 221.427 77.0653 220.275 76.1172 219.086C75.9396 218.868 75.7618 218.649 75.5839 218.431C73.2612 215.573 71.0806 212.612 69.0859 209.516C68.9959 209.377 68.9059 209.238 68.8132 209.095C60.186 195.763 54.5882 180.864 52.4355 165.119C52.406 164.905 52.3765 164.692 52.3461 164.472C51.7856 160.116 51.6295 155.761 51.6421 151.374C51.6425 151.112 51.6428 150.85 51.6432 150.587C51.6734 134.69 54.7454 118.937 63.4219 100.727C63.5191 100.533 63.6163 100.339 63.7165 100.14C65.2898 97.0222 66.9352 93.9215 69.2057 91.2501C69.538 90.7829 69.538 90.7829 69.3644 90.2773C69.2725 90.1162 69.1806 89.9551 69.0859 89.7891C68.9928 89.6252 68.8996 89.4613 68.8036 89.2924C64.7793 82.9564 58.7757 78.9139 51.6061 76.8273C51.4173 76.7705 51.2285 76.7136 51.034 76.6551C50.866 76.6074 50.698 76.5597 50.5249 76.5105C50.1406 76.3125 50.1406 76.3125 49.9871 75.9005C49.9733 75.7786 49.9595 75.6568 49.9453 75.5312C51.5237 74.5208 54.3477 75.4136 56.0732 75.7388C59.1355 76.3005 61.8637 76.1483 64.9407 75.7411C66.6582 75.5202 68.334 75.4671 70.0625 75.5312C68.1256 71.9746 68.1256 71.9746 65.7656 68.6953C65.6144 68.5101 65.4632 68.3248 65.3075 68.1339C64.0341 66.5931 62.6762 65.16 61.2557 63.7546C60.9024 63.4049 60.5507 63.0536 60.1992 62.702C59.972 62.4757 59.7446 62.2495 59.5172 62.0234C59.4136 61.9201 59.31 61.8167 59.2033 61.7102C58.7504 61.263 58.2981 60.8474 57.7943 60.4575C57.3672 60.1016 57.3672 60.1016 57.1719 59.5156C57.2363 59.3867 57.3008 59.2578 57.3672 59.125C57.9668 59.2414 58.3379 59.4187 58.8137 59.7987C58.9409 59.8986 59.0682 59.9985 59.1992 60.1014C59.3359 60.2102 59.4725 60.319 59.6133 60.4312C61.8598 62.1849 64.191 63.8201 66.5713 65.3872C69.1665 67.1052 71.6299 68.976 74.0254 70.9607C74.48 71.3332 74.9448 71.692 75.4092 72.0522C77.0256 73.3497 78.3754 74.8124 79.5893 76.4855C79.7907 76.7597 80.0038 77.0253 80.2188 77.2891C80.3477 77.2891 80.4766 77.2891 80.6094 77.2891C80.6497 77.144 80.6899 76.999 80.7314 76.8496C81.0255 76.2615 81.2925 76.1177 81.8315 75.7752C82.49 75.3033 83.0287 74.6981 83.5879 74.1152C83.8281 73.8651 84.0691 73.6159 84.3112 73.3676C84.4162 73.258 84.5213 73.1484 84.6295 73.0355C84.9062 72.7969 84.9062 72.7969 85.2969 72.7969C85.2969 72.668 85.2969 72.5391 85.2969 72.4062C85.6081 72.1259 85.9321 71.8597 86.2612 71.6006C86.9559 71.0515 87.6253 70.4901 88.2823 69.8962C89.1711 69.1013 90.1008 68.3793 91.0586 67.6699C91.2273 67.5443 91.396 67.4186 91.5698 67.2892C93.9238 65.5428 96.3144 63.8458 98.7734 62.25C98.8995 62.1676 99.0255 62.0852 99.1554 62.0003C101.821 60.2633 104.57 58.6858 107.367 57.1719C107.501 57.0991 107.635 57.0262 107.773 56.9512C110.144 55.6642 112.557 54.5201 115.033 53.4487C115.209 53.3724 115.384 53.2961 115.565 53.2175C128.217 47.7155 140.575 44.5267 154.438 44.6719C154.442 43.0589 154.446 41.446 154.448 39.8331C154.449 39.0841 154.45 38.3351 154.452 37.5861C154.454 36.863 154.456 36.1399 154.456 35.4168C154.456 35.1412 154.457 34.8657 154.458 34.5901C154.46 34.2035 154.46 33.8168 154.46 33.4302C154.46 33.1004 154.46 33.1004 154.461 32.7639C154.439 32.2179 154.367 31.7262 154.242 31.1953C154.938 30.9538 155.207 30.9955 155.905 31.2731C156.15 31.399 156.393 31.5278 156.635 31.6592C156.759 31.7236 156.884 31.7881 157.012 31.8545C157.911 32.3254 157.911 32.3254 158.148 32.5625C158.164 32.4109 158.179 32.2592 158.195 32.103C158.431 30.1416 158.936 28.313 159.492 26.4226C160.342 23.5235 161.111 20.6238 161.688 17.6577C161.729 17.4519 161.729 17.4519 161.77 17.242C162.083 15.6302 162.343 14.016 162.556 12.3879C162.641 11.8594 162.641 11.8594 162.836 11.4688C163.422 11.4688 163.422 11.4688 163.809 11.8426C167.664 16.5785 169.526 23.0118 171.039 28.8516C172.519 27.366 173.607 25.8392 174.555 23.9688C174.646 23.7897 174.737 23.6106 174.831 23.4261C176.939 19.2541 178.211 15.2366 179.242 10.6875ZM163.617 14.7891C163.599 14.9194 163.58 15.0497 163.561 15.1839C162.896 19.8056 161.909 24.2773 160.694 28.7814C160.657 28.921 160.619 29.0606 160.58 29.2045C160.477 29.5867 160.373 29.9688 160.27 30.3508C160.13 30.8916 160.009 31.4278 159.906 31.9766C159.859 32.2047 159.859 32.2047 159.812 32.4374C159.75 32.9947 159.754 33.3869 159.906 33.9297C160.543 34.6233 161.295 35.1368 162.055 35.6875C165.693 38.851 168.171 43.4416 170.453 47.6016C170.518 47.6016 170.582 47.6016 170.648 47.6016C170.715 46.9059 170.78 46.2101 170.844 45.5142C170.872 45.2247 170.872 45.2247 170.9 44.9294C171.298 40.5356 171.009 35.899 170.062 31.5859C170.014 31.3625 169.965 31.139 169.915 30.9087C169.103 27.2781 168.066 23.8601 166.547 20.4531C166.446 20.2245 166.345 19.9959 166.241 19.7604C165.927 19.0537 165.609 18.3492 165.29 17.6455C165.19 17.427 165.091 17.2085 164.989 16.9834C164.895 16.7814 164.801 16.5795 164.704 16.3714C164.622 16.1928 164.539 16.0142 164.454 15.8302C164.216 15.3985 163.985 15.113 163.617 14.7891ZM176.117 25.5312C175.92 25.8038 175.73 26.0817 175.543 26.3613C174.977 27.1806 174.383 27.9627 173.749 28.7295C173.591 28.9203 173.434 29.1112 173.271 29.3078C172.797 29.8281 172.797 29.8281 172.273 30.2386C171.802 30.624 171.643 30.831 171.43 31.3906C171.426 31.8423 171.426 31.8423 171.513 32.3176C171.54 32.4975 171.566 32.6774 171.594 32.8627C171.624 33.0497 171.655 33.2366 171.686 33.4292C172.108 36.137 172.251 38.8097 172.248 41.5469C172.248 41.6963 172.248 41.8457 172.248 41.9997C172.246 44.4065 172.133 46.7755 171.82 49.1641C171.783 49.4603 171.746 49.7566 171.71 50.0529C171.682 50.2752 171.654 50.4975 171.625 50.7266C172.487 50.3878 172.969 49.814 173.369 48.9822C173.552 48.5378 173.721 48.0906 173.883 47.6382C173.973 47.3905 173.973 47.3905 174.064 47.1379C174.544 45.7614 174.859 44.4193 175.073 42.9752C175.118 42.6758 175.163 42.3765 175.21 42.0774C175.727 38.7042 175.899 35.3328 176.038 31.9283C176.068 31.2039 176.101 30.4796 176.133 29.7553C176.195 28.3473 176.255 26.9393 176.312 25.5312C176.248 25.5312 176.184 25.5312 176.117 25.5312ZM156.195 33.5391C156.177 35.0557 156.163 36.5723 156.155 38.089C156.151 38.7939 156.145 39.4987 156.136 40.2035C155.986 48.6068 155.986 48.6068 159.278 56.1137C160.011 57.0777 160.552 58.1225 161.103 59.1982C161.202 59.3891 161.302 59.5799 161.405 59.7766C162.021 60.9668 162.56 62.1674 163.031 63.4219C163.431 62.8223 163.549 62.4039 163.727 61.7129C164.492 59.165 166.256 56.3194 168.241 54.5611C168.773 54.0815 169.142 53.7065 169.477 53.0703C169.498 51.9012 169.217 50.865 168.891 49.75C168.819 49.4792 168.747 49.2084 168.675 48.9375C168 46.4978 167.036 44.2783 165.255 42.4372C164.731 41.875 164.273 41.2825 163.812 40.668C161.812 38.0267 159.219 35.051 156.195 33.5391ZM174.018 51.2515C173.915 51.3364 173.812 51.4214 173.706 51.509C173.042 52.0635 172.427 52.6479 171.82 53.2656C171.706 53.3714 171.591 53.4771 171.472 53.5861C169.539 55.396 167.969 57.6392 166.62 59.9062C166.542 60.0369 166.463 60.1676 166.383 60.3022C165.587 61.6841 165.149 63.084 164.948 64.667C164.917 64.8981 164.886 65.1292 164.854 65.3674C164.677 67.2363 164.858 68.8271 165.351 70.6362C165.905 72.7858 166.208 74.8813 166.352 77.0938C166.45 77.0179 166.548 76.9421 166.649 76.864C167.275 76.3861 167.889 75.9365 168.567 75.5328C170.339 74.4756 171.074 73.3142 171.853 71.4272C172 71.0757 172.164 70.731 172.329 70.3875C175.202 64.2879 175.452 56.9516 175.336 50.3359C174.875 50.3359 174.371 50.9547 174.018 51.2515ZM153.461 51.3125C153.443 52.8359 153.429 54.3592 153.42 55.8826C153.416 56.5906 153.411 57.2985 153.402 58.0064C153.358 61.5195 153.52 64.8493 154.242 68.3047C154.3 68.6052 154.357 68.9059 154.414 69.2067C155.124 72.8407 156.781 76.2278 158.466 79.4985C158.556 79.6742 158.556 79.6742 158.648 79.8534C159.489 81.4855 160.422 83.0104 161.469 84.5156C162.08 84.2099 162.139 83.6876 162.384 83.063C162.92 81.7462 163.576 80.4554 164.594 79.4375C165.032 72.7214 162.649 65.944 159.516 60.1016C159.396 59.878 159.276 59.6544 159.152 59.4241C157.575 56.5818 155.754 53.8011 153.656 51.3125C153.592 51.3125 153.527 51.3125 153.461 51.3125ZM68.6953 69.2812C69.0403 70.011 69.4604 70.6923 69.8794 71.3809C70.1214 71.7841 70.3626 72.1878 70.6037 72.5915C70.756 72.8457 70.909 73.0994 71.0632 73.3524C72.5748 75.8423 73.6454 78.5063 74.75 81.1953C76.5022 85.4579 78.7469 89.5419 83.1484 91.5469C83.2773 91.4824 83.4062 91.418 83.5391 91.3516C83.499 91.2232 83.459 91.0949 83.4178 90.9627C82.9591 89.4061 82.816 87.9195 82.7242 86.3059C82.6506 85.2417 82.5484 84.4647 81.9766 83.5391C81.8306 83.2835 81.6846 83.0279 81.5386 82.7723C78.287 77.305 74.0831 72.9542 68.8906 69.2812C68.8262 69.2812 68.7617 69.2812 68.6953 69.2812ZM243.109 69.2812C241.447 70.4871 239.876 71.7714 238.33 73.1224C238.074 73.3455 237.817 73.5669 237.559 73.7879C236.211 74.9483 235.01 76.1601 233.954 77.5942C233.854 77.7294 233.753 77.8645 233.65 78.0037C232.704 79.2902 231.845 80.6227 231 81.9766C230.63 82.5492 230.26 83.1217 229.889 83.6939C229.497 84.353 229.405 84.917 229.354 85.6684C229.34 85.8575 229.326 86.0466 229.311 86.2413C229.296 86.4413 229.282 86.6412 229.267 86.8472C229.139 88.469 228.962 89.9925 228.461 91.5469C232.176 90.147 234.56 87.0864 236.219 83.6184C236.665 82.6311 237.073 81.6277 237.483 80.6247C238.97 76.9961 240.552 73.4998 242.843 70.2998C243.161 69.8687 243.161 69.8687 243.109 69.2812ZM174.286 73.4683C173.555 74.0664 172.813 74.6417 172.052 75.2017C168.224 78.0596 165.205 81.1082 163.227 85.4922C163.144 85.6513 163.061 85.8104 162.976 85.9744C162.605 87.2829 163.197 88.6546 163.629 89.8867C163.712 90.1277 163.712 90.1277 163.796 90.3735C163.93 90.7651 164.067 91.156 164.203 91.5469C165.13 91.5469 165.175 91.4402 165.802 90.8145C166.932 89.7516 168.173 88.8903 169.448 88.0107C169.718 87.8222 169.988 87.6338 170.258 87.4453C170.397 87.3508 170.536 87.2562 170.68 87.1588C173.595 85.1045 174.577 80.4268 175.237 77.0953C175.419 76.0142 175.556 74.9815 175.543 73.8833C175.542 73.6781 175.54 73.4729 175.538 73.2615C175.536 73.1082 175.534 72.9548 175.531 72.7969C174.952 72.7969 174.728 73.1016 174.286 73.4683ZM151.508 74.5547C151.208 78.3978 151.153 82.2009 151.654 86.0293C151.685 86.266 151.716 86.5027 151.747 86.7466C152.207 89.9618 153.15 92.7268 154.991 95.3978C156.155 97.1054 157.142 98.9229 158.148 100.727C158.67 100.466 158.66 100.259 158.844 99.7134C159.618 97.7015 160.945 95.9221 162.342 94.298C162.731 93.7679 162.867 93.3669 162.787 92.7086C162.753 92.5677 162.718 92.4268 162.683 92.2816C162.644 92.1229 162.605 91.9642 162.566 91.8007C162.522 91.6324 162.478 91.464 162.433 91.2905C162.388 91.1159 162.343 90.9412 162.296 90.7612C161.583 88.0894 160.516 85.8332 158.992 83.5372C158.737 83.152 158.486 82.7642 158.236 82.3756C157.265 80.8771 156.267 79.3596 155.023 78.0703C154.895 78.0703 154.766 78.0703 154.633 78.0703C154.633 77.9414 154.633 77.8125 154.633 77.6797C154.504 77.6797 154.375 77.6797 154.242 77.6797C154.193 77.5669 154.145 77.4541 154.094 77.3379C153.819 76.8394 153.504 76.5123 153.095 76.1172C152.896 75.9238 152.896 75.9238 152.693 75.7266C152.56 75.5977 152.427 75.4688 152.289 75.3359C152.028 75.076 151.768 74.8157 151.508 74.5547ZM64.6182 77.5698C62.7873 77.7952 60.9677 77.9821 59.125 78.0703C59.6107 78.4622 60.1176 78.7874 60.6555 79.101C65.5919 81.9822 69.1832 85.9533 71.8752 90.9892C72.1981 91.5256 72.5301 91.9096 72.9922 92.3281C72.6603 90.6432 72.1195 89.0413 71.5733 87.4152C71.4525 87.0543 71.3335 86.6929 71.2145 86.3314C71.1434 86.1186 71.0722 85.9058 70.9989 85.6865C70.8525 85.1347 70.8118 84.692 70.8438 84.125C71.1756 83.9892 71.1756 83.9892 71.625 83.9297C72.0805 84.1754 72.0805 84.1754 72.5649 84.54C72.7349 84.6657 72.9048 84.7913 73.0799 84.9207C73.2443 85.0449 73.4087 85.169 73.5781 85.2969C73.8461 85.489 74.1145 85.6803 74.3838 85.8706C74.5691 86.0035 74.7544 86.1365 74.9453 86.2734C74.6479 85.5012 74.3026 84.7609 73.9443 84.0151C73.5235 83.136 73.1368 82.2528 72.7915 81.341C72.7252 81.1671 72.6589 80.9931 72.5906 80.8139C72.4621 80.4728 72.3366 80.1306 72.2143 79.7873C71.8067 78.7081 71.4245 78.1235 70.4531 77.4844C68.6632 76.8792 66.4461 77.3326 64.6182 77.5698ZM240.375 78.4609C240.182 78.8659 240.006 79.2787 239.839 79.6954C239.791 79.8161 239.742 79.9368 239.691 80.0612C239.535 80.4468 239.381 80.8332 239.228 81.2197C239.026 81.7254 238.823 82.2305 238.619 82.7349C238.57 82.8563 238.521 82.9776 238.47 83.1027C238.114 83.9665 237.699 84.7689 237.207 85.5623C237.157 85.6681 237.107 85.7738 237.055 85.8828C237.119 86.0117 237.184 86.1406 237.25 86.2734C237.466 86.0933 237.466 86.0933 237.686 85.9095C237.876 85.7517 238.067 85.5938 238.263 85.4312C238.451 85.2748 238.639 85.1185 238.833 84.9574C239.338 84.5626 239.797 84.2069 240.375 83.9297C240.795 84.0134 240.795 84.0134 241.156 84.125C241.071 85.8127 240.517 87.3085 239.96 88.8857C239.774 89.4115 239.591 89.938 239.409 90.465C239.328 90.6962 239.246 90.9275 239.162 91.1657C238.95 91.7473 238.95 91.7473 239.203 92.3281C239.382 92.0504 239.56 91.7726 239.739 91.4948C239.896 91.2497 240.054 91.0047 240.212 90.7597C240.616 90.1325 241.018 89.5043 241.414 88.872C242.29 87.4791 243.207 86.1555 244.281 84.9062C244.439 84.7197 244.597 84.5331 244.76 84.3409C246.686 82.1222 248.933 80.4784 251.473 79.0225C251.972 78.728 252.417 78.422 252.875 78.0703C252.678 78.0556 252.678 78.0556 252.476 78.0406C248.09 77.711 248.09 77.711 246.283 77.46C243.06 76.961 243.06 76.961 240.375 78.4609ZM82.9531 78.8516C82.9796 78.9847 83.0062 79.1179 83.0335 79.2551C83.5305 81.776 83.9693 84.277 84.2227 86.835C84.4868 89.3822 85.0189 92.0589 87.05 93.838C87.4821 94.1489 87.9223 94.4374 88.373 94.7207C88.7014 94.9356 89.0295 95.151 89.3572 95.3669C89.6081 95.5308 89.6081 95.5308 89.864 95.6979C90.8688 96.3687 91.8379 97.0895 92.8116 97.8043C92.9507 97.9058 93.0897 98.0074 93.233 98.112C93.3556 98.2022 93.4783 98.2924 93.6046 98.3853C93.8601 98.5963 93.8601 98.5963 94.0859 98.5781C94.1573 98.0209 94.2261 97.4635 94.2935 96.9058C94.3137 96.7495 94.334 96.5933 94.3549 96.4324C94.8396 92.3375 91.3079 88.8503 88.982 85.7802C88.6443 85.3328 88.3092 84.8836 87.9756 84.4332C87.0824 83.2283 86.182 82.0298 85.2358 80.8657C85.0916 80.6877 84.9473 80.5097 84.7987 80.3263C84.2291 79.7332 83.6338 79.3117 82.9531 78.8516ZM227.484 80.0234C226.867 80.7149 226.295 81.4404 225.727 82.1719C225.633 82.2916 225.54 82.4112 225.444 82.5346C224.684 83.5143 223.934 84.5017 223.188 85.4922C223.073 85.6435 222.959 85.7948 222.841 85.9507C221.598 87.6014 220.384 89.2648 219.257 90.9976C219.171 91.1285 219.086 91.2594 218.998 91.3943C218.76 91.767 218.53 92.1428 218.305 92.5234C218.228 92.6536 218.15 92.7839 218.071 92.918C217.582 93.8059 217.441 94.4088 217.56 95.4409C217.585 95.6748 217.609 95.9087 217.635 96.1497C217.663 96.371 217.69 96.5923 217.719 96.8203C217.755 97.1702 217.792 97.5202 217.829 97.8701C217.857 98.1038 217.885 98.3374 217.914 98.5781C219.292 97.7386 220.599 96.8343 221.891 95.868C222.469 95.4375 223.046 95.0195 223.659 94.6391C224.963 93.8288 225.82 93.1258 226.508 91.7422C226.639 91.496 226.639 91.496 226.773 91.2448C227.524 89.6103 227.666 87.9565 227.842 86.1839C228.092 83.7119 228.562 81.2867 229.047 78.8516C228.505 78.8516 227.865 79.6559 227.484 80.0234ZM176.007 85.7104C175.184 86.4475 174.315 87.057 173.395 87.665C170.614 89.54 167.952 91.5221 165.57 93.8906C165.476 93.9839 165.382 94.0772 165.285 94.1733C163.134 96.3366 161.391 98.8433 160.297 101.703C160.217 101.898 160.137 102.094 160.055 102.295C159.545 103.854 159.829 104.928 160.366 106.412C160.935 108 161.241 109.612 161.537 111.271C161.592 111.572 161.592 111.572 161.649 111.879C161.68 112.059 161.712 112.239 161.744 112.424C161.801 112.628 161.801 112.628 161.859 112.836C161.988 112.9 162.117 112.965 162.25 113.031C162.298 112.92 162.346 112.808 162.395 112.693C163.656 109.958 165.586 107.82 168.122 106.22C170.302 104.79 171.427 102.592 172.602 100.336C172.669 100.207 172.737 100.079 172.806 99.9462C174.475 96.7216 175.536 93.2571 176.398 89.7402C176.446 89.5452 176.494 89.3502 176.544 89.1493C176.859 87.804 177.014 86.4803 177.094 85.1016C176.545 85.1016 176.404 85.3402 176.007 85.7104ZM72.7969 86.4688C73.4487 91.0052 76.3024 96.9308 79.6328 100.141C79.7408 100.25 79.8488 100.36 79.9601 100.473C81.1369 101.585 82.5235 102.297 83.94 103.054C84.2735 103.24 84.5957 103.445 84.9154 103.654C86.4921 104.649 87.9795 104.848 89.8028 105.099C93.5459 105.641 96.8812 107.054 100.141 108.93C100.141 108.253 100.049 108.16 99.6333 107.658C99.5257 107.527 99.4181 107.396 99.3073 107.26C99.1915 107.122 99.0758 106.984 98.9565 106.842C98.8397 106.701 98.7228 106.559 98.6024 106.413C97.9309 105.603 97.2496 104.802 96.5472 104.019C96.1693 103.581 95.8193 103.125 95.4653 102.667C94.1176 100.985 92.4473 99.8457 90.6916 98.6254C90.0976 98.2116 89.5108 97.7901 88.9292 97.3589C86.9753 95.9124 84.9661 94.6269 82.8669 93.4018C81.3897 92.5375 79.9241 91.6534 78.4609 90.7656C78.3274 90.6848 78.1938 90.604 78.0562 90.5207C76.6629 89.6721 75.3856 88.7772 74.1999 87.649C73.7508 87.2288 73.2812 86.8475 72.7969 86.4688ZM239.008 86.4688C238.887 86.6012 238.766 86.7336 238.641 86.8701C237.643 87.9185 236.64 88.831 235.431 89.6304C235.323 89.702 235.215 89.7736 235.103 89.8473C234.184 90.4368 233.233 90.9711 232.284 91.5102C230.997 92.2425 229.727 93.0007 228.461 93.7686C228.341 93.841 228.222 93.9135 228.099 93.9882C226.467 94.9806 224.866 95.9918 223.34 97.1446C222.919 97.4614 222.493 97.7726 222.068 98.0837C220.816 98.9997 219.566 99.9171 218.334 100.859C218.196 100.965 218.057 101.071 217.914 101.18C217.246 101.74 216.71 102.401 216.156 103.07C215.945 103.307 215.733 103.543 215.521 103.778C214.787 104.616 214.104 105.492 213.421 106.371C212.849 107.106 212.264 107.827 211.664 108.539C211.729 108.668 211.793 108.797 211.859 108.93C212.073 108.807 212.286 108.684 212.506 108.557C214.294 107.558 216.077 106.74 218.024 106.098C218.216 106.034 218.409 105.971 218.607 105.905C220.266 105.377 221.879 105.039 223.615 104.901C225.186 104.698 226.355 104.108 227.699 103.295C228.078 103.066 228.46 102.845 228.844 102.625C233.829 99.7418 236.244 95.087 238.227 89.7891C238.329 89.5251 238.43 89.2611 238.533 88.9971C239.088 87.7559 239.088 87.7559 239.008 86.4688ZM96.0391 90.9609C95.9649 92.5231 95.8996 94.0855 95.8438 95.6484C95.8376 95.8189 95.8314 95.9893 95.8251 96.1649C95.7339 99.0167 96.0867 100.608 97.9434 102.803C99.756 104.952 101.159 107.374 102.525 109.824C103.028 110.716 103.561 111.485 104.242 112.25C105.312 110.111 104.516 105.534 103.831 103.377C102.264 98.9106 99.7928 93.981 96.0391 90.9609ZM215.07 91.6079C214.141 92.5535 213.381 93.5746 212.641 94.6719C212.566 94.7826 212.491 94.8933 212.413 95.0074C208.687 100.564 207.321 105.648 207.562 112.25C208.231 111.595 208.756 110.992 209.235 110.187C209.332 110.026 209.332 110.026 209.431 109.863C209.841 109.183 210.238 108.497 210.634 107.81C211.683 106.003 212.767 104.322 214.132 102.736C215.491 101.153 216.217 99.6543 216.193 97.5161C216.191 97.3096 216.191 97.3096 216.189 97.0988C216.161 95.0518 216.058 93.0056 215.961 90.9609C215.584 90.9609 215.322 91.3612 215.07 91.6079ZM149.945 92.1328C148.493 100.872 147.368 112.273 152.289 120.258C152.85 121.027 153.457 121.758 154.067 122.489C154.679 123.23 155.19 124.014 155.689 124.835C156.119 125.528 156.597 126.184 157.078 126.842C157.376 127.302 157.572 127.751 157.758 128.266C157.822 128.266 157.887 128.266 157.953 128.266C157.98 128.017 158.006 127.768 158.033 127.511C158.338 124.891 158.897 122.394 159.59 119.85C159.644 119.65 159.699 119.45 159.755 119.243C159.847 118.912 159.94 118.581 160.039 118.251C160.304 117.316 160.316 116.487 160.199 115.534C160.181 115.378 160.163 115.222 160.144 115.062C159.078 106.756 155.877 98.3876 150.141 92.1328C150.076 92.1328 150.012 92.1328 149.945 92.1328ZM106.977 102.68C105.947 107.052 105.844 111.215 106.977 115.57C107.041 115.82 107.104 116.069 107.17 116.326C107.39 117.178 107.616 118.028 107.843 118.878C107.88 119.015 107.916 119.152 107.954 119.293C108.873 123.278 108.873 123.278 111.334 126.312C112.133 126.865 112.879 127.442 113.617 128.07C113.817 127.4 114.011 126.728 114.203 126.056C114.259 125.869 114.315 125.682 114.372 125.49C116.505 117.95 110.501 109.064 107.172 102.68C107.107 102.68 107.043 102.68 106.977 102.68ZM204.828 102.68C204.779 102.779 204.73 102.877 204.68 102.979C203.763 104.829 202.836 106.67 201.862 108.49C201.005 110.101 200.249 111.735 199.555 113.422C199.467 113.634 199.379 113.845 199.288 114.064C197.726 117.966 196.559 121.915 197.797 126.056C197.881 126.349 197.881 126.349 197.966 126.648C198.103 127.123 198.241 127.597 198.383 128.07C198.512 127.956 198.512 127.956 198.643 127.839C199.508 127.083 200.405 126.455 201.381 125.846C202.705 124.54 203.141 122.476 203.644 120.734C203.71 120.508 203.776 120.282 203.844 120.05C204.529 117.668 205.1 115.261 205.609 112.836C205.651 112.642 205.692 112.448 205.734 112.248C206.123 109.011 205.766 105.834 205.023 102.68C204.959 102.68 204.895 102.68 204.828 102.68ZM167.234 109.778C164.185 112.997 162.72 117.465 161.469 121.625C161.418 121.793 161.366 121.961 161.314 122.133C160.444 125.033 160.002 127.967 160.102 131C160.23 131.064 160.359 131.129 160.492 131.195C160.597 131.027 160.597 131.027 160.704 130.856C162.191 128.643 164.199 126.584 166.282 124.924C167.664 123.813 168.636 121.998 169.477 120.453C169.654 120.129 169.654 120.129 169.834 119.799C171.121 117.317 171.833 114.649 172.594 111.972C172.793 111.288 173.004 110.609 173.218 109.93C173.515 108.972 173.752 108.026 173.92 107.038C173.944 106.903 173.969 106.769 173.994 106.631C174.121 105.929 174.121 105.929 174.164 105.219C172.006 105.219 168.718 108.372 167.234 109.778ZM85.6875 106.195C86.2919 107.036 86.9179 107.836 87.6162 108.6C88.1817 109.224 88.6823 109.864 89.1665 110.553C90.6286 112.603 92.4705 114.39 94.2416 116.174C94.4472 116.382 94.652 116.591 94.8559 116.801C96.7956 118.794 98.8438 120.366 101.349 121.613C102.831 122.362 102.831 122.362 103.266 122.797C103.834 123.015 104.424 123.161 105.011 123.322C105.172 123.368 105.333 123.415 105.499 123.463C105.654 123.505 105.809 123.548 105.969 123.593C106.11 123.632 106.252 123.672 106.398 123.712C106.822 123.81 106.822 123.81 107.367 123.578C107.033 122.706 106.696 121.835 106.357 120.964C106.243 120.669 106.129 120.374 106.016 120.078C104.946 117.287 103.843 114.797 101.703 112.641C101.443 112.369 101.443 112.369 101.178 112.091C100.028 111.003 98.9242 110.313 97.4917 109.638C97.2934 109.544 97.0952 109.45 96.8909 109.354C93.5832 107.825 89.388 106.107 85.6875 106.195ZM213.544 110.126C213.394 110.203 213.244 110.28 213.09 110.36C208.137 113.028 206.483 118.652 204.633 123.578C205.454 123.852 206.097 123.597 206.903 123.371C207.063 123.326 207.223 123.281 207.387 123.236C208.41 122.933 209.228 122.576 210.079 121.922C210.567 121.571 211.07 121.339 211.615 121.088C214.131 119.852 216.095 117.875 218.046 115.905C218.438 115.51 218.834 115.117 219.23 114.725C220.754 113.203 222.11 111.644 223.383 109.906C224.246 108.801 225.13 107.724 226.068 106.683C226.333 106.429 226.333 106.429 226.312 106.195C222.129 106.041 217.179 108.25 213.544 110.126ZM147.016 119.086C146.922 119.546 146.828 120.005 146.735 120.465C146.709 120.594 146.682 120.722 146.655 120.854C145.837 124.903 146.219 129.028 146.576 133.112C146.592 133.296 146.607 133.481 146.623 133.671C146.769 137.335 146.769 137.335 148.282 140.489C148.632 140.774 148.991 141.048 149.357 141.312C151.034 142.538 152.352 144.101 153.461 145.844C153.553 145.983 153.645 146.122 153.74 146.265C154.265 147.073 154.669 147.878 155.023 148.773C155.088 148.773 155.152 148.773 155.219 148.773C155.236 148.625 155.254 148.477 155.272 148.325C155.782 144.109 156.491 140.046 158.13 136.1C158.214 135.889 158.214 135.889 158.3 135.675C158.377 135.493 158.377 135.493 158.454 135.309C158.675 134.262 158.208 133.357 157.759 132.434C157.7 132.313 157.641 132.192 157.581 132.067C157.39 131.678 157.196 131.29 157.001 130.902C156.935 130.77 156.869 130.638 156.801 130.502C155.81 128.53 154.746 126.782 153.266 125.141C152.967 124.771 152.67 124.401 152.375 124.03C152.087 123.683 151.798 123.337 151.508 122.992C151.356 122.811 151.204 122.63 151.047 122.444C149.894 121.119 148.669 120.059 147.211 119.086C147.146 119.086 147.082 119.086 147.016 119.086ZM117.328 120.844C117.145 121.328 116.962 121.812 116.779 122.296C116.728 122.431 116.677 122.565 116.624 122.703C116.466 123.124 116.311 123.546 116.156 123.969C116.106 124.1 116.057 124.232 116.005 124.368C115.521 125.716 115.279 127.101 115.033 128.51C114.988 128.751 114.942 128.992 114.895 129.24C114.61 130.863 114.613 132.298 114.789 133.93C114.806 134.27 114.82 134.61 114.83 134.95C114.89 136.76 115.004 138.444 115.57 140.18C115.615 140.387 115.615 140.387 115.661 140.599C115.889 141.51 116.116 142.007 116.934 142.502C117.242 142.661 117.552 142.815 117.865 142.963C118.174 143.118 118.482 143.273 118.79 143.43C118.939 143.505 119.088 143.581 119.242 143.659C120.236 144.195 121.067 144.818 121.784 145.697C122.221 146.247 122.221 146.247 122.797 146.625C122.972 145.674 123.142 144.723 123.308 143.771C123.365 143.449 123.423 143.126 123.483 142.804C124.022 139.872 124.085 137.382 123.065 134.528C122.995 134.323 122.924 134.119 122.851 133.908C122.389 132.597 121.86 131.356 121.246 130.109C120.71 128.988 120.255 127.832 119.792 126.68C119.689 126.423 119.586 126.167 119.482 125.911C118.808 124.243 118.218 122.572 117.719 120.844C117.59 120.844 117.461 120.844 117.328 120.844ZM194.281 120.844C194.21 121.074 194.138 121.304 194.065 121.542C193.38 123.693 192.596 125.792 191.73 127.875C191.633 128.108 191.537 128.34 191.438 128.58C190.964 129.709 190.473 130.826 189.952 131.935C189.486 132.938 189.084 133.937 188.751 134.992C188.702 135.134 188.654 135.277 188.603 135.424C187.752 138.091 188.11 140.597 188.605 143.28C188.663 143.607 188.72 143.933 188.777 144.259C188.916 145.048 189.058 145.837 189.203 146.625C189.422 146.44 189.641 146.254 189.859 146.069C189.981 145.966 190.103 145.862 190.228 145.756C190.6 145.437 190.6 145.437 191.01 144.977C191.955 144.097 193.081 143.36 194.278 142.871C195.32 142.441 195.32 142.441 196.029 141.597C196.396 140.694 196.618 139.764 196.82 138.812C196.858 138.658 196.896 138.503 196.935 138.343C197.06 137.559 197.081 136.773 197.113 135.98C197.127 135.653 197.141 135.325 197.156 134.998C197.163 134.826 197.17 134.655 197.178 134.478C197.201 134.097 197.234 133.716 197.276 133.337C197.454 131.657 197.28 130.165 196.967 128.51C196.924 128.266 196.882 128.022 196.838 127.77C196.601 126.46 196.315 125.214 195.844 123.969C195.792 123.828 195.741 123.687 195.688 123.542C195.535 123.126 195.378 122.711 195.221 122.296C195.168 122.155 195.115 122.014 195.06 121.869C194.931 121.527 194.801 121.185 194.672 120.844C194.543 120.844 194.414 120.844 194.281 120.844ZM98.9688 123.188C99.3044 125.054 99.9091 126.692 100.711 128.401C100.942 128.895 101.17 129.391 101.397 129.887C102.951 133.243 104.527 136.475 107.953 138.227C108.131 138.319 108.131 138.319 108.313 138.414C110.97 139.822 110.97 139.822 113.812 140.766C113.756 140.448 113.699 140.131 113.642 139.813C113.606 139.615 113.571 139.417 113.535 139.212C113.468 138.859 113.395 138.506 113.309 138.156C113.06 137.125 112.996 136.124 112.995 135.065C112.994 134.923 112.994 134.781 112.994 134.635C113 133.927 113.036 133.241 113.138 132.54C113.348 131.18 113.348 131.18 112.944 129.91C112.485 129.426 112.008 129.049 111.469 128.656C111.263 128.49 111.057 128.324 110.852 128.157C109.229 126.878 107.563 126.16 105.609 125.531C105.317 125.435 105.025 125.338 104.733 125.241C104.288 125.094 103.843 124.947 103.398 124.801C102.143 124.387 100.922 123.907 99.7004 123.403C99.2302 123.175 99.2302 123.175 98.9688 123.188ZM170.844 123.188C170.742 123.289 170.641 123.39 170.536 123.495C170.254 123.777 169.972 124.059 169.689 124.34C169.379 124.652 169.073 124.969 168.769 125.287C168.305 125.727 168.305 125.727 167.658 126.154C167.484 126.271 167.311 126.387 167.133 126.508C167.133 126.637 167.133 126.766 167.133 126.898C167.029 126.941 166.924 126.985 166.817 127.029C161.891 129.782 159.436 136.216 157.859 141.265C157.658 142.006 157.498 142.745 157.367 143.5C157.339 143.653 157.311 143.806 157.282 143.964C156.678 147.381 156.717 150.786 156.781 154.242C157.34 153.687 157.884 153.134 158.393 152.533C160.889 149.672 164.132 146.905 167.743 145.575C169.044 145.021 169.355 143.962 169.867 142.719C170.069 142.339 170.272 141.961 170.478 141.583C171.514 139.506 171.95 137.2 172.211 134.906C172.237 134.679 172.264 134.452 172.291 134.218C172.616 130.596 172.06 126.946 171.43 123.383C171.236 123.318 171.043 123.254 170.844 123.188ZM211.85 123.567C211.643 123.648 211.435 123.729 211.221 123.812C210.885 123.944 210.885 123.944 210.541 124.079C208.882 124.726 207.222 125.326 205.524 125.861C203.367 126.559 201.796 127.575 200.116 129.083C200.005 129.183 199.894 129.283 199.779 129.386C199.225 129.905 198.898 130.25 198.773 131C198.79 131.412 198.821 131.823 198.859 132.233C199.042 134.628 199.044 136.702 198.448 139.027C198.216 139.896 198.216 139.896 198.383 140.766C199.623 140.396 200.751 140.03 201.822 139.296C202.344 138.974 202.88 138.715 203.433 138.452C208.369 136.089 210.5 130.742 212.39 125.86C212.6 125.257 212.759 124.693 212.873 124.066C212.919 123.816 212.919 123.816 212.966 123.56C212.988 123.437 213.009 123.314 213.031 123.188C212.628 123.188 212.218 123.422 211.85 123.567ZM125.727 137.055C125.509 137.795 125.448 138.548 125.373 139.313C125.208 140.895 124.979 142.465 124.738 144.037C124.47 145.813 124.214 147.562 124.164 149.359C124.159 149.5 124.154 149.641 124.149 149.786C124.08 151.879 124.193 153.77 124.75 155.805C124.825 156.14 124.825 156.14 124.901 156.482C125.262 157.925 125.726 158.708 126.913 159.616C127.289 159.906 127.289 159.906 127.484 160.297C127.613 160.297 127.742 160.297 127.875 160.297C127.941 160.446 127.941 160.446 128.008 160.599C128.37 161.273 128.818 161.876 129.267 162.494C129.358 162.621 129.449 162.748 129.544 162.879C129.768 163.19 129.993 163.501 130.219 163.812C130.661 163.149 130.73 162.702 130.866 161.92C131.097 160.658 131.431 159.454 131.837 158.238C133.838 152.188 129.643 145.066 127.065 139.796C126.628 138.898 126.26 137.995 125.922 137.055C125.857 137.055 125.793 137.055 125.727 137.055ZM186.078 137.055C186.033 137.162 185.988 137.268 185.942 137.379C185.179 139.182 184.417 140.981 183.563 142.743C179.933 150.256 179.933 150.256 180.219 158.344C180.386 158.938 180.553 159.532 180.719 160.126C180.783 160.352 180.783 160.352 180.848 160.583C181.146 161.652 181.392 162.719 181.586 163.812C181.751 163.605 181.751 163.605 181.919 163.394C182.218 163.021 182.521 162.651 182.828 162.284C183.059 162.008 183.059 162.008 183.295 161.725C183.451 161.539 183.607 161.353 183.768 161.161C184.164 160.734 184.164 160.734 184.125 160.297C184.254 160.297 184.383 160.297 184.516 160.297C184.85 159.981 185.174 159.653 185.492 159.32C185.74 159.127 185.74 159.127 185.993 158.93C186.746 158.003 186.958 156.948 187.25 155.805C187.309 155.592 187.368 155.38 187.429 155.162C188.483 150.958 187.634 146.404 186.939 142.205C186.732 140.93 186.601 139.673 186.536 138.381C186.47 137.849 186.35 137.512 186.078 137.055ZM102.484 137.25C102.971 138.978 103.57 140.666 104.181 142.353C104.233 142.496 104.285 142.639 104.338 142.786C106 147.588 106 147.588 109.349 151.253C109.711 151.508 109.711 151.508 110.15 151.923C111.497 152.841 113.282 153.149 114.845 153.546C117.744 154.281 120.525 155.212 123.188 156.586C123.162 156.448 123.136 156.31 123.109 156.168C122.733 153.985 122.522 151.708 122.634 149.492C122.594 148.844 122.416 148.597 122.003 148.102C121.892 147.965 121.781 147.829 121.667 147.688C121.524 147.53 121.381 147.373 121.234 147.211C121.102 147.058 121.102 147.058 120.967 146.902C119.951 145.798 118.743 145.11 117.438 144.391C117.323 144.327 117.209 144.264 117.09 144.198C114.942 143.011 112.747 142.197 110.393 141.499C107.815 140.719 105.728 139.462 103.57 137.885C103.074 137.446 103.074 137.446 102.484 137.25ZM208.685 137.708C206.043 139.65 203.551 141.012 200.393 141.91C196.639 142.981 192.835 144.879 190.18 147.797C190.023 147.966 189.865 148.135 189.704 148.31C189.31 149.16 189.365 149.816 189.396 150.743C189.399 151.651 189.316 152.534 189.215 153.437C189.19 153.67 189.19 153.67 189.164 153.908C189.063 154.803 188.944 155.695 188.812 156.586C189.058 156.462 189.058 156.462 189.309 156.335C192.469 154.777 195.809 153.812 199.222 152.97C200.332 152.686 201.195 152.422 202.094 151.703C202.281 151.555 202.281 151.555 202.473 151.405C206.334 148.046 208.396 142.193 209.516 137.25C209.176 137.25 208.95 137.51 208.685 137.708ZM142.328 139.789C143.16 145.37 144.869 151.142 148.773 155.414C148.902 155.414 149.031 155.414 149.164 155.414C149.164 155.543 149.164 155.672 149.164 155.805C149.293 155.805 149.422 155.805 149.555 155.805C149.601 155.916 149.646 156.027 149.694 156.142C150.424 157.43 151.907 158.379 153.092 159.239C153.606 159.624 154.085 160.046 154.565 160.472C154.797 160.708 154.797 160.708 155.023 160.688C155.168 160.079 155.304 159.468 155.438 158.856C155.479 158.686 155.52 158.517 155.561 158.341C155.836 157.063 155.76 156.083 155.414 154.828C155.381 154.698 155.348 154.567 155.314 154.432C154.366 150.821 152.541 147.598 150.144 144.752C149.75 144.281 149.75 144.281 149.43 143.829C149.342 143.72 149.254 143.612 149.164 143.5C149.035 143.5 148.906 143.5 148.773 143.5C148.773 143.371 148.773 143.242 148.773 143.109C146.888 141.438 144.805 140.277 142.328 139.789ZM163.141 150.824C163.031 150.907 162.921 150.989 162.808 151.074C162.549 151.274 162.301 151.487 162.055 151.703C162.055 151.832 162.055 151.961 162.055 152.094C161.94 152.144 161.826 152.194 161.708 152.246C161.236 152.505 160.935 152.79 160.565 153.18C159.944 153.833 159.944 153.833 159.516 154.047C159.516 154.176 159.516 154.305 159.516 154.438C159.387 154.438 159.258 154.438 159.125 154.438C157.539 156.166 157.035 157.793 156.977 160.102C156.973 160.235 156.969 160.369 156.966 160.507C156.95 161.284 156.955 162.059 156.977 162.836C157.947 162.727 158.73 162.411 159.589 161.969C159.791 161.866 159.791 161.866 159.997 161.761C162.147 160.645 164.534 159.401 166.156 157.562C166.156 157.434 166.156 157.305 166.156 157.172C166.285 157.172 166.414 157.172 166.547 157.172C169.194 154.258 171.039 150.225 171.039 146.234C168.493 146.234 165.092 149.351 163.141 150.824ZM107.172 152.68C107.406 153.275 107.65 153.865 107.901 154.454C108.538 155.947 109.161 157.438 109.711 158.966C110.979 162.432 112.479 165.003 115.57 167.133C115.698 167.233 115.825 167.334 115.956 167.437C116.311 167.716 116.311 167.716 116.938 167.914C117.454 167.826 117.916 167.677 118.408 167.499C121.602 166.367 125.497 167.319 128.461 168.695C129.267 169.109 130.041 169.574 130.805 170.062C131.047 169.357 130.959 168.811 130.829 168.085C130.793 167.879 130.758 167.673 130.721 167.461C130.634 166.946 130.634 166.946 130.414 166.547C130.221 166.547 130.027 166.547 129.828 166.547C129.78 166.44 129.732 166.334 129.682 166.224C129.202 165.325 128.54 164.537 127.918 163.732C127.697 163.445 127.48 163.156 127.262 162.866C123.757 158.357 118.77 156.625 113.459 155.084C111.266 154.442 109.202 153.735 107.172 152.68ZM204.633 152.68C204.472 152.767 204.312 152.854 204.147 152.944C202.511 153.801 200.901 154.414 199.127 154.918C198.417 155.12 197.709 155.332 197.001 155.541C196.864 155.582 196.727 155.622 196.586 155.664C191.398 157.193 187.266 159.45 183.93 163.812C183.774 164.016 183.618 164.219 183.458 164.429C182.694 165.423 182.694 165.423 182.172 166.547C181.979 166.547 181.785 166.547 181.586 166.547C181.301 167.717 181.114 168.863 181 170.062C181.121 169.992 181.242 169.921 181.367 169.847C185.326 167.6 189.366 166.544 193.891 167.523C194.111 167.611 194.331 167.698 194.557 167.788C195.293 167.92 195.368 167.928 195.955 167.559C196.19 167.385 196.421 167.206 196.649 167.023C196.765 166.936 196.882 166.849 197.001 166.76C200.378 164.192 201.787 160.58 203.151 156.699C203.567 155.529 204.009 154.459 204.667 153.403C204.72 153.293 204.773 153.184 204.828 153.07C204.731 152.877 204.731 152.877 204.633 152.68ZM135.102 154.242C135.035 154.422 134.969 154.603 134.9 154.788C134.805 155.046 134.709 155.303 134.613 155.561C134.562 155.699 134.51 155.838 134.457 155.98C134.096 156.947 133.712 157.902 133.318 158.855C131.715 162.76 130.938 167.108 132.58 171.176C132.804 171.647 132.804 171.647 133.148 172.211C133.277 172.211 133.406 172.211 133.539 172.211C133.539 172.34 133.539 172.469 133.539 172.602C133.668 172.602 133.797 172.602 133.93 172.602C133.997 172.756 133.997 172.756 134.065 172.914C134.404 173.536 134.835 174.074 135.272 174.628C135.904 175.43 136.499 176.238 137.055 177.094C137.524 176.914 137.524 176.914 137.69 176.242C138.226 174.502 138.589 172.87 138.617 171.039C138.623 170.828 138.623 170.828 138.628 170.613C138.777 164.722 137.382 159.724 135.297 154.242C135.232 154.242 135.168 154.242 135.102 154.242ZM176.703 154.242C176.41 155.05 176.118 155.859 175.828 156.668C175.73 156.942 175.631 157.216 175.532 157.489C174.637 159.953 173.748 162.452 173.529 165.082C173.507 165.323 173.507 165.323 173.485 165.569C173.168 169.476 173.277 173.165 174.555 176.898C174.748 176.898 174.941 176.898 175.141 176.898C175.463 176.477 175.463 176.477 175.763 175.934C176.349 174.966 176.997 174.157 177.777 173.339C178.112 173.018 178.112 173.018 178.07 172.602C178.199 172.602 178.328 172.602 178.461 172.602C178.461 172.473 178.461 172.344 178.461 172.211C178.751 172.114 178.751 172.114 179.047 172.016C180.617 168.987 180.676 164.845 179.766 161.619C178.93 159.131 177.905 156.573 176.703 154.242ZM155.609 164.984C155.743 180.011 156.12 195.017 156.646 210.035C156.674 210.832 156.701 211.628 156.729 212.425C156.787 214.11 156.846 215.796 156.907 217.481C156.932 218.192 156.958 218.903 156.982 219.614C157.009 220.396 157.038 221.177 157.066 221.959C157.074 222.19 157.082 222.42 157.09 222.657C157.098 222.869 157.106 223.08 157.114 223.298C157.12 223.48 157.127 223.663 157.134 223.851C157.172 224.36 157.256 224.839 157.367 225.336C158.315 223.597 158.385 221.663 158.366 219.729C158.365 219.513 158.364 219.298 158.363 219.076C158.359 218.442 158.354 217.809 158.348 217.175C158.344 216.718 158.34 216.262 158.336 215.805C158.316 213.388 158.291 210.971 158.265 208.554C158.258 207.934 158.252 207.314 158.245 206.694C158.089 191.151 158.089 191.151 157.791 175.61C157.766 174.584 157.749 173.559 157.736 172.534C157.704 170.583 157.62 168.722 157.123 166.828C157.085 166.683 157.048 166.539 157.009 166.39C156.884 165.948 156.884 165.948 156.586 165.375C156.092 165.136 156.092 165.136 155.609 164.984ZM114.594 170.258C114.594 171.267 115.46 171.831 116.144 172.516C120.406 176.756 126.017 178.494 131.952 178.498C132.15 178.5 132.347 178.502 132.551 178.505C133.897 178.507 135.154 178.357 136.469 178.07C135.958 176.966 135.405 176.075 134.601 175.165C134.447 174.989 134.447 174.989 134.291 174.809C133.33 173.727 132.311 172.745 131.195 171.82C131.051 171.699 130.906 171.577 130.757 171.452C129.714 170.648 128.579 170.125 127.375 169.611C127.22 169.545 127.065 169.479 126.906 169.411C125.35 168.774 123.858 168.425 122.174 168.439C121.959 168.441 121.959 168.441 121.74 168.442C119.195 168.498 116.927 169.321 114.594 170.258ZM177.546 174.932C176.708 175.924 176.048 176.879 175.531 178.07C177.007 178.385 178.417 178.531 179.926 178.522C180.129 178.521 180.333 178.52 180.542 178.519C187.605 178.41 192.756 175.61 197.602 170.648C196.995 169.98 196.29 169.749 195.453 169.464C195.303 169.413 195.153 169.362 194.998 169.309C188.181 167.032 182.2 169.845 177.546 174.932ZM118.109 198.188C118.238 198.445 118.367 198.703 118.5 198.969C118.5 198.775 118.5 198.582 118.5 198.383C118.371 198.318 118.242 198.254 118.109 198.188ZM193.695 198.188C193.566 198.445 193.438 198.703 193.305 198.969C193.498 198.84 193.691 198.711 193.891 198.578C193.826 198.449 193.762 198.32 193.695 198.188Z" fill="#283618"/>
<path d="M156.402 0.689453C156.604 0.689571 156.805 0.689689 157.012 0.689811C173.651 0.715994 190.163 3.55607 222.796 15.9604C222.929 16.0246 223.061 16.0887 223.198 16.1547C226.888 17.9435 230.516 19.7894 234.026 21.9157C234.488 22.1944 234.954 22.4673 235.422 22.7376C237.375 23.8671 239.272 25.0704 241.156 26.312C241.459 26.5103 241.459 26.5103 241.768 26.7126C245.764 29.3455 249.64 32.175 253.328 35.2229C253.767 35.5827 254.212 35.934 254.657 36.2852C256.494 37.7533 258.265 39.2997 259.981 40.9072C260.528 41.4187 261.082 41.9187 261.647 42.41C263.58 44.094 265.426 45.8776 267.242 47.6865C267.368 47.811 267.493 47.9355 267.622 48.0638C268.352 48.7955 269.042 49.5507 269.717 50.3324C270.303 51.0009 270.916 51.6434 271.527 52.2886C272.495 53.3105 273.44 54.3475 274.359 55.4136C274.449 55.5181 274.54 55.6227 274.633 55.7304C275.919 57.2238 277.153 58.7516 278.361 60.3085C278.676 60.7128 278.993 61.1154 279.31 61.5179C285.73 69.6865 291.193 78.5506 295.843 87.8354C295.935 88.0188 295.935 88.0188 296.029 88.2058C298.896 93.9235 301.349 99.7649 303.461 105.804C303.508 105.939 303.555 106.073 303.604 106.212C307.601 117.619 310.145 129.34 311.346 141.366C311.425 142.145 311.518 142.921 311.62 143.697C312.04 146.882 312.103 150.07 312.164 153.277C312.168 153.484 312.172 153.69 312.176 153.902C312.203 155.317 312.228 156.733 312.25 158.148C312.253 158.39 312.253 158.39 312.257 158.636C312.339 163.928 311.975 169.117 311.273 174.359C311.233 174.659 311.194 174.959 311.154 175.259C309.186 190.057 305.454 204.449 299.359 218.109C299.27 218.309 299.181 218.509 299.09 218.714C296.764 223.911 294.235 229.019 291.351 233.929C291.242 234.117 291.133 234.305 291.02 234.499C286.954 241.49 282.309 248.252 277.093 254.437C277.008 254.539 276.923 254.64 276.835 254.745C275.343 256.522 273.824 258.272 272.268 259.994C271.985 260.309 271.702 260.624 271.42 260.94C269.498 263.094 267.522 265.197 265.484 267.242C265.36 267.368 265.235 267.493 265.107 267.622C264.373 268.354 263.615 269.047 262.83 269.725C262.21 270.268 261.615 270.838 261.017 271.405C260.001 272.361 258.964 273.267 257.874 274.138C257.34 274.576 256.835 275.036 256.329 275.506C255.223 276.522 254.058 277.442 252.87 278.357C252.459 278.675 252.052 278.996 251.645 279.317C249.831 280.746 247.985 282.112 246.087 283.428C245.621 283.753 245.158 284.082 244.695 284.412C242.721 285.816 240.716 287.127 238.637 288.369C238.119 288.682 237.609 289.006 237.098 289.331C233.744 291.464 230.238 293.346 226.7 295.154C226.306 295.356 225.913 295.558 225.52 295.761C211.124 303.182 195.346 308.155 156.964 312.286C156.763 312.286 156.562 312.286 156.354 312.286C139.715 312.26 123.203 309.42 79.8277 291.351C79.5529 291.192 79.5529 291.192 79.2725 291.029C76.8747 289.638 74.5221 288.193 72.2105 286.664C71.9091 286.466 71.9091 286.466 71.6017 286.265C67.6041 283.633 63.7273 280.801 60.0379 277.753C59.5996 277.393 59.1548 277.042 58.7095 276.69C56.7605 275.133 54.8977 273.481 53.0729 271.781C52.5563 271.3 52.0335 270.826 51.5074 270.355C49.7535 268.779 48.0269 267.185 46.356 265.521C46.2283 265.394 46.1007 265.267 45.9691 265.137C45.2182 264.384 44.5042 263.609 43.813 262.8C43.4939 262.438 43.1603 262.099 42.816 261.761C42.091 261.046 41.4289 260.287 40.7652 259.515C40.5758 259.297 40.3864 259.079 40.1968 258.861C39.7602 258.358 39.3244 257.855 38.8891 257.351C38.4711 256.868 38.0516 256.386 37.6303 255.905C36.2432 254.315 34.9483 252.667 33.6815 250.98C33.3317 250.515 32.9798 250.052 32.6277 249.589C27.0276 242.201 22.2436 234.329 18.0066 226.091C17.8214 225.731 17.6357 225.372 17.4491 225.012C10.4612 211.54 5.77941 196.625 1.59736 166.057C1.51337 164.839 1.41076 163.623 1.28766 162.408C1.2655 162.186 1.2655 162.186 1.24288 161.959C1.18684 161.426 1.12127 160.904 1.00995 160.379C0.899252 159.787 0.895664 159.226 0.897034 158.624C0.896278 158.297 0.896278 158.297 0.895508 157.964C0.907287 157.338 0.958946 156.719 1.01605 156.095C1.12799 154.817 1.15597 153.542 1.18125 152.26C1.5437 135.231 4.90208 118.514 14.0074 94.8667C14.0963 94.6669 14.1852 94.467 14.2768 94.2611C16.6022 89.0643 19.1317 83.9568 22.0152 79.0464C22.1245 78.8583 22.2337 78.6701 22.3463 78.4763C26.4128 71.4854 31.0577 64.724 36.273 58.5386C36.4359 58.3442 36.5988 58.1498 36.7666 57.9496C37.3151 57.2969 37.8678 56.6478 38.4214 55.9995C38.5202 55.8836 38.6189 55.7678 38.7206 55.6484C40.22 53.8914 41.7656 52.1861 43.3508 50.5063C43.6933 50.1419 44.0332 49.7752 44.3724 49.4077C48.3841 45.0656 48.3841 45.0656 50.4904 43.2897C51.1268 42.7344 51.7355 42.1504 52.3497 41.5708C53.3652 40.6152 54.4019 39.7083 55.4922 38.838C56.026 38.3997 56.5311 37.9392 57.0372 37.4692C58.1434 36.4536 59.308 35.534 60.4967 34.6184C60.907 34.3008 61.3144 33.9799 61.7216 33.6584C63.5358 32.2292 65.3816 30.8632 67.2795 29.5477C67.7456 29.2227 68.2086 28.8934 68.6712 28.5634C70.6451 27.1597 72.6507 25.8488 74.7298 24.607C75.2476 24.294 75.7576 23.9697 76.2678 23.6444C80.1765 21.1595 84.2863 19.0162 88.4214 16.937C88.5386 16.8781 88.6558 16.8192 88.7765 16.7585C102.679 9.78318 117.665 5.00706 156.402 0.689453ZM150.742 5.8876C149.775 6.03075 148.804 6.11493 147.832 6.20322C131.309 7.7271 115.044 11.2961 92.3288 21.3355C91.9358 21.529 91.5424 21.7216 91.1486 21.9135C84.1413 25.3271 77.3414 29.3373 71.0386 33.9292C70.8101 34.0955 70.8101 34.0955 70.577 34.2651C67.663 36.3895 64.8127 38.578 62.0226 40.8625C61.7014 41.1249 61.379 41.3857 61.0563 41.6463C60.0149 42.4892 59.0059 43.3581 58.0153 44.2602C57.6204 44.6185 57.2209 44.9698 56.8174 45.3184C54.6894 47.1785 52.6688 49.1426 50.6738 51.1436C50.2594 51.5591 49.8439 51.9734 49.4284 52.3878C49.1595 52.6568 48.8907 52.9258 48.6219 53.1949C48.4394 53.3769 48.4394 53.3769 48.2532 53.5625C47.519 54.3006 46.8213 55.0616 46.1415 55.8501C45.7348 56.3203 45.313 56.7758 44.8912 57.2324C44.091 58.1099 43.3314 59.0111 42.5863 59.9355C42.1963 60.4134 41.7973 60.8815 41.3935 61.3477C39.9773 62.9888 38.6938 64.725 37.4044 66.4663C37.0909 66.8877 36.7746 67.3067 36.4561 67.7244C33.7814 71.2356 31.3247 74.8762 29.0464 78.6558C28.8914 78.9101 28.7363 79.1645 28.5811 79.4187C28.1439 80.1373 27.7147 80.8603 27.2886 81.5854C27.2035 81.7301 27.1183 81.8747 27.0306 82.0238C17.7262 97.8909 11.5951 115.438 6.73199 156.793C6.73213 157.005 6.73226 157.216 6.7324 157.435C6.73365 158.033 6.73682 158.631 6.74115 159.229C6.74201 159.408 6.74287 159.587 6.74375 159.772C6.7456 159.936 6.74745 160.1 6.74935 160.269C6.75069 160.412 6.75202 160.555 6.75339 160.702C6.76845 161.121 6.76845 161.121 6.97614 161.664C7.02193 162.204 7.05883 162.742 7.08905 163.283C7.10981 163.624 7.13074 163.964 7.1518 164.304C7.16283 164.484 7.17385 164.664 7.1852 164.85C8.17031 180.615 11.6511 196.157 28.8511 233.734C28.9764 233.94 29.1016 234.146 29.2306 234.358C31.6985 238.402 34.41 242.248 37.2496 246.039C37.356 246.181 37.4625 246.323 37.5722 246.47C39.1632 248.588 40.8141 250.654 42.523 252.679C42.5831 252.8 42.6432 252.921 42.7052 253.046C42.9947 253.532 43.1993 253.766 43.6949 254.046C44.839 254.074 45.9244 253.818 47.0396 253.584C47.3857 253.517 47.7319 253.451 48.0783 253.386C48.8273 253.242 49.5752 253.095 50.3226 252.943C51.5237 252.699 52.7267 252.466 53.9302 252.234C55.4188 251.947 56.9069 251.658 58.3945 251.365C61.1591 250.821 63.9271 250.297 66.6975 249.784C66.9038 249.746 67.11 249.707 67.3225 249.668C68.1554 249.514 68.9883 249.36 69.8212 249.206C71.9196 248.818 74.0175 248.427 76.1153 248.035C77.146 247.843 78.1768 247.651 79.2075 247.458C79.4075 247.421 79.6074 247.384 79.8134 247.345C83.2238 246.71 86.6344 246.075 90.045 245.44C90.2138 245.409 90.3825 245.378 90.5564 245.345C96.7248 244.198 102.894 243.053 109.063 241.908C113.57 241.072 118.078 240.236 122.585 239.396C124.281 239.079 125.978 238.764 127.675 238.45C128.361 238.323 129.047 238.196 129.733 238.069C129.905 238.037 130.076 238.005 130.253 237.973C132.642 237.53 135.029 237.078 137.415 236.619C139.247 236.267 141.081 235.918 142.914 235.571C144.028 235.361 145.14 235.148 146.252 234.931C147.296 234.727 148.341 234.528 149.386 234.333C149.768 234.26 150.15 234.186 150.532 234.11C154.404 233.339 158.134 233.459 161.999 234.247C162.271 234.299 162.544 234.352 162.816 234.404C163.525 234.54 164.233 234.681 164.941 234.822C165.628 234.959 166.315 235.092 167.003 235.225C167.281 235.279 167.559 235.333 167.837 235.387C167.976 235.414 168.116 235.442 168.26 235.469C168.694 235.554 169.129 235.639 169.563 235.724C172.029 236.205 174.499 236.663 176.97 237.114C177.17 237.151 177.371 237.188 177.578 237.226C177.988 237.301 178.399 237.376 178.81 237.451C179.12 237.508 179.12 237.508 179.435 237.565C179.643 237.603 179.851 237.641 180.065 237.68C182.427 238.113 184.788 238.551 187.148 238.99C187.366 239.03 187.583 239.071 187.808 239.112C189.158 239.363 190.509 239.615 191.859 239.866C193.065 240.09 194.27 240.314 195.476 240.538C198.114 241.029 200.752 241.519 203.39 242.01C204.403 242.199 205.415 242.387 206.428 242.575C210.228 243.282 214.029 243.989 217.829 244.696C220.051 245.11 222.273 245.523 224.495 245.937C225.022 246.035 225.549 246.133 226.076 246.231C227.656 246.525 229.235 246.819 230.815 247.112C231.688 247.275 232.561 247.437 233.433 247.6C233.606 247.632 233.779 247.664 233.957 247.697C235.895 248.058 237.833 248.418 239.771 248.779C239.948 248.812 240.124 248.845 240.305 248.879C241.018 249.011 241.73 249.144 242.442 249.277C244.375 249.637 246.308 249.997 248.24 250.355C248.757 250.451 249.274 250.547 249.79 250.643C250.133 250.706 250.476 250.77 250.818 250.834C252.929 251.225 255.038 251.62 257.147 252.019C258.551 252.285 259.956 252.549 261.362 252.813C262.348 252.998 263.334 253.185 264.319 253.373C264.921 253.488 265.524 253.601 266.126 253.712C266.404 253.765 266.682 253.818 266.96 253.872C267.338 253.945 267.717 254.015 268.096 254.085C268.413 254.145 268.413 254.145 268.736 254.206C269.335 254.245 269.573 254.186 270.062 253.851C270.442 253.452 270.797 253.053 271.148 252.63C271.252 252.508 271.355 252.385 271.461 252.259C272.524 250.991 273.545 249.693 274.554 248.382C274.73 248.156 274.73 248.156 274.908 247.925C276.818 245.458 278.655 242.951 280.414 240.375C280.514 240.227 280.615 240.08 280.719 239.929C290.847 225.062 298.196 208.385 306.39 163.421C306.326 163.292 306.261 163.164 306.195 163.031C305.941 158.655 305.941 158.655 306.586 157.367C306.635 156.973 306.675 156.578 306.708 156.183C306.726 155.971 306.745 155.759 306.764 155.541C306.772 155.285 306.772 155.285 306.781 155.023C306.716 154.958 306.652 154.894 306.586 154.828C306.554 154.561 306.535 154.292 306.522 154.024C306.513 153.851 306.503 153.679 306.494 153.501C306.485 153.311 306.475 153.122 306.466 152.926C306.444 152.52 306.422 152.113 306.4 151.706C306.388 151.49 306.377 151.275 306.365 151.053C305.554 136.033 302.795 121.371 297.796 107.171C297.753 107.048 297.709 106.924 297.665 106.796C294.658 98.2698 290.839 89.9752 286.273 82.1714C286.102 81.8773 286.102 81.8773 285.927 81.5772C284.133 78.5102 282.227 75.5318 280.218 72.6011C280.062 72.3732 280.062 72.3732 279.904 72.1407C278.376 69.9173 276.747 67.7742 275.102 65.6373C274.797 65.2406 274.494 64.8427 274.192 64.4437C273.221 63.1636 272.209 61.928 271.164 60.7084C270.699 60.1651 270.252 59.6097 269.806 59.0513C268.969 58.0213 268.071 57.0554 267.159 56.0927C266.601 55.5037 266.055 54.9097 265.526 54.2942C264.802 53.464 264.037 52.681 263.257 51.9033C263.116 51.7613 262.974 51.6194 262.828 51.4732C262.53 51.1754 262.232 50.8778 261.934 50.5805C261.482 50.1291 261.03 49.6767 260.579 49.2242C260.288 48.9331 259.997 48.642 259.705 48.351C259.572 48.2177 259.439 48.0844 259.302 47.9471C258.535 47.183 257.747 46.4533 256.926 45.7466C256.457 45.3416 256.003 44.9209 255.548 44.5005C254.595 43.6327 253.614 42.8123 252.611 42.0037C252.24 41.7023 251.872 41.3976 251.504 41.0924C249.838 39.7106 248.162 38.3519 246.429 37.0542C246.298 36.9557 246.167 36.8572 246.032 36.7557C238.506 31.1181 230.567 26.3109 222.211 22.0151C222.025 21.9189 221.839 21.8227 221.648 21.7236C206.996 14.1516 190.795 9.50375 163.957 6.05926C163.786 6.04362 163.615 6.02798 163.439 6.01186C163.118 5.9826 162.796 5.95378 162.475 5.92551C161.903 5.87343 161.343 5.81926 160.781 5.69844C160.083 5.56948 159.388 5.57712 158.681 5.57608C158.524 5.57543 158.368 5.57478 158.207 5.57411C157.875 5.57312 157.544 5.57266 157.213 5.57269C156.716 5.57227 156.219 5.56874 155.723 5.56502C154.035 5.55902 152.414 5.63395 150.742 5.8876ZM153.252 236.49C152.949 236.685 152.949 236.685 152.64 236.884C152.421 237.026 152.202 237.168 151.983 237.311C151.759 237.456 151.534 237.601 151.309 237.745C150.658 238.165 150.009 238.586 149.359 239.007C149.062 239.199 148.765 239.391 148.469 239.583C148.084 239.832 147.698 240.082 147.314 240.331C146.091 241.124 144.862 241.909 143.634 242.694C142.141 243.648 140.65 244.607 139.166 245.575C137.624 246.581 136.072 247.572 134.517 248.559C133.017 249.512 131.524 250.474 130.034 251.442C129.335 251.896 128.635 252.348 127.936 252.801C127.797 252.891 127.659 252.981 127.516 253.073C126.548 253.699 125.579 254.323 124.61 254.945C123.89 255.408 123.171 255.872 122.453 256.337C120.698 257.475 118.938 258.603 117.176 259.729C116.02 260.468 114.865 261.21 113.714 261.957C112.351 262.841 110.982 263.718 109.613 264.593C107.38 266.021 105.151 267.456 102.931 268.904C101.032 270.141 99.1264 271.367 97.2129 272.582C95.7121 273.535 94.2182 274.499 92.727 275.467C92.041 275.912 91.3542 276.356 90.6675 276.8C89.8305 277.342 88.9935 277.883 88.1567 278.425C86.8666 279.261 85.5761 280.095 84.2833 280.926C84.174 280.997 84.0647 281.067 83.9521 281.139C83.3722 281.512 82.7915 281.883 82.2096 282.253C82.0868 282.331 81.964 282.41 81.8374 282.49C81.6043 282.639 81.3709 282.787 81.1371 282.934C80.4711 283.359 79.85 283.816 79.2418 284.32C83.137 286.689 87.1013 288.876 91.1558 290.96C91.3416 291.057 91.5274 291.153 91.7188 291.252C102.314 296.728 113.672 300.481 125.238 303.29C125.477 303.348 125.477 303.348 125.722 303.408C126.457 303.581 127.121 303.671 127.875 303.656C128.649 301.817 129.394 299.967 130.133 298.114C130.254 297.811 130.375 297.508 130.496 297.206C130.741 296.591 130.987 295.976 131.232 295.361C131.653 294.308 132.074 293.255 132.495 292.202C132.782 291.484 133.069 290.767 133.356 290.049C133.694 289.203 134.033 288.358 134.372 287.513C134.571 287.015 134.771 286.518 134.97 286.02C135.103 285.688 135.237 285.355 135.37 285.023C136.009 283.429 136.637 281.832 137.264 280.234C138.416 277.297 139.58 274.365 140.745 271.434C141.207 270.271 141.669 269.108 142.131 267.946C142.248 267.65 142.366 267.354 142.483 267.058C143.308 264.982 144.132 262.907 144.954 260.83C145.004 260.705 145.054 260.58 145.105 260.451C145.349 259.834 145.594 259.217 145.838 258.601C147.117 255.373 148.397 252.147 149.69 248.925C150.709 246.38 151.715 243.83 152.722 241.28C152.79 241.105 152.859 240.931 152.931 240.751C153.059 240.425 153.188 240.099 153.316 239.774C153.375 239.624 153.434 239.475 153.495 239.321C153.552 239.175 153.609 239.03 153.669 238.879C153.8 238.55 153.934 238.222 154.07 237.894C154.141 237.721 154.213 237.547 154.287 237.368C154.353 237.21 154.419 237.052 154.487 236.889C154.664 236.45 154.664 236.45 154.632 235.882C154.051 235.882 153.738 236.176 153.252 236.49ZM157.367 235.882C157.478 236.689 157.661 237.379 157.976 238.13C158.061 238.335 158.146 238.541 158.233 238.753C158.372 239.084 158.372 239.084 158.514 239.422C158.714 239.906 158.914 240.39 159.113 240.873C159.164 240.997 159.215 241.12 159.267 241.247C159.742 242.399 160.198 243.559 160.65 244.72C161.632 247.235 162.636 249.742 163.641 252.248C165.113 255.918 166.575 259.591 168.011 263.275C169.405 266.848 170.82 270.412 172.25 273.97C172.705 275.105 173.16 276.239 173.614 277.374C173.71 277.613 173.806 277.852 173.905 278.099C174.642 279.943 175.369 281.792 176.094 283.642C176.787 285.409 177.491 287.173 178.198 288.934C178.876 290.625 179.548 292.318 180.217 294.011C180.369 294.396 180.521 294.78 180.673 295.164C180.749 295.356 180.749 295.356 180.826 295.552C180.929 295.812 181.032 296.072 181.134 296.331C181.442 297.108 181.748 297.885 182.055 298.662C182.202 299.035 182.349 299.407 182.496 299.779C182.679 300.241 182.861 300.702 183.043 301.164C183.432 302.147 183.822 303.113 184.32 304.046C186.595 303.739 188.81 303.162 191.034 302.606C191.24 302.554 191.447 302.503 191.66 302.449C201.831 299.894 211.63 296.271 221.037 291.64C221.431 291.447 221.824 291.254 222.218 291.062C225.143 289.637 227.995 288.11 230.804 286.468C231.023 286.341 231.023 286.341 231.246 286.211C232.317 285.594 232.317 285.594 233.343 284.906C233.343 284.777 233.343 284.648 233.343 284.515C232.95 284.232 232.559 283.975 232.147 283.722C231.894 283.563 231.64 283.403 231.387 283.244C231.257 283.163 231.127 283.082 230.993 282.998C230.525 282.705 230.061 282.405 229.598 282.105C228.67 281.505 227.738 280.913 226.799 280.33C224.773 279.073 222.781 277.768 220.786 276.462C218.796 275.161 216.796 273.876 214.789 272.601C212.606 271.214 210.432 269.813 208.267 268.397C206.207 267.05 204.141 265.714 202.063 264.395C200.876 263.642 199.694 262.882 198.516 262.117C197.27 261.31 196.02 260.51 194.769 259.71C192.976 258.564 191.186 257.413 189.4 256.254C188.704 255.803 188.007 255.352 187.311 254.901C187.103 254.767 187.103 254.767 186.892 254.63C185.581 253.782 184.267 252.937 182.953 252.093C182.509 251.809 182.066 251.524 181.622 251.239C181.51 251.167 181.397 251.094 181.281 251.02C180.673 250.629 180.066 250.237 179.459 249.843C177.906 248.836 176.349 247.836 174.786 246.844C173.254 245.872 171.73 244.889 170.21 243.898C168.675 242.898 167.132 241.911 165.588 240.925C164.396 240.163 163.205 239.398 162.018 238.629C161.887 238.545 161.757 238.46 161.623 238.373C160.979 237.957 160.336 237.539 159.695 237.118C159.444 236.954 159.193 236.791 158.941 236.627C158.827 236.551 158.713 236.476 158.595 236.398C158.028 236.002 158.028 236.002 157.367 235.882Z" fill="#283618"/>
<path d="M168.5 97.7969C168.391 98.6155 167.899 99.1635 167.414 99.7988C166.501 101.03 165.819 102.304 165.158 103.682C164.646 104.746 164.1 105.814 163.422 106.781C163.293 106.781 163.164 106.781 163.031 106.781C163.114 105.339 163.606 104.181 164.203 102.875C164.278 102.705 164.353 102.535 164.43 102.359C165.076 100.965 166.791 97.7969 168.5 97.7969Z" fill="#283618"/>
<path d="M159.125 68.3047C159.318 68.3047 159.511 68.3047 159.71 68.3047C161.058 71.559 161.865 74.9268 161.273 78.4609C161.144 78.6543 161.015 78.8477 160.882 79.0469C160.538 78.7026 160.613 78.1996 160.574 77.7308C160.341 75.0926 160.046 72.5864 159.318 70.032C159.157 69.4092 159.078 68.9394 159.125 68.3047Z" fill="#283618"/>
<path d="M200.336 146.039C200.465 146.168 200.594 146.297 200.727 146.43C198.861 149.767 195.818 152.301 192.328 153.852C192.135 153.852 191.941 153.852 191.742 153.852C192.001 153.248 192.237 152.937 192.786 152.579C192.916 152.493 193.045 152.406 193.179 152.317C193.386 152.182 193.386 152.182 193.598 152.045C194.854 151.205 196.054 150.333 197.211 149.359C197.346 149.25 197.482 149.141 197.621 149.028C198.68 148.149 199.507 147.134 200.336 146.039Z" fill="#283618"/>
<path d="M111.469 146.039C111.931 146.486 112.374 146.93 112.785 147.426C114.618 149.611 117.02 151.251 119.433 152.741C119.885 153.084 120.057 153.328 120.258 153.852C117.414 153.439 114.452 150.676 112.641 148.578C112.135 147.89 111.644 147.201 111.273 146.43C111.338 146.301 111.402 146.172 111.469 146.039Z" fill="#283618"/>
<path d="M166.938 138.227C167.066 138.227 167.195 138.227 167.328 138.227C167.139 141.505 165.001 143.952 162.836 146.234C162.702 146.382 162.568 146.529 162.43 146.681C162.055 147.016 162.055 147.016 161.469 147.016C161.767 146.068 162.316 145.441 162.946 144.696C164.578 142.712 165.848 140.554 166.938 138.227Z" fill="#283618"/>
<path d="M155.805 88.0312C156.173 88.0893 156.173 88.0893 156.586 88.2266C156.864 88.7141 157.083 89.1634 157.294 89.6792C157.383 89.8928 157.383 89.8928 157.475 90.1108C158.258 92.0337 158.745 94.1832 158.148 96.2344C157.955 96.1699 157.762 96.1055 157.562 96.0391C157.544 95.9322 157.525 95.8253 157.506 95.7152C157.144 93.6558 156.744 91.6371 156.112 89.6415C155.935 89.0793 155.805 88.6254 155.805 88.0312Z" fill="#283618"/>
<path d="M147.016 147.797C147.209 147.797 147.402 147.797 147.602 147.797C147.653 147.892 147.704 147.987 147.756 148.086C148.772 149.974 149.802 151.764 151.117 153.461C152.094 154.768 152.094 154.768 152.094 155.219C151.055 155.099 150.403 154.36 149.766 153.601C148.463 151.889 147.234 149.972 147.016 147.797Z" fill="#283618"/>
<path d="M154.828 113.617C155.021 113.682 155.214 113.746 155.414 113.812C155.428 113.996 155.443 114.179 155.458 114.367C155.649 116.416 156.068 118.369 156.579 120.362C156.63 120.562 156.681 120.762 156.734 120.969C156.78 121.147 156.827 121.326 156.875 121.509C156.977 122.018 156.995 122.475 156.976 122.992C156.783 122.928 156.589 122.863 156.39 122.797C155.311 120.498 154.788 117.723 154.816 115.204C154.816 115.051 154.817 114.898 154.818 114.74C154.82 114.366 154.824 113.992 154.828 113.617Z" fill="#283618"/>
<path d="M167.133 115.57C167.262 115.57 167.391 115.57 167.523 115.57C167.175 119.223 164.952 122.626 162.836 125.531C162.643 125.467 162.449 125.402 162.25 125.336C162.313 125.235 162.376 125.134 162.44 125.03C164.325 121.986 165.914 118.939 167.133 115.57Z" fill="#283618"/>
<path d="M227.68 98.5781C227.809 98.6426 227.938 98.707 228.07 98.7734C227.347 100.426 225.89 101.439 224.277 102.118C223.496 102.383 222.778 102.511 221.955 102.497C221.598 102.491 221.598 102.491 221.234 102.484C221.331 102.194 221.331 102.194 221.43 101.898C221.912 101.727 222.377 101.588 222.87 101.459C224.753 100.92 226.371 100.068 227.68 98.5781Z" fill="#283618"/>
<path d="M84.125 98.5781C84.3022 98.7433 84.4795 98.9084 84.6621 99.0786C86.291 100.459 87.9725 101.24 90.0355 101.718C90.3002 101.808 90.3002 101.808 90.5703 101.898C90.667 102.188 90.667 102.188 90.7656 102.484C88.8759 102.589 87.1818 102.105 85.6875 100.922C85.0796 100.356 84.4989 99.7688 83.9297 99.1641C83.9941 98.9707 84.0586 98.7773 84.125 98.5781Z" fill="#283618"/>
<path d="M165.375 153.07C165.504 153.07 165.633 153.07 165.766 153.07C165.525 154.827 163.864 156.375 162.503 157.43C161.749 157.953 161.749 157.953 161.273 157.953C161.561 156.918 162.241 156.34 162.995 155.622C163.236 155.388 163.478 155.155 163.719 154.92C163.834 154.808 163.95 154.695 164.069 154.58C164.385 154.256 164.668 153.922 164.95 153.57C165.09 153.405 165.231 153.24 165.375 153.07Z" fill="#283618"/>
<path d="M196.43 160.297C196.156 161.188 195.667 161.724 194.989 162.335C194.836 162.476 194.836 162.476 194.679 162.619C193.671 163.504 192.59 164.073 191.352 164.594C191.223 164.465 191.094 164.336 190.961 164.203C191.091 164.111 191.221 164.018 191.355 163.923C193.582 162.369 193.582 162.369 195.575 160.539C195.844 160.297 195.844 160.297 196.43 160.297Z" fill="#283618"/>
<path d="M115.57 160.297C116.377 160.4 116.759 160.828 117.328 161.383C118.294 162.293 119.27 162.986 120.407 163.677C120.551 163.786 120.695 163.895 120.844 164.008C120.844 164.201 120.844 164.395 120.844 164.594C119.54 164.226 118.566 163.62 117.548 162.75C117.441 162.659 117.334 162.568 117.224 162.474C116.602 161.927 116.051 161.364 115.57 160.688C115.57 160.559 115.57 160.43 115.57 160.297Z" fill="#283618"/>
<path d="M183.54 149.75C183.668 149.75 183.797 149.75 183.93 149.75C184 151.729 183.783 153.65 183.54 155.609C183.346 155.609 183.153 155.609 182.954 155.609C182.409 153.984 182.907 151.752 183.344 150.141C183.409 150.012 183.473 149.883 183.54 149.75Z" fill="#283618"/>
<path d="M128.07 149.75C128.199 149.75 128.328 149.75 128.461 149.75C128.806 150.519 128.956 151.236 129.071 152.069C129.104 152.298 129.136 152.528 129.17 152.764C129.284 153.875 129.346 154.784 128.851 155.805C128.722 155.74 128.593 155.676 128.461 155.609C128.365 155.064 128.295 154.536 128.241 153.986C128.224 153.828 128.208 153.669 128.191 153.506C128.067 152.252 128.026 151.01 128.07 149.75Z" fill="#283618"/>
<path d="M216.547 113.227C216.435 113.98 216.086 114.378 215.583 114.936C215.444 115.092 215.305 115.248 215.162 115.409C214.789 115.766 214.789 115.766 214.398 115.766C214.398 115.895 214.398 116.023 214.398 116.156C213.992 116.5 213.992 116.5 213.458 116.876C213.284 117.002 213.11 117.128 212.93 117.257C212.77 117.345 212.61 117.433 212.445 117.523C212.252 117.459 212.059 117.395 211.859 117.328C212.802 116.163 213.854 115.185 214.984 114.203C215.107 114.095 215.23 113.986 215.357 113.874C216.105 113.227 216.105 113.227 216.547 113.227Z" fill="#283618"/>
<path d="M95.4531 113.227C96.3239 113.629 96.9696 114.211 97.687 114.838C97.815 114.947 97.9431 115.057 98.075 115.17C98.8455 115.839 99.5096 116.526 100.141 117.328C99.2958 117.328 99.1035 117.225 98.4316 116.767C98.2755 116.662 98.1194 116.558 97.9586 116.451C97.8408 116.354 97.723 116.256 97.6016 116.156C97.6016 116.027 97.6016 115.898 97.6016 115.766C97.4878 115.717 97.374 115.668 97.2567 115.618C96.7588 115.341 96.4617 115.035 96.0879 114.606C95.968 114.471 95.8482 114.337 95.7247 114.198C95.4531 113.812 95.4531 113.812 95.4531 113.227Z" fill="#283618"/>
<path d="M192.523 135.102C192.652 135.102 192.781 135.102 192.914 135.102C192.786 136.487 192.343 137.772 191.925 139.093C191.815 139.447 191.815 139.447 191.702 139.809C191.521 140.388 191.339 140.968 191.156 141.547C190.963 141.547 190.77 141.547 190.57 141.547C190.788 140.302 191.086 139.097 191.437 137.885C191.477 137.744 191.517 137.603 191.558 137.458C191.805 136.623 192.108 135.872 192.523 135.102Z" fill="#283618"/>
<path d="M119.086 135.102C119.215 135.102 119.344 135.102 119.477 135.102C120.108 136.473 120.602 137.851 121.015 139.301C121.059 139.453 121.103 139.604 121.149 139.761C121.353 140.5 121.464 141.01 121.234 141.742C120.844 141.547 120.844 141.547 120.638 141.017C120.566 140.786 120.495 140.555 120.421 140.316C120.383 140.193 120.344 140.069 120.305 139.942C120.223 139.68 120.143 139.418 120.063 139.155C119.941 138.755 119.817 138.355 119.692 137.955C119.086 135.99 119.086 135.99 119.086 135.102Z" fill="#283618"/>
<path d="M211.273 100.531C211.467 100.531 211.66 100.531 211.859 100.531C211.677 101.355 211.305 102.057 210.919 102.802C210.321 103.976 209.773 105.151 209.32 106.391C209.191 106.391 209.062 106.391 208.93 106.391C209.112 104.242 210.089 102.308 211.273 100.531Z" fill="#283618"/>
<path d="M100.141 100.531C100.334 100.531 100.527 100.531 100.727 100.531C102.02 102.129 102.952 104.341 103.07 106.391C102.877 106.326 102.684 106.262 102.484 106.195C102.262 105.66 102.262 105.66 102.045 104.962C101.645 103.734 101.1 102.686 100.405 101.591C100.141 101.117 100.141 101.117 100.141 100.531Z" fill="#283618"/>
<path d="M233.734 81.5859C233.863 81.5859 233.992 81.5859 234.125 81.5859C233.792 82.6934 233.29 83.6705 232.76 84.6919C232.299 85.5916 231.926 86.4932 231.586 87.4453C231.457 87.4453 231.328 87.4453 231.195 87.4453C231.323 85.2672 232.181 83.1395 233.734 81.5859Z" fill="#283618"/>
<path d="M77.875 81.5859C79.1053 82.1045 79.6191 83.2411 80.1203 84.4241C80.8688 86.4425 80.8688 86.4425 80.8047 87.4453C80.6758 87.4453 80.5469 87.4453 80.4141 87.4453C80.3718 87.3421 80.3296 87.2389 80.2861 87.1326C80.0898 86.6545 79.8918 86.1771 79.6938 85.6997C79.6275 85.5374 79.5612 85.3752 79.4928 85.208C79.0759 84.2065 78.61 83.265 78.059 82.3301C77.875 81.9766 77.875 81.9766 77.875 81.5859Z" fill="#283618"/>
<path d="M207.562 129.633C207.691 129.633 207.82 129.633 207.953 129.633C207.848 131.002 207.203 132.255 206.171 133.161C205.609 133.539 205.609 133.539 205.023 133.539C205.136 132.729 205.582 132.222 206.073 131.586C206.228 131.385 206.382 131.183 206.542 130.976C206.685 130.79 206.829 130.605 206.977 130.414C207.084 130.261 207.191 130.108 207.302 129.95C207.431 129.793 207.431 129.793 207.562 129.633Z" fill="#283618"/>
<path d="M104.047 129.633C104.896 129.927 105.263 130.573 105.731 131.293C106.299 132.166 106.299 132.166 106.977 132.953C106.977 133.146 106.977 133.34 106.977 133.539C106.448 133.524 106.102 133.434 105.702 133.081C104.801 132.073 104.047 131.011 104.047 129.633Z" fill="#283618"/>
<path d="M175.336 165.375C175.53 165.375 175.723 165.375 175.922 165.375C176.116 166.922 176.309 168.469 176.508 170.062C176.25 170.062 175.993 170.062 175.727 170.062C175.366 168.994 175.287 168.073 175.312 166.95C175.314 166.798 175.315 166.645 175.317 166.489C175.322 166.117 175.329 165.746 175.336 165.375Z" fill="#283618"/>
<path d="M136.078 165.375C136.271 165.375 136.465 165.375 136.664 165.375C136.772 168.899 136.772 168.899 136.078 170.258C135.885 170.193 135.691 170.129 135.492 170.062C135.686 168.516 135.879 166.969 136.078 165.375Z" fill="#283618"/>
<path d="M149.555 131.977C149.945 132.172 149.945 132.172 150.134 132.678C150.197 132.893 150.259 133.109 150.324 133.332C150.425 133.674 150.425 133.674 150.528 134.023C150.593 134.25 150.659 134.477 150.727 134.711C150.84 135.089 150.954 135.468 151.068 135.846C151.15 136.119 151.231 136.391 151.313 136.664C151.119 136.664 150.926 136.664 150.727 136.664C149.278 133.837 149.278 133.837 149.359 132.172C149.424 132.107 149.488 132.043 149.555 131.977Z" fill="#283618"/>
<path d="M222.601 89.0078C222.73 89.1367 222.859 89.2656 222.992 89.3984C222.83 89.713 222.83 89.713 222.664 90.034C222.521 90.3144 222.378 90.595 222.235 90.8755C222.164 91.0131 222.093 91.1507 222.019 91.2924C221.586 92.1474 221.271 92.9602 221.039 93.8906C220.91 93.8906 220.781 93.8906 220.648 93.8906C220.574 92.8017 220.784 92.0631 221.295 91.1196C221.355 91.0019 221.416 90.8842 221.478 90.763C221.805 90.1354 222.157 89.5588 222.601 89.0078Z" fill="#283618"/>
<path d="M89.2031 89.0078C89.8932 89.6231 90.309 90.3015 90.7168 91.1196C90.7785 91.2351 90.8402 91.3505 90.9037 91.4694C91.3254 92.3065 91.4134 92.9612 91.3516 93.8906C91.2227 93.8906 91.0938 93.8906 90.9609 93.8906C90.9018 93.7159 90.8426 93.5412 90.7816 93.3611C90.2814 91.9173 89.7375 90.5507 89.0078 89.2031C89.0723 89.1387 89.1367 89.0742 89.2031 89.0078Z" fill="#283618"/>
<path d="M200.14 117.133C200.269 117.133 200.398 117.133 200.531 117.133C200.451 118.829 200.019 120.393 199.554 122.016C199.425 122.016 199.297 122.016 199.164 122.016C199.102 120.861 199.323 119.908 199.652 118.805C199.699 118.644 199.745 118.482 199.793 118.316C199.907 117.921 200.024 117.527 200.14 117.133Z" fill="#283618"/>
<path d="M111.469 117.133C111.598 117.133 111.727 117.133 111.859 117.133C112.024 117.69 112.187 118.247 112.348 118.805C112.394 118.961 112.441 119.118 112.489 119.279C112.759 120.225 112.889 121.031 112.836 122.016C112.707 122.016 112.578 122.016 112.445 122.016C112.281 121.385 112.119 120.755 111.957 120.124C111.887 119.856 111.887 119.856 111.816 119.584C111.772 119.411 111.728 119.238 111.682 119.059C111.641 118.901 111.601 118.742 111.558 118.579C111.464 118.086 111.453 117.633 111.469 117.133Z" fill="#283618"/>
<path d="M186.664 173.969C186.857 174.033 187.051 174.098 187.25 174.164C186.031 175.304 184.567 175.58 182.953 175.727C182.953 175.533 182.953 175.34 182.953 175.141C183.188 175.072 183.423 175.004 183.666 174.934C183.973 174.844 184.281 174.754 184.589 174.665C184.744 174.62 184.899 174.575 185.059 174.528C185.207 174.485 185.356 174.442 185.509 174.397C185.715 174.337 185.715 174.337 185.924 174.276C186.288 174.169 186.288 174.169 186.664 173.969Z" fill="#283618"/>
<path d="M124.75 173.969C125.671 174.129 126.554 174.397 127.448 174.665C127.602 174.71 127.756 174.756 127.914 174.803C128.292 174.915 128.669 175.028 129.047 175.141C129.047 175.334 129.047 175.527 129.047 175.727C127.674 175.532 126.337 175.294 125.141 174.555C125.012 174.361 124.883 174.168 124.75 173.969Z" fill="#283618"/>
<path d="M181.781 211.664C181.975 211.761 181.975 211.761 182.172 211.859C181.652 212.385 181.131 212.91 180.609 213.434C180.391 213.654 180.391 213.654 180.169 213.879C179.357 214.695 178.53 215.477 177.658 216.228C177.075 216.732 176.51 217.254 175.946 217.78C175.762 217.951 175.762 217.951 175.575 218.126C174.383 219.244 173.229 220.4 172.082 221.565C171.298 222.359 170.496 223.111 169.65 223.839C169.077 224.344 168.545 224.887 168.012 225.434C165.625 227.848 165.625 227.848 164.789 228.266C165.916 225.022 169.452 221.569 172.054 219.39C172.398 219.093 172.705 218.781 173.017 218.451C174.727 216.721 176.81 215.338 178.781 213.927C179.8 213.196 180.804 212.45 181.781 211.664Z" fill="#283618"/>
<path d="M129.828 211.664C130.385 211.927 130.874 212.225 131.372 212.586C131.516 212.691 131.66 212.795 131.809 212.902C131.961 213.013 132.113 213.124 132.27 213.239C132.427 213.353 132.584 213.468 132.747 213.586C133.207 213.921 133.666 214.257 134.125 214.594C134.241 214.678 134.357 214.763 134.477 214.85C136.57 216.376 138.559 217.998 140.365 219.857C140.752 220.245 141.154 220.6 141.571 220.954C143.788 222.87 145.579 225.458 147.211 227.875C147.146 228.004 147.082 228.133 147.016 228.266C146.935 228.183 146.854 228.1 146.771 228.015C146.18 227.414 145.583 226.834 144.94 226.288C144.084 225.552 143.296 224.753 142.508 223.946C141.962 223.391 141.406 222.864 140.814 222.357C139.612 221.318 138.517 220.166 137.402 219.035C136.522 218.148 135.637 217.286 134.688 216.473C134.061 215.933 133.459 215.367 132.855 214.801C132.729 214.683 132.602 214.565 132.472 214.443C130.426 212.522 130.426 212.522 129.828 211.859C129.828 211.795 129.828 211.73 129.828 211.664Z" fill="#283618"/>
<path d="M161.274 49.75C161.403 49.75 161.531 49.75 161.664 49.75C161.707 49.8985 161.751 50.047 161.795 50.2C161.995 50.8844 162.196 51.5684 162.397 52.2524C162.465 52.486 162.533 52.7195 162.603 52.9601C162.976 54.2302 163.376 55.4737 163.866 56.704C164.019 57.2084 164.034 57.6244 164.008 58.1484C163.879 58.1484 163.75 58.1484 163.617 58.1484C160.595 52.4852 160.595 52.4852 161.274 49.75Z" fill="#283618"/>
<path d="M163.617 26.5078C163.682 26.5078 163.746 26.5078 163.813 26.5078C163.813 29.0215 163.813 31.5352 163.813 34.125C163.619 34.0605 163.426 33.9961 163.227 33.9297C162.389 32.0078 162.442 29.4747 163.032 27.4844C163.328 26.9305 163.328 26.9305 163.617 26.5078Z" fill="#283618"/>
<path d="M51.7031 42.1328C51.832 42.1973 51.9609 42.2617 52.0938 42.3281C48.8066 45.6152 45.5195 48.9023 42.1328 52.2891C42.1328 51.7031 42.1328 51.7031 42.5974 51.1881C42.8033 50.988 43.0106 50.7895 43.2192 50.5923C43.8857 49.9543 44.5276 49.3115 45.1296 48.6117C45.9091 47.7088 46.7441 46.8678 47.5894 46.0269C47.7378 45.8777 47.8862 45.7285 48.0391 45.5748C48.8652 44.7501 49.7077 43.9574 50.5946 43.1983C50.9831 42.8609 51.3469 42.5039 51.7031 42.1328Z" fill="#283618"/>
<path d="M171.039 64.5938C171.168 64.5938 171.297 64.5938 171.43 64.5938C171.512 66.9725 170.603 70.0328 169.281 72.0156C169.152 72.0156 169.023 72.0156 168.891 72.0156C169.132 70.8183 169.454 69.6773 169.855 68.5244C170.298 67.2254 170.705 65.9258 171.039 64.5938Z" fill="#283618"/>
</svg>
