<svg width="155" height="155" viewBox="0 0 155 155" fill="none" xmlns="http://www.w3.org/2000/svg">
<g clip-path="url(#clip0_233_1117)">
<path d="M0 0C51.15 0 102.3 0 155 0C155 51.15 155 102.3 155 155C103.85 155 52.7 155 0 155C0 103.85 0 52.7 0 0Z" fill="#92989A"/>
<path d="M97.0297 33.1704C97.0212 33.4621 97.0128 33.7538 97.0041 34.0543C96.7246 41.7257 96.7246 41.7257 100.204 48.2959C101.319 49.695 102.224 51.244 103.172 52.7586C103.595 53.4221 104.019 54.0853 104.444 54.7481C105.273 56.046 106.101 57.3449 106.927 58.6449C107.12 58.9491 107.313 59.2534 107.512 59.5668C107.874 60.1357 108.235 60.7048 108.595 61.2741C108.759 61.533 108.924 61.7918 109.093 62.0585C109.234 62.2803 109.374 62.5021 109.519 62.7306C110.007 63.5238 110.007 63.5238 110.501 64.0766C112.227 66.2502 112.163 68.3345 112.121 71.0111C112.12 71.4788 112.121 71.9465 112.122 72.4142C112.122 73.6765 112.111 74.9385 112.098 76.2008C112.087 77.5227 112.086 78.8445 112.083 80.1664C112.078 82.6663 112.062 85.166 112.044 87.6659C112.023 90.5132 112.013 93.3605 112.003 96.2079C111.984 102.062 111.951 107.916 111.91 113.77C109.788 114.382 107.654 114.871 105.497 115.34C105.286 115.386 105.075 115.432 104.858 115.479C100.621 116.404 96.3731 117.272 92.1231 118.133C89.1453 118.737 86.169 119.344 83.202 119.999C82.9725 120.05 82.743 120.101 82.5065 120.153C81.4499 120.387 80.3939 120.624 79.3385 120.863C78.9703 120.946 78.602 121.029 78.2226 121.114C77.9085 121.185 77.5943 121.257 77.2706 121.33C76.4431 121.486 75.6375 121.597 74.8015 121.687C74.5517 121.714 74.3019 121.741 74.0445 121.769C73.76 121.8 73.76 121.8 73.4697 121.83C73.4727 121.591 73.4757 121.351 73.4787 121.104C73.5499 115.231 73.5927 109.359 73.6054 103.485C73.6122 100.645 73.6281 97.8048 73.6663 94.9644C73.6997 92.4842 73.715 90.0046 73.7098 87.5241C73.7076 86.2145 73.7137 84.9062 73.7415 83.5968C73.884 76.5449 72.9019 71.9199 68.8448 66.0591C67.7536 64.4376 66.8111 62.7357 65.8553 61.0317C64.7122 59.0073 63.5614 57.0303 62.2249 55.1259C58.4067 49.4942 58.3416 44.6964 58.8997 38.1304C63.6957 37.3817 68.497 36.7249 73.3147 36.1348C78.0559 35.5538 82.7858 34.9157 87.5123 34.2254C88.5146 34.0792 89.5171 33.9345 90.5197 33.7904C90.7291 33.7603 90.9384 33.7303 91.1541 33.6993C91.7816 33.6099 92.4094 33.5225 93.0372 33.4356C93.4027 33.3845 93.7681 33.3335 94.1446 33.2808C95.1161 33.1762 96.0536 33.1501 97.0297 33.1704Z" fill="#FBFBFB"/>
<path d="M57.35 48.9805C58.5608 49.384 58.6664 49.8133 59.2815 50.9143C59.4767 51.2603 59.672 51.6063 59.8732 51.9627C60.0849 52.3442 60.2965 52.7258 60.5082 53.1073C60.7292 53.5008 60.9506 53.894 61.1722 54.2871C61.6335 55.1058 62.0934 55.9252 62.5524 56.7452C63.6099 58.6325 64.6848 60.5099 65.7588 62.388C66.0298 62.8641 66.0298 62.8641 66.3064 63.3498C66.5832 63.8352 66.5832 63.8352 66.8656 64.3303C67.0514 64.668 67.2372 65.0058 67.4286 65.3537C67.9822 66.3239 68.6028 67.2127 69.2648 68.1119C73.04 73.4883 73.1349 78.1765 72.9801 84.4849C72.9525 85.8029 72.9504 87.121 72.9452 88.4393C72.9319 90.9229 72.8965 93.4056 72.8526 95.8889C72.8037 98.7212 72.7801 101.554 72.7584 104.386C72.7134 110.201 72.6373 116.016 72.54 121.83C70.7746 121.319 69.0438 120.781 67.3368 120.094C67.1498 120.02 66.9627 119.945 66.77 119.868C66.162 119.624 65.5547 119.379 64.9475 119.134C64.515 118.96 64.0825 118.787 63.65 118.613C62.5154 118.158 61.3815 117.702 60.2478 117.245C59.1143 116.788 57.9803 116.333 56.8463 115.878C55.3601 115.281 53.8741 114.684 52.3885 114.086C49.291 112.839 46.1907 111.6 43.09 110.36C43.0175 104.144 42.9629 97.9272 42.9294 91.7102C42.9134 88.8234 42.8917 85.9368 42.8562 83.0501C42.8252 80.5334 42.8053 78.0169 42.7984 75.5C42.7943 74.1678 42.7849 72.8361 42.7623 71.5041C42.7411 70.2488 42.7348 68.9942 42.7394 67.7386C42.7385 67.2794 42.7324 66.8201 42.7205 66.3609C42.635 62.9001 42.635 62.9001 43.7589 61.4439C44.5377 60.74 45.3388 60.1331 46.19 59.5205C46.6247 59.1028 47.0525 58.6777 47.4688 58.2417C48.4476 57.2471 49.4722 56.3318 50.53 55.4227C51.3933 54.6538 52.1945 53.8291 53.0052 53.0056C53.8256 52.1979 54.6902 51.4493 55.5627 50.6988C56.1874 50.1529 56.7756 49.5789 57.35 48.9805Z" fill="#FCFCFC"/>
<path d="M46.5 79.9805C52.2068 82.1205 52.2068 82.1205 54.078 82.8734C54.2957 82.9605 54.5133 83.0476 54.7375 83.1373C55.1902 83.3185 55.6427 83.5 56.0952 83.6818C56.7618 83.9496 57.4289 84.2165 58.0959 84.4833C61.7818 85.9606 65.4545 87.4669 69.13 88.9705C69.13 97.5637 69.13 106.157 69.13 115.01C63.8274 112.971 58.5434 110.91 53.2812 108.772C51.0434 107.864 48.8056 106.956 46.5 106.02C46.5 97.4273 46.5 88.8341 46.5 79.9805Z" fill="#92989A"/>
<path d="M88.9704 84.6299C88.9704 88.2104 88.9704 91.7909 88.9704 95.4799C88.4589 95.4799 87.9474 95.4799 87.4204 95.4799C87.3181 93.6385 87.2158 91.7971 87.1104 89.8999C86.8035 91.3321 86.4966 92.7643 86.1804 94.2399C85.7712 94.2399 85.362 94.2399 84.9404 94.2399C84.6335 92.91 84.3266 91.5801 84.0104 90.2099C83.9081 92.2559 83.8058 94.3019 83.7004 96.4099C83.1889 96.4099 82.6774 96.4099 82.1504 96.4099C82.1504 92.9317 82.1504 89.4535 82.1504 85.8699C83.2245 85.7164 83.2245 85.7164 84.3204 85.5599C84.7712 87.1056 85.1689 88.644 85.5604 90.2099C85.9696 88.4708 86.3788 86.7317 86.8004 84.9399C88.0404 84.6299 88.0404 84.6299 88.9704 84.6299Z" fill="#92989A"/>
<path d="M103.23 81.5303C103.742 81.5303 104.253 81.5303 104.78 81.5303C104.473 82.5228 104.165 83.3824 103.637 84.2815C102.851 86.154 103.511 87.7113 104.199 89.5128C104.373 89.9324 104.373 89.9324 104.55 90.3604C104.796 91.193 104.766 91.5778 104.47 92.3803C104.061 92.3803 103.652 92.3803 103.23 92.3803C103.022 91.8838 102.815 91.3863 102.61 90.8884C102.495 90.6115 102.38 90.3345 102.261 90.0492C101.99 89.2803 101.99 89.2803 101.99 88.3503C101.786 88.3503 101.581 88.3503 101.37 88.3503C101.268 89.8848 101.166 91.4193 101.06 93.0003C100.139 93.1537 100.139 93.1537 99.2002 93.3103C99.2002 89.7298 99.2002 86.1493 99.2002 82.4603C99.814 82.358 100.428 82.2557 101.06 82.1503C101.162 83.2756 101.265 84.4009 101.37 85.5603C101.984 84.2304 102.598 82.9005 103.23 81.5303Z" fill="#92989A"/>
<path d="M94.2402 83.3896C94.7517 83.3896 95.2632 83.3896 95.7902 83.3896C95.8925 86.254 95.9948 89.1184 96.1002 92.0696C97.3278 91.9162 97.3278 91.9162 98.5802 91.7596C98.5935 92.2761 98.5928 92.7931 98.5802 93.3096C97.5341 94.3558 95.7025 94.0147 94.2402 94.2396C94.2402 90.6591 94.2402 87.0786 94.2402 83.3896Z" fill="#92989A"/>
<path d="M90.8301 84.0098C91.3416 84.0098 91.8531 84.0098 92.3801 84.0098C92.3801 87.488 92.3801 90.9662 92.3801 94.5498C91.6128 94.7032 91.6128 94.7032 90.8301 94.8598C90.8301 91.2793 90.8301 87.6988 90.8301 84.0098Z" fill="#92989A"/>
</g>
<defs>
<clipPath id="clip0_233_1117">
<rect width="155" height="155" rx="77.5" fill="white"/>
</clipPath>
</defs>
</svg>
