<svg width="155" height="155" viewBox="0 0 155 155" fill="none" xmlns="http://www.w3.org/2000/svg">
<g clip-path="url(#clip0_233_1126)">
<path d="M0 0C51.15 0 102.3 0 155 0C155 51.15 155 102.3 155 155C103.85 155 52.7 155 0 155C0 103.85 0 52.7 0 0Z" fill="#914F3B"/>
<path d="M76.9385 38.3817C77.2496 38.3779 77.5607 38.3741 77.8812 38.3702C84.5389 38.3572 89.835 41.7972 94.4256 46.3629C101.1 53.223 105.185 62.3727 107.26 71.6098C107.504 72.5366 107.75 73.4626 108 74.3877C108.55 77.1124 108.567 79.8759 108.575 82.6465C108.578 83.2865 108.587 83.9263 108.597 84.5662C108.628 88.4399 107.993 92.1123 106.737 95.7898C106.659 96.0212 106.58 96.2525 106.499 96.4909C105.192 100.185 103.325 103.368 100.75 106.33C100.613 106.512 100.475 106.693 100.334 106.881C97.5997 110.423 93.5892 112.596 89.5904 114.39C89.317 114.52 89.0437 114.65 88.7621 114.785C82.0355 117.787 73.0808 117.279 66.2798 114.868C62.9476 113.563 60.0474 111.781 57.3503 109.43C57.1577 109.278 56.9651 109.126 56.7667 108.97C50.982 104.352 47.8548 96.5319 46.6166 89.4045C46.4215 87.6114 46.4427 85.8039 46.4429 84.0023C46.4422 83.3793 46.4365 82.7564 46.4307 82.1334C46.4247 78.0603 46.9072 74.165 47.9728 70.2342C48.0955 69.7761 48.0955 69.7761 48.2207 69.3087C51.3378 57.9444 57.5732 46.7368 67.9586 40.6057C70.9846 38.9279 73.5388 38.3838 76.9385 38.3817Z" fill="#FEFEFE"/>
</g>
<defs>
<clipPath id="clip0_233_1126">
<rect width="155" height="155" rx="77.5" fill="white"/>
</clipPath>
</defs>
</svg>
