<svg width="155" height="155" viewBox="0 0 155 155" fill="none" xmlns="http://www.w3.org/2000/svg">
<g clip-path="url(#clip0_233_1129)">
<path d="M0 78.5813C0 35.7792 34.1167 0.5 76.9187 0.5C119.721 0.5 155 34.6167 155 77.4187C155 120.221 120.883 155.5 78.0813 155.5C35.2792 155.5 0 121.383 0 78.5813Z" fill="#606C38"/>
<path d="M121.773 51.3701C122.108 51.4145 122.108 51.4145 122.45 51.4597C122.428 51.6511 122.405 51.8426 122.382 52.0398C121.861 55.2953 121.861 55.2953 122.76 58.2797C122.897 60.0011 122.881 60.6423 121.83 61.9997C121.711 63.3604 121.683 63.9496 122.45 65.0997C122.553 66.7014 122.437 67.6507 121.83 69.1297C121.717 70.3782 121.731 71.1013 122.295 72.2297C122.865 73.3687 122.895 74.0689 122.76 75.3297C122.45 75.9497 122.14 76.5697 121.83 77.1897C121.734 78.2819 121.702 79.0638 122.14 80.0754C122.508 81.0663 122.543 81.8695 122.547 82.9247C122.552 83.2668 122.557 83.6089 122.563 83.9613C122.438 85.0425 122.109 85.5907 121.52 86.4897C121.341 87.8483 121.486 88.6894 122.14 89.861C122.872 91.1916 123.014 92.4324 122.76 93.9297C122.556 94.2366 122.351 94.5435 122.14 94.8597C121.919 96.1888 122.381 96.9565 123.079 98.0384C123.823 99.3744 123.747 100.786 123.748 102.28C123.752 102.498 123.756 102.716 123.76 102.941C123.763 104.211 123.636 105.188 123.07 106.33C121.601 105.882 120.674 105.019 119.621 103.947C119.446 103.768 119.271 103.59 119.09 103.406C115.518 99.687 111.8 94.8825 111.29 89.5897C111.086 89.5897 110.881 89.5897 110.67 89.5897C110.67 89.7943 110.67 89.9989 110.67 90.2097C109.313 90.0531 108.557 89.2245 107.57 88.3497C107.468 89.7819 107.366 91.2141 107.26 92.6897C106.02 92.9997 106.02 92.9997 105.221 92.5553C104.948 92.3503 104.674 92.1453 104.393 91.9341C104.116 91.7299 103.84 91.5257 103.555 91.3153C103.345 91.1551 103.136 90.9948 102.92 90.8297C102.818 91.955 102.716 93.0803 102.61 94.2397C101.06 94.5497 101.06 94.5497 100.434 94.2409C100.251 94.0935 100.067 93.946 99.8782 93.7941C99.6908 93.6474 99.5034 93.5008 99.3103 93.3497C99.1716 93.2342 99.033 93.1187 98.8901 92.9997C99.0619 94.2692 99.3674 95.4331 99.7789 96.6456C101.295 101.12 101.295 101.12 100.459 103.404C99.5709 104.023 98.9044 104.06 97.833 104.006C93.9379 103.248 90.7016 99.7184 88.3501 96.7197C88.2478 96.5151 88.1455 96.3105 88.0401 96.0997C87.4716 96.2282 86.9033 96.3576 86.3351 96.4872C85.9631 96.5719 85.591 96.6567 85.2077 96.7439C84.4352 96.9283 83.6655 97.1244 82.8997 97.3349C74.6623 99.5775 65.7722 99.9448 57.3501 98.5797C57.6901 100.653 58.3366 102.177 59.4148 103.981C59.8318 104.783 60.0383 105.434 60.1401 106.33C59.8301 106.64 59.8301 106.64 58.9582 106.717C55.6326 106.662 52.2624 105.411 49.8035 103.17C48.5599 101.812 47.6415 100.264 47.1443 98.4901C46.6822 96.8425 46.3758 95.7853 44.8762 94.8609C44.0402 94.4929 43.1856 94.1828 42.3284 93.868C38.6546 92.4974 35.1649 89.9935 32.2401 87.4197C31.9624 87.1792 31.6847 86.9386 31.3985 86.6907C28.2793 83.9429 28.2793 83.9429 28.0745 82.3047C28.2289 81.0693 28.488 80.7314 29.4501 79.9797C29.2747 79.875 29.0993 79.7703 28.9185 79.6625C28.5774 79.4551 28.5774 79.4551 28.2295 79.2435C27.8896 79.0385 27.8896 79.0385 27.5429 78.8293C26.9701 78.4297 26.9701 78.4297 26.6601 77.8097C26.4784 75.5563 26.4784 75.5563 27.1651 74.7C32.8699 69.9633 42.8443 66.5203 50.2201 66.6497C50.2021 66.4092 50.1841 66.1686 50.1656 65.9207C49.9834 61.5578 51.4545 58.1741 54.2501 54.8697C54.4028 54.6855 54.5554 54.5013 54.7127 54.3115C55.1801 53.9397 55.1801 53.9397 56.4201 53.9397C56.54 54.2091 56.6599 54.4784 56.7834 54.7559C58.1642 58.2381 58.1642 58.2381 60.7601 60.7597C62.0671 60.8372 63.3772 60.7197 64.6805 60.6144C65.491 60.5807 66.1703 60.5705 66.9601 60.7597C67.4885 61.2824 67.8184 61.8021 68.1875 62.445C68.4824 63.0089 68.4824 63.0089 69.2173 63.0896C69.4443 63.0624 69.6712 63.0352 69.9051 63.0072C70.6329 63.0218 70.6329 63.0218 71.3001 63.2397C71.8637 64.0926 72.2032 64.9237 72.5486 65.8844C72.7698 66.6959 72.7698 66.6959 73.4701 66.9597C73.5277 66.7104 73.5852 66.461 73.6445 66.2041C74.763 63.4322 76.6779 61.7 79.3601 60.4497C80.4064 60.101 80.4064 60.101 81.2201 60.1397C81.9757 60.5466 81.9757 60.5466 82.4601 61.3797C82.4874 62.4315 82.3084 63.4421 82.1501 64.4797C82.0879 65.1123 82.0297 65.7452 81.9757 66.3785C81.9498 66.667 81.9238 66.9555 81.897 67.2528C81.8782 67.463 81.8595 67.6732 81.8401 67.8897C82.1214 67.6851 82.4028 67.4805 82.6926 67.2697C83.7001 66.6497 83.7001 66.6497 84.9401 66.6497C85.5539 68.1842 85.5539 68.1842 86.1801 69.7497C86.4307 69.6119 86.6812 69.474 86.9394 69.332C87.2706 69.1565 87.6019 68.9811 87.9432 68.8004C88.2705 68.6241 88.5978 68.4479 88.935 68.2663C89.9001 67.8897 89.9001 67.8897 91.4501 68.1997C91.757 69.8877 91.757 69.8877 92.0701 71.6097C92.3243 71.4271 92.5784 71.2445 92.8403 71.0563C93.1743 70.8234 93.5084 70.5904 93.8526 70.3504C94.1835 70.1166 94.5144 69.8828 94.8553 69.642C95.7901 69.1297 95.7901 69.1297 96.4779 69.1104C97.2816 69.5897 97.4984 70.1661 97.8826 71.0091C98.0153 71.294 98.1479 71.5789 98.2846 71.8725C98.3821 72.0927 98.4796 72.3129 98.5801 72.5397C98.7447 72.3607 98.9094 72.1817 99.079 71.9972C99.298 71.7671 99.517 71.5369 99.7426 71.2997C99.9584 71.0696 100.174 70.8394 100.397 70.6022C101.06 70.0597 101.06 70.0597 102.3 70.0597C102.828 70.5804 102.828 70.5804 103.308 71.261C103.469 71.484 103.63 71.7069 103.797 71.9367C104.16 72.5397 104.16 72.5397 104.16 73.1597C105.4 72.2388 106.306 71.2596 107.26 70.0597C108.314 70.4959 108.777 70.9986 109.43 71.9197C109.509 71.5643 109.509 71.5643 109.59 71.2016C109.84 70.0961 110.1 68.9929 110.36 67.8897C110.49 67.3149 110.49 67.3149 110.622 66.7284C111.794 61.871 114.157 58.462 117.49 54.8697C117.726 54.6111 117.726 54.6111 117.966 54.3472C118.416 53.8572 118.871 53.3741 119.331 52.8935C119.596 52.6161 119.861 52.3388 120.134 52.0531C120.9 51.4597 120.9 51.4597 121.773 51.3701Z" fill="#F2F2F2"/>
<path d="M35.4946 74.2647C38.1899 75.0801 40.7896 74.9855 43.4081 73.9923C45.2147 73.3662 46.9207 73.835 48.6139 74.5735C49.6089 75.2314 49.8581 75.8613 50.1167 77.0039C50.6972 81.5524 49.563 85.4927 47.2407 89.3712C46.7152 90.2369 46.7152 90.2369 46.8096 91.4503C47.1165 91.4503 47.4234 91.4503 47.7396 91.4503C48.1408 90.6564 48.5411 89.8619 48.9409 89.0672C49.054 88.8436 49.1671 88.6201 49.2836 88.3897C49.8532 87.2557 50.3937 86.1304 50.8396 84.9403C51.1338 85.2089 51.4279 85.4774 51.7309 85.7541C53.938 87.6504 56.0998 89.0017 59.0425 89.0139C59.4382 89.0199 59.8338 89.0259 60.2414 89.0321C60.8686 89.0411 61.4955 89.0478 62.1229 89.048C62.7301 89.049 63.3373 89.0604 63.9444 89.0721C64.307 89.075 64.6696 89.0779 65.0432 89.0808C66.5939 89.3945 67.2599 90.3783 68.1415 91.6247C69.0353 92.6207 70.0391 93.1797 71.2996 93.6203C71.7088 93.6203 72.118 93.6203 72.5396 93.6203C72.5442 93.4238 72.5487 93.2273 72.5533 93.0249C72.7667 84.7211 72.7667 84.7211 74.3028 81.7628C74.8782 80.5571 74.8405 79.7606 74.7096 78.4303C73.659 76.9833 71.7114 76.8618 70.0597 76.5703C68.7322 76.4434 67.4207 76.4229 66.0878 76.4347C65.5478 76.4366 65.5478 76.4366 64.9969 76.4384C61.6942 76.4922 58.55 77.0029 55.3234 77.6685C54.1441 77.8875 52.9633 78.0053 51.7696 78.1203C51.1109 76.6866 51.1109 76.6866 51.4596 75.6403C51.6395 75.6511 51.8193 75.6619 52.0046 75.673C53.6728 75.7308 54.6167 75.5066 56.1096 74.7103C57.0665 74.6147 57.6927 74.5608 58.5461 75.0216C60.193 75.7879 62.3176 75.4368 64.034 75.0203C67.8998 74.1661 71.8577 74.6486 75.6396 75.6403C76.1339 75.7622 76.6284 75.8832 77.123 76.0036C79.1519 76.5002 81.1776 77.0079 83.1935 77.5548C83.4013 77.6112 83.6091 77.6676 83.8232 77.7257C84.3754 77.8766 84.927 78.0299 85.4785 78.1833C87.7274 78.7327 89.8714 78.786 92.1774 78.7815C92.515 78.7818 92.8525 78.7821 93.2003 78.7824C93.9135 78.7826 94.6266 78.7821 95.3397 78.7808C96.4179 78.7791 97.496 78.7807 98.5742 78.7827C101.712 78.7836 104.825 78.7694 107.952 78.4994C109.157 78.4024 110.353 78.3953 111.561 78.411C111.778 78.4124 111.995 78.4138 112.218 78.4152C112.736 78.4187 113.253 78.4243 113.77 78.4303C113.872 78.7372 113.974 79.0441 114.08 79.3603C113.099 80.7482 111.972 81.7312 110.573 82.6928C110.384 82.8248 110.194 82.9567 109.999 83.0926C109.399 83.5068 108.796 83.9147 108.19 84.3203C107.907 84.5099 107.907 84.5099 107.619 84.7033C101.678 88.6459 95.385 91.5971 88.6596 93.9303C88.2208 94.0875 87.782 94.2449 87.3434 94.4026C84.5184 95.3891 81.6682 96.1237 78.7397 96.7203C78.4066 96.7912 78.4066 96.7912 78.0668 96.8635C70.8993 98.3414 62.9526 98.1744 55.7996 96.7203C55.5332 96.6688 55.2668 96.6172 54.9923 96.5641C45.6601 94.7202 37.7786 90.2434 30.6896 84.0103C30.4978 83.8557 30.306 83.701 30.1084 83.5417C29.7596 83.0803 29.7596 83.0803 29.7596 81.5303C30.6803 81.0188 31.601 80.5073 32.5496 79.9803C32.5496 79.6734 32.5496 79.3665 32.5496 79.0503C32.1966 78.9604 32.1966 78.9604 31.8364 78.8687C31.5283 78.788 31.2202 78.7073 30.9028 78.6241C30.4442 78.5054 30.4442 78.5054 29.9764 78.3843C29.1396 78.1203 29.1396 78.1203 28.2096 77.5003C27.9965 76.7835 27.9965 76.7835 28.2096 75.9503C28.9701 75.3101 29.8133 74.8631 30.6896 74.4003C31.0157 74.2085 31.3418 74.0167 31.6778 73.8191C33.0594 73.2664 34.144 73.786 35.4946 74.2647Z" fill="#606C38"/>
<path d="M120.28 54.25C120.728 55.1454 120.582 55.9644 120.541 56.9504C120.596 57.7452 120.833 58.2067 121.21 58.9C121.307 59.675 121.307 59.675 121.21 60.45C120.98 60.7185 120.98 60.7185 120.745 60.9925C120.03 62.0652 120.102 63.2242 120.28 64.48C120.485 64.7869 120.689 65.0938 120.9 65.41C120.904 66.0784 120.904 66.0784 120.803 66.805C120.757 67.1646 120.757 67.1646 120.71 67.5316C120.59 68.2 120.59 68.2 120.28 69.13C120.161 70.9544 120.357 71.8345 121.21 73.47C121.327 74.4387 121.327 74.4387 121.21 75.33C121.057 75.5154 120.903 75.7008 120.745 75.8919C120.005 76.9715 120.144 78.0896 120.28 79.36C120.383 79.6605 120.485 79.961 120.59 80.2706C121.143 81.9641 121.212 83.6704 120.435 85.2887C120.205 85.7299 120.205 85.7299 119.97 86.18C119.756 88.0476 120.12 89.1083 120.932 90.7755C121.337 91.7562 121.335 92.5769 121.21 93.62C121.006 93.9269 120.801 94.2338 120.59 94.55C120.387 96.0003 120.584 96.7905 121.365 97.9794C122.501 99.8228 122.274 101.755 122.14 103.85C116.709 99.6257 112.483 92.7425 111.6 85.87C111.524 85.5056 111.447 85.1411 111.368 84.7656C111.711 83.1933 112.736 82.5483 113.962 81.5651C114.908 80.7257 115.265 80.122 115.417 78.8756C115.38 78.1219 115.38 78.1219 114.967 77.6126C113.385 76.4533 110.158 77.1776 108.254 77.3032C104.693 77.5318 101.134 77.5682 97.567 77.5745C96.5258 77.5775 95.4848 77.5872 94.4437 77.5969C89.0852 77.6231 84.5005 76.8688 79.3603 75.33C78.3928 75.0477 77.4237 74.7714 76.454 74.4969C76.2255 74.4304 75.997 74.3639 75.7615 74.2954C71.6352 73.1291 67.4055 73.2221 63.2124 73.9495C61.2666 74.2525 59.7871 74.235 57.9703 73.47C56.7308 73.3573 56.0256 73.3448 54.9284 73.9544C53.159 74.7523 51.5653 74.341 49.7734 73.7207C49.2178 73.5103 49.2178 73.5103 48.6509 73.2956C46.3381 72.4321 44.7009 72.1405 42.3734 73.005C39.9816 73.8888 37.4013 73.7122 35.0303 72.85C35.0303 72.6454 35.0303 72.4408 35.0303 72.23C41.4088 69.5519 47.0434 68.1339 53.979 68.1419C54.3549 68.1418 54.3549 68.1418 54.7383 68.1418C58.297 68.1456 61.8396 68.242 65.3909 68.4713C65.768 68.4956 66.1451 68.5199 66.5336 68.5449C69.074 68.7282 71.5737 69.05 74.0903 69.44C74.1637 69.126 74.1637 69.126 74.2387 68.8057C75.0014 65.6811 76.6834 63.7225 79.3554 61.9988C79.9803 61.69 79.9803 61.69 80.9103 61.69C80.8879 61.901 80.8655 62.112 80.8425 62.3294C80.5852 65.0164 80.5695 67.6744 80.6003 70.37C80.7593 70.4156 80.9184 70.4611 81.0822 70.508C82.3855 70.8898 83.6796 71.289 84.9633 71.7323C88.1169 72.8198 91.2652 73.7886 94.5503 74.4C94.8484 74.4561 95.1466 74.5122 95.4538 74.57C98.7089 75.1112 101.916 75.0908 105.207 75.0588C105.769 75.0556 106.332 75.0528 106.895 75.0503C108.257 75.0435 109.618 75.0329 110.98 75.02C111.01 74.7185 111.01 74.7185 111.041 74.4108C111.901 66.0758 114.209 60.1502 120.28 54.25Z" fill="#606C38"/>
<path d="M72.8502 78.4297C73.1571 78.7366 73.1571 78.7366 73.4702 79.0497C73.3978 80.751 72.8274 82.2003 72.2266 83.782C71.8302 84.8785 71.5575 85.9733 71.3002 87.1097C71.072 86.9826 70.8438 86.8555 70.6087 86.7246C70.3062 86.5575 70.0037 86.3905 69.6921 86.2184C69.3936 86.053 69.0951 85.8875 68.7875 85.7171C67.3426 84.9644 66.2323 84.555 64.5916 84.534C64.0935 84.5223 64.0935 84.5223 63.5853 84.5104C62.8951 84.4996 62.2049 84.4899 61.5146 84.4813C58.5425 84.4083 56.2839 84.0776 54.0758 81.9559C53.8133 81.7089 53.5507 81.462 53.2802 81.2075C52.7002 80.5997 52.7002 80.5997 52.7002 80.2897C55.8632 80.1503 58.5686 80.3167 61.6054 81.233C62.7813 81.5767 63.8828 81.7403 65.1002 81.8397C64.9467 81.3793 64.9467 81.3793 64.7902 80.9097C63.9519 80.5892 63.153 80.3308 62.2908 80.0959C61.9471 79.9952 61.9471 79.9952 61.5963 79.8925C60.0802 79.4627 58.6076 79.2098 57.0402 79.0497C61.1184 76.7052 68.4063 77.4408 72.8502 78.4297Z" fill="#606C38"/>
<path d="M55.1803 56.1104C56.0978 56.5691 56.2179 57.258 56.6334 58.1835C57.5547 60.0849 58.5208 61.3456 60.4503 62.3104C61.6152 62.277 62.778 62.2409 63.9408 62.162C65.7954 62.1058 65.7954 62.1058 66.5034 62.7224C66.8697 63.1995 67.2254 63.6847 67.5803 64.1704C68.2951 64.4175 68.2951 64.4175 69.014 64.4222C69.7418 64.5324 69.7418 64.5324 70.3703 64.7904C70.8943 65.6791 71.1194 66.5698 71.3003 67.5804C70.6543 67.5365 70.0085 67.491 69.3628 67.4447C69.0031 67.4196 68.6435 67.3944 68.2729 67.3684C67.4842 67.2913 66.7868 67.1832 66.0303 66.9604C65.8768 65.7328 65.8768 65.7328 65.7203 64.4804C65.4134 64.4804 65.1065 64.4804 64.7903 64.4804C64.688 65.2988 64.5857 66.1172 64.4803 66.9604C63.7642 66.9604 63.0481 66.9604 62.3103 66.9604C62.3103 66.0397 62.3103 65.119 62.3103 64.1704C61.9011 64.0681 61.4919 63.9658 61.0703 63.8604C60.968 64.7811 60.8657 65.7018 60.7603 66.6504C60.1465 66.6504 59.5327 66.6504 58.9003 66.6504C58.9003 65.3205 58.9003 63.9906 58.9003 62.6204C58.2865 62.9273 58.2865 62.9273 57.6603 63.2404C57.4421 64.0612 57.4421 64.0612 57.4278 64.9841C57.4102 65.295 57.3926 65.6059 57.3745 65.9262C57.3665 66.1652 57.3585 66.4041 57.3503 66.6504C56.5319 66.6504 55.7135 66.6504 54.8703 66.6504C54.9144 66.1142 54.9599 65.5782 55.0059 65.0422C55.0311 64.7437 55.0562 64.4452 55.0822 64.1377C55.1803 63.2404 55.1803 63.2404 55.3449 62.4266C55.5373 61.452 55.5097 60.5108 55.4903 59.5204C55.1834 59.5204 54.8765 59.5204 54.5603 59.5204C54.5204 59.7782 54.5204 59.7782 54.4798 60.0414C54.3587 60.8236 54.2367 61.6057 54.1146 62.3879C54.0729 62.6584 54.0311 62.9289 53.9881 63.2077C53.9471 63.4694 53.9062 63.7311 53.864 64.0008C53.8266 64.2411 53.7893 64.4814 53.7508 64.7289C53.6357 65.3793 53.4888 66.0119 53.3203 66.6504C52.8088 66.6504 52.2973 66.6504 51.7703 66.6504C51.4641 62.4325 52.7086 59.4739 55.1803 56.1104Z" fill="#606C38"/>
<path d="M51.4605 81.5303C51.6651 81.5303 51.8697 81.5303 52.0805 81.5303C52.2403 81.7477 52.4002 81.965 52.5648 82.189C54.1771 84.0907 56.1298 85.1612 58.5905 85.5603C60.0216 85.6711 61.4545 85.6881 62.8893 85.7086C64.7403 85.7612 66.2134 86.0095 67.8905 86.8003C68.2166 86.9509 68.5426 87.1016 68.8786 87.2568C69.7878 87.7708 70.5517 88.2391 71.3005 88.9703C71.5844 90.0585 71.5188 90.974 71.3005 92.0703C69.9896 91.6565 69.429 91.1742 68.6461 90.0553C67.945 89.0578 67.4844 88.4785 66.3405 88.0403C65.36 87.9516 65.36 87.9516 64.2722 87.9664C63.8678 87.9614 63.4634 87.9564 63.0467 87.9513C62.4087 87.9462 61.7709 87.9434 61.1328 87.9456C58.5329 87.949 56.5827 87.9152 54.5605 86.1803C54.391 86.0517 54.2216 85.9231 54.047 85.7906C53.0302 84.9976 52.1636 84.1621 51.4605 83.0803C51.383 82.2084 51.383 82.2084 51.4605 81.5303Z" fill="#606C38"/>
<path d="M97.0298 92.3799C97.0826 92.5981 97.1353 92.8163 97.1897 93.0411C97.7184 95.1952 98.3105 97.3191 98.9613 99.4396C99.1981 100.433 99.2444 101.283 99.1998 102.3C96.9075 102.456 95.4432 101.422 93.6198 100.13C92.1651 98.8479 90.6131 97.454 89.5898 95.7899C89.6921 95.483 89.7944 95.1761 89.8998 94.8599C90.5404 94.6334 90.5404 94.6334 91.3142 94.4918C91.5704 94.4426 91.8265 94.3935 92.0904 94.3428C92.2882 94.3088 92.486 94.2749 92.6898 94.2399C92.8509 94.5576 93.0119 94.8753 93.1779 95.2026C93.3961 95.6245 93.6145 96.0463 93.833 96.468C93.9383 96.6768 94.0436 96.8856 94.1521 97.1007C94.8436 98.4256 95.5525 99.4687 96.7198 100.44C97.0267 100.44 97.3336 100.44 97.6498 100.44C97.469 99.4354 97.1759 98.9376 96.468 98.2118C95.2375 96.839 94.2398 95.189 94.2398 93.3099C95.9836 92.3799 95.9836 92.3799 97.0298 92.3799Z" fill="#606C38"/>
<path d="M48.0498 96.0996C49.1235 96.2019 49.9288 96.444 50.8398 97.0296C51.7448 98.4075 52.3713 99.8537 53.0098 101.37C53.2125 101.785 53.417 102.199 53.6298 102.61C54.039 102.61 54.4482 102.61 54.8698 102.61C54.7111 101.221 54.1817 100.58 53.3198 99.5096C52.9323 98.4827 52.9323 98.4827 52.6998 97.6496C53.6205 97.7519 54.5412 97.8542 55.4898 97.9596C55.5729 98.2537 55.656 98.5478 55.7417 98.8509C56.5732 101.859 56.5732 101.859 57.6598 104.78C54.6237 104.611 52.2275 103.377 50.1459 101.16C49.0473 99.7107 48.0498 97.9465 48.0498 96.0996Z" fill="#606C38"/>
<path d="M57.9704 74.7102C58.3837 74.9169 58.7971 75.1236 59.2104 75.3302C60.0362 75.4753 60.8551 75.5567 61.6904 75.6402C61.6904 75.9471 61.6904 76.254 61.6904 76.5702C60.5605 76.7719 59.4302 76.9715 58.2998 77.1709C57.9831 77.2274 57.6664 77.284 57.3401 77.3422C55.4862 77.668 53.6437 77.9347 51.7704 78.1202C51.1117 76.6865 51.1117 76.6865 51.4604 75.6402C51.6402 75.651 51.8201 75.6618 52.0053 75.6729C54.2153 75.7495 55.8245 74.477 57.9704 74.7102Z" fill="#606C38"/>
<path d="M36.89 76.2598C37.8587 76.376 37.8587 76.376 38.75 76.5698C39.1618 78.2544 39.1618 78.2544 38.7112 79.0304C38.13 79.3598 38.13 79.3598 37.3356 79.3016C36.58 79.0498 36.58 79.0498 35.96 78.4298C36.0622 77.4076 36.153 76.9967 36.89 76.2598Z" fill="#EEEEEE"/>
<path d="M105.71 87.7305C105.71 88.6512 105.71 89.5719 105.71 90.5205C104.47 89.9005 104.47 89.9005 103.54 89.2805C103.54 89.0759 103.54 88.8713 103.54 88.6605C104.899 87.7305 104.899 87.7305 105.71 87.7305Z" fill="#606C38"/>
<path d="M96.1001 71.2998C96.5529 72.1205 96.7201 72.5071 96.7201 73.4698C95.6971 73.2652 94.6741 73.0606 93.6201 72.8498C95.1201 71.2998 95.1201 71.2998 96.1001 71.2998Z" fill="#606C38"/>
<path d="M90.2105 69.75C90.3128 70.4661 90.4151 71.1822 90.5205 71.92C89.1394 71.6131 89.1394 71.6131 87.7305 71.3C89.2805 69.75 89.2805 69.75 90.2105 69.75Z" fill="#606C38"/>
<path d="M101.06 72.2305C101.367 72.2305 101.674 72.2305 101.99 72.2305C102.195 72.742 102.4 73.2535 102.61 73.7805C101.69 73.7805 100.769 73.7805 99.8203 73.7805C100.382 73.0055 100.382 73.0055 101.06 72.2305Z" fill="#606C38"/>
<path d="M109.74 85.25C109.638 86.0684 109.535 86.8868 109.43 87.73C108.918 87.2185 108.407 86.707 107.88 86.18C109.042 85.25 109.042 85.25 109.74 85.25Z" fill="#606C38"/>
<path d="M107.26 72.2305C107.465 72.2305 107.669 72.2305 107.88 72.2305C108.384 73.0055 108.384 73.0055 108.81 73.7805C107.992 73.7805 107.173 73.7805 106.33 73.7805C106.756 73.0055 106.756 73.0055 107.26 72.2305Z" fill="#606C38"/>
<path d="M101.06 90.5195C101.06 91.1333 101.06 91.7471 101.06 92.3795C100.285 91.9533 100.285 91.9533 99.5098 91.4495C99.5098 91.2449 99.5098 91.0403 99.5098 90.8295C100.13 90.5195 100.13 90.5195 101.06 90.5195Z" fill="#606C38"/>
</g>
<defs>
<clipPath id="clip0_233_1129">
<rect width="155" height="155" rx="77.5" fill="white"/>
</clipPath>
</defs>
</svg>
