<svg width="186" height="186" viewBox="0 0 186 186" fill="none" xmlns="http://www.w3.org/2000/svg">
<path d="M87.2344 15.6244C66.6628 16.8892 45.9796 27.6028 33.034 43.6732C18.0424 62.2732 12.2392 85.6348 16.9264 108.587C23.9572 142.811 53.122 168.293 87.718 170.339C110.708 171.716 132.023 163.829 147.684 148.094C183.173 112.493 176.589 53.7916 134.106 27.1192C126.146 22.1344 116.846 18.5632 106.541 16.5544C104.086 16.0708 93.3352 15.1408 92.0704 15.3268C91.8844 15.3268 89.6896 15.4756 87.2344 15.6244ZM83.2168 37.0516C87.3088 44.752 86.8252 51.6712 81.6544 60.1156L79.8688 63.0544L80.7244 67.3324C81.8032 72.6892 82.1752 73.6936 82.1752 71.35C82.2496 66.142 84.556 59.8552 87.5692 56.6188C89.4292 54.6472 93.0748 52.564 95.3812 52.192L96.832 51.9688L96.6088 55.8376C95.9392 66.6628 91.438 74.2516 84.556 76.2976C83.6632 76.558 82.9564 76.93 82.9564 77.1532C82.9564 77.7112 86.1556 90.1732 86.8252 92.2564L87.346 93.9304L87.3832 92.1448C87.4948 87.2344 89.4664 81.7288 92.2936 78.3808C94.5628 75.7396 101.891 70.8664 102.561 71.536C102.71 71.6848 102.821 73.6936 102.821 76C102.821 80.7244 102.189 83.5144 100.329 87.346C98.2456 91.624 93.3724 95.6044 89.4292 96.2368C88.7224 96.3484 88.1644 96.5716 88.1644 96.7576C88.1644 97.9852 93.1864 111.005 95.0836 114.651L95.7904 116.027L95.6788 112.754C95.3812 106.02 97.2412 100.552 101.296 96.1252C103.119 94.1536 108.401 90.0244 109.145 90.0244C109.554 90.0244 110.112 94.1164 110.112 97.4272C110.112 106.355 105.872 114.204 99.5104 117.032C98.1712 117.627 97.0924 118.259 97.0924 118.445C97.0924 119.003 99.3244 122.76 102.412 127.299C105.128 131.391 106.467 132.99 105.909 131.614C105.239 129.791 104.83 126.071 104.979 122.946C105.165 119.822 105.314 119.115 106.653 116.362C108.066 113.386 111.414 108.81 113.758 106.616L114.874 105.574L115.432 106.43C116.548 108.141 117.627 112.196 117.813 115.172C118.296 122.24 115.32 128.898 110.001 132.804C108.81 133.697 107.918 134.516 107.955 134.702C108.141 135.222 115.134 142.923 117.738 145.452L120.231 147.87L119.301 146.01C116.436 140.244 116.027 134.33 118.185 129.196C119.226 126.704 121.756 122.649 123.542 120.528L124.323 119.636L125.03 120.528C127.596 123.951 129.084 128.452 129.084 132.99C129.084 138.496 127.448 142.625 123.765 146.457L121.533 148.8L122.5 149.842C123.058 150.437 123.504 150.995 123.504 151.144C123.504 151.888 122.277 151.107 119.636 148.652L116.66 145.899L114.8 146.94C110.968 149.098 106.653 149.656 101.742 148.614C98.878 147.982 92.6656 145.08 89.8756 142.997L88.09 141.658L89.5036 140.765C92.8144 138.756 96.4228 137.529 99.6592 137.343C103.677 137.12 105.983 137.678 109.48 139.649L112.307 141.249L108.885 137.306C106.988 135.111 105.053 132.804 104.532 132.098L103.602 130.87L101.184 131.726C94.3396 134.069 87.4204 131.726 79.72 124.472L76.8556 121.756L78.046 121.124C79.906 120.156 84.6676 119.04 86.8996 119.04C90.8056 119.04 94.6744 120.789 98.3572 124.211L99.808 125.55L98.6176 123.504C97.9852 122.388 96.5716 119.747 95.4928 117.627L93.5584 113.795L92.0704 114.093C89.5036 114.614 84.4072 114.428 82.2124 113.758C78.0832 112.456 72.8752 108.587 68.9692 103.826L66.9232 101.37L68.0392 100.924C68.6344 100.664 70.6804 100.254 72.5404 100.031C80.1664 99.064 84.928 101.222 90.7312 108.252C91.252 108.922 91.0288 107.992 89.8384 104.83C88.9456 102.412 87.5692 98.3944 86.8252 95.8648L85.486 91.252L83.3656 91.7356C80.65 92.4052 78.4924 92.368 75.5536 91.6984C71.4244 90.694 68.3368 88.7968 63.9472 84.4444C61.7524 82.2868 59.7808 80.1664 59.5576 79.6828C59.1856 78.9388 59.2228 78.8272 60.0412 78.5296C60.5248 78.3064 62.608 77.9716 64.6168 77.7112C67.4812 77.3392 68.8204 77.3392 70.5316 77.674C75.256 78.604 79.5712 81.58 82.8076 86.1556C83.7376 87.4576 84.556 88.5364 84.5932 88.5364C84.5932 88.5364 83.8492 85.3 82.882 81.3568C81.9148 77.4508 81.022 73.8796 80.9476 73.4704C80.7616 72.7636 80.4268 72.7264 76.558 72.7264C72.7264 72.6892 72.094 72.6148 69.49 71.536C67.9276 70.9036 65.584 69.6388 64.282 68.746C61.5292 66.7744 57.1768 62.2732 55.2796 59.4832C53.68 57.1024 53.68 57.1396 58.4044 56.7676C64.9144 56.2096 70.6432 58.3672 75.07 63.0172C76.4836 64.5424 78.1204 66.5512 78.6784 67.4812C79.2364 68.4484 79.7572 69.1552 79.8688 69.0808C79.9432 69.0064 79.6828 67.5184 79.3108 65.8072C78.8272 63.724 78.1948 62.0872 77.3764 60.8596C74.5492 56.7304 73.4332 51.0016 74.4376 46.054C75.2188 42.2596 80.092 33.592 81.208 33.964C81.4684 34.0384 82.3612 35.4148 83.2168 37.0516Z" fill="#DDA15E"/>
</svg>
