<svg width="186" height="186" viewBox="0 0 186 186" fill="none" xmlns="http://www.w3.org/2000/svg">
<path d="M87.2335 15.4752C60.6355 17.6328 36.9763 32.9964 24.6259 56.172C13.1683 77.6736 12.2755 102.635 22.2079 124.843C33.8515 150.846 59.4079 168.628 87.7171 170.339C110.93 171.752 131.948 163.792 148.428 147.312C166.06 129.716 174.17 102.709 169.26 78.1572C162.712 45.6444 137.342 21.3156 104.606 16.182C100.812 15.624 90.8047 15.1776 87.2335 15.4752ZM58.1431 40.362C58.7011 41.7756 59.6683 43.6356 60.2635 44.454C62.7931 47.9136 62.6443 47.3556 61.7887 49.6248C60.1519 54.0516 60.0775 56.73 61.1935 69.75C61.8259 76.8924 62.2723 84.3324 62.2723 88.35L62.3095 95.046L61.0447 97.464C58.6639 102.04 53.7163 107.173 49.1035 109.814C44.6023 112.418 39.2455 113.014 33.7399 111.637C30.0571 110.67 28.1971 109.703 25.7791 107.396C19.9387 101.891 19.9387 93.2976 25.7791 84.3696C26.8207 82.77 27.7135 81.5424 27.7879 81.6168C27.8623 81.6912 27.3787 83.2908 26.7463 85.2252C25.8907 87.7548 25.5187 89.652 25.3699 92.1444C25.2211 95.3064 25.2583 95.7528 26.1511 97.5384C27.8623 100.998 32.1403 102.932 38.8735 103.304C47.7643 103.788 55.8739 100.44 57.2875 95.7156C57.5479 94.9344 57.8083 91.884 57.9199 88.908C58.2175 80.8728 56.8783 69.0804 53.7163 51.6336L52.4143 44.3052L54.5347 40.734C55.7251 38.7996 56.8039 37.3116 56.9155 37.4604C57.0643 37.6464 57.6223 38.9112 58.1431 40.362ZM103.49 50.5176C104.42 53.2704 104.866 57.6972 105.276 69.192C105.499 74.8092 105.834 80.7612 106.057 82.398C107.173 91.1772 109.479 95.6412 113.497 96.72C115.84 97.3524 126.889 97.278 130.237 96.6084C133.436 95.976 137.156 94.5252 139.239 93.1488C140.578 92.256 140.653 92.1444 140.02 91.7352C138.718 90.8424 131.725 88.2012 129.493 87.7548C124.396 86.7504 120.676 87.6432 116.473 90.8052C115.431 91.5864 114.576 92.07 114.576 91.884C114.576 91.1772 116.361 87.5316 117.886 85.1136C121.569 79.2732 125.512 77.2644 131.316 78.2688C134.701 78.864 136.412 79.608 144.373 83.7744C151.366 87.4572 153.152 88.0152 159.55 88.536C162.08 88.722 164.2 88.9452 164.312 89.0196C164.386 89.1312 163.196 91.14 161.634 93.4836L158.769 97.7616L153.338 97.9104L147.87 98.0592L140.43 100.552C128.898 104.42 124.992 105.313 119.04 105.536C114.501 105.722 113.794 105.648 111.823 104.904C109.442 103.974 106.801 101.816 105.424 99.6216C102.895 95.6412 101.63 88.2756 101.295 76.1484C101.184 71.6844 100.923 67.9644 100.774 67.8528C100.44 67.6668 100.402 67.89 98.5795 75.702C96.1243 86.3784 92.8135 94.86 89.5027 99.0264C82.9927 107.21 70.0843 112.307 58.1803 111.414C54.4603 111.154 54.1999 110.893 56.7295 110.112C60.0403 109.07 66.6247 106.206 70.1215 104.234C81.9883 97.6128 90.5443 87.8664 94.0783 77.004C94.4875 75.6648 95.8639 70.0476 97.0915 64.542C99.2491 54.9816 100.626 49.1412 101.035 48.0252C101.37 47.058 102.82 48.546 103.49 50.5176ZM67.0711 55.0932C71.9443 57.5856 75.8875 60.5988 79.1611 64.5048C81.5791 67.3692 84.3319 73.284 85.1875 77.4132C85.9315 80.91 86.2291 87.9036 85.6339 87.234C85.4479 87.0108 84.9271 85.7832 84.4435 84.444C83.0299 80.4636 80.9095 76.5576 79.1239 74.5488C77.2639 72.4656 75.2923 71.3124 70.7539 69.564C67.4059 68.262 65.7691 67.1088 64.8391 65.3232C63.7603 63.2772 63.4255 53.94 64.4299 53.94C64.6159 53.94 65.8063 54.4608 67.0711 55.0932ZM87.7915 142.364C87.7915 142.439 86.9359 142.476 85.8943 142.402L84.0343 142.29L82.9927 139.872L81.9883 137.454H78.6775H75.3667L74.3995 139.872C73.8043 141.323 73.1719 142.327 72.7999 142.402C72.4651 142.476 72.1675 142.327 72.1675 142.03C72.1675 141.546 78.9751 123.839 79.4587 123.058C79.6447 122.76 87.7915 141.658 87.7915 142.364ZM113.98 132.544C116.138 137.826 117.924 142.216 117.924 142.327C117.924 142.402 117.105 142.476 116.101 142.476H114.278L113.199 139.872L112.158 137.268L108.847 137.342L105.536 137.454L104.569 139.835C103.602 142.216 102.858 142.997 102.486 142.03C102.374 141.732 103.788 137.677 105.648 132.953C109.628 122.909 109.74 122.611 109.888 122.797C109.963 122.872 111.786 127.261 113.98 132.544ZM57.9571 127.484L58.0687 131.688H61.9375H65.8435V127.41V123.132H67.5175H69.1915V132.804V142.476H67.5175H65.8435V138.012V133.548H61.9375H58.0315V138.012V142.476H56.1715H54.3115V132.767V123.095L56.0971 123.206L57.8455 123.318L57.9571 127.484ZM93.8923 124.508C94.0039 125.29 94.1155 129.307 94.1155 133.436V140.988H97.8727C101.221 140.988 101.593 141.062 101.481 141.62C101.37 142.216 100.737 142.29 95.8639 142.402L90.3955 142.513V133.064C90.3955 127.856 90.5071 123.504 90.6559 123.392C90.7675 123.244 91.5115 123.132 92.2555 123.132C93.5575 123.132 93.6691 123.206 93.8923 124.508ZM123.987 128.228C124.136 131.018 124.248 135.036 124.248 137.156V140.988H128.005C131.353 140.988 131.725 141.062 131.613 141.62C131.502 142.216 130.869 142.29 125.996 142.402L120.528 142.513V133.064C120.528 127.856 120.639 123.504 120.788 123.392C120.9 123.244 121.644 123.132 122.388 123.132H123.764L123.987 128.228Z" fill="#283618"/>
<path d="M77.413 132.432C76.7806 134.106 76.2598 135.632 76.2598 135.818C76.2598 136.004 77.4502 136.152 78.8638 136.152C80.3146 136.152 81.4678 136.078 81.4678 135.966C81.4678 135.632 79.1242 130.014 78.8266 129.717C78.715 129.531 78.0454 130.758 77.413 132.432Z" fill="#283618"/>
<path d="M108.289 130.609C108.103 131.093 107.619 132.395 107.173 133.474C106.726 134.552 106.392 135.594 106.392 135.78C106.392 136.189 108.698 136.264 110.409 135.929L111.525 135.706L110.446 133.064C109.107 129.828 108.772 129.419 108.289 130.609Z" fill="#283618"/>
</svg>
