<svg width="186" height="186" viewBox="0 0 186 186" fill="none" xmlns="http://www.w3.org/2000/svg">
<path d="M86.8935 15.3217C66.3219 16.5865 45.6387 27.3 32.6931 43.3705C17.7015 61.9705 11.8983 85.3321 16.5855 108.284C23.6163 142.508 52.7811 167.99 87.3771 170.036C110.367 171.413 131.682 163.526 147.344 147.791C182.832 112.19 176.248 53.4889 133.766 26.8165C125.805 21.8316 116.505 18.2605 106.2 16.2516C103.745 15.7681 92.9943 14.8381 91.7295 15.024C91.5435 15.024 89.3487 15.1729 86.8935 15.3217ZM75.6963 54.828C75.8079 55.3117 75.9567 60.3708 75.9939 66.0997C76.0683 71.8285 76.2543 76.7017 76.4031 76.9621C76.7379 77.4828 77.6307 76.9993 84.9219 72.312C87.8235 70.3777 92.1015 67.6621 94.3335 66.174C96.6027 64.7233 101.774 61.3753 105.866 58.7713L113.306 54.0097L126.14 54.0469C133.208 54.0469 139.234 54.1585 139.606 54.3073C140.201 54.5676 136.444 57.5809 113.343 75.2881C108.47 79.008 104.378 82.2817 104.303 82.5421C104.08 83.0629 106.312 85.7041 114.05 94.1857C116.765 97.1617 122.234 103.188 126.177 107.578C130.12 111.967 136.704 119.296 140.796 123.871C144.926 128.447 148.348 132.316 148.385 132.539C148.46 132.725 140.09 132.874 126.437 132.874H104.34L102.108 130.195C100.918 128.707 99.1695 126.624 98.2395 125.582C97.3095 124.541 92.5107 118.961 87.6003 113.12C78.0771 101.923 76.8495 100.584 76.4031 101.03C76.2171 101.179 76.0683 108.433 75.9939 117.101L75.8823 132.874H59.5515H43.1835V94.0368C43.1835 72.6841 43.2951 54.9397 43.4067 54.6049C43.5927 54.0841 45.3783 54.0097 59.5887 54.0097H75.5475L75.6963 54.828Z" fill="#BC6C25"/>
</svg>
