<svg width="186" height="186" viewBox="0 0 186 186" fill="none" xmlns="http://www.w3.org/2000/svg">
<path d="M87.2344 15.6244C66.6628 16.8892 45.9796 27.6028 33.034 43.6732C18.0424 62.2732 12.2392 85.6348 16.9264 108.587C23.9572 142.811 53.122 168.293 87.718 170.339C110.708 171.716 132.023 163.829 147.684 148.094C183.173 112.493 176.589 53.7916 134.106 27.1192C126.146 22.1344 116.846 18.5632 106.541 16.5544C104.086 16.0708 93.3352 15.1408 92.0704 15.3268C91.8844 15.3268 89.6896 15.4756 87.2344 15.6244ZM99.064 50.1832C105.425 52.378 111.414 57.1768 114.576 62.5708C115.953 64.9516 116.548 65.584 117.924 66.2536C120.156 67.2952 122.574 67.072 124.658 65.6212C133.846 59.1112 139.352 57.0652 146.68 57.4C148.689 57.4744 150.512 57.7348 150.735 57.958C150.995 58.2184 150.921 59.26 150.474 61.4548C148.503 71.3128 141.509 77.3392 130.052 79.0876C125.997 79.6828 123.616 79.4968 121.83 78.4552C119.673 77.116 119.524 77.3392 119.264 81.7288C118.631 91.624 116.846 99.7708 112.27 113.274C108.736 123.728 108.55 125.327 110.261 130.163C110.782 131.688 111.414 134.367 111.638 136.152C112.01 139.128 112.01 139.538 111.303 141.1C110.001 144.039 106.727 145.862 100.44 147.126C96.1624 147.982 87.0112 147.759 83.068 146.643C74.1772 144.188 72.3544 140.207 75.5908 130.2C77.3392 124.806 77.2276 123.839 73.7308 113.46C69.2296 100.143 67.4068 91.996 66.7372 82.2868L66.4768 78.418L65.1376 78.604C64.3936 78.7156 63.0172 78.976 62.0872 79.1992C60.2272 79.6084 55.54 79.2736 52.2664 78.4924C51.262 78.232 48.844 77.302 46.9468 76.372C40.0276 73.0984 35.7496 66.886 35.266 59.3344C35.1544 57.8836 35.1916 57.8836 36.6424 57.586C43.4128 56.3584 50.518 58.33 58.516 63.724C63.5008 67.1092 65.026 67.5184 67.8904 66.4024C69.2296 65.9188 69.7504 65.4352 70.3456 64.2448C71.6848 61.6036 74.2888 58.1812 76.4464 56.284C78.7156 54.238 83.7004 51.2992 86.7508 50.2204C89.5408 49.216 96.1624 49.1788 99.064 50.1832Z" fill="#4B231B"/>
<path d="M88.9088 55.6892C80.0924 57.1772 76.5584 58.1072 75.5168 59.2232C74.2892 60.5624 74.5868 61.5668 76.9304 64.0964C80.7248 68.1884 81.4316 69.8996 82.3988 77.9348C83.1428 83.8496 84.0356 86.528 87.3464 93.0008C90.3224 98.8412 90.992 101.482 90.6572 106.17C90.1364 113.386 87.2348 119.004 80.204 126.444C78.4184 128.304 77.0048 129.978 77.0048 130.201C77.0048 130.87 77.7488 130.61 79.1624 129.457C80.8736 128.118 85.4492 125.997 88.1648 125.328C91.0292 124.621 96.758 124.732 99.4736 125.514C102.71 126.481 105.574 128.043 107.806 130.015C111.266 133.102 109.852 130.87 105.277 125.96C98.5064 118.706 96.1628 114.279 95.27 107.174C94.6004 101.817 95.27 99.0272 99.1388 91.6616C102.078 86.0072 102.412 84.8168 103.528 76.9304C104.607 69.4532 105.388 67.556 108.848 64.1708C112.345 60.7484 111.973 58.8884 107.62 58.0328C106.43 57.8096 104.868 57.4004 104.124 57.1028C100.552 55.7264 92.852 55.0196 88.9088 55.6892Z" fill="#4B231B"/>
<path d="M70.3454 77.9715C68.5598 80.2407 69.8246 84.0723 72.3542 84.0723C74.0282 84.0723 75.1442 82.6587 75.1442 80.5383C75.1442 78.4179 74.0282 77.0043 72.3542 77.0043C71.4614 77.0043 70.9034 77.2647 70.3454 77.9715Z" fill="#4B231B"/>
<path d="M112.195 77.7111C110.112 80.0175 111.303 84.0723 114.055 84.0723C115.692 84.0723 116.808 82.6587 116.808 80.5383C116.808 78.4179 115.692 77.0043 114.055 77.0043C113.311 77.0043 112.567 77.3019 112.195 77.7111Z" fill="#4B231B"/>
<path d="M78.4928 133.66C77.3024 134.59 76.6328 135.966 76.6328 137.566C76.6328 139.723 77.5256 141.286 79.088 141.955C80.1668 142.402 80.5388 142.402 81.5804 141.993C83.6264 141.1 84.2588 140.095 84.2588 137.566C84.2588 135.52 84.1472 135.259 83.0312 134.255C81.7292 133.102 79.5716 132.804 78.4928 133.66Z" fill="#4B231B"/>
<path d="M102.3 134.218C98.6547 137.864 103.007 144.485 107.062 141.472C110.41 138.98 108.885 133.176 104.904 133.176C103.714 133.176 103.119 133.4 102.3 134.218Z" fill="#4B231B"/>
</svg>
