<svg width="155" height="155" viewBox="0 0 155 155" fill="none" xmlns="http://www.w3.org/2000/svg">
<g clip-path="url(#clip0_233_1148)">
<path d="M0 78.5813C0 35.7792 34.1167 0.5 76.9187 0.5C119.721 0.5 155 34.6167 155 77.4187C155 120.221 120.883 155.5 78.0813 155.5C35.2792 155.5 0 121.383 0 78.5813Z" fill="#BC6C25"/>
<path d="M96.7975 35.8245C97.0716 35.8254 97.3456 35.8262 97.628 35.8271C102.079 35.8477 106.327 36.1749 110.67 37.2001C111.064 37.2823 111.064 37.2823 111.465 37.366C112.212 37.5225 112.952 37.696 113.693 37.8783C113.905 37.9239 114.118 37.9695 114.337 38.0165C115.201 38.2588 115.808 38.5607 116.325 39.3033C117.196 41.1207 117.596 43.0824 117.994 45.047C118.088 45.4915 118.088 45.4915 118.185 45.9449C118.375 46.8518 118.554 47.7603 118.73 48.6701C118.789 48.9604 118.849 49.2506 118.91 49.5496C119.403 52.1614 119.474 54.741 119.466 57.3889C119.466 57.7273 119.466 57.7273 119.466 58.0725C119.454 61.5775 119.226 64.8573 118.11 68.2001C118.04 68.4167 117.971 68.6332 117.899 68.8563C115.555 75.9986 110.842 81.7105 104.16 85.2501C102.462 86.0598 100.748 86.8324 99.0184 87.5713C93.0453 90.1921 90.0084 94.6795 87.5556 100.498C84.4095 107.931 78.3441 114.003 70.8931 117.141C65.0637 119.442 58.1171 120.626 52.08 118.42C51.7843 118.318 51.4886 118.216 51.1839 118.111C44.744 115.675 40.1181 111.063 37.2388 104.858C34.6712 98.1679 35.0979 90.7797 37.8781 84.262C39.5557 80.5393 41.7887 77.3281 44.64 74.4001C44.8438 74.1808 45.0476 73.9614 45.2576 73.7353C46.7595 72.158 48.3893 70.9242 50.22 69.7501C50.4897 69.5751 50.7595 69.4001 51.0374 69.2198C52.9205 68.0589 54.8384 67.1968 56.885 66.3789C63.2572 63.7853 65.9723 59.5717 68.7043 53.4787C71.782 46.6489 76.7957 40.9339 83.8405 37.9933C84.9256 37.593 86.0018 37.2217 87.11 36.8901C87.3589 36.8092 87.6077 36.7283 87.8641 36.6449C90.824 35.7764 93.7408 35.8027 96.7975 35.8245Z" fill="#FBFBFB"/>
<path d="M74.09 76.5703C75.615 77.8463 77.0432 79.1756 78.43 80.6003C78.0289 81.7178 77.5477 82.5521 76.8219 83.4872C75.867 84.8142 75.2142 86.1335 74.5938 87.6334C73.0036 91.4451 70.9033 94.8299 68.2 97.9603C67.106 97.5782 66.408 97.2032 65.6232 96.3522C64.8978 95.5911 64.1653 94.892 63.3563 94.2209C62.1182 93.1531 61.0034 91.9846 59.8882 90.7916C59.7135 90.6061 59.5388 90.4207 59.3588 90.2296C58.4491 89.2454 57.6795 88.2995 57.04 87.1103C60.2707 83.8971 64.1418 81.9546 68.2372 80.081C70.3399 79.1039 72.2165 77.9427 74.09 76.5703Z" fill="#BC6C25"/>
<path d="M88.3496 55.7998C89.7713 56.6956 90.9843 57.6899 92.2052 58.8417C92.4712 59.0907 92.4712 59.0907 92.7425 59.3447C93.2431 59.8149 93.7415 60.2871 94.2396 60.7598C94.4526 60.9596 94.6656 61.1594 94.885 61.3653C96.4711 62.8957 97.8272 64.6189 99.1996 66.3398C97.7989 70.0721 90.6417 72.5015 87.2839 74.1286C85.5501 74.9823 84.005 76.0341 82.4596 77.1898C81.1967 76.6907 80.3624 75.783 79.4371 74.8261C79.28 74.6662 79.123 74.5064 78.9612 74.3417C78.5759 73.9491 78.1925 73.5546 77.8096 73.1598C77.9374 72.9712 78.0653 72.7826 78.1971 72.5882C79.3179 70.887 80.3022 69.1739 81.2002 67.3473C81.3037 67.1372 81.4072 66.9271 81.5139 66.7107C81.7247 66.2823 81.9354 65.854 82.1459 65.4255C83.8456 61.9803 85.6012 58.5482 88.3496 55.7998Z" fill="#BC6C25"/>
<path d="M111.6 43.3996C111.698 45.233 111.361 46.7466 110.825 48.4953C110.742 48.7671 110.659 49.0388 110.573 49.3189C108.989 54.2943 106.316 58.968 102.92 62.9296C101.95 62.2242 101.156 61.4696 100.384 60.5598C99.2115 59.2055 97.9705 57.9342 96.7005 56.6715C96.3837 56.3529 96.3837 56.3529 96.0605 56.0279C94.8804 54.8501 93.6798 53.744 92.3799 52.6996C93.7363 49.3236 99.6046 47.0046 102.746 45.4921C104.076 44.9362 105.456 44.5187 106.834 44.0971C107.056 44.0279 107.278 43.9587 107.507 43.8873C108.921 43.473 110.127 43.3301 111.6 43.3996Z" fill="#BC6C25"/>
<path d="M53.3196 91.1396C54.2916 91.5666 54.907 92.0478 55.6216 92.8289C55.9156 93.1469 55.9156 93.1469 56.2156 93.4713C56.4172 93.6929 56.6188 93.9145 56.8265 94.1428C58.9161 96.4179 60.992 98.6202 63.3934 100.57C63.8596 101.06 63.8596 101.06 63.8596 101.99C59.7414 105.9 52.4205 108.61 46.8096 108.5C46.3336 102.322 49.2627 96.2392 53.0096 91.4496C53.1119 91.3473 53.2142 91.245 53.3196 91.1396Z" fill="#BC6C25"/>
<path d="M101.99 70.6797C103.405 71.9339 104.186 73.2826 105.032 74.9616C105.221 75.3281 105.221 75.3281 105.414 75.7021C105.722 76.2999 106.026 76.8996 106.33 77.4997C103.729 80.205 100.374 81.5576 97.0174 83.1083C94.5987 84.1965 94.5987 84.1965 92.4189 85.6759C91.7601 86.1797 91.7601 86.1797 91.1701 86.1196C90.3897 85.8196 89.9739 85.4437 89.3818 84.8549C89.176 84.6503 88.9702 84.4457 88.7582 84.2349C88.5468 84.0199 88.3354 83.8049 88.1176 83.5834C87.9014 83.3708 87.6852 83.1583 87.4625 82.9392C87.2583 82.7338 87.0541 82.5284 86.8437 82.3168C86.6568 82.1288 86.4699 81.9409 86.2773 81.7472C85.8701 81.2197 85.8701 81.2197 85.8701 80.2897C88.1263 78.5077 91.0386 77.3547 93.6225 76.1265C96.6477 74.6653 99.4738 72.9164 101.99 70.6797Z" fill="#BC6C25"/>
<path d="M77.1903 48.9805C78.7312 49.1067 79.9609 49.8821 81.2784 50.6273C81.5028 50.7486 81.7272 50.8699 81.9584 50.9949C82.1732 51.1153 82.388 51.2358 82.6093 51.36C82.8039 51.4684 82.9986 51.5768 83.1992 51.6885C83.8027 52.1605 84.0262 52.6211 84.3203 53.3205C84.1737 53.4903 84.027 53.6601 83.8759 53.8351C81.0624 57.2081 79.0331 60.9136 77.2467 64.9115C76.5441 66.4614 75.7414 67.7749 74.7103 69.1305C73.6104 68.951 73.1032 68.5641 72.332 67.773C72.1262 67.5642 71.9204 67.3554 71.7084 67.1403C71.497 66.9211 71.2856 66.7019 71.0678 66.4761C70.8516 66.2557 70.6354 66.0353 70.4127 65.8083C69.8797 65.2644 69.3491 64.7184 68.8203 64.1705C69.2027 63.1479 69.6369 62.2723 70.2347 61.3611C71.2 59.796 71.911 58.1624 72.6372 56.4786C73.7905 53.8236 75.1126 51.0582 77.1903 48.9805Z" fill="#BC6C25"/>
<path d="M81.5299 84.6299C83.1757 84.9069 84.0558 86.0664 85.1918 87.2068C85.4106 87.4168 85.6294 87.6267 85.8548 87.8431C86.1626 88.1497 86.1626 88.1497 86.4766 88.4625C86.6651 88.6488 86.8537 88.8352 87.0479 89.0272C87.4199 89.5899 87.4199 89.5899 87.3542 90.2257C86.9938 91.1172 86.5025 91.9058 86.0055 92.7286C84.9976 94.4292 84.1764 96.1585 83.4093 97.9793C82.3442 100.49 81.0142 102.612 79.3599 104.78C77.795 104.62 76.6253 104.078 75.2912 103.288C75.0088 103.128 75.0088 103.128 74.7208 102.965C73.6393 102.337 72.7584 101.678 71.9199 100.75C72.1113 100.517 72.3027 100.283 72.5 100.043C75.4088 96.4243 77.5439 92.5028 79.4412 88.2751C80.0346 86.9653 80.7003 85.8056 81.5299 84.6299Z" fill="#BC6C25"/>
<path d="M64.7897 67.5801C65.7669 68.0121 66.4209 68.5178 67.168 69.2778C67.3738 69.4856 67.5796 69.6934 67.7916 69.9075C68.1087 70.2324 68.1087 70.2324 68.4322 70.5638C68.6484 70.7828 68.8646 71.0018 69.0873 71.2274C69.6196 71.7669 70.1503 72.3078 70.6797 72.8501C69.5469 74.104 68.4173 74.8481 66.8822 75.5626C66.4396 75.7773 65.9972 75.9924 65.555 76.208C65.3273 76.3182 65.0995 76.4283 64.8648 76.5418C61.6887 78.0876 58.6946 79.6759 55.9293 81.8873C55.2798 82.3836 54.6833 82.749 53.9397 83.0801C50.8663 78.1864 50.8663 78.1864 50.2197 76.5701C50.7456 74.7369 52.8707 73.848 54.4209 72.9486C56.23 71.9746 58.1194 71.1554 60.003 70.3373C61.7604 69.5662 63.2762 68.7636 64.7897 67.5801Z" fill="#BC6C25"/>
<path d="M46.1896 79.9805C47.3389 81.0583 48.0926 82.3522 48.9215 83.6811C49.0851 83.9326 49.2488 84.1842 49.4174 84.4434C49.569 84.6869 49.7207 84.9305 49.8769 85.1814C50.0171 85.4028 50.1573 85.6242 50.3017 85.8522C50.5296 86.4905 50.5296 86.4905 50.2998 87.1397C49.8643 87.7992 49.3926 88.4259 48.9101 89.0516C45.8039 93.1314 43.5959 97.9194 42.4696 102.92C42.265 102.92 42.0604 102.92 41.8496 102.92C39.4506 97.0514 40.4316 90.9183 42.8184 85.2234C43.6894 83.3194 44.9293 81.6406 46.1896 79.9805Z" fill="#BC6C25"/>
<path d="M68.1995 104.47C69.0957 104.99 69.9911 105.512 70.8854 106.035C71.5409 106.418 72.1979 106.799 72.8568 107.176C73.1357 107.338 73.4147 107.5 73.702 107.667C73.9562 107.812 74.2103 107.958 74.4722 108.109C74.6528 108.238 74.8334 108.367 75.0195 108.5C75.0195 108.704 75.0195 108.909 75.0195 109.12C72.4703 111 69.608 112.358 66.6495 113.46C66.2287 113.619 66.2287 113.619 65.7995 113.781C61.4328 115.141 55.9682 114.955 51.7695 113.15C52.6551 112.264 53.738 112.074 54.9083 111.716C59.7129 110.177 64.4128 107.847 68.1995 104.47Z" fill="#BC6C25"/>
<path d="M95.4968 40.5795C95.8405 40.5805 96.1841 40.5815 96.5382 40.5826C96.8923 40.5852 97.2463 40.5878 97.6111 40.5904C98.153 40.5925 98.153 40.5925 98.7058 40.5947C99.5938 40.5983 100.482 40.6034 101.37 40.6098C101.37 40.8144 101.37 41.019 101.37 41.2298C101.04 41.3765 100.71 41.5231 100.37 41.6742C96.3136 43.5089 92.673 45.5883 89.3065 48.5354C88.6598 48.9798 88.6598 48.9798 87.4198 48.9798C86.4139 48.5204 85.4917 47.9149 84.5523 47.3329C84.1615 47.1007 84.1615 47.1007 83.7628 46.8637C83.5167 46.7129 83.2705 46.562 83.0169 46.4066C82.791 46.2686 82.5651 46.1306 82.3324 45.9884C82.1699 45.8503 82.0073 45.7121 81.8398 45.5698C81.8398 45.2629 81.8398 44.956 81.8398 44.6398C85.0641 42.7062 88.0642 41.5963 91.7598 40.9198C92.0522 40.8649 92.3445 40.8099 92.6457 40.7533C93.6131 40.6108 94.5197 40.5745 95.4968 40.5795Z" fill="#BC6C25"/>
<path d="M114.08 53.6299C114.182 53.6299 114.285 53.6299 114.39 53.6299C114.545 60.8785 114.309 67.1736 110.36 73.4699C108.886 72.9784 108.428 71.7163 107.648 70.428C107.487 70.1737 107.326 69.9193 107.16 69.6572C107.009 69.4109 106.858 69.1645 106.703 68.9107C106.565 68.6854 106.426 68.4601 106.283 68.228C105.962 67.436 106.015 67.1245 106.33 66.3399C106.833 65.6255 107.345 64.9365 107.88 64.2474C110.369 60.9507 112.3 57.3512 114.08 53.6299Z" fill="#BC6C25"/>
</g>
<defs>
<clipPath id="clip0_233_1148">
<rect width="155" height="155" fill="white"/>
</clipPath>
</defs>
</svg>
