<svg width="186" height="186" viewBox="0 0 186 186" fill="none" xmlns="http://www.w3.org/2000/svg">
<path d="M87.2344 15.6244C66.6628 16.8892 45.9796 27.6028 33.034 43.6732C18.0424 62.2732 12.2392 85.6348 16.9264 108.587C23.9572 142.811 53.122 168.293 87.718 170.339C110.708 171.716 132.023 163.829 147.684 148.094C183.173 112.493 176.589 53.7916 134.106 27.1192C126.146 22.1344 116.846 18.5632 106.541 16.5544C104.086 16.0708 93.3352 15.1408 92.0704 15.3268C91.8844 15.3268 89.6896 15.4756 87.2344 15.6244ZM84.2584 63.9844C89.1316 65.026 92.9632 66.328 102.672 70.3084C108.141 72.5404 113.572 74.4376 119.784 76.2232C129.642 79.0876 130.944 79.534 130.944 80.0176C130.944 80.6872 128.34 82.2496 125.178 83.44C120.528 85.2256 119.822 85.3372 118.52 84.4816L117.404 83.7376L119.078 83.0308C119.97 82.6588 121.347 82.1008 122.128 81.8032C122.909 81.5428 123.765 81.022 124.1 80.6872C124.583 80.1664 124.583 80.0176 124.062 79.6084C123.579 79.1992 122.798 79.3852 119.412 80.7244C115.655 82.2124 115.246 82.2868 114.353 81.8032L113.386 81.3196L115.06 79.8688C116.139 78.976 116.697 78.232 116.548 77.8972C116.25 77.0416 115.358 77.2648 113.386 78.7528L111.526 80.092L110.261 79.4224L109.034 78.7528L109.926 77.674C111.117 76.2604 111.117 75.5164 109.964 75.5164C109.406 75.5164 108.699 75.9256 108.141 76.6696L107.248 77.7856L105.909 77.1532C104.384 76.4092 104.272 76.186 105.09 75.5164C105.834 74.884 105.797 73.6564 105.053 73.6564C104.718 73.6564 103.974 74.0656 103.342 74.5864C102.3 75.4792 102.226 75.4792 101.073 74.9212C99.5104 74.1028 99.5476 74.1772 100.217 73.21C101.036 72.0568 100.998 71.0524 100.106 71.0524C99.6964 71.0524 99.064 71.5732 98.6176 72.3172L97.8364 73.582L96.1624 72.9496C94.0048 72.1312 93.9304 72.0196 94.6744 70.9036C95.0464 70.3828 95.2324 69.676 95.0836 69.3784C94.7488 68.4112 93.7444 68.746 92.9632 70.1224C92.1076 71.5732 91.9588 71.6104 89.9128 71.0152C88.648 70.6804 88.4992 70.5316 88.7224 69.8248C89.6152 67.0348 88.3876 65.8816 87.2344 68.4484C86.5276 70.048 86.3788 70.0852 83.5144 69.676L81.766 69.4528L81.952 68.0392C82.1752 66.2536 81.3196 65.2492 80.5012 66.4024C80.2036 66.7744 79.9804 67.4812 79.9804 67.9276C79.9804 69.118 79.534 69.2668 77.1904 69.0064C75.1816 68.746 75.1444 68.7088 75.1444 67.4812C75.1444 65.2492 73.4332 65.5096 73.21 67.816C73.0984 68.9692 73.0612 69.0064 70.978 69.118L68.8204 69.2296V67.8904C68.8204 66.7 68.7088 66.5512 68.002 66.6628C67.3324 66.7372 67.1092 67.072 66.9604 68.2252C66.7744 69.6388 66.7 69.7132 64.84 70.1224L62.9056 70.5688L62.794 69.4156C62.7196 68.56 62.4964 68.2624 61.9384 68.2624C61.3804 68.2624 61.12 68.6344 60.8596 69.7504C60.562 71.2012 60.4876 71.2756 57.5488 72.4288C55.8748 73.0612 54.4612 73.5448 54.3868 73.4704C54.0148 73.0984 56.5072 69.1924 58.144 67.6672C60.3388 65.5096 62.9428 64.1704 66.2536 63.4264C69.676 62.6452 79.3108 62.9428 84.2584 63.9844ZM83.5144 71.6476C90.7312 72.8008 99.2872 75.8884 107.88 80.5012C112.902 83.254 118.929 87.0856 122.277 89.6896C123.839 90.9172 124.955 91.5124 125.699 91.5124C127.782 91.5124 128.601 94.1908 127.224 96.6088L126.406 98.0968L127.187 99.3616C128.043 100.738 128.154 102.114 127.596 103.565C127.336 104.309 127.001 104.532 126.108 104.532C125.513 104.532 120.268 106.132 114.502 108.066C97.5016 113.721 93.3352 114.539 80.7244 114.576C70.048 114.576 59.5576 113.572 53.6428 111.972C48.3604 110.522 43.2268 107.174 38.0932 101.854C33.2572 96.832 33.0712 96.5344 33.1828 94.3768C33.2944 92.6656 33.3688 92.4796 34.3732 92.2192C35.0428 92.0332 37.0144 90.2476 39.8416 87.2716C46.6864 80.092 51.9688 76.4836 59.632 73.6936C64.468 71.9452 66.4024 71.4616 70.4944 71.0896C74.2516 70.7176 78.7528 70.9408 83.5144 71.6476ZM146.94 78.3064C148.242 78.976 148.726 79.7572 149.172 82.138C149.619 84.5932 149.061 88.648 147.647 93.2608L146.457 97.0552L147.647 100.106C150.14 106.392 150.958 112.233 149.768 115.097C149.172 116.548 147.536 117.924 146.42 117.924C143.89 117.887 139.277 114.056 135.297 108.699L132.879 105.462L133.623 102.672C134.478 99.436 134.367 94.972 133.4 92.2936L132.804 90.6568L134.367 88.0156C136.487 84.4072 138.831 81.394 140.728 79.8316C143.332 77.7112 145.006 77.302 146.94 78.3064ZM131.651 93.1864C131.949 94.042 132.172 96.088 132.172 98.0224C132.172 102.003 131.54 104.272 130.312 104.458C129.531 104.57 129.531 104.458 129.717 102.561C129.866 101.11 129.754 100.217 129.308 99.2872C128.75 98.0596 128.75 97.9108 129.308 96.7576C129.754 95.8648 129.866 94.972 129.717 93.484C129.531 91.5868 129.531 91.4752 130.312 91.5868C130.87 91.6612 131.279 92.1448 131.651 93.1864ZM128.712 110.001C132.432 113.944 134.664 116.957 134.664 118.073C134.664 118.668 134.478 118.706 132.99 118.52C131.391 118.259 131.316 118.296 131.316 119.152C131.316 119.673 131.577 120.268 131.912 120.566C132.432 120.975 133.548 122.835 133.548 123.244C133.548 123.69 131.205 123.765 128.34 123.467C119.003 122.463 108.513 119.189 102.933 115.618C100.998 114.39 101.073 114.13 103.305 113.646C104.384 113.423 104.756 113.609 106.69 115.283C108.885 117.18 109.815 117.552 110.336 116.734C110.522 116.474 109.852 115.618 108.662 114.502L106.727 112.716L107.694 112.344C108.215 112.158 108.81 111.972 108.996 111.972C109.145 111.972 110.559 113.312 112.084 114.986C114.8 117.887 115.953 118.482 116.362 117.255C116.436 116.994 115.32 115.581 113.832 114.056L111.191 111.303L112.382 110.894C113.051 110.67 113.609 110.484 113.646 110.484C113.684 110.484 115.134 112.158 116.846 114.204C119.078 116.92 120.156 117.924 120.677 117.85C121.086 117.776 121.458 117.552 121.533 117.329C121.607 117.069 120.342 115.32 118.706 113.423L115.73 109.926L116.883 109.443C117.515 109.182 118.148 109.108 118.259 109.257C120.752 112.865 125.625 118.668 126.071 118.594C127.336 118.334 126.778 117.069 123.504 112.902C121.644 110.559 120.231 108.438 120.342 108.252C120.975 107.248 122.128 108.104 124.992 111.675C126.666 113.795 128.303 115.506 128.638 115.506C129.977 115.506 129.419 114.093 126.666 110.633C124.472 107.88 123.914 106.988 124.286 106.727C124.583 106.541 124.918 106.392 125.067 106.392C125.178 106.392 126.852 108.029 128.712 110.001ZM59.5204 117.18C62.4964 120.045 63.724 120.752 64.3936 119.933C64.8028 119.45 64.5424 119.078 62.6452 117.366L60.4504 115.358L62.3104 115.544C65.6956 115.916 65.8444 115.953 65.8444 117.218C65.8444 118.743 66.2908 119.487 68.4484 121.496C69.49 122.463 70.3084 123.393 70.3084 123.542C70.3084 124.062 68.4112 123.951 66.1792 123.281C63.8728 122.612 60.376 120.752 58.2184 119.04C56.842 117.962 54.3496 115.06 54.3124 114.539C54.3124 114.39 54.9448 114.428 55.7632 114.614C56.7676 114.837 57.8836 115.618 59.5204 117.18Z" fill="#BC6C25"/>
<path d="M49.8485 80.3155C49.2905 81.3571 49.4021 85.3747 49.9973 86.8627C50.8901 88.9831 53.3081 89.7271 55.8749 88.7227C56.9909 88.2763 57.2885 89.6155 56.7305 92.7403C55.8749 97.7623 53.7545 103.194 52.1549 104.644C51.1133 105.574 49.6997 105.24 46.8725 103.342C44.6777 101.892 43.8965 101.78 43.8965 102.97C43.8965 104.086 49.0673 107.137 50.9645 107.137C52.4153 107.137 53.7545 106.095 54.9449 104.086C56.4329 101.557 58.2185 96.1999 58.8137 92.4055C59.1857 89.8015 59.1857 89.2807 58.6649 88.2763C57.9581 86.9371 56.5817 86.4907 54.7961 87.0115C52.2293 87.7555 51.1877 86.4163 51.3737 82.6963C51.5597 79.8319 50.7785 78.6415 49.8485 80.3155Z" fill="#BC6C25"/>
<path d="M41.7388 90.0985C41.1808 90.6565 41.1808 92.3677 41.7388 92.9257C42.7804 93.9673 45.0124 93.0001 45.0124 91.5121C45.0124 90.0241 42.7804 89.0569 41.7388 90.0985Z" fill="#BC6C25"/>
<path d="M66.6626 94.4888C64.0214 94.898 59.9666 96.3488 59.7434 96.9812C59.6318 97.2788 59.8922 98.0228 60.3758 98.618C61.2314 99.8084 61.4546 102.301 60.8594 104.235C60.599 105.091 60.7106 105.314 61.715 105.798C63.3146 106.653 67.1834 107.509 69.4154 107.509C72.0566 107.509 74.8094 106.579 76.8926 105.016C78.8642 103.528 82.2494 102.301 84.4442 102.301C87.0854 102.301 86.6018 101.11 82.9562 98.6924C77.7482 95.1956 71.8334 93.6704 66.6626 94.4888ZM74.0282 96.758C74.921 96.944 77.0786 97.7996 78.7526 98.5808C81.7286 99.9572 82.6214 100.813 81.1334 100.813C80.0546 100.813 77.3762 102.152 75.665 103.528C73.619 105.202 70.643 105.835 67.3322 105.314C64.4678 104.905 62.8682 104.347 62.8682 103.752C62.8682 103.342 64.9886 103.454 68.8946 104.012C69.9734 104.198 70.3454 104.086 70.5314 103.603C70.9406 102.598 70.2338 102.301 66.6626 101.854C62.7566 101.371 62.087 100.664 65.2118 100.292C66.2534 100.18 67.667 100.069 68.2994 100.069C68.8946 100.069 69.7502 99.8456 70.1594 99.548C70.7918 99.0644 70.7918 98.9528 70.3082 98.432C69.8246 97.9856 69.1922 97.9484 66.2534 98.2832C63.4262 98.5808 62.7194 98.5436 62.459 98.1344C61.6034 96.8324 69.9362 95.7908 74.0282 96.758Z" fill="#BC6C25"/>
<path d="M140.318 85.2255C136.264 88.2759 134.292 89.9499 134.292 90.4335C134.292 91.8471 135.854 91.0659 141.434 86.8251C144.559 84.4443 147.275 82.3611 147.424 82.2123C147.833 81.8775 147.349 80.7243 146.791 80.7243C146.531 80.7243 143.629 82.7703 140.318 85.2255Z" fill="#BC6C25"/>
<path d="M139.053 91.6981C137.305 91.9585 135.668 92.2933 135.445 92.4049C134.887 92.7769 134.924 93.7441 135.519 93.9673C136.226 94.2277 145.415 92.8141 145.898 92.3305C147.126 91.1029 144.708 90.8797 139.053 91.6981Z" fill="#BC6C25"/>
<path d="M135.222 96.72C135.073 96.9432 135.185 97.3524 135.408 97.65C135.78 98.0964 136.859 98.208 140.058 98.208C143.257 98.208 144.336 98.0964 144.708 97.65C145.601 96.6084 144.708 96.348 140.058 96.348C137.268 96.348 135.371 96.4968 135.222 96.72Z" fill="#BC6C25"/>
<path d="M135.408 101.185C135.408 101.631 135.706 101.966 136.264 102.115C138.607 102.598 145.489 103.417 145.824 103.231C146.271 102.97 146.345 101.557 145.936 101.557C145.75 101.557 143.964 101.296 141.918 100.999C136.599 100.218 135.408 100.255 135.408 101.185Z" fill="#BC6C25"/>
<path d="M134.292 104.496C134.292 105.314 145.601 113.982 146.717 113.982C147.498 114.019 147.833 113.498 147.386 112.866C146.754 111.898 135.668 103.789 135.036 103.789C134.552 103.789 134.292 104.049 134.292 104.496Z" fill="#BC6C25"/>
</svg>
