<svg width="155" height="155" viewBox="0 0 155 155" fill="none" xmlns="http://www.w3.org/2000/svg">
<g clip-path="url(#clip0_233_1083)">
<path d="M0 0C51.15 0 102.3 0 155 0C155 51.15 155 102.3 155 155C103.85 155 52.7 155 0 155C0 103.85 0 52.7 0 0Z" fill="#283618"/>
<path d="M77.1899 59.5201C79.2114 60.9444 80.0467 63.5388 80.5018 65.8921C80.9168 69.0991 80.6902 72.1123 78.8174 74.8264C77.9077 75.9251 77.0304 76.7824 75.6399 77.1901C74.4945 77.283 73.3758 77.2647 72.2299 77.1901C72.5304 77.2733 72.8309 77.3564 73.1405 77.442C73.4538 77.5635 73.7671 77.685 74.0899 77.8101C74.7696 79.8492 74.7967 82.5371 73.8962 84.5139C73.0605 85.9028 71.8884 86.604 70.3699 87.1101C68.5012 87.2933 67.2581 86.8773 65.7199 85.8701C64.848 85.0564 64.848 85.0564 64.1699 84.3201C63.863 84.1155 63.5561 83.9109 63.2399 83.7001C63.1228 83.8728 63.0057 84.0454 62.8851 84.2233C60.7928 87.1241 57.544 89.8085 53.9399 90.5201C51.6337 90.7211 49.647 90.7036 47.7399 89.2801C47.0037 88.5051 47.0037 88.5051 46.4999 87.7301C46.372 87.5447 46.2442 87.3593 46.1124 87.1683C45.5852 85.6307 45.7024 84.2149 46.3449 82.7508C47.6309 80.4666 49.3717 79.3044 51.8526 78.6106C53.2311 78.317 54.5695 78.2953 55.9743 78.3139C56.384 78.3085 56.384 78.3085 56.802 78.303C58.6892 78.3113 60.2503 78.6578 61.9999 79.3601C61.9934 79.1759 61.9869 78.9917 61.9802 78.8019C61.9542 77.9547 61.9382 77.1076 61.9224 76.2601C61.912 75.9704 61.9016 75.6807 61.8909 75.3822C61.8642 73.4698 62.074 71.9378 63.2399 70.3701C64.2538 69.6942 64.4067 69.6817 65.5455 69.8276C65.7817 69.8548 66.0179 69.882 66.2612 69.91C67.0165 70.0723 67.5587 70.2461 68.1999 70.6801C68.4324 71.3389 68.4324 71.3389 68.5099 71.9201C68.4955 71.7395 68.4811 71.5589 68.4663 71.3728C68.2869 67.2985 70.0331 64.1311 72.5399 61.0701C73.9504 59.6063 75.2104 59.2009 77.1899 59.5201Z" fill="#FCFCFC"/>
<path d="M62.3096 92.6898C63.7214 94.0083 64.6931 95.1154 64.8865 97.088C64.7203 99.1149 63.9423 100.489 62.4258 101.835C61.4818 102.61 61.4818 102.61 60.7596 102.61C60.8619 102.814 60.9642 103.019 61.0696 103.23C61.3461 106.963 60.0553 110.894 57.7419 113.833C56.0003 115.667 54.0546 116.563 51.5371 116.695C49.9784 116.682 49.1263 116.212 47.9236 115.258C46.6086 113.772 46.6582 112.051 46.6945 110.159C47.0136 107.277 48.7443 105.401 50.8396 103.54C49.9056 102.893 49.9056 102.893 48.8246 102.358C47.797 101.766 47.2355 101.274 46.8096 100.13C46.7785 98.4852 47.291 97.3864 48.299 96.1374C51.6986 92.8527 57.7818 89.7361 62.3096 92.6898Z" fill="#FBFBFB"/>
<path d="M125.104 77.8876C125.914 78.4688 126.123 78.7622 126.48 79.6701C126.805 82.7186 125.064 85.6218 123.356 88.0111C121.667 90.0278 119.592 91.8497 116.894 92.1815C116.151 92.1857 115.437 92.1565 114.7 92.0701C114.673 92.25 114.646 92.4298 114.619 92.6151C114.297 94.4047 113.966 95.5532 112.53 96.7201C111.193 97.0583 110.012 97.0035 108.765 96.3968C106.083 94.5084 104.19 91.9634 102.92 88.9701C102.786 88.6568 102.651 88.3435 102.513 88.0208C101.933 85.5434 102.303 83.4484 103.54 81.2201C104.752 79.9772 105.952 79.438 107.667 79.2439C109.662 79.4468 111.22 80.3116 112.53 81.8401C112.723 81.6375 112.723 81.6375 112.92 81.4308C115.96 78.492 120.923 76.4205 125.104 77.8876Z" fill="#FAFAFA"/>
<path d="M34.7201 84.9404C38.3384 86.3675 41.2128 89.4513 42.7607 92.981C43.3688 94.8468 43.4253 97.0067 42.7219 98.8516C41.8783 100.306 40.9267 101.335 39.3701 101.99C37.6677 102.266 36.1904 102.03 34.6934 101.18C32.0056 99.233 30.7183 96.3852 30.1681 93.1881C29.826 90.3706 29.9264 87.8108 31.5232 85.386C32.5916 84.7219 33.5213 84.6985 34.7201 84.9404Z" fill="#FCFCFC"/>
<path d="M89.2798 75.3304C92.265 76.7719 94.0826 80.0759 95.1698 83.0804C95.9127 85.5136 95.7144 88.1643 94.6455 90.4574C93.9596 91.6122 93.3096 92.4347 92.0698 93.0004C90.3504 93.2958 88.894 93.2523 87.3036 92.516C85.0709 90.4428 83.6266 88.3431 83.3269 85.2129C83.2613 81.9716 83.8872 78.5919 85.8698 75.9504C87.0301 75.1769 87.9377 75.0658 89.2798 75.3304Z" fill="#FCFCFC"/>
<path d="M69.518 45.7443C71.2626 47.2908 72.1215 49 72.3273 51.305C72.2493 54.8244 70.3877 57.8224 68.2005 60.45C66.7117 61.8246 65.3675 62.8087 63.2707 62.7592C62.2317 62.5367 61.7703 62.0252 61.1492 61.1874C59.3696 57.8113 59.4487 53.7484 60.4359 50.1582C61.2679 47.9324 62.8345 46.3493 64.868 45.1631C66.5279 44.7481 67.9894 45.0095 69.518 45.7443Z" fill="#FCFCFC"/>
<path d="M106.058 45.2596C109.342 46.7303 110.917 49.4986 112.22 52.6996C112.922 54.8454 113.348 57.0935 112.433 59.229C111.832 59.9189 111.309 60.3916 110.387 60.5538C106.833 60.6183 103.344 58.6958 100.788 56.3034C98.9664 54.3696 98.1491 52.1191 98.1837 49.487C98.3653 47.7606 99.0779 46.6109 100.304 45.4146C102.152 44.6082 104.135 44.6711 106.058 45.2596Z" fill="#FDFDFD"/>
<path d="M102.008 104.685C103.651 105.529 104.517 106.782 105.09 108.5C105.424 111.738 104.669 114.37 102.687 116.948C100.677 119.294 98.7573 121.239 95.5962 121.675C94.2318 121.473 93.8271 121.058 93 119.97C91.6786 116.873 91.9488 112.408 93.1659 109.324C94.9975 106.002 98.0564 103.358 102.008 104.685Z" fill="#FDFDFD"/>
<path d="M93.6007 61.5929C93.8168 61.6487 94.033 61.7045 94.2557 61.7621C97.4325 62.6275 99.9677 64.1622 101.661 67.0567C102.191 68.8966 102.261 70.5295 101.622 72.346C100.682 73.7073 99.5604 74.5833 97.96 75.0198C95.1032 75.3323 92.9125 74.4248 90.5927 72.805C88.3533 70.9454 86.2098 68.1164 85.7332 65.1894C85.677 63.953 85.6918 63.1939 86.3932 62.1548C88.7168 60.6475 91.0315 60.9252 93.6007 61.5929Z" fill="#FDFDFD"/>
<path d="M72.5787 100.614C72.9668 100.609 72.9668 100.609 73.3627 100.604C76.298 100.645 78.7764 101.483 80.9099 103.54C82.0165 104.902 82.5399 106.444 82.4599 108.19C82.1944 109.568 81.7098 110.617 80.658 111.561C78.4972 113.001 76.3097 113.112 73.7799 112.84C70.0959 111.861 67.1327 109.525 65.0999 106.33C64.6193 105.368 64.7 104.6 64.7899 103.54C65.3878 102.315 66.2177 101.815 67.4249 101.273C69.1406 100.704 70.7876 100.628 72.5787 100.614Z" fill="#FDFDFD"/>
<path d="M50.2201 56.42C51.0065 57.154 51.1356 57.5567 51.2857 58.6288C50.8835 62.1906 48.7153 65.8349 45.9285 68.0644C43.7054 69.5465 41.4106 70.1499 38.7501 69.75C37.5339 69.3491 36.729 68.6589 35.8244 67.7544C34.9895 65.8508 34.9504 63.7821 35.6137 61.8038C37.213 58.6793 39.9187 57.3508 43.0901 56.11C45.5152 55.3325 47.9859 54.9652 50.2201 56.42Z" fill="#FCFCFC"/>
<path d="M88.3502 32.55C90.6134 33.702 92.4901 35.3596 93.3102 37.82C93.476 39.6722 93.4692 41.2028 92.3802 42.78C90.9803 44.1421 89.564 44.6596 87.6334 44.7369C84.7647 44.6504 82.6612 43.4913 80.6002 41.54C78.4221 39.1687 76.6041 36.8795 76.7374 33.5442C76.8802 32.86 76.8802 32.86 77.5971 32.0656C80.7789 30.3637 85.1936 31.1838 88.3502 32.55Z" fill="#FDFDFD"/>
</g>
<defs>
<clipPath id="clip0_233_1083">
<rect width="155" height="155" rx="77.5" fill="white"/>
</clipPath>
</defs>
</svg>
