<svg width="155" height="155" viewBox="0 0 155 155" fill="none" xmlns="http://www.w3.org/2000/svg">
<g clip-path="url(#clip0_233_1163)">
<path d="M0 78.0813C0 35.2792 34.1167 0 76.9187 0C119.721 0 155 34.1167 155 76.9187C155 119.721 120.883 155 78.0813 155C35.2792 155 0 120.883 0 78.0813Z" fill="#92989A"/>
<path d="M77.8673 49.1542C83.8654 52.1936 89.3528 55.8753 94.5504 60.1398C94.9928 60.4952 94.9928 60.4952 95.4441 60.8579C99.6521 64.2863 103.718 68.1672 106.95 72.5398C107.093 72.7326 107.236 72.9254 107.383 73.1241C114.983 83.4523 114.983 83.4523 114.39 88.6598C114.08 89.5898 114.08 89.5898 113.15 90.2098C109.458 90.7198 106.306 89.7213 102.92 88.3498C102.713 88.2686 102.505 88.1873 102.291 88.1037C99.2957 86.9057 97.7969 85.4632 96.1004 82.7698C91.9039 76.9317 82.9467 72.4282 76.091 70.7828C72.9328 70.0161 71.0098 68.4619 68.7078 66.2129C67.9969 65.522 67.2562 64.8664 66.5148 64.2085C66.2978 64.0111 66.0808 63.8137 65.8572 63.6103C65.4257 63.2223 64.9922 62.8365 64.5528 62.4575C60.9281 59.3292 57.4321 55.9208 54.5604 52.0798C54.3646 51.82 54.1688 51.5603 53.967 51.2927C50.7996 46.9391 50.7996 46.9391 50.666 44.5042C50.8404 43.3998 50.8404 43.3998 51.4023 42.7992C58.8813 39.1665 71.2167 45.8442 77.8673 49.1542Z" fill="#FDFDFD"/>
<path d="M60.7599 68.8197C61.0668 69.1266 61.0668 69.1266 61.3799 69.4397C61.0894 69.4349 60.799 69.43 60.4998 69.425C59.4043 69.409 58.309 69.3974 57.2135 69.3886C56.7427 69.384 56.2719 69.3777 55.8012 69.3696C50.4824 69.28 45.1617 70.2361 41.1511 74.0655C38.2963 77.4632 37.7577 80.6614 37.5099 84.9397C37.9191 84.9397 38.3283 84.9397 38.7499 84.9397C38.7355 84.7108 38.7211 84.4818 38.7063 84.2459C38.5795 80.6825 39.5222 77.8472 41.9274 75.1747C43.2857 73.9399 44.7713 72.5979 46.4999 71.9197C46.8068 72.022 47.1137 72.1243 47.4299 72.2297C47.2057 72.4713 47.2057 72.4713 46.977 72.7177C45.1734 74.7091 44.5993 76.0904 44.3299 78.7397C44.1392 78.7925 43.9486 78.8452 43.7522 78.8996C42.6899 79.2181 41.7675 79.4957 40.8811 80.1735C40.3686 81.5645 40.6517 83.0593 41.2162 84.4075C41.6106 85.1577 42.0261 85.8918 42.4505 86.6254C44.0312 89.4792 45.2405 92.391 46.3369 95.4615C48.0234 100.101 50.4201 103.702 54.8699 106.02C62.3683 109.442 71.0149 110.418 79.1789 110.525C81.0572 110.572 81.0572 110.572 81.9949 111.137C83.1665 111.836 84.2789 111.739 85.618 111.716C85.8819 111.713 86.1458 111.71 86.4177 111.707C88.3295 111.661 89.998 111.451 91.7599 110.67C92.012 110.564 92.2642 110.459 92.524 110.35C96.1038 108.717 98.6351 106.45 100.127 102.784C100.795 100.8 100.956 98.8009 101.06 96.7197C102.226 98.6237 101.913 101.202 101.467 103.302C100.305 107.041 98.4932 109.768 95.1699 111.91C92.9855 112.975 90.7325 113.636 88.3499 114.08C88.3499 114.387 88.3499 114.694 88.3499 115.01C92.5278 114.797 96.3576 113.037 99.2301 109.977C102.373 106.107 102.909 102.157 102.535 97.2949C102.221 94.9573 101.412 92.8431 100.545 90.665C100.244 89.8843 99.9884 89.1652 99.8199 88.3497C101.067 88.7068 102.235 89.0822 103.028 90.1552C103.388 90.9902 103.624 91.8081 103.85 92.6897C103.905 92.8958 103.961 93.1019 104.018 93.3143C105.71 99.7371 105.759 105.907 102.569 111.878C100.594 115.158 97.5015 116.454 93.8944 117.44C84.6792 119.685 73.8904 117.46 65.0999 114.39C64.7033 114.251 64.7033 114.251 64.2988 114.11C56.9017 111.464 50.0321 107.734 44.3299 102.3C44.144 102.137 43.9582 101.974 43.7668 101.807C39.7238 98.1204 36.2134 91.6538 35.9264 86.1593C35.7006 80.8374 36.3871 76.6129 39.9995 72.4307C45.5338 67.0823 53.7608 66.4285 60.7599 68.8197Z" fill="#F7F7F7"/>
<path d="M46.8874 79.8249C47.2254 79.8253 47.5633 79.8257 47.9115 79.8262C51.6669 79.8947 55.2621 80.6445 58.8999 81.5299C59.1287 81.5712 59.3575 81.6125 59.5933 81.6551C59.8639 81.7465 59.8639 81.7465 60.1399 81.8399C60.5105 82.6863 60.5105 82.6863 60.7987 83.758C60.8954 84.1077 60.9921 84.4573 61.0917 84.8176C61.1868 85.1648 61.282 85.5121 61.3799 85.8699C61.5826 86.4912 61.7879 87.1117 61.9999 87.7299C60.3883 87.2109 58.8214 86.6442 57.2531 86.0055C53.6616 84.6229 49.9923 84.4911 46.1899 84.3199C46.2922 84.6268 46.3945 84.9337 46.4999 85.2499C46.6731 85.2411 46.8464 85.2322 47.0248 85.2232C48.9377 85.1633 50.9088 85.1257 52.6999 85.8699C54.1459 87.2371 54.943 89.2522 55.4899 91.1399C55.4899 91.3445 55.4899 91.5491 55.4899 91.7599C53.8531 92.0668 52.2163 92.3737 50.5299 92.6899C50.6322 92.9968 50.7345 93.3037 50.8399 93.6199C51.2068 93.5284 51.5736 93.4369 51.9516 93.3426C55.7062 92.5653 55.7062 92.5653 56.9885 93.3461C58.1034 94.4023 58.8698 95.648 59.5199 97.0299C59.5199 97.4391 59.5199 97.8483 59.5199 98.2699C58.8527 98.7543 58.8527 98.7543 57.9893 99.1999C56.8071 99.7535 56.8071 99.7535 56.1669 100.808C56.1481 100.993 56.1293 101.179 56.1099 101.37C56.4088 101.21 56.7078 101.049 57.0157 100.884C57.4112 100.678 57.8068 100.472 58.2024 100.266C58.399 100.159 58.5957 100.053 58.7982 99.944C60.2861 99.1768 60.2861 99.1768 61.0699 99.2871C61.7019 99.5142 62.2 99.782 62.7604 100.15C62.9522 100.275 63.144 100.4 63.3417 100.529C63.5383 100.659 63.7349 100.79 63.9374 100.924C64.2395 101.122 64.2395 101.122 64.5478 101.323C65.0428 101.647 65.5365 101.973 66.0299 102.3C64.8747 103.787 64.8747 103.787 64.1118 104.354C63.4569 104.767 63.4569 104.767 63.2399 105.71C64.486 105.236 65.3999 104.839 66.3593 103.908C67.2699 103.23 67.2699 103.23 68.1224 103.346C68.4549 103.512 68.7874 103.679 69.1299 103.85C69.3961 103.979 69.6622 104.109 69.9364 104.242C70.7058 104.619 71.4691 105.006 72.2299 105.4C72.0253 105.707 71.8207 106.014 71.6099 106.33C71.6099 106.637 71.6099 106.944 71.6099 107.26C71.9168 107.26 72.2237 107.26 72.5399 107.26C73.0686 106.658 73.0686 106.658 73.4699 106.02C76.0777 106.775 78.6481 107.632 81.2199 108.5C81.2199 108.807 81.2199 109.114 81.2199 109.43C58.2999 109.127 58.2999 109.127 50.8399 101.68C49.0497 99.4662 48.0644 96.9128 47.0641 94.2785C46.5997 93.0751 46.106 91.8843 45.6087 90.6943C45.5058 90.4472 45.4029 90.2002 45.297 89.9457C44.4934 88.0465 43.5971 86.2059 42.6057 84.3975C41.9694 83.1945 41.5862 82.2691 41.8499 80.9099C43.1586 79.5671 45.1394 79.8151 46.8874 79.8249Z" fill="#F9F9F9"/>
<path d="M66.0299 39.6804C66.2743 39.7496 66.5188 39.8189 66.7707 39.8903C68.5989 40.4138 70.4167 40.967 72.2299 41.5404C72.4557 41.6114 72.6814 41.6824 72.9141 41.7556C82.5452 44.8334 91.1995 50.1746 98.5799 57.0404C99.0049 57.4099 99.4311 57.7781 99.8586 58.1447C102.277 60.2626 104.339 62.579 106.33 65.1004C106.58 65.414 106.829 65.7277 107.087 66.0509C110.23 70.0381 112.894 74.2428 115.286 78.7196C115.602 79.308 115.924 79.892 116.249 80.4756C116.422 80.7981 116.595 81.1206 116.773 81.4529C116.995 81.8629 116.995 81.8629 117.222 82.2811C117.63 83.5002 117.407 84.4454 116.878 85.5967C116.566 86.1012 116.253 86.6058 115.94 87.1104C115.838 87.1104 115.735 87.1104 115.63 87.1104C115.599 86.9194 115.569 86.7284 115.537 86.5317C115.194 84.6004 114.646 82.942 113.789 81.1816C113.668 80.9292 113.546 80.6769 113.421 80.4169C109.118 71.7491 101.536 63.784 93.8127 58.0415C93.338 57.6817 92.8766 57.3045 92.4162 56.9265C85.3948 51.2158 76.9552 47.1304 68.5099 44.0204C68.0629 43.853 68.0629 43.853 67.6068 43.6823C63.0758 42.0017 58.4036 41.4959 53.6299 40.9204C57.5371 37.0001 61.0584 38.2685 66.0299 39.6804Z" fill="#F8F8F8"/>
<path d="M72.2643 33.4172C76.5817 33.0607 79.8468 34.0778 83.6998 35.9603C83.9525 36.083 84.2053 36.2057 84.4657 36.3321C91.1686 39.6328 97.3058 43.7517 102.92 48.6703C103.166 48.8813 103.411 49.0923 103.664 49.3097C107.531 52.6933 111.277 56.3567 114.39 60.4503C114.659 60.7962 114.929 61.1417 115.2 61.4869C118.864 66.1889 118.864 66.1889 118.962 67.7353C118.979 67.9967 118.997 68.258 119.014 68.5273C119.063 70.2786 119.062 72.0286 119.04 73.7803C118.064 72.6239 117.291 71.4065 116.54 70.0991C111.939 62.2835 105.511 55.0028 98.1702 49.6716C97.6256 49.2726 97.0914 48.862 96.5575 48.4487C93.5702 46.1614 90.3996 44.287 87.1098 42.4703C86.8782 42.3397 86.6466 42.2091 86.408 42.0745C80.7487 38.8877 74.6636 36.4692 68.5098 34.4103C69.5164 33.4037 70.9032 33.5485 72.2643 33.4172Z" fill="#F9F9F9"/>
<path d="M89.0907 44.7736C94.5672 48.0623 99.5614 52 104.16 56.4196C104.414 56.6606 104.414 56.6606 104.672 56.9064C107.087 59.2081 109.234 61.6213 111.229 64.2943C111.559 64.7343 111.895 65.1692 112.232 65.6033C114.172 68.1572 115.778 70.9329 117.389 73.701C117.648 74.1417 117.914 74.5786 118.189 75.0098C118.924 76.1878 119.182 76.9356 118.982 78.3133C118.927 78.7317 118.927 78.7317 118.872 79.1586C118.735 79.9522 118.584 80.7411 118.42 81.5296C117.677 80.8531 117.245 80.2143 116.806 79.3136C116.677 79.0563 116.549 78.7989 116.417 78.5338C116.209 78.1178 116.209 78.1178 115.998 77.6933C112.496 70.8445 107.934 64.7382 102.61 59.2096C102.377 58.9661 102.377 58.9661 102.139 58.7176C100.045 56.5429 97.8783 54.5417 95.4801 52.6996C95.3063 52.5658 95.1325 52.432 94.9535 52.2941C92.1471 50.1464 89.2582 48.2336 86.1801 46.4996C85.9662 46.377 85.7524 46.2544 85.5321 46.1281C77.6759 41.6566 68.7662 38.5794 59.8301 37.1996C60.661 36.1685 61.6676 35.8569 62.8913 35.4171C63.2678 35.278 63.6442 35.139 64.032 34.9957C70.7067 33.2703 83.6012 41.5895 89.0907 44.7736Z" fill="#F7F7F7"/>
<path d="M54.5596 86.4902C62.791 88.7302 62.791 88.7302 64.9639 92.1865C69.5863 99.035 76.6176 103.807 84.6296 105.71C83.7661 106.67 83.0874 107.217 81.8396 107.57C80.9898 107.415 80.9898 107.415 80.0619 107.083C79.7149 106.961 79.3678 106.838 79.0102 106.712C78.6396 106.573 78.2689 106.434 77.8871 106.291C77.5036 106.151 77.1202 106.01 76.7252 105.865C66.9112 102.205 59.925 97.9063 55.1796 88.3502C54.9555 87.7363 54.7411 87.1181 54.5596 86.4902Z" fill="#F9F9F9"/>
<path d="M81.5303 33.4805C91.3267 34.9569 100.119 38.9314 107.26 45.8805C107.674 46.2653 107.674 46.2653 108.096 46.6579C111.726 50.1259 114.175 54.0446 116.25 58.5905C116.392 58.8855 116.392 58.8855 116.536 59.1864C117.216 60.6538 117.216 60.6538 116.87 61.6905C116.649 61.4283 116.428 61.1662 116.201 60.8961C114.031 58.3205 114.031 58.3205 111.821 55.7799C111.444 55.3543 111.072 54.9253 110.702 54.4939C107.538 50.8653 103.944 47.6518 100.094 44.7684C99.6921 44.4668 99.2915 44.163 98.8924 43.8574C93.53 39.7594 87.6906 36.5275 81.5303 33.7905C81.5303 33.6882 81.5303 33.5859 81.5303 33.4805Z" fill="#F8F8F8"/>
<path d="M63.8603 70.6803C63.8603 70.8849 63.8603 71.0895 63.8603 71.3003C63.4292 71.6805 63.4292 71.6805 62.8528 72.114C60.1922 74.3715 60.1326 77.3231 59.8303 80.6003C59.5128 80.5347 59.5128 80.5347 59.1888 80.4678C54.6579 79.5411 50.1834 78.7791 45.5703 78.4303C45.8083 76.138 46.2532 74.9785 47.9147 73.2765C52.2439 69.9105 58.7407 70.5989 63.8603 70.6803Z" fill="#F9F9F9"/>
<path d="M99.51 97.3398C99.6123 97.3398 99.7146 97.3398 99.82 97.3398C99.8088 100.807 99.0449 103.695 96.6425 106.291C93.1068 109.485 89.0573 110.696 84.412 110.711C83.7223 110.671 83.1221 110.551 82.46 110.36C82.5571 109.39 82.6288 108.937 83.367 108.273C83.6111 108.124 83.8553 107.975 84.1068 107.822C84.4695 107.595 84.4695 107.595 84.8395 107.363C85.0772 107.227 85.315 107.09 85.56 106.95C85.8399 106.777 85.8399 106.777 86.1255 106.6C86.9074 106.287 87.6486 106.217 88.4838 106.15C91.6777 105.888 94.4664 105.069 96.72 102.649C97.9849 101.039 98.7945 99.2477 99.51 97.3398Z" fill="#F6F6F6"/>
</g>
<defs>
<clipPath id="clip0_233_1163">
<rect width="155" height="155" fill="white"/>
</clipPath>
</defs>
</svg>
