<svg width="155" height="155" viewBox="0 0 155 155" fill="none" xmlns="http://www.w3.org/2000/svg">
<g clip-path="url(#clip0_233_1176)">
<path d="M0 78.0813C0 35.2792 34.1167 0 76.9187 0C119.721 0 155 34.1167 155 76.9187C155 119.721 120.883 155 78.0813 155C35.2792 155 0 120.883 0 78.0813Z" fill="#4B231B"/>
<path d="M97.6504 41.5396C98.028 41.548 98.028 41.548 98.4133 41.5566C102.808 41.8343 107.208 44.2513 110.18 47.4405C113.779 51.91 115.508 56.9324 115.437 62.639C115.434 63.0038 115.431 63.3685 115.428 63.7443C115.344 68.6581 114.509 73.1952 112.84 77.8096C112.703 78.1912 112.566 78.5729 112.425 78.9661C107.887 90.8964 99.0422 99.8018 88.0404 106.02C87.845 106.132 87.6496 106.245 87.4483 106.361C78.3577 111.565 66.5174 116.636 55.8997 113.818C50.5863 111.968 45.9868 109.07 43.2684 103.946C40.834 98.776 40.0791 93.4487 41.7535 87.9137C43.8604 82.145 47.9389 78.0889 53.4131 75.3993C54.7653 74.7861 56.1593 74.3162 57.5635 73.8377C64.3193 71.4401 69.2901 68.1199 72.452 61.508C72.9157 60.439 73.3542 59.364 73.7804 58.2796C76.8695 50.5665 80.9424 45.7431 88.5514 42.4212C91.4631 41.3765 94.6007 41.4363 97.6504 41.5396Z" fill="#FEFEFE"/>
<path d="M81.375 59.4033C82.15 59.5196 82.15 59.5196 82.7119 59.8489C83.2848 60.7837 83.1525 61.537 83.08 62.6196C82.8085 63.4446 82.5297 64.1814 82.1694 64.9639C82.0727 65.1782 81.9759 65.3924 81.8762 65.6132C80.2302 69.1449 78.0885 72.2566 75.33 75.0196C74.9434 75.4116 74.9434 75.4116 74.549 75.8115C71.4944 78.7543 68.2099 80.4709 64.2475 81.8396C63.9801 81.9336 63.7126 82.0275 63.437 82.1244C61.6965 82.6902 59.7933 83.1962 57.97 82.7696C57.4145 82.1907 57.4145 82.1907 57.04 81.5296C57.0814 80.6807 57.2028 80.1791 57.7085 79.494C58.5148 78.8671 59.2539 78.7968 60.2563 78.6233C66.5087 77.3651 71.8315 74.1583 75.5027 68.8662C76.8724 66.791 77.9 64.59 78.8486 62.295C78.9431 62.0684 79.0375 61.8419 79.1348 61.6084C79.2567 61.3065 79.2567 61.3065 79.3811 60.9985C79.8803 60.0501 80.3015 59.5643 81.375 59.4033Z" fill="#4B231B"/>
</g>
<defs>
<clipPath id="clip0_233_1176">
<rect width="155" height="155" fill="white"/>
</clipPath>
</defs>
</svg>
