<svg width="186" height="186" viewBox="0 0 186 186" fill="none" xmlns="http://www.w3.org/2000/svg">
<path d="M87.2344 15.6244C66.6628 16.8892 45.9796 27.6028 33.034 43.6732C18.0424 62.2732 12.2392 85.6348 16.9264 108.587C23.9572 142.811 53.122 168.293 87.718 170.339C110.708 171.716 132.023 163.829 147.684 148.094C183.173 112.493 176.589 53.7916 134.106 27.1192C126.146 22.1344 116.846 18.5632 106.541 16.5544C104.086 16.0708 93.3352 15.1408 92.0704 15.3268C91.8844 15.3268 89.6896 15.4756 87.2344 15.6244ZM113.572 42.9664C118.892 52.7872 122.24 61.6408 123.765 70.1224C124.62 74.698 124.583 84.37 123.728 88.1272C121.607 97.6132 117.218 105.797 110.856 112.27C105.202 118.036 100.217 121.124 89.1688 125.699C82.5844 128.452 77.5624 130.907 74.7352 132.842C69.9736 136.078 65.7328 141.286 64.3564 145.601L63.6496 147.87V145.192C63.5752 139.24 66.0304 130.535 69.9736 122.612C73.8796 114.725 79.3108 107.099 89.3176 95.344C99.7708 83.068 106.244 74.512 109.517 68.6344L110.559 66.7744L108.736 68.6344C103.677 73.8796 83.4028 95.53 80.5756 98.692C73.8052 106.355 69.3412 112.642 66.0304 119.264C64.9516 121.421 63.9844 123.058 63.8728 122.872C63.3892 122.091 62.4964 117.738 62.1244 114.204C61.492 108.438 62.1616 99.25 63.6496 93.2236C66.6256 81.3568 71.4988 75.9256 87.4204 66.7744C95.2324 62.2732 98.878 59.6692 102.3 56.2096C107.434 51.0016 109.74 46.3888 110.038 40.6228C110.261 36.6052 110.001 36.4564 113.572 42.9664Z" fill="#914F3B"/>
</svg>
