<svg width="156" height="156" viewBox="0 0 156 156" fill="none" xmlns="http://www.w3.org/2000/svg">
<path d="M68.1589 1.13068C54.123 2.95982 39.7512 8.96988 29.1123 17.481C25.8273 20.0941 20.1533 25.6935 17.4656 28.9785C8.54385 39.8788 2.6458 53.3921 0.55536 67.5773C-0.191228 72.8408 -0.191228 83.8903 0.592689 89.1538C3.87767 111.776 16.4203 131.411 35.533 143.842C43.1482 148.806 53.4138 152.913 63.0074 154.779C67.7482 155.712 68.8308 155.787 77.6405 155.787C86.4502 155.787 87.5328 155.712 92.2736 154.779C102.054 152.838 112.581 148.62 120.383 143.431C139.458 130.776 152.075 110.394 154.875 87.698C155.472 82.9944 155.398 72.2062 154.726 67.5773C151.478 45.2916 139.01 25.5815 120.42 13.3374C110.864 7.02875 98.545 2.58653 86.5996 1.09334C82.904 0.645386 71.8545 0.682724 68.1589 1.13068ZM125.982 38.9829C131.693 50.4804 134.232 59.2155 134.642 68.8839C134.792 72.9528 134.717 75.0059 134.195 77.9923C131.768 92.7001 123.033 105.168 110.042 112.597C108.251 113.642 104.032 115.583 100.71 117.002C87.9061 122.265 83.7625 124.729 79.2457 129.656C76.67 132.456 74.9155 135.517 74.0942 138.653C73.7956 139.847 73.4223 140.93 73.3103 141.042C72.8997 141.415 73.5343 133.277 74.1316 130.254C75.1021 125.289 76.9686 120.137 79.7683 114.538C83.9865 106.064 89.2126 98.6729 99.3662 86.7647C109.818 74.446 115.903 66.4201 119.449 60.2607L120.308 58.7675L119.375 59.7008C117.583 61.4553 94.9987 85.6448 91.639 89.3778C84.2478 97.5903 79.2457 104.571 75.9234 111.328C73.9822 115.285 73.9076 115.397 73.5343 114.351C71.9665 110.245 71.2945 101.174 72.0038 93.8573C73.385 79.9707 76.9313 72.6541 85.629 65.8602C89.1753 63.1351 91.0418 61.9406 97.7984 58.021C108.139 52.0482 113.29 47.83 116.538 42.5292C118.964 38.6096 119.972 35.2872 120.009 31.2556V28.008L121.241 29.9491C121.913 31.0317 124.041 35.0633 125.982 38.9829ZM32.4346 42.8278C34.2638 47.7553 38.7433 52.0482 46.8065 56.7891C59.8717 64.4043 63.978 68.5106 66.2177 76.1258C68.3082 83.1064 68.5322 93.2601 66.7777 99.7927L66.3671 101.323L64.7619 98.0756C61.2903 91.0576 57.2214 85.9435 43.2975 71.0863C37.9221 65.3375 33.1066 60.2234 32.584 59.7008L31.6507 58.7675L32.0987 59.7008C33.9278 63.2471 38.5567 69.3318 48.449 81.1653C61.0289 96.1344 66.0311 106.101 66.6284 117.114L66.815 120.735L66.1057 118.607C65.1352 115.658 63.754 113.418 61.5889 111.253C58.2666 107.931 55.6908 106.437 46.0225 102.331C39.0419 99.3448 36.7649 98.0756 33.1439 95.0146C23.3636 86.802 18.4361 73.2514 20.7132 60.5967C21.8704 53.9147 24.5955 46.8967 29.0377 38.8709L31.1654 35.0259L31.3894 37.863C31.5387 39.3935 31.9867 41.6333 32.4346 42.8278Z" fill="#606C38"/>
</svg>
