<svg width="155" height="155" viewBox="0 0 155 155" fill="none" xmlns="http://www.w3.org/2000/svg">
<g clip-path="url(#clip0_233_1097)">
<path d="M0 78.0813C0 35.2792 34.1167 0 76.9187 0C119.721 0 155 34.1167 155 76.9187C155 119.721 120.883 155 78.0813 155C35.2792 155 0 120.883 0 78.0813Z" fill="#DDA15E"/>
<path d="M93.6199 37.5098C93.9268 37.6121 94.2337 37.7144 94.5499 37.8198C94.5543 38.0523 94.5587 38.2849 94.5632 38.5245C94.6614 40.6315 95.0123 42.1619 96.0514 44.0016C97.4679 46.5235 96.8362 50.0306 96.0999 52.6998C96.2869 52.5727 96.4739 52.4456 96.6666 52.3147C96.9144 52.1476 97.1621 51.9806 97.4174 51.8085C97.6619 51.6431 97.9065 51.4776 98.1585 51.3072C100.243 49.9753 102.166 49.8619 104.586 49.8904C104.814 49.8918 105.042 49.8932 105.278 49.8946C105.835 49.8982 106.392 49.9038 106.95 49.9098C107.154 49.0914 107.359 48.273 107.57 47.4298C107.979 47.4298 108.388 47.4298 108.81 47.4298C108.503 48.9643 108.503 48.9643 108.19 50.5298C107.883 50.6321 107.576 50.7344 107.26 50.8398C107.225 51.0675 107.19 51.2953 107.155 51.53C106.565 54.0075 104.577 55.8608 102.61 57.3498C102.303 57.5032 102.303 57.5032 101.99 57.6598C103.627 57.7621 105.263 57.8644 106.95 57.9698C107.257 57.1514 107.564 56.333 107.88 55.4898C108.187 55.4898 108.494 55.4898 108.81 55.4898C108.766 55.9355 108.72 56.3811 108.674 56.8266C108.636 57.1989 108.636 57.1989 108.598 57.5786C108.5 58.2798 108.5 58.2798 108.19 59.2098C107.883 59.3632 107.883 59.3632 107.57 59.5198C107.292 60.0817 107.03 60.6515 106.776 61.2248C105.659 63.5301 104.119 65.2303 101.99 66.6498C103.627 66.7521 105.263 66.8544 106.95 66.9598C107.154 66.2437 107.359 65.5276 107.57 64.7898C107.877 64.7898 108.184 64.7898 108.5 64.7898C108.539 67.1923 108.539 67.1923 108.19 67.8898C107.985 67.8898 107.781 67.8898 107.57 67.8898C107.524 68.0624 107.479 68.235 107.432 68.4129C106.529 71.4837 104.902 73.2249 102.3 75.0198C103.834 75.1221 105.369 75.2244 106.95 75.3298C107.257 74.6137 107.564 73.8976 107.88 73.1598C108.187 73.1598 108.494 73.1598 108.81 73.1598C108.783 73.6574 108.749 74.1546 108.713 74.6516C108.686 75.067 108.686 75.067 108.659 75.4908C108.474 76.3848 108.232 76.5917 107.57 77.1898C107.312 77.6346 107.067 78.0875 106.834 78.546C105.815 80.4235 104.363 81.6469 102.75 83.0071C102.314 83.3674 102.314 83.3674 101.99 83.6998C102.244 83.6962 102.498 83.6926 102.76 83.6889C103.094 83.6861 103.428 83.6833 103.772 83.6804C104.269 83.675 104.269 83.675 104.775 83.6695C105.565 83.6951 106.199 83.7784 106.95 84.0098C107.154 83.2937 107.359 82.5776 107.57 81.8398C107.877 81.8398 108.184 81.8398 108.5 81.8398C108.591 83.6864 108.591 83.6864 108.5 84.3198C108.201 84.6405 107.89 84.95 107.57 85.2498C107.239 85.8882 107.239 85.8882 106.969 86.5866C105.595 89.773 103.488 91.8199 100.355 93.2892C98.4779 94.0234 96.5693 94.5498 94.5499 94.5498C94.5607 94.7803 94.5715 95.0109 94.5826 95.2485C94.7055 100.208 93.9849 105.264 92.6899 110.05C92.8142 109.84 92.9384 109.629 93.0665 109.413C94.781 106.606 96.8486 104.279 99.1999 101.99C99.3501 101.826 99.5004 101.661 99.6552 101.492C102.671 98.2695 106.862 95.9235 111.304 95.7498C113.044 95.8258 113.95 96.3102 115.242 97.5141C117.443 100.528 116.97 104.343 116.87 107.88C116.323 106.829 115.991 105.806 115.669 104.664C115.109 102.816 114.572 101.58 113.227 100.188C111.734 99.3997 110.289 99.3628 108.694 99.8004C102.906 102.008 99.6241 108.323 97.1679 113.612C96.6304 114.859 96.6304 114.859 96.0999 116.87C93.2355 116.87 90.3711 116.87 87.4199 116.87C86.8061 114.875 86.8061 114.875 86.1799 112.84C84.594 109.539 82.7931 107.418 79.3599 106.02C75.8738 104.858 72.4159 106.065 69.1299 107.26C69.197 107.744 69.197 107.744 69.2655 108.238C69.6745 111.341 69.8257 114.362 69.7499 117.49C69.443 117.49 69.1361 117.49 68.8199 117.49C68.8199 117.285 68.8199 117.081 68.8199 116.87C68.4267 116.924 68.4267 116.924 68.0255 116.979C65.1892 117.204 65.1892 117.204 64.0573 116.256C63.4451 115.445 62.8799 114.611 62.3099 113.77C59.4567 110.65 55.4137 109.123 51.2673 108.733C47.274 108.625 43.0337 109.661 39.6024 111.716C39.1804 111.965 39.1804 111.965 38.7499 112.22C38.5453 112.117 38.3407 112.015 38.1299 111.91C41.5269 107.901 45.5788 104.476 50.9646 103.749C56.2596 103.5 60.4156 106.649 64.1614 109.972C65.741 111.469 66.9603 113.229 68.1999 115.01C68.3963 111.279 67.3934 107.727 66.224 104.219C65.9295 103.33 65.7199 102.624 65.7199 101.68C65.5091 101.686 65.2983 101.693 65.0812 101.699C64.1123 101.725 63.1434 101.741 62.1743 101.757C61.8428 101.768 61.5113 101.778 61.1698 101.789C58.9758 101.816 57.4015 101.523 55.4899 100.44C55.2201 100.294 54.9504 100.149 54.6725 99.999C53.2091 99.0513 52.2178 98.1064 51.2698 96.6374C50.7731 96.0162 50.3144 95.8085 49.5999 95.4798C48.9587 94.5501 48.9181 93.8017 48.9799 92.6898C49.5611 92.7479 49.5611 92.7479 50.2199 92.9998C50.6074 93.7941 50.6074 93.7941 50.8399 94.5498C51.1404 94.4091 51.4409 94.2684 51.7505 94.1235C53.0613 93.5568 54.4021 93.2692 55.7999 92.9998C55.6049 92.9318 55.4099 92.8639 55.2089 92.7939C52.5135 91.7953 50.5542 90.4895 48.8007 88.1996C48.2919 87.6573 47.7864 87.4273 47.1199 87.1098C46.5494 86.3219 46.4834 85.991 46.6161 85.0173C46.6801 84.7871 46.744 84.5569 46.8099 84.3198C48.0111 85.4823 48.0111 85.4823 48.3599 86.1798C48.5397 86.1198 48.7195 86.0599 48.9048 85.9981C50.2732 85.542 51.6415 85.0859 53.0099 84.6298C52.8185 84.569 52.6271 84.5083 52.4298 84.4457C50.2879 83.6893 48.6154 82.6406 47.1199 80.9098C46.7324 80.056 46.7324 80.056 46.4999 79.3598C46.193 79.3598 45.8861 79.3598 45.5699 79.3598C44.5709 77.7553 44.5709 77.7553 44.3299 77.1898C44.4833 76.7294 44.4833 76.7294 44.6399 76.2598C45.2018 76.3179 45.2018 76.3179 45.8799 76.5698C46.2053 77.0769 46.5168 77.5933 46.8099 78.1198C47.0417 78.0338 47.2734 77.9479 47.5122 77.8594C47.8175 77.7471 48.1228 77.6348 48.4374 77.5191C48.7395 77.4076 49.0416 77.2962 49.3529 77.1813C50.0539 76.9375 50.737 76.7333 51.4599 76.5698C51.1718 76.4383 50.8836 76.3068 50.5868 76.1714C47.7892 74.8587 45.4873 73.707 44.3299 70.6798C44.0422 70.6222 44.0422 70.6222 43.7486 70.5635C42.9169 70.3189 42.8123 70.0531 42.373 69.3235C41.8499 68.1998 41.8499 68.1998 42.1599 67.2698C43.347 67.7201 43.7472 68.3327 44.3299 69.4398C45.2224 69.1492 46.1007 68.8577 46.9649 68.4904C47.8377 68.1631 48.6786 68.0183 49.5999 67.8898C49.4085 67.8218 49.2171 67.7539 49.0198 67.6839C46.1681 66.6161 44.0494 65.3194 42.1599 62.9298C41.853 62.8275 41.5461 62.7252 41.2299 62.6198C39.9899 60.7421 39.9899 60.7421 39.9899 59.2098C40.5518 59.2679 40.5518 59.2679 41.2299 59.5198C42.1599 60.8151 42.1599 60.8151 42.1599 61.6898C42.404 61.6003 42.6482 61.5107 42.8998 61.4185C46.3457 60.244 49.355 59.831 52.7229 61.4185C53.3047 61.7325 53.3047 61.7325 53.9399 61.6898C53.8164 61.5279 53.6929 61.3661 53.5657 61.1993C51.7366 58.6582 50.7728 55.856 51.1499 52.6998C51.2586 52.3737 51.3673 52.0476 51.4793 51.7116C51.9329 49.8667 51.6524 48.0653 51.4599 46.1898C51.7668 46.1898 52.0737 46.1898 52.3899 46.1898C52.7553 47.0511 53.0262 47.8244 53.2036 48.7473C53.6319 49.9153 53.993 50.3666 54.8311 51.2466C57.3592 53.9766 57.5642 56.8616 57.6599 60.4498C57.7957 60.2699 57.9316 60.0901 58.0716 59.9048C60.2384 57.236 62.9657 55.7823 66.3399 55.1798C66.7491 55.1798 67.1583 55.1798 67.5799 55.1798C67.5799 54.1568 67.5799 53.1338 67.5799 52.0798C67.9891 52.0798 68.3983 52.0798 68.8199 52.0798C68.8199 53.2051 68.8199 54.3304 68.8199 55.4898C68.6153 55.4898 68.4107 55.4898 68.1999 55.4898C68.1871 55.8734 68.1743 56.257 68.1611 56.6523C67.8587 59.3875 66.3443 61.8856 64.4799 63.8598C64.8347 63.7063 64.8347 63.7063 65.1968 63.5498C66.7279 63.1345 68.1734 63.1893 69.7499 63.2398C69.7499 62.2168 69.7499 61.1938 69.7499 60.1398C70.1591 60.1398 70.5683 60.1398 70.9899 60.1398C71.0068 60.6692 71.0187 61.1989 71.0286 61.7285C71.0358 62.0234 71.043 62.3183 71.0504 62.6222C70.9833 63.6506 70.7212 64.4431 70.3699 65.4098C70.282 65.7318 70.1941 66.0539 70.1035 66.3858C69.4917 68.6023 68.766 70.1843 67.2699 71.9198C67.0653 72.2267 66.8607 72.5336 66.6499 72.8498C66.944 72.6963 67.2381 72.5429 67.5411 72.3848C68.9798 71.7555 70.3773 71.836 71.9199 71.9198C71.9199 70.9991 71.9199 70.0784 71.9199 69.1298C72.5337 69.2832 72.5337 69.2832 73.1599 69.4398C73.1599 70.3605 73.1599 71.2812 73.1599 72.2298C72.9553 72.2298 72.7507 72.2298 72.5399 72.2298C72.5655 72.6326 72.591 73.0354 72.6174 73.4504C72.6088 76.2004 71.1247 78.2286 69.4399 80.2898C70.3716 80.2898 71.2373 80.0228 72.1403 79.8054C72.8499 79.6698 72.8499 79.6698 74.0899 79.6698C74.0899 78.9537 74.0899 78.2376 74.0899 77.4998C74.6905 77.3254 74.6905 77.3254 75.3299 77.1898C75.9173 77.7772 75.6957 78.6069 75.7113 79.3876C75.6399 79.9798 75.6399 79.9798 75.0199 80.5998C74.8806 81.2098 74.7609 81.8243 74.6518 82.4404C74.177 84.6454 73.2286 86.2296 71.9199 88.0398C71.7153 88.3467 71.5107 88.6536 71.2999 88.9698C71.5057 88.9026 71.7115 88.8355 71.9235 88.7663C72.3341 88.6368 72.3341 88.6368 72.753 88.5048C73.1576 88.3753 73.1576 88.3753 73.5704 88.2432C74.398 88.0402 75.1017 88.0031 75.9499 88.0398C75.9499 87.3237 75.9499 86.6076 75.9499 85.8698C76.5505 85.6954 76.5505 85.6954 77.1899 85.5598C77.4999 85.8698 77.4999 85.8698 77.5302 86.5103C77.5266 86.7657 77.523 87.021 77.5193 87.2841C77.5165 87.5403 77.5137 87.7964 77.5108 88.0603C77.5072 88.2582 77.5036 88.456 77.4999 88.6598C77.2953 88.6598 77.0907 88.6598 76.8799 88.6598C76.9055 88.9411 76.931 89.2224 76.9574 89.5123C76.9391 92.5233 75.534 95.2267 73.4699 97.3398C71.7792 98.8697 69.3356 101.06 66.9599 101.06C67.4714 102.799 67.9829 104.538 68.5099 106.33C69.3473 106.33 69.6233 105.996 70.2924 105.497C73.6683 103.184 77.7932 102.22 81.8399 102.61C84.7585 103.364 86.8684 104.845 88.5134 107.365C89.4248 108.953 90.2099 110.363 90.2099 112.22C90.4145 112.22 90.6191 112.22 90.8299 112.22C90.8455 112.046 90.8611 111.872 90.8773 111.693C91.0134 110.319 91.2159 109.013 91.561 107.672C92.6595 103.383 92.9323 98.9482 93.3099 94.5498C93.128 94.5335 92.9462 94.5171 92.7588 94.5003C89.0409 94.1335 85.4042 92.7357 82.8086 89.9579C81.6353 88.5155 80.5999 86.8358 80.5999 84.9398C80.293 84.9398 79.9861 84.9398 79.6699 84.9398C79.2116 84.0232 79.3412 83.1596 79.3599 82.1498C79.7691 82.1498 80.1783 82.1498 80.5999 82.1498C80.7022 82.7636 80.8045 83.3774 80.9099 84.0098C81.0713 83.959 81.2328 83.9083 81.3991 83.856C82.3593 83.6562 83.2623 83.6706 84.2424 83.6804C84.7866 83.6846 84.7866 83.6846 85.3419 83.6889C85.6184 83.6925 85.895 83.6961 86.1799 83.6998C85.9545 83.5469 85.9545 83.5469 85.7246 83.391C83.4613 81.7849 81.3188 79.8263 80.2899 77.1898C80.2899 76.9852 80.2899 76.7806 80.2899 76.5698C79.983 76.4675 79.6761 76.3652 79.3599 76.2598C79.2576 75.2368 79.1553 74.2138 79.0499 73.1598C79.3568 73.1598 79.6637 73.1598 79.9799 73.1598C80.3694 74.0606 80.5999 74.6465 80.5999 75.6398C82.2367 75.4352 83.8735 75.2306 85.5599 75.0198C85.1379 74.7193 84.7159 74.4188 84.2811 74.1091C82.2429 72.526 81.0431 70.5287 79.9799 68.1998C79.89 68.0175 79.8001 67.8353 79.7074 67.6476C79.0271 66.2076 79.0271 66.2076 79.1468 65.2741C79.2523 65.0344 79.2523 65.0344 79.3599 64.7898C79.6668 64.7898 79.9737 64.7898 80.2899 64.7898C80.5968 66.0174 80.5968 66.0174 80.9099 67.2698C82.5467 67.0652 84.1835 66.8606 85.8699 66.6498C85.3967 66.247 84.9236 65.8442 84.4361 65.4291C82.6909 63.8547 81.2095 62.2896 80.6386 59.9654C80.6258 59.716 80.6131 59.4667 80.5999 59.2098C80.293 59.2098 79.9861 59.2098 79.6699 59.2098C79.505 58.7654 79.3443 58.3195 79.1855 57.8729C79.0506 57.5007 79.0506 57.5007 78.913 57.1209C78.7399 56.4198 78.7399 56.4198 79.0499 55.4898C79.4591 55.5921 79.8683 55.6944 80.2899 55.7998C80.4945 56.5159 80.6991 57.232 80.9099 57.9698C83.3651 57.8163 83.3651 57.8163 85.8699 57.6598C85.4543 57.3657 85.0387 57.0715 84.6105 56.7685C82.9472 55.4757 81.1269 53.719 80.7743 51.5591C80.7167 51.3217 80.6592 51.0843 80.5999 50.8398C80.1878 50.6305 79.7745 50.4238 79.3599 50.2198C79.171 49.5489 79.171 49.5489 79.1274 48.786C79.1098 48.5327 79.0922 48.2793 79.0741 48.0183C79.0621 47.727 79.0621 47.727 79.0499 47.4298C79.4591 47.4298 79.8683 47.4298 80.2899 47.4298C80.5968 48.6574 80.5968 48.6574 80.9099 49.9098C81.1648 49.9026 81.4198 49.8954 81.6825 49.888C85.7001 49.823 88.97 50.2974 92.0699 53.0098C92.0027 52.8363 91.9356 52.6629 91.8664 52.4842C90.6558 48.998 90.7688 45.8877 92.3205 42.5412C92.6899 41.8498 92.6899 41.8498 92.9999 41.5398C93.0646 40.921 93.1139 40.3006 93.1549 39.6798C93.2754 37.8542 93.2754 37.8542 93.6199 37.5098Z" fill="#FAFAFA"/>
<path d="M58.5898 93.3096C60.2266 93.3096 61.8634 93.3096 63.5498 93.3096C63.7544 94.4349 63.959 95.5602 64.1698 96.7196C63.8246 96.4382 63.4793 96.1569 63.1236 95.8671C61.719 94.8048 60.2437 94.1957 58.5898 93.6196C58.5898 93.5173 58.5898 93.415 58.5898 93.3096Z" fill="#DDA15E"/>
<path d="M88.9697 84.9404C89.1531 84.9816 89.3366 85.0227 89.5255 85.0652C89.7705 85.1199 90.0155 85.1746 90.2679 85.2311C90.5088 85.285 90.7498 85.3389 90.998 85.3945C91.7667 85.562 92.5383 85.7161 93.3097 85.8704C93.3097 86.9957 93.3097 88.121 93.3097 89.2804C92.5901 88.5875 91.9452 87.8871 91.3141 87.1104C90.5866 86.2587 89.8657 85.606 88.9697 84.9404Z" fill="#DDA15E"/>
<path d="M89.5898 59.21C90.0938 59.3578 90.5975 59.5065 91.1011 59.6556C91.3816 59.7383 91.6621 59.821 91.9512 59.9062C92.6898 60.14 92.6898 60.14 93.3098 60.45C93.3098 61.5753 93.3098 62.7006 93.3098 63.86C93.15 63.6554 92.9902 63.4508 92.8255 63.24C92.0301 62.261 91.2012 61.3192 90.3612 60.3785C89.8998 59.83 89.8998 59.83 89.5898 59.21Z" fill="#DDA15E"/>
<path d="M89.5898 76.5703C90.152 76.6657 90.7138 76.7629 91.2755 76.8609C91.7448 76.9419 91.7448 76.9419 92.2236 77.0244C92.9998 77.1903 92.9998 77.1903 93.3098 77.5003C93.3322 78.023 93.3358 78.5466 93.3292 79.0697C93.3264 79.3546 93.3236 79.6395 93.3207 79.9331C93.3171 80.1533 93.3135 80.3735 93.3098 80.6003C93.1564 80.3893 93.0029 80.1783 92.8448 79.9609C92.0009 78.9693 91.0838 78.166 90.0888 77.3308C89.9241 77.1821 89.7595 77.0335 89.5898 76.8803C89.5898 76.778 89.5898 76.6757 89.5898 76.5703Z" fill="#DDA15E"/>
<path d="M53.3203 68.5098C54.5479 68.5098 55.7755 68.5098 57.0403 68.5098C57.2449 69.5328 57.4495 70.5558 57.6603 71.6098C57.2895 71.322 56.9186 71.0343 56.5366 70.7379C55.5108 69.9659 54.4954 69.3485 53.3203 68.8198C53.3203 68.7175 53.3203 68.6152 53.3203 68.5098Z" fill="#DDA15E"/>
<path d="M98.2698 85.5599C98.1052 85.7022 97.9405 85.8445 97.7709 85.991C96.663 86.9534 95.5671 87.9103 94.5498 88.9699C94.5498 88.0492 94.5498 87.1285 94.5498 86.1799C94.9942 86.015 95.4401 85.8544 95.8867 85.6956C96.2589 85.5607 96.2589 85.5607 96.6387 85.4231C97.3398 85.2499 97.3398 85.2499 98.2698 85.5599Z" fill="#DDA15E"/>
<path d="M55.1797 76.8799C56.5096 76.8799 57.8395 76.8799 59.2097 76.8799C59.4143 77.8006 59.6189 78.7213 59.8297 79.6699C59.6239 79.5428 59.4181 79.4157 59.2061 79.2848C58.9323 79.1178 58.6586 78.9507 58.3766 78.7786C58.1068 78.6132 57.8371 78.4478 57.5592 78.2773C56.7812 77.8389 56.0158 77.5002 55.1797 77.1899C55.1797 77.0876 55.1797 76.9853 55.1797 76.8799Z" fill="#DDA15E"/>
<path d="M57.6602 85.25C58.8878 85.25 60.1154 85.25 61.3802 85.25C61.5848 86.1707 61.7894 87.0914 62.0002 88.04C59.8519 86.8124 59.8519 86.8124 57.6602 85.56C57.6602 85.4577 57.6602 85.3554 57.6602 85.25Z" fill="#DDA15E"/>
<path d="M67.27 91.4502C67.4746 91.5525 67.6792 91.6548 67.89 91.7602C67.7594 91.9768 67.6287 92.1934 67.4941 92.4165C67.3242 92.6986 67.1544 92.9808 66.9794 93.2714C66.8104 93.552 66.6413 93.8325 66.4672 94.1215C66.204 94.5663 65.9512 95.0179 65.72 95.4802C65.5154 95.4802 65.3108 95.4802 65.1 95.4802C64.9977 94.6618 64.8954 93.8434 64.79 93.0002C65.1885 92.7324 65.5894 92.4683 65.9913 92.2058C66.3258 91.9846 66.3258 91.9846 66.667 91.759C66.866 91.6571 67.065 91.5552 67.27 91.4502Z" fill="#DDA15E"/>
<path d="M97.9598 59.8297C97.736 60.0407 97.5122 60.2517 97.2817 60.4691C96.6244 61.1207 96.0865 61.8026 95.5573 62.5616C95.3271 62.8877 95.097 63.2137 94.8598 63.5497C94.7575 63.5497 94.6552 63.5497 94.5498 63.5497C94.5498 62.5267 94.5498 61.5037 94.5498 60.4497C97.2623 59.481 97.2623 59.481 97.9598 59.8297Z" fill="#DDA15E"/>
<path d="M97.6498 77.1899C96.6165 78.2232 95.5831 79.2565 94.5498 80.2899C94.5498 79.3692 94.5498 78.4485 94.5498 77.4999C95.7399 77.0401 96.429 76.8104 97.6498 77.1899Z" fill="#DDA15E"/>
<path d="M89.5898 68.2002C91.4312 68.5071 91.4312 68.5071 93.3098 68.8202C93.3098 69.8432 93.3098 70.8662 93.3098 71.9202C92.0698 70.6802 90.8298 69.4402 89.5898 68.2002Z" fill="#DDA15E"/>
<path d="M64.7901 83.3896C64.9947 83.4919 65.1993 83.5942 65.4101 83.6996C64.7963 84.8249 64.1825 85.9502 63.5501 87.1096C63.3455 87.1096 63.1409 87.1096 62.9301 87.1096C62.8278 86.2912 62.7255 85.4728 62.6201 84.6296C64.2549 83.6306 64.2549 83.6306 64.7901 83.3896Z" fill="#DDA15E"/>
<path d="M60.7598 66.96C60.6767 67.1646 60.5936 67.3692 60.508 67.58C60.0602 68.7113 59.6349 69.8499 59.2098 70.99C58.617 70.323 58.3028 69.852 58.1055 68.975C58.2798 68.2 58.2798 68.2 59.1711 67.4831C60.1398 66.96 60.1398 66.96 60.7598 66.96Z" fill="#DDA15E"/>
<path d="M62.9302 75.0195C63.1348 75.1218 63.3394 75.2241 63.5502 75.3295C63.3712 75.5405 63.1921 75.7515 63.0077 75.9689C62.2487 76.9598 61.6702 77.9567 61.0702 79.0495C60.9679 79.0495 60.8656 79.0495 60.7602 79.0495C60.6579 78.2311 60.5556 77.4127 60.4502 76.5695C60.8486 76.3018 61.2495 76.0376 61.6514 75.7752C61.9859 75.554 61.9859 75.554 62.3271 75.3283C62.5262 75.2264 62.7252 75.1245 62.9302 75.0195Z" fill="#DDA15E"/>
<path d="M97.6498 68.8198C97.5039 68.9433 97.3581 69.0668 97.2078 69.194C96.9183 69.4403 96.9183 69.4403 96.6229 69.6917C96.4323 69.8535 96.2417 70.0154 96.0453 70.1821C95.525 70.64 95.0338 71.1139 94.5498 71.6098C94.5498 70.7914 94.5498 69.973 94.5498 69.1298C96.6036 68.471 96.6036 68.471 97.6498 68.8198Z" fill="#DDA15E"/>
<path d="M41.2299 108.5C41.4345 108.602 41.6391 108.705 41.8499 108.81C40.7757 109.731 40.7757 109.731 39.6799 110.67C40.1813 109.667 40.4475 109.211 41.2299 108.5ZM39.0599 110.98C39.2645 111.185 39.4691 111.389 39.6799 111.6C39.1684 111.805 38.6569 112.009 38.1299 112.22C38.4368 111.811 38.7437 111.402 39.0599 110.98Z" fill="#D3D3D3"/>
</g>
<defs>
<clipPath id="clip0_233_1097">
<rect width="155" height="155" fill="white"/>
</clipPath>
</defs>
</svg>
